<svg xmlns="http://www.w3.org/2000/svg" width="169.892" height="40" viewBox="0 0 169.892 40">
  <defs>
    <style>
      .cls-1, .cls-2, .cls-3, .cls-4 {
        fill: #fff;
      }

      .cls-2 {
        opacity: 0.8;
      }

      .cls-3 {
        opacity: 0.35;
      }

      .cls-4 {
        opacity: 0.5;
      }

      .cls-5 {
        fill: #004343;
      }
    </style>
  </defs>
  <g id="amsofipo-logo-footer" transform="translate(-6966.565 -533.48)">
    <path id="Trazado_10076" data-name="Trazado 10076" class="cls-1" d="M6994.834,538.547l-7.21,18.8h3.1l1.8-5.079h7.21l1.92,5.079h3.078l-7.236-18.8Zm1.288,3.89,2.665,7.24h-5.31Z" transform="translate(25.144 6.05)"/>
    <path id="Trazado_10077" data-name="Trazado 10077" class="cls-1" d="M7020.635,538.409a8.607,8.607,0,0,0-6.683,2.714,10.344,10.344,0,0,0-2.451,7.2,9.782,9.782,0,0,0,2.407,6.837,8.309,8.309,0,0,0,6.421,2.65,8.455,8.455,0,0,0,6.543-2.688,10.377,10.377,0,0,0,2.44-7.24,9.822,9.822,0,0,0-2.383-6.837A8.126,8.126,0,0,0,7020.635,538.409Zm-.153,2.6a5.353,5.353,0,0,1,4.342,1.839,8.024,8.024,0,0,1,1.586,5.327,7.662,7.662,0,0,1-1.633,5.222,5.648,5.648,0,0,1-4.447,1.832,5.292,5.292,0,0,1-4.271-1.922,8.827,8.827,0,0,1,.044-10.356A5.471,5.471,0,0,1,7020.481,541.007Z" transform="translate(53.654 5.885)"/>
    <path id="Trazado_10078" data-name="Trazado 10078" class="cls-1" d="M7020.743,557.343h2.8v-8.024h6.545v-2.585h-6.545v-5.589h7.074v-2.6h-9.875Z" transform="translate(64.689 6.05)"/>
    <rect id="Rectángulo_4813" data-name="Rectángulo 4813" class="cls-1" width="2.8" height="18.796" transform="translate(7098.927 544.597)"/>
    <path id="Trazado_10079" data-name="Trazado 10079" class="cls-1" d="M7039.639,540.048a6.917,6.917,0,0,0-4.728-1.5h-5.319v18.8h2.8V550.5h2.048a7.14,7.14,0,0,0,5.026-1.733,5.832,5.832,0,0,0,1.884-4.469A5.4,5.4,0,0,0,7039.639,540.048Zm-7.246,1.1h2.151c2.628,0,3.905,1.064,3.905,3.249a3.2,3.2,0,0,1-1.038,2.58,4.675,4.675,0,0,1-3.133.924h-1.886Z" transform="translate(75.254 6.05)"/>
    <path id="Trazado_10080" data-name="Trazado 10080" class="cls-1" d="M7045.016,538.409a8.611,8.611,0,0,0-6.683,2.714,10.344,10.344,0,0,0-2.451,7.2,9.782,9.782,0,0,0,2.407,6.837,8.309,8.309,0,0,0,6.421,2.65,8.46,8.46,0,0,0,6.544-2.688,10.381,10.381,0,0,0,2.438-7.24,9.829,9.829,0,0,0-2.38-6.837A8.133,8.133,0,0,0,7045.016,538.409Zm5.777,9.763a7.668,7.668,0,0,1-1.635,5.222,5.65,5.65,0,0,1-4.448,1.832,5.3,5.3,0,0,1-4.271-1.922,8.827,8.827,0,0,1,.044-10.356,5.474,5.474,0,0,1,4.38-1.942,5.351,5.351,0,0,1,4.342,1.839A8.03,8.03,0,0,1,7050.793,548.172Z" transform="translate(82.765 5.885)"/>
    <g id="Grupo_3685" data-name="Grupo 3685" transform="translate(6966.565 533.48)">
      <rect id="Rectángulo_4814" data-name="Rectángulo 4814" class="cls-2" width="7.979" height="7.922" transform="matrix(0.707, -0.707, 0.707, 0.707, 14.332, 26.157)"/>
      <rect id="Rectángulo_4815" data-name="Rectángulo 4815" class="cls-2" width="8.023" height="7.996" transform="translate(20.474 20.015) rotate(-45)"/>
      <rect id="Rectángulo_4816" data-name="Rectángulo 4816" class="cls-2" width="8.026" height="8.003" transform="translate(14.316 13.856) rotate(-45)"/>
      <path id="Trazado_10081" data-name="Trazado 10081" class="cls-2" d="M6975.949,551.324l5.642-5.642-5.658-5.659-5.642,5.642h0Z" transform="translate(-6962.117 -525.668)"/>
      <rect id="Rectángulo_4817" data-name="Rectángulo 4817" class="cls-3" width="11.561" height="7.915" transform="matrix(0.707, -0.707, 0.707, 0.707, 6.162, 34.337)"/>
      <rect id="Rectángulo_4818" data-name="Rectángulo 4818" class="cls-4" width="11.56" height="8.002" transform="matrix(0.707, -0.707, 0.707, 0.707, 0, 28.172)"/>
      <rect id="Rectángulo_4819" data-name="Rectángulo 4819" class="cls-3" width="11.56" height="8.007" transform="translate(19.991 8.174) rotate(-45)"/>
      <path id="Trazado_10082" data-name="Trazado 10082" class="cls-4" d="M6984.139,550.117l0-.006,0,0,8.166-8.166-5.657-5.656-8.171,8.172Z" transform="translate(-6952.335 -530.124)"/>
      <rect id="Rectángulo_4820" data-name="Rectángulo 4820" class="cls-3" width="7.953" height="11.56" transform="matrix(0.707, -0.707, 0.707, 0.707, 0.017, 11.804)"/>
      <rect id="Rectángulo_4821" data-name="Rectángulo 4821" class="cls-4" width="8.028" height="11.56" transform="matrix(0.707, -0.707, 0.707, 0.707, 6.14, 5.681)"/>
      <path id="Trazado_10083" data-name="Trazado 10083" class="cls-3" d="M6984.151,542.6l-5.675,5.676,8.17,8.17,5.681-5.681-8.172-8.172-.006.006Z" transform="translate(-6952.343 -522.602)"/>
      <path id="Trazado_10084" data-name="Trazado 10084" class="cls-5" d="M6981.063,542.6l0,0,0,0,0,0Z" transform="translate(-6949.258 -522.6)"/>
      <path id="Trazado_10085" data-name="Trazado 10085" class="cls-4" d="M6981.294,545.384l-5.643,5.642,8.216,8.242,5.654-5.656Z" transform="translate(-6955.718 -519.267)"/>
    </g>
    <g id="Grupo_3687" data-name="Grupo 3687" transform="translate(7052.351 544.294)">
      <g id="Grupo_3686" data-name="Grupo 3686">
        <path id="Trazado_10086" data-name="Trazado 10086" class="cls-1" d="M7007.153,540.718a.444.444,0,0,1,.023-.055,2.383,2.383,0,0,1,.777-.744c.077-.046.167-.081.25-.123a2.9,2.9,0,0,0-1.051.921c-.026.042-.039.092-.064.138" transform="translate(-7003.965 -536.752)"/>
        <path id="Trazado_10087" data-name="Trazado 10087" class="cls-1" d="M7009.173,542.088a1.843,1.843,0,0,0-.581,1.3v.009a2.247,2.247,0,0,0,.222,1.047,2.58,2.58,0,0,0,.678.816,7.382,7.382,0,0,0,1.175.77c.483.261,1.036.546,1.664.856.658.323,1.288.669,1.872,1.025a8.751,8.751,0,0,1,1.59,1.224,5.555,5.555,0,0,1,1.11,1.518,4.375,4.375,0,0,1,.419,1.944,4.909,4.909,0,0,1-.567,2.435,4.682,4.682,0,0,1-1.525,1.626,6.579,6.579,0,0,1-2.166.888,11.752,11.752,0,0,1-2.522.266,10.617,10.617,0,0,1-1.1-.07c-.426-.048-.871-.116-1.318-.208a11.073,11.073,0,0,1-1.285-.338,4.341,4.341,0,0,1-1.023-.476l-.148-.1V553.7h0a14.052,14.052,0,0,0,2.95,1.167,9.565,9.565,0,0,0,1.071.25,7.142,7.142,0,0,0,1.181.11,4.82,4.82,0,0,0,2.558-.564c.105-.057.164-.094.164-.094h0a2.394,2.394,0,0,0,.558-2.925,3.339,3.339,0,0,0-.81-.9,8.679,8.679,0,0,0-1.295-.827c-.518-.272-1.072-.56-1.669-.862-.632-.32-1.235-.652-1.79-.985a7.941,7.941,0,0,1-1.49-1.134,4.921,4.921,0,0,1-1.024-1.446,4.914,4.914,0,0,1,.212-4.232,5,5,0,0,1,1.53-1.617,6.86,6.86,0,0,1,2.119-.932,9.623,9.623,0,0,1,2.392-.3,9.065,9.065,0,0,1,4.061.682l.182.1v2.765a10.489,10.489,0,0,0-5.059-.972,4,4,0,0,0-2.312,1.088Z" transform="translate(-7005.665 -538.409)"/>
      </g>
    </g>
    <path id="Trazado_10088" data-name="Trazado 10088" class="cls-1" d="M7011.282,538.547l-6.107,13.38-6.108-13.38,0,0v0h-3v18.8h3V545.986l1.643,3.754,3.32,7.6h2.294l.164-.378.007,0,4.791-10.941v11.316h3v-18.8Z" transform="translate(35.221 6.05)"/>
  </g>
</svg>
