<svg xmlns="http://www.w3.org/2000/svg" width="169.895" height="40" viewBox="0 0 169.895 40">
  <defs>
    <style>
      .cls-1 {
        fill: #717171;
      }

      .cls-2 {
        fill: #9dd4ca;
      }

      .cls-3 {
        fill: #005850;
      }

      .cls-4 {
        fill: #007f6e;
      }

      .cls-5 {
        fill: #004343;
      }
    </style>
  </defs>
  <g id="amsofipo-logo" transform="translate(-3169.182 -52)">
    <path id="Trazado_30934" data-name="Trazado 30934" class="cls-1" d="M3250.264,69.773l-7.209,18.8h3.095l1.806-5.08h7.209l1.921,5.08h3.078l-7.235-18.8Zm1.289,3.89,2.666,7.241h-5.309Z" transform="translate(-27.669 -6.657)"/>
    <path id="Trazado_30935" data-name="Trazado 30935" class="cls-1" d="M3335.946,69.288A8.609,8.609,0,0,0,3329.263,72a10.348,10.348,0,0,0-2.45,7.2,9.787,9.787,0,0,0,2.407,6.836,8.313,8.313,0,0,0,6.423,2.651A8.458,8.458,0,0,0,3342.185,86a10.382,10.382,0,0,0,2.439-7.241,9.82,9.82,0,0,0-2.381-6.835A8.129,8.129,0,0,0,3335.946,69.288Zm-.152,2.6a5.351,5.351,0,0,1,4.342,1.839,8.025,8.025,0,0,1,1.587,5.328,7.662,7.662,0,0,1-1.633,5.221,5.65,5.65,0,0,1-4.446,1.832,5.3,5.3,0,0,1-4.272-1.922,8.83,8.83,0,0,1,.042-10.356A5.472,5.472,0,0,1,3335.793,71.886Z" transform="translate(-59.041 -6.475)"/>
    <path id="Trazado_30936" data-name="Trazado 30936" class="cls-1" d="M3359.235,88.569h2.8V80.546h6.545V77.961h-6.545V72.371h7.075v-2.6h-9.875Z" transform="translate(-71.185 -6.657)"/>
    <rect id="Rectángulo_7216" data-name="Rectángulo 7216" class="cls-1" width="2.8" height="18.796" transform="translate(3301.545 63.116)"/>
    <path id="Trazado_30937" data-name="Trazado 30937" class="cls-1" d="M3400.323,71.273a6.923,6.923,0,0,0-4.73-1.5h-5.316v18.8h2.8V81.721h2.05a7.136,7.136,0,0,0,5.025-1.732,5.841,5.841,0,0,0,1.884-4.469A5.4,5.4,0,0,0,3400.323,71.273Zm-7.247,1.1h2.151c2.629,0,3.907,1.063,3.907,3.249a3.206,3.206,0,0,1-1.04,2.581,4.672,4.672,0,0,1-3.133.923h-1.885Z" transform="translate(-82.812 -6.657)"/>
    <path id="Trazado_30938" data-name="Trazado 30938" class="cls-1" d="M3421.474,69.288A8.609,8.609,0,0,0,3414.792,72a10.348,10.348,0,0,0-2.452,7.2,9.79,9.79,0,0,0,2.407,6.836,8.315,8.315,0,0,0,6.423,2.651A8.458,8.458,0,0,0,3427.713,86a10.382,10.382,0,0,0,2.439-7.241,9.82,9.82,0,0,0-2.382-6.835A8.129,8.129,0,0,0,3421.474,69.288Zm5.776,9.765a7.664,7.664,0,0,1-1.634,5.221,5.65,5.65,0,0,1-4.447,1.832,5.3,5.3,0,0,1-4.271-1.922,8.828,8.828,0,0,1,.042-10.356,5.471,5.471,0,0,1,4.381-1.943,5.352,5.352,0,0,1,4.342,1.839A8.033,8.033,0,0,1,3427.25,79.053Z" transform="translate(-91.076 -6.475)"/>
    <g id="Grupo_7280" data-name="Grupo 7280" transform="translate(3169.182 52)">
      <rect id="Rectángulo_7217" data-name="Rectángulo 7217" class="cls-2" width="7.979" height="7.922" transform="matrix(0.707, -0.707, 0.707, 0.707, 14.332, 26.157)"/>
      <rect id="Rectángulo_7218" data-name="Rectángulo 7218" class="cls-2" width="8.023" height="7.996" transform="translate(20.474 20.015) rotate(-45)"/>
      <rect id="Rectángulo_7219" data-name="Rectángulo 7219" class="cls-2" width="8.026" height="8.003" transform="translate(14.315 13.856) rotate(-45)"/>
      <path id="Trazado_30939" data-name="Trazado 30939" class="cls-2" d="M3187.91,86.253l5.642-5.642-5.659-5.659L3182.25,80.6h0Z" transform="translate(-3174.077 -60.597)"/>
      <path id="Trazado_30940" data-name="Trazado 30940" class="cls-3" d="M3184.634,107.6l8.174-8.174-5.6-5.6-8.165,8.186Z" transform="translate(-3172.875 -67.664)"/>
      <rect id="Rectángulo_7220" data-name="Rectángulo 7220" class="cls-4" width="11.56" height="8.002" transform="matrix(0.707, -0.707, 0.707, 0.707, 0, 28.172)"/>
      <rect id="Rectángulo_7221" data-name="Rectángulo 7221" class="cls-3" width="11.56" height="8.007" transform="translate(19.991 8.174) rotate(-45)"/>
      <path id="Trazado_30941" data-name="Trazado 30941" class="cls-4" d="M3216.646,75.686l.006-.006,0,0,8.166-8.166-5.656-5.657-8.172,8.172Z" transform="translate(-3184.842 -55.693)"/>
      <rect id="Rectángulo_7222" data-name="Rectángulo 7222" class="cls-3" width="7.953" height="11.56" transform="matrix(0.707, -0.707, 0.707, 0.707, 0.016, 11.804)"/>
      <rect id="Rectángulo_7223" data-name="Rectángulo 7223" class="cls-4" width="8.028" height="11.56" transform="matrix(0.707, -0.707, 0.707, 0.707, 6.14, 5.681)"/>
      <path id="Trazado_30942" data-name="Trazado 30942" class="cls-3" d="M3216.64,83.969l-5.676,5.675,8.17,8.17,5.681-5.681-8.172-8.172-.006.006Z" transform="translate(-3184.832 -63.971)"/>
      <path id="Trazado_30943" data-name="Trazado 30943" class="cls-5" d="M3220.03,83.971l0,0,0,0,0,0Z" transform="translate(-3188.227 -63.973)"/>
      <path id="Trazado_30944" data-name="Trazado 30944" class="cls-4" d="M3206.7,93.756l-5.643,5.642,8.216,8.242,5.654-5.656Z" transform="translate(-3181.12 -67.64)"/>
    </g>
    <g id="Grupo_7281" data-name="Grupo 7281" transform="translate(3254.967 62.813)">
      <path id="Trazado_30945" data-name="Trazado 30945" class="cls-1" d="M3311.4,75.079c.01-.017.013-.039.024-.055a2.417,2.417,0,0,1,.777-.743c.078-.047.168-.081.251-.122a2.925,2.925,0,0,0-1.052.92c-.026.043-.04.094-.062.139" transform="translate(-3308.212 -71.112)"/>
      <path id="Trazado_30946" data-name="Trazado 30946" class="cls-1" d="M3309.85,72.967a1.843,1.843,0,0,0-.582,1.3v.011a2.272,2.272,0,0,0,.222,1.046,2.606,2.606,0,0,0,.679.816,7.328,7.328,0,0,0,1.177.772q.721.389,1.663.854c.657.324,1.286.669,1.871,1.026a8.75,8.75,0,0,1,1.589,1.223,5.565,5.565,0,0,1,1.109,1.52,4.361,4.361,0,0,1,.42,1.943,4.905,4.905,0,0,1-.569,2.435,4.66,4.66,0,0,1-1.525,1.626,6.548,6.548,0,0,1-2.165.888,11.668,11.668,0,0,1-2.525.267,10.281,10.281,0,0,1-1.1-.072c-.427-.046-.87-.116-1.319-.206a10.846,10.846,0,0,1-1.286-.34,4.249,4.249,0,0,1-1.023-.476l-.149-.1V84.578h0a14.026,14.026,0,0,0,2.951,1.167,9.636,9.636,0,0,0,1.071.251,7.137,7.137,0,0,0,1.181.109,4.813,4.813,0,0,0,2.557-.564c.106-.056.165-.1.165-.1h0a2.389,2.389,0,0,0,.557-2.924,3.322,3.322,0,0,0-.809-.9,8.525,8.525,0,0,0-1.294-.826q-.775-.41-1.669-.864c-.632-.319-1.235-.65-1.79-.984a8.023,8.023,0,0,1-1.49-1.135,4.914,4.914,0,0,1-1.025-1.445,4.922,4.922,0,0,1,.213-4.232,5.014,5.014,0,0,1,1.53-1.617,6.838,6.838,0,0,1,2.12-.932,9.608,9.608,0,0,1,2.391-.3,9.034,9.034,0,0,1,4.063.684l.181.1v2.765a10.473,10.473,0,0,0-5.059-.973,4,4,0,0,0-2.312,1.089Z" transform="translate(-3306.34 -69.288)"/>
    </g>
    <path id="Trazado_30947" data-name="Trazado 30947" class="cls-1" d="M3287.878,69.774l-6.108,13.38-6.108-13.38,0,0v0h-3v18.8h3V77.213l1.644,3.754,3.32,7.6h2.293l.165-.378.007,0,4.792-10.941V88.57h3v-18.8Z" transform="translate(-38.757 -6.657)"/>
  </g>
</svg>
