<svg xmlns="http://www.w3.org/2000/svg" width="2803.414" height="1865.953" viewBox="0 0 2803.414 1865.953">
  <defs>
    <style>
      .cls-1 {
        mix-blend-mode: multiply;
        isolation: isolate;
      }

      .cls-2 {
        fill: #a0d5fb;
      }

      .cls-3 {
        fill: #b9e0ff;
      }

      .cls-3, .cls-4, .cls-5, .cls-6, .cls-7 {
        fill-rule: evenodd;
      }

      .cls-4 {
        fill: #daecfa;
      }

      .cls-5 {
        fill: #fff;
      }

      .cls-6 {
        fill: #ffb50c;
      }

      .cls-7 {
        fill: #4a2800;
      }
    </style>
  </defs>
  <g id="Grupo_10841" data-name="Grupo 10841" class="cls-1" transform="translate(-2008.586 -160.29)">
    <rect id="Rectángulo_7202" data-name="Rectángulo 7202" class="cls-2" width="2803.414" height="1865.952" transform="translate(2008.586 160.29)"/>
    <path id="Trazado_24971" data-name="Trazado 24971" class="cls-3" d="M2008.586,1672.331q58.86-21.419,118.8-44.537c-12.56,42.9,3.975,75.041,53.762,92.571,38.835,13.681,94.878,17.42,164.244,12.358-116.931,112.307-141.985,198.1-47.515,231.365,133.359,46.959,469.766-23.135,851.793-165.285-99.677,76.1-167.606,144.791-197.478,200.122l824.753-16.951c149.211-52.954,307.095-117.668,463.785-191.352,56.418-5.8,116.985-13.6,180.993-23.313-151.373,85.207-222.679,158.82-183.068,205.176L4812,1960.7V1090.137c-47.606,6.058-100,15.428-156.25,27.852,83.8-56.068,138.721-106.846,156.25-144.269V931.849c-4.738-6.194-12.3-11.222-22.849-14.939-62.935-22.161-216.271,7.8-393.864,70.972-5.941-21.829-24.08-38.8-55.6-49.9-38.829-13.669-94.887-17.411-164.252-12.347,116.928-112.321,142-198.11,47.529-231.367C4121.942,658.7,3904.4,690.3,3638.809,769.484c134.7-139.239,157.2-244.76,36.4-287.287-202.575-71.318-748.626,55.337-1341.542,295.263,4.384-30.137-10.767-52.9-47.92-65.971-55.71-19.614-153.49-14.965-277.158,9.3Z"/>
    <path id="Trazado_24972" data-name="Trazado 24972" class="cls-4" d="M2008.586,1813.9q30.232-11.057,60.959-22.912c-7.036,24.037,2.229,42.045,30.123,51.868,21.755,7.662,53.16,9.758,92.023,6.923-65.518,62.925-79.553,110.993-26.623,129.629,74.717,26.31,263.2-12.96,477.238-92.6-55.843,42.635-93.9,81.124-110.64,112.123l462.091-9.5c83.6-29.67,172.058-65.929,259.849-107.212,31.61-3.251,65.546-7.618,101.405-13.06-84.81,47.738-124.76,88.983-102.567,114.954l439.54-9.036c116.72-21.682,247.777-52.67,382.309-91.63,157.744-45.685,296.5-95.452,403.081-142.553,631.379-369.561-121.352-385.8-747.969-220.179-3.494-11.942-13.618-21.249-30.993-27.369-41.157-14.488-116.843-9.07-212.28,12.012,80.5-53.86,113.474-99.023,74.74-112.658-35.258-12.417-121.17,4.368-220.673,39.762-3.328-12.23-13.492-21.737-31.149-27.954-21.757-7.659-53.167-9.757-92.03-6.92,65.515-62.931,79.558-111,26.629-129.632-56.6-19.927-178.481-2.221-327.287,42.145,75.471-78.015,88.076-137.135,20.392-160.964-113.5-39.957-419.437,31-751.637,165.431,2.458-16.886-6.031-29.637-26.848-36.96-30.366-10.691-83.046-8.519-149.683,4.131Z"/>
    <path id="Trazado_24973" data-name="Trazado 24973" class="cls-5" d="M4812,295.358,3478.417,675.947,4812,309.184Z"/>
    <path id="Trazado_24974" data-name="Trazado 24974" class="cls-5" d="M4812,788.9,3995.092,923.813s-67.83,14.7,1.01-18.987,192.944-16.2,206.839-40.647,23.9-26.678,39.96-27.868,45.342,22.231,36.956.443,4.324-59.445,56.631-40.637,121.2,38.136,149.484,27.185-.618-22.293,32.323-26.775,57.068,10.734,95.954,10.586,66.16,1.267,80.3-6.572c9.1-5.047,69.4-12.192,117.45-28.813Z"/>
    <path id="Trazado_24975" data-name="Trazado 24975" class="cls-5" d="M4399.32,376.459,2139.476,1009.077s-80.484,28.2-4.243-29.348,236.389-40.754,246.662-79.574,22.127-43.073,41.852-46.221,63.094,30.552,46.3-2.338-11.823-91.978,58.984-67.273,162.49,48.865,194.656,29.676-7.233-34.315,32.621-43.918,74.415,11.873,122.963,8.47,83.023-3.463,98.423-16.706,183.915-44.409,199.7-116.757-64.653-85.672-53.686-176.823S3269.116,392.3,3269.116,392.3s-38.991-30.746,3.845-54.331,112.1-35.7,156.077-5.613,87.148,55.8,118.735,47.155,59.86-49.924,97.635-18.188,26.715,48.272,93.571,53.61,91.764-12.569,145.27-1.173-2.189,51.782,86.9,29.578,116.534-69.391,155.879-62.511,74.052,35.208,109.81,21.525S4417.922,353.075,4399.32,376.459Z"/>
    <path id="Trazado_24976" data-name="Trazado 24976" class="cls-5" d="M3791.6,1171.835,3001.88,1307.6s-28.478,5.856.423-5.23,81.022-9.636,86.854-16.711,10.036-7.961,16.775-8.719,19.045,4.88,15.522-.87,1.807-16.413,23.783-12.672,50.892,7.205,62.764,3.434-.26-6.092,13.57-8.205,23.965,1.4,40.295.317,27.773-1.428,33.716-3.963,63.834-9.774,73.587-22.934-16.115-14.765-6.788-31.258,53.012-15.07,53.012-15.07-11.023-5.141,4.665-9.806,39.451-7.508,52.173-2.532,25.444,9.184,36.477,7.32,22.981-9.559,33.547-4.214,5.855,8.407,27.717,8.71,31.247-3.152,48.3-1.625-3.957,9.327,27.005,4.469,43.017-13.609,55.65-12.758,22.384,5.6,35.109,2.8S3799.23,1167.456,3791.6,1171.835Z"/>
    <path id="Trazado_24977" data-name="Trazado 24977" class="cls-5" d="M4746.309,1416.761,3576.1,1530.526s-42.2,5.524.628-7.707,120.059-5.3,128.7-15.148,14.868-10.68,24.859-11.057,28.216,9.33,23,.423,2.689-24.12,35.235-16.136,75.417,16.3,93.011,12.033-.383-9.061,20.112-10.665,35.512,4.739,59.706,4.939,41.164.947,49.964-2.141,94.587-7.426,109.039-25.842-23.88-23.666-10.056-47.07,78.559-16.463,78.559-16.463-16.338-8.844,6.914-14.011,58.45-6.766,77.3,2.021,37.712,16.416,54.048,14.877,34.064-11.616,49.716-2.541,8.674,13.117,41.069,15.993,46.3-1.214,71.569,2.931-5.864,13.384,40.016,9.609,63.745-15.407,82.464-12.744,33.174,10.783,52.028,8.028S4757.623,1411.108,4746.309,1416.761Z"/>
    <path id="Trazado_24978" data-name="Trazado 24978" class="cls-5" d="M3149.682,1753.158l382.837-38.582c-314.8,36.464-577.793,72.257-529.2,85.391,112.643,30.45,532.788,42.631,340.983,82.213-103.11,21.276-658.415,87.429-1149.962,144.063h-71.546c491.548-56.634,1046.851-122.787,1149.961-144.063,191.806-39.582-228.338-51.763-340.983-82.213C2900.914,1791.629,2995.749,1774.143,3149.682,1753.158Z"/>
    <path id="Trazado_24979" data-name="Trazado 24979" class="cls-5" d="M4384.579,1675.534l382.841-12.087c-314.8,14.677-577.8,32.267-529.2,48.768,112.644,38.242,532.788,79.505,340.982,105.81-107.557,14.753-707.181,44.274-1213.2,67.369l-71.546-4.953c506.017-23.092,1105.641-52.613,1213.2-67.367,191.805-26.307-228.337-67.567-340.983-105.812C4135.814,1696.788,4230.649,1685.865,4384.579,1675.534Z"/>
    <path id="Trazado_24980" data-name="Trazado 24980" class="cls-6" d="M4806.377,1760l5.623,3.948v7.226l-8.072-5.676Z"/>
    <path id="Trazado_24981" data-name="Trazado 24981" class="cls-5" d="M2405.03,874.262c-.711-.113-249.005-37.7-127.535-183.652,147.35-177.053,1190.859-292.371,1313.557-530.32h-2.483C3465.4,395.706,2423.269,512.021,2275.816,689.208c-123.959,148.956,128.144,187.1,128.863,187.213Z"/>
    <path id="Trazado_24982" data-name="Trazado 24982" class="cls-5" d="M2673.906,946.84c-.246.32-86.986,111.313,43.167,165.851,61.541,25.789,210.761-14.819,368.289-57.7,177.955-48.429,366.5-99.743,451.942-61.478,21.069,9.441,37.133,20.055,49.039,31.149,16.507-4.3,35.483-6.629,56.047-6.717,77.206-.318,176.868,30.982,252.171,108.1,151.517,155.156,211.6-30.081,211.779-30.607l1.442,1.042c-.177.531-60.788,187.4-213.979,30.523-74.831-76.63-173.973-107.738-250.817-107.419-20.2.083-38.863,2.341-55.13,6.518,20.114,19.384,27.782,40.143,27.537,58.647a62.071,62.071,0,0,1-15.1,40.028c-8.917,10.168-20.794,16.411-32.768,16.466-15.774.06-31.681-10.491-41.349-36.709-7.09-19.248-4.011-36.019,6.69-49.542,9.186-11.6,23.994-20.817,42.8-27.152,2.976-1,6.063-1.935,9.237-2.789-11.635-10.683-27.235-20.911-47.618-30.041-84.951-38.051-273.3,13.209-451.058,61.586-157.721,42.931-307.127,83.585-369.127,57.6-132.819-55.654-44.743-168.344-44.5-168.674l1.3,1.313Zm939.99,137.243c.237-18.139-7.4-38.551-27.473-57.609q-5.082,1.353-9.845,2.955c-18.659,6.289-33.343,15.406-42.425,26.877-10.461,13.212-13.49,29.547-6.606,48.223,9.232,25.057,24.377,35.137,39.377,35.076,11.692-.048,23.333-6.185,32.1-16.183A61.02,61.02,0,0,0,3613.9,1084.083Z"/>
    <path id="Trazado_24983" data-name="Trazado 24983" class="cls-5" d="M3319.48,160.29,2044.2,708.224,3354.041,160.29Z"/>
    <path id="Trazado_24984" data-name="Trazado 24984" class="cls-5" d="M2008.586,573.221c34.983,15.744,84.194,15.447,152.874-10.87,328.883-126.022,474.818-439.339,802.4-371.783,98.217,20.254,174.806,91.113,242.234,113.274,154.909,50.921,260.965,85.786,469.061,5.784,107.1-41.177,211.943-95.906,302.584-149.336H4131.49c-65.264,70.428-158.052,146.493-287.5,196.257C3631.325,438.3,3359.481,369.328,3201.8,317.5c-67.148-22.069-143.424-47.149-240.7-67.209-319.906-65.971-465.324,199.257-794.755,325.492-69.451,26.613-120.492,28.848-157.767,15.481Z"/>
    <path id="Trazado_24985" data-name="Trazado 24985" class="cls-5" d="M2008.586,1121.32q3.4-.256,6.861-.482c502.121-32.761,724.917,210.1,1225.045-15.61,149.948-67.669,266.882-175.505,369.827-230.223,236.5-125.708,398.419-211.77,716.125-232.235,172.9-11.134,341.927-5.9,485.556,4.97v-121.4c-143.629,21.1-312.653,49.2-485.556,85.063-216.59,44.929-360.778,90.029-505.552,144.852-87.622,40.889-162.844,78.318-217.124,107.168-102.513,54.486-218.965,116.395-367.472,183.41-488.41,220.423-710.421,25.4-1213.378,58.209q-7.27.472-14.332,1.059v15.216ZM4812,418.769v8.659c-236.214,50.441-635.881,190.071-929.923,300.645C4176.115,594.369,4575.786,437.326,4812,418.769Z"/>
    <g id="Grupo_7248" data-name="Grupo 7248">
      <path id="Trazado_24986" data-name="Trazado 24986" class="cls-5" d="M3942.585,756.069s-184.484-2.58-46.633,84.759l84.408,7.8C3930.879,824.139,3850.49,775.676,3942.585,756.069Z"/>
      <path id="Trazado_24987" data-name="Trazado 24987" class="cls-5" d="M3946.327,843.786s10.113-6.1,28.487-8.642l7.753,23.258A189.318,189.318,0,0,1,3946.327,843.786Z"/>
      <path id="Trazado_24988" data-name="Trazado 24988" class="cls-7" d="M3978.65,851.076s-56.2-37.569-121.287-11.188C3919.629,878.017,3978.65,851.076,3978.65,851.076Z"/>
      <path id="Trazado_24989" data-name="Trazado 24989" class="cls-7" d="M4145.5,711.433s-171.016,8.929-254.776,128.9l61.857,5.728C3965.646,813.179,4008.374,746.879,4145.5,711.433Z"/>
      <path id="Trazado_24990" data-name="Trazado 24990" class="cls-7" d="M3958.136,849.184a241.593,241.593,0,0,1,41.6-7.435l-18.477,20.838C3964.9,856.843,3958.136,849.184,3958.136,849.184Z"/>
    </g>
    <g id="Grupo_7249" data-name="Grupo 7249">
      <path id="Trazado_24991" data-name="Trazado 24991" class="cls-5" d="M2344.219,1045.59s-46.912-12.85-17.894,16.771l21,7.429C2336.418,1060.769,2319.322,1044.071,2344.219,1045.59Z"/>
      <path id="Trazado_24992" data-name="Trazado 24992" class="cls-5" d="M2338.972,1066.4a23.217,23.217,0,0,1,7.884-.135l.334,5.964A50.281,50.281,0,0,1,2338.972,1066.4Z"/>
      <path id="Trazado_24993" data-name="Trazado 24993" class="cls-7" d="M2346.711,1070.25s-11.695-12.536-30.174-10.672C2329.738,1072.648,2346.711,1070.25,2346.711,1070.25Z"/>
      <path id="Trazado_24994" data-name="Trazado 24994" class="cls-7" d="M2399.174,1048.6s-44.285-9.26-74.151,13.3l15.388,5.447C2346.068,1060.506,2361.662,1047.8,2399.174,1048.6Z"/>
      <path id="Trazado_24995" data-name="Trazado 24995" class="cls-7" d="M2341.6,1068.445a69.455,69.455,0,0,1,11.148,1.019l-6.192,3.657C2342.789,1070.692,2341.6,1068.445,2341.6,1068.445Z"/>
    </g>
    <path id="Trazado_24996" data-name="Trazado 24996" class="cls-5" d="M3251.7,866.641a27.862,27.862,0,0,1,8.989,2.886l-1.916,6.886A59.96,59.96,0,0,1,3251.7,866.641Z"/>
    <path id="Trazado_24997" data-name="Trazado 24997" class="cls-5" d="M3213.224,781.742s41.866,34.46,39.9,84.844l-16.884-9.866C3239.3,844.756,3241.3,817.573,3213.224,781.742Z"/>
    <path id="Trazado_24998" data-name="Trazado 24998" class="cls-7" d="M3258.983,873.989s-8.423-18.713-30.085-23.715C3238.825,870.169,3258.983,873.989,3258.983,873.989Z"/>
    <path id="Trazado_24999" data-name="Trazado 24999" class="cls-7" d="M3331.22,863.235s-47.05-26.952-93.465-7.257l15.208,12.295C3263.065,861.171,3287.775,849.672,3331.22,863.235Z"/>
    <path id="Trazado_25000" data-name="Trazado 25000" class="cls-7" d="M3253.894,869.977a83.321,83.321,0,0,1,12.239,5.448l-8.423,1.761C3254.373,872.978,3253.894,869.977,3253.894,869.977Z"/>
    <path id="Trazado_25001" data-name="Trazado 25001" class="cls-5" d="M3968,1094.882a16.27,16.27,0,0,1,5.446-.931l.862,4.1A35.259,35.259,0,0,1,3968,1094.882Z"/>
    <path id="Trazado_25002" data-name="Trazado 25002" class="cls-5" d="M3925.1,1061.176s31.044,6.595,43.624,33.292l-11.435-.565C3955.649,1086.86,3949.35,1072.2,3925.1,1061.176Z"/>
    <path id="Trazado_25003" data-name="Trazado 25003" class="cls-7" d="M3973.764,1096.729a26.948,26.948,0,0,0-22.031-4.194A26.929,26.929,0,0,0,3973.764,1096.729Z"/>
    <path id="Trazado_25004" data-name="Trazado 25004" class="cls-7" d="M4008.376,1071.642s-31.71-1.293-50.5,21.464l11.218,2.281C3972.419,1088.967,3982.15,1076.326,4008.376,1071.642Z"/>
    <path id="Trazado_25005" data-name="Trazado 25005" class="cls-7" d="M3970.035,1096.021a48.68,48.68,0,0,1,7.83-.48l-3.9,3.195A10.277,10.277,0,0,1,3970.035,1096.021Z"/>
    <path id="Trazado_25006" data-name="Trazado 25006" class="cls-5" d="M4109.094,1195.621a9.7,9.7,0,0,1,3.311-.008l.106,2.5A21.22,21.22,0,0,1,4109.094,1195.621Z"/>
    <path id="Trazado_25007" data-name="Trazado 25007" class="cls-5" d="M4087.073,1171.465s17.694,6.96,22.493,23.985l-6.7-1.468C4102.592,1189.661,4100.314,1180.38,4087.073,1171.465Z"/>
    <path id="Trazado_25008" data-name="Trazado 25008" class="cls-7" d="M4112.32,1197.28a16.124,16.124,0,0,0-12.6-4.653A16.136,16.136,0,0,0,4112.32,1197.28Z"/>
    <path id="Trazado_25009" data-name="Trazado 25009" class="cls-7" d="M4135.255,1185.872s-18.61-3.89-31.967,7.7l6.4,2.455C4112.3,1192.566,4119.3,1186.055,4135.255,1185.872Z"/>
    <path id="Trazado_25010" data-name="Trazado 25010" class="cls-7" d="M4110.19,1196.495a29.245,29.245,0,0,1,4.673.494l-2.62,1.5A6.136,6.136,0,0,1,4110.19,1196.495Z"/>
  </g>
</svg>
