<svg xmlns="http://www.w3.org/2000/svg" width="584" height="584" viewBox="0 0 584 584">
  <defs>
    <style>
      .cls-1 {
        fill: #fff;
      }

      .cls-2 {
        fill: #00d6d4;
        stroke: #000;
        stroke-miterlimit: 10;
        stroke-width: 4px;
      }
    </style>
  </defs>
  <g id="bg-sopa-de-letras" transform="translate(7017 -13530)">
    <g id="Grupo_10823" data-name="Grupo 10823" transform="translate(-7017 13530)">
      <path id="Trazado_30931" data-name="Trazado 30931" class="cls-1" d="M2915.373,2619.283c-2.1,1.941-3.917,3.618-3.916,6.843s1.815,4.9,3.917,6.842c2.261,2.089,4.824,4.456,4.824,9.3s-2.562,7.215-4.823,9.306c-2.1,1.942-3.917,3.619-3.917,6.845s1.816,4.9,3.918,6.842c2.261,2.088,4.823,4.455,4.824,9.3s-2.562,7.215-4.823,9.3c-2.1,1.942-3.917,3.618-3.917,6.843s1.816,4.9,3.918,6.842c2.26,2.088,4.823,4.454,4.824,9.3s-2.562,7.215-4.823,9.3c-2.1,1.942-3.917,3.618-3.917,6.844s1.816,4.9,3.918,6.842c2.261,2.087,4.823,4.455,4.824,9.3s-2.562,7.215-4.823,9.306c-2.1,1.941-3.917,3.618-3.917,6.844s1.816,4.9,3.918,6.843c2.26,2.087,4.823,4.455,4.823,9.3s-2.561,7.216-4.823,9.305c-2.1,1.942-3.916,3.618-3.916,6.844s1.816,4.9,3.918,6.844c2.26,2.088,4.823,4.455,4.823,9.3s-2.561,7.217-4.822,9.307c-2.1,1.941-3.917,3.619-3.917,6.844s1.815,4.9,3.918,6.843c2.26,2.088,4.823,4.455,4.823,9.3s-2.562,7.218-4.822,9.307c-2.1,1.942-3.917,3.62-3.917,6.847s1.816,4.905,3.918,6.846c2.26,2.088,4.823,4.456,4.823,9.3s-2.561,7.219-4.823,9.309c-2.1,1.943-3.916,3.62-3.916,6.848s1.815,4.9,3.917,6.846c2.261,2.089,4.824,4.457,4.824,9.307h-.039c-.015,4.819-2.567,7.182-4.821,9.264-2.1,1.941-3.916,3.618-3.915,6.843s1.815,4.9,3.917,6.843c2.261,2.088,4.824,4.455,4.824,9.3s-2.562,7.216-4.823,9.3c-2.1,1.942-3.917,3.619-3.917,6.845s1.815,4.9,3.918,6.842c2.261,2.088,4.823,4.456,4.824,9.3s-2.562,7.216-4.822,9.3c-2.1,1.942-3.917,3.618-3.917,6.844s1.816,4.9,3.917,6.841c2.261,2.088,4.823,4.455,4.824,9.3s-2.562,7.215-4.823,9.3c-2.1,1.941-3.917,3.617-3.917,6.843s1.816,4.9,3.918,6.842c2.261,2.088,4.823,4.455,4.824,9.3s-2.562,7.216-4.823,9.306c-2.1,1.942-3.917,3.619-3.917,6.844s1.816,4.9,3.918,6.843c2.26,2.088,4.823,4.455,4.823,9.3s-2.561,7.215-4.823,9.3c-2.1,1.941-3.916,3.619-3.916,6.844s1.816,4.9,3.918,6.844c2.26,2.088,4.823,4.455,4.823,9.3s-2.562,7.217-4.822,9.307c-2.1,1.942-3.917,3.619-3.917,6.845s1.816,4.9,3.918,6.843c2.26,2.087,4.823,4.454,4.823,9.3s-2.562,7.217-4.823,9.308c-2.1,1.941-3.916,3.619-3.916,6.846s1.815,4.9,3.918,6.845c2.26,2.09,4.823,4.456,4.823,9.306s-2.561,7.218-4.823,9.308c-2.1,1.942-3.917,3.62-3.916,6.847s1.816,4.9,3.917,6.846a13.657,13.657,0,0,1,4.307,5.885l563.194-3.391c.855-2.69,2.662-4.377,4.315-5.906,2.1-1.942,3.917-3.619,3.918-6.846s-1.815-4.905-3.917-6.848c-2.26-2.09-4.823-4.458-4.823-9.307s2.564-7.216,4.824-9.306c2.1-1.941,3.917-3.619,3.918-6.846s-1.815-4.9-3.917-6.845c-2.26-2.09-4.822-4.458-4.822-9.308s2.563-7.214,4.824-9.3c2.1-1.941,3.917-3.616,3.918-6.843s-1.815-4.9-3.917-6.845c-2.26-2.089-4.823-4.458-4.823-9.306s2.563-7.215,4.824-9.3c2.1-1.942,3.917-3.618,3.917-6.844s-1.815-4.9-3.916-6.844c-2.261-2.089-4.823-4.457-4.823-9.3s2.563-7.215,4.824-9.3c2.1-1.941,3.917-3.617,3.918-6.843s-1.815-4.9-3.917-6.844c-2.26-2.09-4.823-4.457-4.822-9.305s2.563-7.216,4.823-9.3c2.1-1.941,3.918-3.617,3.918-6.842s-1.815-4.9-3.917-6.843c-2.261-2.09-4.823-4.456-4.823-9.3s2.563-7.214,4.823-9.3c2.1-1.94,3.918-3.617,3.918-6.841s-1.814-4.9-3.916-6.844c-2.26-2.089-4.823-4.457-4.822-9.3s2.563-7.215,4.823-9.3c2.1-1.941,3.918-3.617,3.918-6.842s-1.814-4.9-3.917-6.845c-2.26-2.089-4.823-4.457-4.823-9.306s2.563-7.214,4.824-9.3c2.1-1.942,3.917-3.617,3.917-6.843s-1.815-4.9-3.916-6.843c-2.255-2.083-4.806-4.445-4.82-9.264h-.005c0-.014,0-.024,0-.038v0h0c.015-4.821,2.566-7.183,4.821-9.267,2.1-1.942,3.917-3.619,3.918-6.846s-1.815-4.9-3.917-6.847c-2.261-2.091-4.823-4.459-4.823-9.309s2.563-7.217,4.824-9.306c2.1-1.941,3.917-3.618,3.917-6.845s-1.815-4.9-3.917-6.846c-2.26-2.09-4.823-4.458-4.823-9.308s2.563-7.213,4.824-9.3c2.1-1.941,3.917-3.617,3.918-6.843s-1.815-4.9-3.917-6.845c-2.26-2.09-4.823-4.458-4.823-9.306s2.563-7.215,4.824-9.3c2.1-1.941,3.917-3.617,3.918-6.843s-1.815-4.9-3.916-6.844c-2.261-2.089-4.823-4.457-4.823-9.306s2.563-7.215,4.823-9.3c2.1-1.942,3.918-3.617,3.919-6.843s-1.815-4.9-3.917-6.844c-2.26-2.09-4.823-4.457-4.822-9.3s2.563-7.215,4.824-9.3c2.1-1.94,3.917-3.617,3.917-6.842s-1.814-4.9-3.916-6.843c-2.26-2.088-4.823-4.455-4.823-9.3s2.563-7.213,4.823-9.3c2.1-1.94,3.918-3.617,3.918-6.842s-1.814-4.9-3.916-6.844c-2.26-2.089-4.823-4.456-4.823-9.3s2.563-7.215,4.823-9.3c2.1-1.941,3.918-3.617,3.918-6.842s-1.814-4.9-3.916-6.845c-2.261-2.091-4.823-4.457-4.823-9.306s2.563-7.215,4.824-9.3c2.1-1.941,3.917-3.617,3.917-6.842s-1.815-4.9-3.916-6.843a13.681,13.681,0,0,1-4.3-5.87l-563.244,3.392A13.645,13.645,0,0,1,2915.373,2619.283Z" transform="translate(-2909.291 -2606.925)"/>
      <path id="Trazado_30932" data-name="Trazado 30932" d="M2919.606,2609.87h-1.874c0,3.221-1.817,4.9-3.921,6.835-2.262,2.086-4.827,4.449-4.827,9.292s2.565,7.2,4.829,9.291c2.1,1.938,3.921,3.614,3.921,6.836s-1.816,4.9-3.92,6.837c-2.262,2.086-4.827,4.45-4.827,9.293s2.565,7.206,4.828,9.291c2.1,1.938,3.922,3.612,3.922,6.834s-1.816,4.9-3.92,6.835c-2.263,2.085-4.828,4.451-4.827,9.293s2.565,7.2,4.828,9.29c2.1,1.938,3.921,3.613,3.921,6.833s-1.817,4.9-3.92,6.834c-2.263,2.086-4.828,4.451-4.827,9.292s2.565,7.206,4.828,9.291c2.1,1.939,3.921,3.612,3.921,6.834s-1.816,4.9-3.92,6.836c-2.262,2.086-4.828,4.451-4.827,9.293s2.565,7.207,4.828,9.292c2.1,1.939,3.921,3.612,3.921,6.834s-1.816,4.9-3.92,6.836c-2.263,2.087-4.828,4.451-4.827,9.292s2.565,7.206,4.828,9.292c2.1,1.939,3.921,3.614,3.921,6.836s-1.817,4.9-3.92,6.836c-2.263,2.087-4.827,4.452-4.826,9.3s2.564,7.206,4.828,9.291c2.1,1.938,3.92,3.612,3.921,6.833s-1.817,4.9-3.921,6.839c-2.262,2.087-4.827,4.453-4.827,9.3s2.565,7.208,4.829,9.293c2.1,1.94,3.921,3.614,3.921,6.837s-1.817,4.9-3.921,6.838c-2.262,2.089-4.827,4.454-4.827,9.3s2.565,7.208,4.829,9.294c2.094,1.932,3.9,3.6,3.919,6.8h-.035c0,3.222-1.816,4.9-3.92,6.835-2.263,2.086-4.828,4.451-4.827,9.292s2.565,7.206,4.829,9.291c2.1,1.94,3.921,3.613,3.921,6.836s-1.817,4.9-3.921,6.836c-2.262,2.087-4.827,4.45-4.827,9.293s2.565,7.207,4.829,9.291c2.1,1.939,3.921,3.613,3.921,6.834s-1.816,4.9-3.92,6.836c-2.262,2.086-4.828,4.45-4.827,9.292s2.565,7.2,4.828,9.291c2.1,1.938,3.922,3.613,3.922,6.833s-1.817,4.9-3.92,6.835c-2.263,2.086-4.828,4.45-4.827,9.292s2.565,7.206,4.828,9.291c2.1,1.939,3.921,3.613,3.921,6.834s-1.816,4.9-3.92,6.836c-2.263,2.087-4.828,4.451-4.827,9.294s2.565,7.205,4.828,9.291c2.1,1.939,3.921,3.612,3.921,6.833s-1.817,4.9-3.921,6.837c-2.262,2.086-4.827,4.451-4.826,9.293s2.565,7.205,4.828,9.292c2.1,1.938,3.922,3.612,3.922,6.834s-1.817,4.9-3.921,6.838c-2.263,2.087-4.827,4.452-4.827,9.294s2.565,7.207,4.829,9.291c2.1,1.938,3.921,3.613,3.921,6.834s-1.816,4.9-3.921,6.839c-2.263,2.087-4.827,4.451-4.827,9.3s2.565,7.208,4.829,9.294c2.1,1.938,3.921,3.614,3.921,6.836s-1.817,4.9-3.921,6.84c-2.262,2.088-4.827,4.452-4.827,9.3s2.565,7.209,4.829,9.294c2.1,1.94,3.921,3.615,3.921,6.839h1.875v-.014l563.613-3.387v-.005h.961c0-3.225,1.817-4.9,3.922-6.839,2.262-2.087,4.828-4.451,4.828-9.294s-2.564-7.209-4.827-9.3c-2.1-1.939-3.92-3.614-3.92-6.838s1.816-4.9,3.921-6.838c2.262-2.085,4.828-4.45,4.828-9.293s-2.564-7.208-4.827-9.3c-2.1-1.94-3.92-3.616-3.92-6.838s1.817-4.9,3.921-6.834c2.263-2.086,4.829-4.45,4.829-9.291s-2.564-7.208-4.827-9.294c-2.1-1.94-3.921-3.615-3.92-6.838s1.817-4.9,3.921-6.836c2.263-2.085,4.828-4.449,4.828-9.291s-2.565-7.207-4.827-9.294c-2.1-1.939-3.921-3.615-3.92-6.836s1.817-4.9,3.921-6.834c2.263-2.085,4.828-4.45,4.828-9.291s-2.564-7.207-4.827-9.294c-2.1-1.94-3.921-3.615-3.921-6.837s1.817-4.9,3.921-6.833c2.263-2.086,4.829-4.449,4.829-9.292s-2.564-7.206-4.827-9.292c-2.1-1.938-3.921-3.613-3.921-6.834s1.817-4.9,3.921-6.833c2.263-2.086,4.828-4.449,4.829-9.291s-2.564-7.208-4.827-9.294c-2.1-1.939-3.921-3.613-3.921-6.835s1.817-4.9,3.921-6.834c2.262-2.086,4.828-4.449,4.829-9.292s-2.565-7.206-4.827-9.294c-2.1-1.938-3.921-3.613-3.921-6.835s1.817-4.9,3.921-6.836c2.262-2.086,4.828-4.45,4.829-9.292s-2.564-7.206-4.827-9.291c-2.1-1.939-3.919-3.613-3.921-6.833.014-3.2,1.823-4.87,3.919-6.8,2.262-2.086,4.828-4.451,4.828-9.295s-2.564-7.208-4.827-9.3c-2.1-1.94-3.92-3.615-3.92-6.838s1.817-4.9,3.921-6.838c2.263-2.086,4.828-4.45,4.828-9.294s-2.564-7.208-4.827-9.3c-2.1-1.939-3.92-3.615-3.92-6.838s1.817-4.9,3.921-6.833c2.263-2.085,4.829-4.45,4.829-9.292s-2.564-7.208-4.827-9.295c-2.1-1.939-3.921-3.615-3.92-6.836s1.816-4.9,3.921-6.836c2.263-2.087,4.829-4.449,4.829-9.292s-2.564-7.205-4.827-9.292c-2.1-1.939-3.921-3.615-3.92-6.837s1.816-4.9,3.92-6.834c2.264-2.085,4.829-4.449,4.829-9.292s-2.564-7.207-4.827-9.293c-2.1-1.94-3.92-3.615-3.92-6.837s1.817-4.9,3.921-6.833c2.263-2.086,4.828-4.45,4.829-9.292s-2.564-7.206-4.827-9.292c-2.1-1.938-3.921-3.613-3.92-6.834s1.817-4.9,3.921-6.834c2.263-2.084,4.828-4.448,4.829-9.289s-2.564-7.208-4.827-9.293c-2.1-1.939-3.921-3.614-3.921-6.835s1.817-4.9,3.921-6.835c2.263-2.084,4.828-4.448,4.829-9.29s-2.565-7.208-4.827-9.294c-2.1-1.939-3.921-3.615-3.921-6.837s1.818-4.9,3.921-6.834c2.263-2.087,4.828-4.449,4.829-9.291s-2.564-7.206-4.827-9.291c-2.1-1.94-3.921-3.614-3.921-6.837h-1.874c0,.011,0,.018,0,.029Zm567.566,5.884c2.1,1.938,3.92,3.613,3.92,6.834s-1.817,4.9-3.921,6.833c-2.263,2.087-4.829,4.45-4.829,9.292s2.564,7.207,4.827,9.295c2.1,1.939,3.92,3.615,3.92,6.836s-1.816,4.9-3.921,6.833c-2.263,2.086-4.828,4.45-4.828,9.292s2.564,7.206,4.827,9.292c2.1,1.939,3.921,3.614,3.92,6.835s-1.816,4.9-3.921,6.833c-2.262,2.086-4.828,4.449-4.828,9.291s2.564,7.205,4.827,9.292c2.1,1.938,3.92,3.614,3.92,6.834s-1.816,4.9-3.921,6.834c-2.263,2.085-4.829,4.449-4.829,9.292s2.565,7.207,4.827,9.293c2.1,1.939,3.921,3.614,3.921,6.836s-1.817,4.9-3.922,6.835c-2.262,2.085-4.828,4.45-4.828,9.29s2.564,7.208,4.828,9.294c2.1,1.939,3.92,3.614,3.92,6.836s-1.817,4.9-3.922,6.835c-2.263,2.087-4.828,4.45-4.829,9.292s2.565,7.208,4.827,9.3c2.1,1.939,3.921,3.615,3.921,6.836s-1.817,4.9-3.921,6.835c-2.263,2.085-4.828,4.448-4.828,9.29s2.564,7.208,4.827,9.3c2.1,1.938,3.921,3.615,3.921,6.837s-1.817,4.9-3.921,6.837c-2.263,2.087-4.828,4.452-4.829,9.294s2.564,7.208,4.827,9.3c2.1,1.94,3.921,3.615,3.921,6.839s-1.817,4.9-3.921,6.838c-2.257,2.081-4.811,4.44-4.825,9.256h0v0c0,.014,0,.024,0,.038h.005c.014,4.813,2.568,7.173,4.825,9.253,2.1,1.938,3.92,3.614,3.92,6.835s-1.817,4.9-3.921,6.835c-2.263,2.086-4.829,4.449-4.829,9.291s2.564,7.208,4.827,9.294c2.1,1.939,3.92,3.615,3.92,6.836s-1.817,4.9-3.921,6.834c-2.263,2.086-4.828,4.449-4.828,9.292s2.565,7.207,4.827,9.293c2.1,1.939,3.921,3.614,3.92,6.836s-1.817,4.9-3.921,6.833c-2.262,2.086-4.828,4.449-4.828,9.291s2.564,7.205,4.827,9.292c2.1,1.939,3.921,3.614,3.921,6.834s-1.817,4.9-3.922,6.834c-2.263,2.085-4.828,4.45-4.828,9.291s2.564,7.207,4.827,9.294c2.1,1.939,3.921,3.615,3.921,6.836s-1.817,4.9-3.922,6.835c-2.263,2.086-4.828,4.449-4.828,9.292s2.564,7.207,4.828,9.293c2.1,1.94,3.92,3.614,3.92,6.836s-1.817,4.9-3.921,6.836c-2.263,2.086-4.828,4.449-4.829,9.292s2.565,7.208,4.827,9.294c2.1,1.939,3.921,3.614,3.921,6.836s-1.817,4.9-3.921,6.834c-2.263,2.086-4.828,4.45-4.829,9.29s2.564,7.209,4.827,9.3c2.1,1.939,3.921,3.615,3.921,6.838s-1.817,4.9-3.921,6.838c-2.263,2.086-4.828,4.45-4.829,9.294s2.565,7.209,4.827,9.3c2.1,1.94,3.921,3.615,3.921,6.84s-1.817,4.9-3.922,6.837c-1.655,1.527-3.462,3.213-4.319,5.9l-563.726,3.387a13.645,13.645,0,0,0-4.311-5.879c-2.1-1.939-3.921-3.615-3.921-6.838s1.817-4.9,3.92-6.839c2.263-2.088,4.828-4.454,4.827-9.3s-2.565-7.207-4.828-9.294c-2.1-1.939-3.921-3.614-3.921-6.837s1.817-4.9,3.92-6.838c2.263-2.088,4.828-4.453,4.827-9.3s-2.565-7.205-4.828-9.29c-2.1-1.94-3.921-3.612-3.921-6.834s1.817-4.9,3.921-6.838c2.262-2.087,4.827-4.452,4.826-9.295s-2.565-7.206-4.828-9.292c-2.1-1.938-3.922-3.613-3.922-6.836s1.817-4.9,3.92-6.835c2.263-2.087,4.828-4.451,4.827-9.294s-2.565-7.205-4.828-9.291c-2.1-1.939-3.922-3.613-3.922-6.835s1.817-4.9,3.921-6.835c2.263-2.088,4.827-4.451,4.827-9.294s-2.565-7.206-4.828-9.292c-2.1-1.938-3.921-3.612-3.921-6.833s1.817-4.9,3.921-6.835c2.263-2.085,4.827-4.45,4.827-9.292s-2.565-7.2-4.829-9.291c-2.1-1.937-3.921-3.612-3.921-6.833s1.817-4.9,3.92-6.836c2.263-2.086,4.827-4.451,4.827-9.293s-2.565-7.206-4.829-9.292c-2.1-1.938-3.921-3.612-3.921-6.833s1.817-4.9,3.921-6.836c2.262-2.087,4.827-4.452,4.827-9.293s-2.565-7.207-4.829-9.292c-2.1-1.94-3.921-3.613-3.921-6.835s1.816-4.9,3.919-6.834c2.257-2.08,4.811-4.44,4.825-9.253h.04c0-4.844-2.565-7.209-4.829-9.3-2.1-1.939-3.921-3.614-3.921-6.837s1.817-4.9,3.92-6.839c2.263-2.088,4.828-4.454,4.827-9.3s-2.565-7.208-4.828-9.293c-2.1-1.939-3.922-3.615-3.922-6.837s1.817-4.9,3.921-6.839c2.262-2.087,4.827-4.451,4.826-9.3s-2.565-7.2-4.828-9.291c-2.1-1.938-3.922-3.612-3.922-6.834s1.817-4.9,3.921-6.836c2.263-2.088,4.827-4.453,4.826-9.3s-2.565-7.206-4.828-9.291c-2.1-1.94-3.921-3.614-3.921-6.836s1.817-4.9,3.92-6.835c2.263-2.087,4.828-4.452,4.827-9.294s-2.565-7.206-4.828-9.291c-2.1-1.939-3.921-3.612-3.921-6.834s1.816-4.9,3.921-6.835c2.262-2.088,4.827-4.452,4.827-9.294s-2.565-7.207-4.829-9.292c-2.1-1.938-3.92-3.613-3.921-6.834s1.817-4.9,3.921-6.835c2.263-2.086,4.827-4.45,4.827-9.291s-2.566-7.2-4.829-9.291c-2.1-1.937-3.921-3.613-3.921-6.833s1.817-4.9,3.921-6.835c2.262-2.086,4.827-4.451,4.827-9.293s-2.565-7.206-4.829-9.292c-2.1-1.938-3.921-3.613-3.921-6.833s1.816-4.9,3.921-6.837c2.263-2.088,4.828-4.451,4.827-9.294s-2.565-7.205-4.829-9.292c-2.1-1.938-3.921-3.611-3.921-6.833s1.816-4.9,3.92-6.834a13.629,13.629,0,0,0,4.312-5.881l563.776-3.388A13.667,13.667,0,0,0,3487.172,2615.754Z" transform="translate(-2908.967 -2606.461)"/>
    </g>
    <g id="Grupo_10824" data-name="Grupo 10824" transform="translate(-6989.19 13557.81)">
      <rect id="Rectángulo_7247" data-name="Rectángulo 7247" class="cls-2" width="528" height="528" rx="15.27" transform="translate(0.19 0.189)"/>
    </g>
  </g>
</svg>
