<svg xmlns="http://www.w3.org/2000/svg" width="11.995" height="8" viewBox="0 0 11.995 8">
  <defs>
    <style>
      .cls-1 {
        fill: #fff;
      }
    </style>
  </defs>
  <path id="Icon_ionic-ios-arrow-round-forward" data-name="Icon ionic-ios-arrow-round-forward" class="cls-1" d="M15.524,11.4a.544.544,0,0,0,0,.767l2.533,2.537H8.412a.542.542,0,0,0,0,1.083h9.637l-2.533,2.537a.548.548,0,0,0,0,.767.539.539,0,0,0,.762,0l3.433-3.458h0a.608.608,0,0,0,.112-.171.517.517,0,0,0,.042-.208.543.543,0,0,0-.154-.379l-3.433-3.458A.531.531,0,0,0,15.524,11.4Z" transform="translate(-7.875 -11.252)"/>
</svg>
