<svg xmlns="http://www.w3.org/2000/svg" width="408" height="396.696" viewBox="0 0 408 396.696">
  <defs>
    <style>
      .cls-1 {
        fill: #def7ff;
      }

      .cls-2 {
        fill: #b3e9ff;
      }

      .cls-3 {
        fill: #fdb087;
      }

      .cls-4 {
        fill: #fff;
      }

      .cls-5 {
        fill: #df4444;
      }

      .cls-6 {
        fill: #562a21;
      }

      .cls-7 {
        fill: #c13333;
      }

      .cls-8 {
        fill: #d6805b;
      }

      .cls-9 {
        fill: #384378;
      }

      .cls-10 {
        fill: #242a4d;
      }

      .cls-11 {
        fill: #ed9d66;
      }

      .cls-12 {
        fill: #feeecc;
      }

      .cls-13 {
        fill: #112f63;
      }

      .cls-14 {
        fill: #0d213f;
      }

      .cls-15 {
        fill: #bf2c2c;
      }

      .cls-16 {
        fill: #d9d8ea;
      }

      .cls-17 {
        fill: #dd7850;
      }

      .cls-18 {
        fill: #75341b;
      }

      .cls-19 {
        fill: #9a4c29;
      }

      .cls-20 {
        fill: #ddf6ff;
      }
    </style>
  </defs>
  <g id="personas-en-globo-aerostatico" transform="translate(-2672.38 -708.574)">
    <path id="Trazado_34667" data-name="Trazado 34667" class="cls-1" d="M2777.517,963.166c-.166.017-.327.035-.495.059a1.078,1.078,0,0,1,.061-.167C2777.213,962.754,2777.356,962.808,2777.517,963.166Z" transform="translate(-14.478 -35.285)"/>
    <path id="Trazado_34668" data-name="Trazado 34668" class="cls-2" d="M2777.8,963.108l-.2.018c-.029.006-.06.006-.084.012-.166.017-.327.035-.495.059a1.076,1.076,0,0,1,.061-.167C2777.285,962.489,2777.535,962.566,2777.8,963.108Z" transform="translate(-14.478 -35.257)"/>
    <g id="Grupo_10715" data-name="Grupo 10715" transform="translate(3007.877 886.564)">
      <path id="Trazado_34669" data-name="Trazado 34669" class="cls-3" d="M3068.361,943.108a6.612,6.612,0,0,1-6.612-6.611c0-1,0-1.109,3.6-16.17a6.611,6.611,0,0,1,12.861,3.071c-1.233,5.167-3.037,12.794-3.312,14.118A6.615,6.615,0,0,1,3068.361,943.108Z" transform="translate(-3061.749 -915.248)"/>
    </g>
    <g id="Grupo_10781" data-name="Grupo 10781" transform="translate(2672.38 708.574)">
      <path id="Trazado_34670" data-name="Trazado 34670" class="cls-4" d="M3005.628,949.9l39.27,31.359,12.646-42.109,16.438-2.185-12.333,57.623a16.057,16.057,0,0,1-20.906,9.161l-34.05-13.505Z" transform="translate(-2718.487 -740.285)"/>
      <path id="Trazado_34671" data-name="Trazado 34671" class="cls-4" d="M2867.281,930.886a7.874,7.874,0,0,1,6.729-1.9c.2.029.395.055.585.089.079.017.156.029.235.047a15.258,15.258,0,0,1,3.642,1.172s.124.089.344.266c.3.226.78.608,1.379,1.114.668.56,1.482,1.277,2.377,2.115.351.341.711.69,1.082,1.062.513.518,1.045,1.065,1.573,1.647l.621.7c.434.5.863,1.022,1.284,1.553.21.272.423.551.625.833a.182.182,0,0,1,.05.069,1.785,1.785,0,0,1,.11.147c.434.59.841,1.193,1.225,1.819.289.465.561.938.819,1.424,1.562,2.947,2.418,6.138,1.7,9.236-.052.238-.118.475-.194.716a6.3,6.3,0,0,1-.25.708c-.093.248-.207.494-.327.741a8.531,8.531,0,0,0,.817-.988c.14-.2.277-.408.4-.62a10,10,0,0,0,1.2-2.992,11.836,11.836,0,0,0-.544-6.508,19.328,19.328,0,0,0-1.372-3.017A26.361,26.361,0,0,0,2890,938.08l-.161-.235c-.055-.08-.117-.164-.173-.244a42.968,42.968,0,0,0-4.708-5.44c-.356-.352-.7-.687-1.043-1-.505-.469-.979-.9-1.411-1.275-1.428-1.242-2.406-1.96-2.406-1.96s-.4-.2-1.07-.45c-.075-.025-.146-.053-.222-.078-.139-.05-.284-.1-.438-.153a15.212,15.212,0,0,0-2.834-.634c-.322-.035-.653-.065-.989-.074a7.31,7.31,0,0,0-6.036,2.413A8.371,8.371,0,0,0,2867.281,930.886Z" transform="translate(-2699.346 -738.824)"/>
      <path id="Trazado_34672" data-name="Trazado 34672" class="cls-4" d="M2880.9,956.343a9.108,9.108,0,0,0,1.766-.974,10.378,10.378,0,0,0,1.47-1.249,9.079,9.079,0,0,0,.73-.845,9.485,9.485,0,0,0,.59-.85,10.542,10.542,0,0,0,.986-2.09,11,11,0,0,0,.392-1.394c.071-.3.127-.6.174-.91a19.658,19.658,0,0,0,0-5.334c-.014-.105-.024-.2-.038-.309-.138-1-.333-1.995-.565-2.973a1.351,1.351,0,0,0-.033-.148c-.2-.819-.424-1.623-.667-2.4q-.119-.407-.255-.807c-.3-.92-.62-1.79-.944-2.6-.177-.45-.352-.881-.529-1.285-.143-.34-.286-.669-.426-.972-.294-.671-.578-1.262-.822-1.76-.534-1.087-.894-1.717-.894-1.717s-.211-.258-.6-.65c-.3-.3-.695-.678-1.175-1.08a14.688,14.688,0,0,0-1.694-1.224,9.492,9.492,0,0,0-3.9-1.435,6.6,6.6,0,0,0-3.337.477,8.028,8.028,0,0,0-2.212,1.4,6.816,6.816,0,0,1,4.154-.184,9.682,9.682,0,0,1,1.646.595c.36.167.708.353,1.04.546a17.569,17.569,0,0,1,1.464,1.012,16.37,16.37,0,0,1,1.437,1.277c.058.059.112.108.16.158.215.225.374.4.459.5.072.073.1.112.1.112s.423.745,1.034,2.007a51.7,51.7,0,0,1,2.853,7.19c.312,1,.592,2.037.82,3.1.035.154.07.308.1.464.045.221.092.448.126.674a23.64,23.64,0,0,1,.418,4.553,15.122,15.122,0,0,1-.491,3.8,10.9,10.9,0,0,1-1.2,2.853,8.773,8.773,0,0,1-.629.912c-.1.134-.208.267-.319.4A10.378,10.378,0,0,1,2880.9,956.343Z" transform="translate(-2699.573 -738.375)"/>
      <path id="Trazado_34673" data-name="Trazado 34673" class="cls-4" d="M2976.318,875.222s32.749-16.071,33.865,8.132-23.977-.149-32.214,4.283S2976.318,875.222,2976.318,875.222Z" transform="translate(-2714.087 -730.977)"/>
      <path id="Trazado_34674" data-name="Trazado 34674" class="cls-5" d="M2999.926,949.9l39.271,31.359,12.646-42.109,16.438-2.185-12.333,57.623a16.057,16.057,0,0,1-20.906,9.161l-34.049-13.505Z" transform="translate(-2717.698 -740.285)"/>
      <path id="Trazado_34675" data-name="Trazado 34675" class="cls-4" d="M2996.885,886.178s27.584,4.469,20.321,21.741-15.952,23.207-3.443,31.946-12.088,33.1-46.995,3.155S2996.885,886.178,2996.885,886.178Z" transform="translate(-2711.686 -733.234)"/>
      <path id="Trazado_34676" data-name="Trazado 34676" class="cls-6" d="M2993.039,886.178s27.583,4.469,20.321,21.741-15.951,23.207-3.444,31.946-12.088,33.1-46.994,3.155S2993.039,886.178,2993.039,886.178Z" transform="translate(-2711.154 -733.234)"/>
      <g id="Grupo_10716" data-name="Grupo 10716" transform="translate(289.882 153.261)">
        <path id="Trazado_34677" data-name="Trazado 34677" class="cls-6" d="M3008.809,889.1a32.469,32.469,0,0,1,8.908,3.838c2.662,1.729,4.9,4.158,5.575,7.16a10.814,10.814,0,0,1,.018,4.615,16.851,16.851,0,0,1-.639,2.3c-.292.781-.575,1.568-.886,2.344-1.21,3.119-2.614,6.167-4.031,9.228-.707,1.533-1.417,3.071-2.061,4.651a23.273,23.273,0,0,0-1.511,4.941,8.978,8.978,0,0,0,.551,5.213,11.8,11.8,0,0,0,3.233,4.052,25.346,25.346,0,0,0,2.047,1.541,21.847,21.847,0,0,1,2.044,1.435,6.567,6.567,0,0,1,2.352,4.174,7.825,7.825,0,0,1-1,4.786,12.9,12.9,0,0,1-3.237,3.823,12.974,12.974,0,0,0,3.381-3.741,8.073,8.073,0,0,0,1.19-4.907,6.981,6.981,0,0,0-2.352-4.508,22.169,22.169,0,0,0-2.04-1.539,24.425,24.425,0,0,1-1.942-1.564,11.058,11.058,0,0,1-2.907-3.879,8.06,8.06,0,0,1-.334-4.711,22.322,22.322,0,0,1,1.6-4.661c.678-1.523,1.432-3.023,2.188-4.529,1.515-3.011,3.036-6.045,4.37-9.174.343-.778.656-1.568.98-2.357a18.517,18.517,0,0,0,.8-2.54,12.733,12.733,0,0,0,.144-5.42,12.114,12.114,0,0,0-2.295-4.977,17.916,17.916,0,0,0-3.919-3.686,34.862,34.862,0,0,0-9.457-4.464Z" transform="translate(-3008.809 -886.545)"/>
      </g>
      <path id="Trazado_34678" data-name="Trazado 34678" class="cls-6" d="M2969.816,912.247l7,27.323L2951.381,958.7l-6.92-26.673Z" transform="translate(-2710.024 -736.847)"/>
      <path id="Trazado_34679" data-name="Trazado 34679" class="cls-4" d="M2935.893,1039.754l26.39-2.927,28.434-43.3c6.62-4.707,9.891-9.32,11.151-13.407a12.643,12.643,0,0,0-1.457-10.065c-3.914-6.709-10.719-11.257-15.143-17.543l-2.307-3.267c-.765-.5-1.218-.771-1.218-.771l-14.387-2.586-9.754,13.953Z" transform="translate(-2708.839 -741.533)"/>
      <path id="Trazado_34680" data-name="Trazado 34680" class="cls-3" d="M2968.115,944.676l18.707,9.6a1.927,1.927,0,0,0,2.792-2.177L2986.16,939l-7.435-28.2-12.133,1.613.8,16.9Z" transform="translate(-2713.086 -736.645)"/>
      <path id="Trazado_34681" data-name="Trazado 34681" class="cls-6" d="M2952.251,894.093s-18.166-3.628-18.316,16.457-34.927,13.891-34.336,42.24c.2,9.38,6.4,16.494,16.015,16.479,6.856-.011,12.561-3.458,17.073-8.448,6.4-7.08,11.592-16.118,16.564-24.24,6.428-10.5,13.447-22.268,15.319-34.642C2968.073,878.783,2952.251,894.093,2952.251,894.093Z" transform="translate(-2703.816 -733.646)"/>
      <g id="Grupo_10717" data-name="Grupo 10717" transform="translate(211.26 158.752)">
        <path id="Trazado_34682" data-name="Trazado 34682" class="cls-6" d="M2946.81,892.91a15.38,15.38,0,0,0-5.652,1.567,13.6,13.6,0,0,0-4.5,3.727,22.2,22.2,0,0,0-3.989,10.405,12.973,12.973,0,0,1-1.778,4.846,13.736,13.736,0,0,1-3.611,3.78,38.08,38.08,0,0,1-9.72,4.566,38.368,38.368,0,0,0,10.1-4.017,14.555,14.555,0,0,0,4.064-3.773,14.126,14.126,0,0,0,2.253-5.136c.241-.9.408-1.735.666-2.585l.4-1.251c.138-.415.323-.809.482-1.213a15.886,15.886,0,0,1,2.667-4.344,11.434,11.434,0,0,1,3.963-2.9,12.9,12.9,0,0,1,4.8-1.012Z" transform="translate(-2917.563 -892.91)"/>
      </g>
      <path id="Trazado_34683" data-name="Trazado 34683" class="cls-7" d="M2964.66,950.875l-26.774,127.631-54.313,7.221,48.211-141.016Z" transform="translate(-2701.6 -741.431)"/>
      <path id="Trazado_34684" data-name="Trazado 34684" class="cls-8" d="M2967.388,929.316a26.611,26.611,0,0,0,15.4,9.133c1.076.22,2.219.43,3.376.552l-7.435-28.2-12.133,1.613Z" transform="translate(-2713.086 -736.642)"/>
      <path id="Trazado_34685" data-name="Trazado 34685" class="cls-5" d="M2966.2,950.8l-16.141-6.155a21.879,21.879,0,0,0-10.68-1.244c-6.958.924-11.522-2.366-14.852,3.814l-28.833,53.5a9.328,9.328,0,0,0,10.312,13.514l55.183-17.571c4.786-2.551,1.017-14.626-3.77-12.075l-30.7,5.5,13.849-20.558Z" transform="translate(-2703.122 -741.153)"/>
      <path id="Trazado_34686" data-name="Trazado 34686" class="cls-4" d="M2999.2,886.987l1.1,3.3a52.615,52.615,0,0,1,1.235,28.449c-.705,3.012-1.827,6.509-4.756,8.041-3.055,1.6-6.895,1.033-10.125.363-7.04-1.46-13.882-5.671-17.357-12.109-.74-1.372-2.815-4.458-2.7-6.021,0,0,1.117-14.892,1.512-15.239s11.718-8.339,12.278-8.561,4.635-.616,4.635-.616Z" transform="translate(-2713.086 -733.008)"/>
      <path id="Trazado_34687" data-name="Trazado 34687" class="cls-3" d="M2996.066,886.987l1.1,3.3a52.608,52.608,0,0,1,1.236,28.449c-.706,3.012-1.827,6.509-4.756,8.041-3.056,1.6-6.9,1.033-10.125.363-7.039-1.46-13.881-5.671-17.356-12.109-.74-1.372-2.817-4.458-2.7-6.021,0,0,1.116-14.892,1.512-15.239s11.717-8.339,12.277-8.561,4.636-.616,4.636-.616Z" transform="translate(-2712.653 -733.008)"/>
      <path id="Trazado_34688" data-name="Trazado 34688" class="cls-6" d="M2986.355,881.23c.464,11.828-14.018,19.337-22.695,24.385-7.322,4.26-13.737,2.119-14.8-6.612-1.054-8.653,2.066-18.715,7.334-25.577,8.149-10.613,29.107-7.268,30.136,7.362Q2986.347,881.01,2986.355,881.23Z" transform="translate(-2710.605 -730.595)"/>
      <path id="Trazado_34689" data-name="Trazado 34689" class="cls-6" d="M2972.632,875.222s32.749-16.071,33.865,8.132-23.977-.149-32.214,4.283S2972.632,875.222,2972.632,875.222Z" transform="translate(-2713.577 -730.977)"/>
      <g id="Grupo_10718" data-name="Grupo 10718" transform="translate(264.418 136.129)">
        <path id="Trazado_34690" data-name="Trazado 34690" class="cls-6" d="M2980.3,872.931a62,62,0,0,1,9.3-3.463,33.238,33.238,0,0,1,9.745-1.386,15.523,15.523,0,0,1,4.786.858,10.36,10.36,0,0,1,4.048,2.623,11.942,11.942,0,0,1,2.506,4.232,21.817,21.817,0,0,1,.979,4.932A21.98,21.98,0,0,0,3011,875.7a12.471,12.471,0,0,0-2.325-4.574,11.2,11.2,0,0,0-4.175-3.108,16.685,16.685,0,0,0-5.068-1.26,34.82,34.82,0,0,0-10.305.774,64.316,64.316,0,0,0-9.874,2.953Z" transform="translate(-2979.257 -866.638)"/>
      </g>
      <path id="Trazado_34691" data-name="Trazado 34691" class="cls-6" d="M2961.756,907.8a21.2,21.2,0,0,1,4.84,22.973c-5.172,14.183-24.744,14.465-20.259,24.412s-35.387,16.616-25.978-6.667S2961.756,907.8,2961.756,907.8Z" transform="translate(-2706.49 -736.233)"/>
      <g id="Grupo_10719" data-name="Grupo 10719" transform="translate(279.567 175.721)">
        <path id="Trazado_34692" data-name="Trazado 34692" class="cls-8" d="M2997.416,920.657a.578.578,0,0,1-.186-1.124l2.734-.929a.274.274,0,0,0,.166-.152.277.277,0,0,0,0-.226l-2.193-4.8a.577.577,0,1,1,1.05-.48l2.193,4.8a1.432,1.432,0,0,1-.842,1.952l-2.734.929A.586.586,0,0,1,2997.416,920.657Z" transform="translate(-2996.838 -912.609)"/>
      </g>
      <g id="Grupo_10720" data-name="Grupo 10720" transform="translate(274.03 186.984)">
        <path id="Trazado_34693" data-name="Trazado 34693" class="cls-8" d="M2993.941,927.665a5.7,5.7,0,0,1-3.281-.929.577.577,0,1,1,.658-.948c1.945,1.35,4.846.385,4.874.376a.577.577,0,0,1,.375,1.092A8.825,8.825,0,0,1,2993.941,927.665Z" transform="translate(-2990.412 -925.685)"/>
      </g>
      <path id="Trazado_34694" data-name="Trazado 34694" class="cls-3" d="M2971.563,915.142a4.591,4.591,0,0,0,3.947-5.157l-.3-2.221a4.592,4.592,0,0,0-9.1,1.211l.3,2.221A4.591,4.591,0,0,0,2971.563,915.142Z" transform="translate(-2713.014 -735.663)"/>
      <path id="Trazado_34695" data-name="Trazado 34695" class="cls-8" d="M2967.516,909.339l.22,1.651a3.389,3.389,0,0,0,2.143,2.722,3.4,3.4,0,0,1-.829-1.81l-.22-1.651a3.409,3.409,0,0,1,4.613-3.626,3.41,3.41,0,0,0-5.927,2.714Z" transform="translate(-2713.21 -735.898)"/>
      <g id="Grupo_10721" data-name="Grupo 10721" transform="translate(186.291 198.394)">
        <path id="Trazado_34696" data-name="Trazado 34696" class="cls-9" d="M2895.734,1000.46c3.266.638,8.087,0,13.9-1.545,3.206-.847,6.718-1.967,10.435-3.3a1.512,1.512,0,0,1,.183-.06q2.554-.923,5.423-1.937c29.664-10.51,81.1-28.088,89.8-32.973,1-.564,2.045-1.023,3.074-1.536,7.845-3.945,2.093-22.506-6.956-19.9L2923.98,964.42l-18.191,5.236S2875.064,996.385,2895.734,1000.46Z" transform="translate(-2888.585 -938.952)"/>
        <path id="Trazado_34697" data-name="Trazado 34697" class="cls-10" d="M2914.062,1000a24.543,24.543,0,0,0,8.725-.364q2.554-.923,5.423-1.937c3.006-9.469,3.636-20.745-1.694-29.193l-2.4.691S2893.391,995.928,2914.062,1000Z" transform="translate(-2891.12 -943.042)"/>
      </g>
      <g id="Grupo_10722" data-name="Grupo 10722" transform="translate(99.296 201.18)">
        <path id="Trazado_34698" data-name="Trazado 34698" class="cls-11" d="M2819.821,1052.039a2.008,2.008,0,0,1-1.929-1.456l-9.464-33.169c-.008-.026-.015-.053-.022-.078l-13.461-47.183c-.017-.047-.033-.1-.048-.147l-1.554-5.465c-.018-.049-.034-.1-.049-.151l-5.6-19.623a2.007,2.007,0,0,1,3.859-1.1l5.556,19.484c.017.046.033.093.046.14l1.557,5.474c.017.046.033.094.046.143l13.524,47.4c.008.027.014.053.021.079l9.444,33.095a2.008,2.008,0,0,1-1.93,2.558Z" transform="translate(-2787.621 -942.209)"/>
      </g>
      <path id="Trazado_34699" data-name="Trazado 34699" class="cls-9" d="M2815.88,1057.712l3.012.016,19.372.131,5.6.04,10.942.072c.008,0,.157,0,.157,0l1.206.006,6.192.042c.819-.969,1.631-1.937,2.45-2.906.017-.021.028-.039.045-.059q6.182-7.35,12.366-14.694c.778-.926,1.573-1.846,2.378-2.771.993-1.15,2-2.294,3.017-3.44,6.878-7.771,14.031-15.585,19.382-24.289a49.08,49.08,0,0,0,4.933-10.57c.072-.221.142-.446.213-.672,2.4-7.894,2.4-16.371-2.444-23.476-.107-.155-.214-.309-.324-.457-.5-.7-1.024-1.374-1.578-2.016-.575-.672-1.177-1.306-1.81-1.921-.1-.1-.208-.208-.318-.31a39.382,39.382,0,0,0-10.446-6.925c-.6-.284-1.2-.552-1.814-.813-1.1-.473-2.219-.909-3.354-1.317-.762-.271-1.529-.535-2.3-.777-.17-.062-.344-.116-.515-.165-1.825-.574-3.665-1.076-5.5-1.529-.065-.016-.137-.031-.2-.047l-.719-.173c-.059-.014-.116-.027-.169-.043l-1.053-.235a20.028,20.028,0,0,0-5.448-.453c-.211.008-.421.022-.626.04a20.667,20.667,0,0,0-7.813,2.261,19.77,19.77,0,0,0-2.27,1.384,56.366,56.366,0,0,0-7.82,6.973c-.418.443-.841.888-1.267,1.354-1.645,1.787-3.359,3.772-5.1,5.946a142.236,142.236,0,0,0-23.125,41.865A100.6,100.6,0,0,0,2815.51,1049c-.012.7-.01,1.4,0,2.1,0,.014,0,.032,0,.046Q2815.56,1054.424,2815.88,1057.712Z" transform="translate(-2692.182 -743.209)"/>
      <path id="Trazado_34700" data-name="Trazado 34700" class="cls-10" d="M2815.878,1059.283l3.013.019,16.868-7.887q7.433-8.831,14.875-17.656c8.323-9.889,11.085-13.206,17.862-24.229,6.318-10.264,5.494-20.586-1.8-31.26a31.817,31.817,0,0,0-9.565-8.967,20.485,20.485,0,0,0-7.774,2.245C2833.769,988.457,2812.394,1023.522,2815.878,1059.283Z" transform="translate(-2692.182 -744.784)"/>
      <g id="Grupo_10723" data-name="Grupo 10723" transform="translate(209.212 186.577)">
        <path id="Trazado_34701" data-name="Trazado 34701" class="cls-12" d="M2943.99,1027.738a2.007,2.007,0,0,1-1.935-1.48l-26.8-98.477a2.007,2.007,0,0,1,3.873-1.055l26.8,98.478a2.008,2.008,0,0,1-1.938,2.534Z" transform="translate(-2915.186 -925.246)"/>
      </g>
      <g id="Grupo_10724" data-name="Grupo 10724" transform="translate(71.391 103.451)">
        <path id="Trazado_34702" data-name="Trazado 34702" class="cls-11" d="M2785.147,930.52a2.007,2.007,0,0,1-1.929-1.457l-27.905-97.793a2.007,2.007,0,1,1,3.859-1.1l27.905,97.793a2.008,2.008,0,0,1-1.93,2.558Z" transform="translate(-2755.235 -828.712)"/>
      </g>
      <g id="Grupo_10725" data-name="Grupo 10725" transform="translate(257.732 78.279)">
        <path id="Trazado_34703" data-name="Trazado 34703" class="cls-12" d="M2973.5,1015.248a2.011,2.011,0,0,1-2.007-2.033L2974.38,801.5a2.007,2.007,0,0,1,4.013.054l-2.884,211.718A2.006,2.006,0,0,1,2973.5,1015.248Z" transform="translate(-2971.497 -799.516)"/>
      </g>
      <path id="Trazado_34704" data-name="Trazado 34704" class="cls-13" d="M2894.179,916.278l.972,7.321a13.8,13.8,0,0,1-11.826,15.453,13.553,13.553,0,0,1-6.042-.557,13.792,13.792,0,0,1-9.41-11.269l-.974-7.321a13.807,13.807,0,0,1,6.138-13.344,13.562,13.562,0,0,1,5.687-2.117,13.8,13.8,0,0,1,15.454,11.835Z" transform="translate(-2699.276 -735.744)"/>
      <path id="Trazado_34705" data-name="Trazado 34705" class="cls-14" d="M2882.441,918.2l.974,7.321a8.681,8.681,0,1,1-15.541,2.066l-.974-7.321a13.807,13.807,0,0,1,6.138-13.344,13.969,13.969,0,0,1,4.119,2.173A13.754,13.754,0,0,1,2882.441,918.2Z" transform="translate(-2699.276 -736.104)"/>
      <path id="Trazado_34706" data-name="Trazado 34706" class="cls-5" d="M2882.487,885.941l-13.606,1.811C2868.881,887.745,2882.487,885.941,2882.487,885.941Z" transform="translate(-2699.567 -733.186)"/>
      <path id="Trazado_34707" data-name="Trazado 34707" class="cls-5" d="M2926.772,735.938l-11.312,63.649c0,.005-4.965,27.94-4.965,27.94l-6.293,35.426,6.246-35.39c.006-.006,3.5-19.818,3.5-19.818l1.437-8.142c0-.006,11.235-63.66,11.235-63.66A1.232,1.232,0,0,0,2926.772,735.938Z" transform="translate(-2704.454 -712.36)"/>
      <path id="Trazado_34708" data-name="Trazado 34708" class="cls-15" d="M2811.262,869.109l-9.292,1.24c-.023.006-28.817-28.352-28.817-28.352l-25.813-25.431-.733-.727-22.016-21.683-15.067-14.835-3.457-3.409-4.918-4.84q-2.093-2.1-4.076-4.268-3.335-3.638-6.378-7.468c-.56-.709-1.12-1.418-1.663-2.139a.651.651,0,0,1-.078-.1c-.512-.667-1.012-1.347-1.513-2.026-.061-.078-.114-.155-.173-.233-.4-.555-.8-1.115-1.2-1.675-.149-.2-.292-.411-.435-.62-.042-.054-.084-.114-.126-.173-.393-.566-.787-1.132-1.174-1.7l-.072-.108-.221-.327a142.948,142.948,0,0,1-11.658-20.9c5.143-1.281,12.218-3.8,14.316-4.25q8.171-1.769,16.427-3.117,2.253,6.213,4.964,12.218.5,1.118,1.031,2.229c.262.56.525,1.12.793,1.675s.554,1.132.835,1.692c.089.19.184.376.28.56.244.495.495.984.751,1.473.381.756.781,1.514,1.186,2.264.274.513.554,1.025.834,1.538.042.084.084.161.131.239.263.489.525.965.8,1.442s.543.965.823,1.442c.2.352.411.7.62,1.055.041.083.09.161.137.239.292.495.59.989.888,1.484.417.691.846,1.389,1.281,2.074.322.513.638,1.013.971,1.52.054.1.114.184.179.28.119.19.244.388.375.578.274.429.554.852.846,1.275a.242.242,0,0,0,.042.06c.1.143.191.285.286.423.549.828,1.115,1.651,1.693,2.461.345.5.691.984,1.049,1.473.537.745,1.079,1.484,1.634,2.217.327.441.661.876,1,1.311a.258.258,0,0,0,.047.065c.167.221.34.435.513.656a.372.372,0,0,0,.06.084c.131.166.262.339.387.507.256.321.513.644.769.959l9.679,11.861,27.721,33.979,9.453,11.593,2.908,3.564,3.845,4.715,3.534,4.332,1.991,2.444Z" transform="translate(-2672.38 -710.427)"/>
      <path id="Trazado_34709" data-name="Trazado 34709" class="cls-5" d="M2886.99,861.663l-7.027.942-3.51.464-3.773.5-1.722.227-8.111,1.079-1.365.185-10.18,1.347,5.9-.787,4.28-.566c0-.006-8.44-33.651-8.44-33.651s-6.573-26.219-6.573-26.219l-20.891-83.334-.321-1.276.333,1.276,21.682,83.227,6.681,25.652,8.893,34.133,13.607-1.8,5.709-.763Z" transform="translate(-2693.531 -710.234)"/>
      <path id="Trazado_34710" data-name="Trazado 34710" class="cls-5" d="M2926.772,735.938l-11.312,63.649c0,.005-4.965,27.94-4.965,27.94l-6.293,35.426,6.246-35.39c.006-.006,3.5-19.818,3.5-19.818l1.437-8.142c0-.006,11.235-63.66,11.235-63.66A1.232,1.232,0,0,0,2926.772,735.938Z" transform="translate(-2704.454 -712.36)"/>
      <path id="Trazado_34711" data-name="Trazado 34711" class="cls-5" d="M3009.151,708.574a141.014,141.014,0,0,1-10.246,23.578c-.4.745-.823,1.491-1.246,2.235l-29.407,54.72c0,.005-17.171,31.957-17.171,31.957l-18.631,34.67-.268.042-1.056.137-9.274,1.228L2937.1,819.8l11.449-28.066c0-.006,21.933-53.73,21.933-53.73.3-.7.609-1.4.9-2.11.113-.274.232-.554.34-.828.25-.6.494-1.21.733-1.818.417-1.049.816-2.1,1.2-3.165.184-.495.364-.989.542-1.49.119-.333.232-.674.352-1.013.274-.775.536-1.549.787-2.331.191-.566.375-1.132.554-1.7a2.894,2.894,0,0,0,.09-.292c.072-.221.143-.447.209-.667-.066.22-.131.446-.2.667,6.1-1.8,12.123-3.749,18.053-5.751C3002.172,714.755,3007,711.751,3009.151,708.574Z" transform="translate(-2706.896 -708.574)"/>
      <g id="Grupo_10726" data-name="Grupo 10726" transform="translate(186.476 205.643)">
        <path id="Trazado_34712" data-name="Trazado 34712" class="cls-3" d="M2891.7,973.787a10.037,10.037,0,0,0,14.188.068l.312-.307,9.115-9.023A10.034,10.034,0,1,0,2901.2,950.26l-9.428,9.33a9.787,9.787,0,0,0-1.855,2.522A10.035,10.035,0,0,0,2891.7,973.787Z" transform="translate(-2888.799 -947.359)"/>
      </g>
      <path id="Trazado_34713" data-name="Trazado 34713" class="cls-4" d="M2862.846,864.863c0,.012-1.365.191-1.365.191s-8.44-33.651-8.44-33.651-6.573-26.219-6.573-26.219l-20.891-83.334-.321-1.276.333,1.276,21.682,83.227,6.681,25.652Z" transform="translate(-2693.531 -710.234)"/>
      <path id="Trazado_34714" data-name="Trazado 34714" class="cls-16" d="M2831.42,866.343l-15.222,2.021L2792.4,839.2l-1.99-2.444-3.535-4.332-3.845-4.715-2.908-3.564-9.453-11.593-27.721-33.979-9.679-11.86c-.256-.321-.513-.644-.763-.965-.137-.167-.269-.334-.394-.5a.359.359,0,0,1-.06-.084c-.173-.221-.346-.435-.513-.656a.251.251,0,0,1-.047-.065c-.34-.435-.674-.87-1-1.311-.555-.733-1.1-1.472-1.634-2.217-.352-.489-.7-.977-1.048-1.473-.578-.81-1.144-1.633-1.693-2.461-.095-.138-.19-.28-.286-.423a.243.243,0,0,1-.042-.06c-.286-.423-.566-.846-.846-1.275-.131-.19-.257-.388-.375-.578-.065-.1-.125-.184-.18-.28-.327-.507-.648-1.013-.971-1.52-.436-.685-.858-1.377-1.281-2.074-.3-.495-.6-.983-.889-1.484-.047-.078-.1-.155-.137-.239-.208-.352-.417-.7-.62-1.055-.28-.477-.555-.96-.823-1.442s-.542-.96-.8-1.442c-.048-.078-.089-.155-.131-.239-.28-.513-.56-1.025-.834-1.538-.406-.75-.8-1.508-1.187-2.264-.256-.489-.507-.978-.75-1.473-.1-.184-.191-.37-.28-.56-.28-.56-.555-1.126-.829-1.692s-.537-1.115-.8-1.675c-.352-.739-.691-1.484-1.031-2.229q-2.708-6-4.964-12.218,8.242-1.36,16.544-2.313a298.185,298.185,0,0,1,30.922-1.961c.142-.119.286-.238.423-.364l.178.358,18.989,37.674,12.075,23.959,15.008,29.783c0,.006,12.844,25.492,12.844,25.492Z" transform="translate(-2677.316 -709.682)"/>
      <path id="Trazado_34715" data-name="Trazado 34715" class="cls-4" d="M2876.453,863.063l-5.5.733-8.111,1.079-1.365.179c0-.006-8.44-33.651-8.44-33.651s-6.573-26.219-6.573-26.219l-20.891-83.334-.321-1.276.333,1.276,21.682,83.227,6.681,25.652,8.893,34.133Z" transform="translate(-2693.531 -710.234)"/>
      <path id="Trazado_34716" data-name="Trazado 34716" class="cls-4" d="M2926.772,734.508c15.782-.869,31.5-4.4,46.769-8.9a2.9,2.9,0,0,1-.09.292c-.179.572-.364,1.138-.554,1.7-.251.782-.512,1.556-.787,2.331-.12.34-.233.68-.352,1.013-.178.5-.358,1-.542,1.49q-.582,1.591-1.2,3.165-.359.912-.733,1.818c-.108.274-.227.554-.34.828-.3.71-.6,1.413-.9,2.11l-21.933,53.724c0,.006-11.449,28.072-11.449,28.072L2919.411,859.5l-15.21,2.026,6.293-35.426,4.965-27.935C2915.459,798.157,2926.772,734.508,2926.772,734.508Z" transform="translate(-2704.454 -710.93)"/>
      <path id="Trazado_34717" data-name="Trazado 34717" class="cls-4" d="M2984.675,725.5c.072-.221.143-.447.208-.667-.065.22-.131.446-.2.667Z" transform="translate(-2715.588 -710.823)"/>
      <path id="Trazado_34718" data-name="Trazado 34718" class="cls-4" d="M2926.772,735.938l-11.312,63.649c0,.005-4.965,27.94-4.965,27.94l-6.293,35.426,6.246-35.39c.006-.006,3.5-19.818,3.5-19.818l1.437-8.142c0-.006,11.235-63.66,11.235-63.66A1.232,1.232,0,0,0,2926.772,735.938Z" transform="translate(-2704.454 -712.36)"/>
      <path id="Trazado_34719" data-name="Trazado 34719" class="cls-14" d="M2918.465,879.414l-8.148,32.071-22.022,2.926-11.736,1.561-1.9.257-13.643,1.812L2839,920.968l-16.015-28.418-.06-.108-.173-.3c.024-.006,35.4-4.709,35.4-4.709l2.987-.393,1.365-.185,8.112-1.073c0-.006,1.722-.233,1.722-.233l3.773-.5,3.51-.464,13.315-1.777,24.484-3.254Z" transform="translate(-2693.185 -732.288)"/>
      <path id="Trazado_34720" data-name="Trazado 34720" class="cls-15" d="M2852.984,864.552l-4.28.572-2.979.393-2.921.394-3.665.489L2822.76,833.9l-12.844-25.486c0-.006-15.008-29.789-15.008-29.789l-12.075-23.959L2763.845,717a293.719,293.719,0,0,1,30.1,1.282q11.551,1.081,23.131,3.075l20.891,83.334,6.573,26.207C2844.551,830.907,2852.984,864.552,2852.984,864.552Z" transform="translate(-2685.035 -709.738)"/>
      <path id="Trazado_34721" data-name="Trazado 34721" class="cls-5" d="M2857.818,864.759l-4.28.572-2.979.393-10.806-30.736-.047-.126-9.465-26.927c0-.006-.458-1.311-.458-1.311l-9.774-27.786-4.333-12.331-16.891-48.02q11.551,1.081,23.131,3.075l20.891,83.334,6.573,26.207C2849.385,831.115,2857.818,864.759,2857.818,864.759Z" transform="translate(-2689.869 -709.945)"/>
      <path id="Trazado_34722" data-name="Trazado 34722" class="cls-5" d="M2860.793,888.819l4.284-.569c0,.007-13.851,1.845-13.851,1.845Z" transform="translate(-2697.124 -733.506)"/>
      <path id="Trazado_34723" data-name="Trazado 34723" class="cls-5" d="M2876.453,863.063l-5.5.733-8.111,1.079-1.365.179c0-.006-8.44-33.651-8.44-33.651s-6.573-26.219-6.573-26.219l-20.891-83.334-.321-1.276.333,1.276,21.682,83.227,6.681,25.652,8.893,34.133Z" transform="translate(-2693.531 -710.234)"/>
      <path id="Trazado_34724" data-name="Trazado 34724" class="cls-5" d="M2923.853,735.531l-11.235,63.654c0,.006-1.437,8.148-1.437,8.148l-3.5,19.818-6.246,35.39-3.755.5-2.533.333-4.828.638-1.568-33.412c0-.006-1.3-28.066-1.3-28.066l-3.26-69.584a227.008,227.008,0,0,0,30.366,2.766Q2919.2,735.787,2923.853,735.531Z" transform="translate(-2701.685 -711.947)"/>
      <path id="Trazado_34725" data-name="Trazado 34725" class="cls-4" d="M2882.216,862.505l-5.709.763-13.607,1.8-8.893-34.133-6.681-25.652-21.682-83.227c1.514.256,3.028.53,4.542.81,15.269,2.837,30.521,6.241,45.9,8.577l3.26,69.584,1.305,28.06C2880.648,829.094,2882.216,862.505,2882.216,862.505Z" transform="translate(-2693.585 -710.439)"/>
      <path id="Trazado_34726" data-name="Trazado 34726" class="cls-4" d="M2876.453,863.063c0,.006-3.773.507-3.773.507l-1.722.233-8.111,1.073-1.365.185c0-.012-8.44-33.657-8.44-33.657s-6.573-26.219-6.573-26.219l-20.891-83.334-.321-1.276.333,1.276,21.682,83.227,6.681,25.652,8.893,34.133Z" transform="translate(-2693.531 -710.234)"/>
      <path id="Trazado_34727" data-name="Trazado 34727" class="cls-13" d="M2926.152,879.41,2918,911.486l-35.659,4.741-4.049-30.454Z" transform="translate(-2700.87 -732.286)"/>
      <g id="Grupo_10727" data-name="Grupo 10727" transform="translate(181.399 184.561)">
        <path id="Trazado_34728" data-name="Trazado 34728" class="cls-13" d="M2886.916,934.371a4.014,4.014,0,0,1-.524-7.993l26.083-3.468a4.014,4.014,0,1,1,1.058,7.958l-26.083,3.468A4.164,4.164,0,0,1,2886.916,934.371Z" transform="translate(-2882.907 -922.874)"/>
      </g>
      <g id="Grupo_10728" data-name="Grupo 10728" transform="translate(151.564 194.217)">
        <path id="Trazado_34729" data-name="Trazado 34729" class="cls-11" d="M2850.288,1040.193a2.006,2.006,0,0,1-2.007-2.008l.136-102.059a2.007,2.007,0,0,1,4.014.005l-.136,102.058A2.007,2.007,0,0,1,2850.288,1040.193Z" transform="translate(-2848.281 -934.121)"/>
      </g>
      <g id="Grupo_10729" data-name="Grupo 10729" transform="translate(149.693 188.401)">
        <path id="Trazado_34730" data-name="Trazado 34730" class="cls-14" d="M2850.119,939.2a4.014,4.014,0,0,1-.524-7.994l28.894-3.841a4.014,4.014,0,1,1,1.058,7.957l-28.895,3.842A3.993,3.993,0,0,1,2850.119,939.2Z" transform="translate(-2846.11 -927.333)"/>
      </g>
      <g id="Grupo_10752" data-name="Grupo 10752" transform="translate(101.19 270.483)">
        <g id="Grupo_10730" data-name="Grupo 10730" transform="translate(5.898)">
          <path id="Trazado_34731" data-name="Trazado 34731" class="cls-4" d="M2814.8,1063.576l22.074,71.252a23.089,23.089,0,0,0,25.051,16.069l86.081-11.245a23.1,23.1,0,0,0,20.113-23.224l-1.01-72.747Z" transform="translate(-2799.173 -1025.607)"/>
          <path id="Trazado_34732" data-name="Trazado 34732" class="cls-4" d="M2849.7,1059.452l109.853-14.35,10.879-1.421,1.01,72.747a23.1,23.1,0,0,1-20.113,23.224l-10.878,1.421-43.625,5.7-10.879,1.421a23.1,23.1,0,0,1-25.059-16.068l-22.066-71.253Z" transform="translate(-2802.496 -1025.607)"/>
          <path id="Trazado_34733" data-name="Trazado 34733" class="cls-4" d="M2796.751,1055.323a10.237,10.237,0,0,0,11.475,8.824l161.193-21.056a10.235,10.235,0,0,0-2.651-20.3l-161.194,21.056A10.237,10.237,0,0,0,2796.751,1055.323Z" transform="translate(-2796.664 -1022.705)"/>
          <path id="Trazado_34734" data-name="Trazado 34734" class="cls-4" d="M2850.333,1049.292a10.206,10.206,0,0,0,3.906,6.785,1.028,1.028,0,0,0,.107.075,10.186,10.186,0,0,0,7.463,1.965l115.024-15.025a10.235,10.235,0,0,0-2.651-20.3l-115.025,15.025A10.237,10.237,0,0,0,2850.333,1049.292Z" transform="translate(-2804.077 -1022.705)"/>
        </g>
        <g id="Grupo_10731" data-name="Grupo 10731" transform="translate(0 0.728)">
          <path id="Trazado_34735" data-name="Trazado 34735" class="cls-17" d="M2807.954,1064.421l22.074,71.252a23.089,23.089,0,0,0,25.051,16.069l86.082-11.245a23.1,23.1,0,0,0,20.113-23.224l-1.01-72.747Z" transform="translate(-2792.328 -1026.452)"/>
          <path id="Trazado_34736" data-name="Trazado 34736" class="cls-11" d="M2842.856,1060.3l109.853-14.35,10.879-1.421,1.01,72.747a23.1,23.1,0,0,1-20.113,23.224l-10.879,1.421-43.624,5.7-10.879,1.421a23.1,23.1,0,0,1-25.059-16.068l-22.067-71.253Z" transform="translate(-2795.651 -1026.452)"/>
          <path id="Trazado_34737" data-name="Trazado 34737" class="cls-17" d="M2789.906,1056.168a10.237,10.237,0,0,0,11.475,8.823l161.193-21.056a10.235,10.235,0,0,0-2.651-20.3l-161.194,21.056A10.237,10.237,0,0,0,2789.906,1056.168Z" transform="translate(-2789.819 -1023.55)"/>
          <path id="Trazado_34738" data-name="Trazado 34738" class="cls-11" d="M2843.488,1050.137a10.207,10.207,0,0,0,3.907,6.785.888.888,0,0,0,.107.075,10.183,10.183,0,0,0,7.462,1.965l115.024-15.025a10.235,10.235,0,0,0-2.651-20.3l-115.024,15.025A10.237,10.237,0,0,0,2843.488,1050.137Z" transform="translate(-2797.232 -1023.55)"/>
        </g>
        <g id="Grupo_10732" data-name="Grupo 10732" transform="translate(18.049 31.73)">
          <path id="Trazado_34739" data-name="Trazado 34739" class="cls-12" d="M2812.771,1083.23a2.007,2.007,0,0,1-.262-4l148.075-19.687a2.007,2.007,0,0,1,.528,3.98l-148.074,19.687A2.154,2.154,0,0,1,2812.771,1083.23Z" transform="translate(-2810.766 -1059.53)"/>
        </g>
        <g id="Grupo_10733" data-name="Grupo 10733" transform="translate(33.278 93.531)">
          <path id="Trazado_34740" data-name="Trazado 34740" class="cls-12" d="M2830.445,1152.677a2.007,2.007,0,0,1-.262-4l130.939-17.409a2.007,2.007,0,0,1,.528,3.98l-130.938,17.409A2.188,2.188,0,0,1,2830.445,1152.677Z" transform="translate(-2828.44 -1131.254)"/>
        </g>
        <g id="Grupo_10734" data-name="Grupo 10734" transform="translate(25.238 46.078)">
          <path id="Trazado_34741" data-name="Trazado 34741" class="cls-12" d="M2838.518,1106.008a18.665,18.665,0,0,1-18.462-16.182l-.93-6.99a2.006,2.006,0,0,1,1.725-2.254l32.97-4.383a2.007,2.007,0,0,1,.529,3.98l-30.98,4.118.665,5a14.624,14.624,0,0,0,29.114-2.359,2.007,2.007,0,0,1,1.944-2.069,2.032,2.032,0,0,1,2.068,1.944,18.646,18.646,0,0,1-18.642,19.195Z" transform="translate(-2819.109 -1076.182)"/>
        </g>
        <g id="Grupo_10735" data-name="Grupo 10735" transform="translate(59.619 50.815)">
          <path id="Trazado_34742" data-name="Trazado 34742" class="cls-12" d="M2877.046,1102.383a18.734,18.734,0,0,1-17.959-13.556,2.007,2.007,0,1,1,3.864-1.09,14.625,14.625,0,0,0,28.7-4.04,2.007,2.007,0,1,1,4.013-.02,18.62,18.62,0,0,1-18.613,18.706Z" transform="translate(-2859.011 -1081.679)"/>
        </g>
        <g id="Grupo_10736" data-name="Grupo 10736" transform="translate(58.207 41.695)">
          <path id="Trazado_34743" data-name="Trazado 34743" class="cls-12" d="M2859.377,1079.492a2.007,2.007,0,0,1-.261-4l32.969-4.383a2.007,2.007,0,1,1,.529,3.979l-32.969,4.384A2.149,2.149,0,0,1,2859.377,1079.492Z" transform="translate(-2857.373 -1071.095)"/>
        </g>
        <g id="Grupo_10737" data-name="Grupo 10737" transform="translate(92.445 45.998)">
          <path id="Trazado_34744" data-name="Trazado 34744" class="cls-12" d="M2915.229,1097.23a18.592,18.592,0,0,1-18.062-14.174,2.007,2.007,0,1,1,3.9-.957,14.625,14.625,0,0,0,28.815-3.941,2.007,2.007,0,0,1,4.013-.125,18.574,18.574,0,0,1-16.174,19.032A18.873,18.873,0,0,1,2915.229,1097.23Z" transform="translate(-2897.108 -1076.089)"/>
        </g>
        <g id="Grupo_10738" data-name="Grupo 10738" transform="translate(91.177 37.311)">
          <path id="Trazado_34745" data-name="Trazado 34745" class="cls-12" d="M2897.641,1074.4a2.007,2.007,0,0,1-.262-4l32.97-4.383a2.007,2.007,0,0,1,.529,3.979l-32.97,4.383A2.017,2.017,0,0,1,2897.641,1074.4Z" transform="translate(-2895.636 -1066.007)"/>
        </g>
        <g id="Grupo_10739" data-name="Grupo 10739" transform="translate(124.147 32.927)">
          <path id="Trazado_34746" data-name="Trazado 34746" class="cls-12" d="M2953.331,1090.745a18.693,18.693,0,0,1-17.991-13.732,2.007,2.007,0,0,1,3.873-1.052,14.624,14.624,0,0,0,28.6-5.78l-.664-5-30.98,4.12a2.007,2.007,0,0,1-.529-3.979l32.97-4.384a2.014,2.014,0,0,1,2.254,1.726l.93,6.99a18.633,18.633,0,0,1-18.466,21.092Z" transform="translate(-2933.9 -1060.919)"/>
        </g>
        <g id="Grupo_10740" data-name="Grupo 10740" transform="translate(49.852 44.967)">
          <path id="Trazado_34747" data-name="Trazado 34747" class="cls-12" d="M2858.031,1088.447a10.451,10.451,0,0,1-10.338-9.062,2.007,2.007,0,0,1,3.979-.529,6.422,6.422,0,1,0,12.733-1.692,2.007,2.007,0,0,1,3.979-.529,10.446,10.446,0,0,1-10.353,11.812Z" transform="translate(-2847.676 -1074.892)"/>
        </g>
        <g id="Grupo_10741" data-name="Grupo 10741" transform="translate(82.962 40.565)">
          <path id="Trazado_34748" data-name="Trazado 34748" class="cls-12" d="M2896.458,1083.338a10.451,10.451,0,0,1-10.338-9.062,2.006,2.006,0,1,1,3.978-.528,6.422,6.422,0,0,0,12.733-1.693,2.007,2.007,0,0,1,3.979-.529,10.445,10.445,0,0,1-10.352,11.812Z" transform="translate(-2886.102 -1069.783)"/>
        </g>
        <g id="Grupo_10742" data-name="Grupo 10742" transform="translate(115.791 36.2)">
          <path id="Trazado_34749" data-name="Trazado 34749" class="cls-12" d="M2934.559,1078.271a10.452,10.452,0,0,1-10.339-9.061,2.007,2.007,0,0,1,3.979-.529,6.422,6.422,0,0,0,12.732-1.693,2.007,2.007,0,1,1,3.979-.528,10.449,10.449,0,0,1-8.97,11.72A10.585,10.585,0,0,1,2934.559,1078.271Z" transform="translate(-2924.202 -1064.718)"/>
        </g>
        <g id="Grupo_10745" data-name="Grupo 10745" transform="translate(50.61 55.662)">
          <g id="Grupo_10743" data-name="Grupo 10743" transform="translate(0 9.786)">
            <rect id="Rectángulo_8901" data-name="Rectángulo 8901" class="cls-18" width="20.579" height="23.1" rx="6.934" transform="matrix(0.991, -0.132, 0.132, 0.991, 0, 2.712)"/>
            <path id="Trazado_34750" data-name="Trazado 34750" class="cls-19" d="M2871.014,1121.839l-3.028.4a11.55,11.55,0,1,1-3.044-22.9l3.027-.4a5.975,5.975,0,0,1,6.71,5.135l1.469,11.054A5.974,5.974,0,0,1,2871.014,1121.839Z" transform="translate(-2849.435 -1098.693)"/>
          </g>
          <path id="Trazado_34751" data-name="Trazado 34751" class="cls-19" d="M2865.976,1097.008l-9.337,1.241-4-8.97,14.854-1.975Z" transform="translate(-2849.12 -1087.304)"/>
          <g id="Grupo_10744" data-name="Grupo 10744" transform="translate(4.92 7.465)">
            <path id="Trazado_34752" data-name="Trazado 34752" class="cls-12" d="M2856.271,1101.375a2.007,2.007,0,0,1-.263-4l10.478-1.393a2.007,2.007,0,0,1,.529,3.98l-10.478,1.392A2.165,2.165,0,0,1,2856.271,1101.375Z" transform="translate(-2854.265 -1095.968)"/>
          </g>
        </g>
        <g id="Grupo_10748" data-name="Grupo 10748" transform="translate(83.552 51.282)">
          <g id="Grupo_10746" data-name="Grupo 10746" transform="translate(0 9.786)">
            <rect id="Rectángulo_8902" data-name="Rectángulo 8902" class="cls-18" width="20.579" height="23.1" rx="6.934" transform="matrix(0.991, -0.132, 0.132, 0.991, 0, 2.712)"/>
            <path id="Trazado_34753" data-name="Trazado 34753" class="cls-19" d="M2909.246,1116.757l-3.027.4a11.55,11.55,0,0,1-3.045-22.9l3.028-.4a5.974,5.974,0,0,1,6.709,5.135l1.47,11.054A5.975,5.975,0,0,1,2909.246,1116.757Z" transform="translate(-2887.667 -1093.61)"/>
          </g>
          <path id="Trazado_34754" data-name="Trazado 34754" class="cls-19" d="M2904.207,1091.925l-9.337,1.241-4-8.97,14.854-1.975Z" transform="translate(-2887.352 -1082.221)"/>
          <g id="Grupo_10747" data-name="Grupo 10747" transform="translate(4.92 7.466)">
            <path id="Trazado_34755" data-name="Trazado 34755" class="cls-12" d="M2894.5,1096.292a2.007,2.007,0,0,1-.262-4l10.478-1.393a2.007,2.007,0,0,1,.529,3.98l-10.478,1.392A2.148,2.148,0,0,1,2894.5,1096.292Z" transform="translate(-2892.497 -1090.886)"/>
          </g>
        </g>
        <g id="Grupo_10751" data-name="Grupo 10751" transform="translate(116.381 46.917)">
          <g id="Grupo_10749" data-name="Grupo 10749" transform="translate(0 9.786)">
            <rect id="Rectángulo_8903" data-name="Rectángulo 8903" class="cls-18" width="20.579" height="23.1" rx="6.934" transform="translate(0 2.712) rotate(-7.573)"/>
            <path id="Trazado_34756" data-name="Trazado 34756" class="cls-19" d="M2947.346,1111.691l-3.027.4a11.55,11.55,0,0,1-3.045-22.9l3.028-.4a5.975,5.975,0,0,1,6.71,5.135l1.47,11.054A5.975,5.975,0,0,1,2947.346,1111.691Z" transform="translate(-2925.767 -1088.545)"/>
          </g>
          <path id="Trazado_34757" data-name="Trazado 34757" class="cls-19" d="M2942.308,1086.859l-9.336,1.241-4-8.97,14.854-1.975Z" transform="translate(-2925.453 -1077.156)"/>
          <g id="Grupo_10750" data-name="Grupo 10750" transform="translate(4.92 7.466)">
            <path id="Trazado_34758" data-name="Trazado 34758" class="cls-12" d="M2932.6,1091.227a2.007,2.007,0,0,1-.262-4l10.477-1.392a2.007,2.007,0,1,1,.529,3.979l-10.477,1.392A2.013,2.013,0,0,1,2932.6,1091.227Z" transform="translate(-2930.598 -1085.821)"/>
          </g>
        </g>
      </g>
      <g id="Grupo_10753" data-name="Grupo 10753" transform="translate(71.392 78.409)">
        <path id="Trazado_34759" data-name="Trazado 34759" class="cls-12" d="M2757.24,828.7a2.007,2.007,0,0,1-.27-4l1.479-.194,136.063-18.092.1-.01,50.174-6.669c.053-.011.108-.021.164-.027l.608-.078a2.007,2.007,0,0,1,.507,3.982l-.455.058c-.046.01-.094.018-.142.024l-50.348,6.693-.1.01-137.5,18.281A2.11,2.11,0,0,1,2757.24,828.7Z" transform="translate(-2755.235 -799.619)"/>
      </g>
      <g id="Grupo_10759" data-name="Grupo 10759" transform="translate(72.801 78.359)">
        <g id="Grupo_10754" data-name="Grupo 10754" transform="translate(0 18.692)">
          <path id="Trazado_34760" data-name="Trazado 34760" class="cls-11" d="M2782.433,857.91a24.858,24.858,0,0,1-24.693-21.7l-.852-6.442a2.052,2.052,0,0,1,1.764-2.306l46.5-6.187a2.056,2.056,0,0,1,2.306,1.763l.858,6.443a24.974,24.974,0,0,1-21.479,28.065l-1.032.137c-.289.037-.518.066-.752.091A25.851,25.851,0,0,1,2782.433,857.91Zm-21.207-26.648.583,4.41a20.788,20.788,0,0,0,22.824,18.02c.2-.02.393-.046.591-.071l1.07-.142a20.883,20.883,0,0,0,17.952-23.456l-.588-4.407Z" transform="translate(-2756.87 -821.259)"/>
        </g>
        <g id="Grupo_10755" data-name="Grupo 10755" transform="translate(46.867 16.227)">
          <path id="Trazado_34761" data-name="Trazado 34761" class="cls-11" d="M2836.857,851.282a25,25,0,0,1-24.72-21.7l-.857-6.442a2.051,2.051,0,0,1,1.764-2.3l18.194-2.419a2.052,2.052,0,1,1,.541,4.069l-16.159,2.148.586,4.407a20.884,20.884,0,0,0,23.455,17.95l1.03-.136a2.052,2.052,0,1,1,.54,4.069l-1.03.137A25.443,25.443,0,0,1,2836.857,851.282Z" transform="translate(-2811.263 -818.398)"/>
        </g>
        <g id="Grupo_10756" data-name="Grupo 10756" transform="translate(65.061 12.463)">
          <path id="Trazado_34762" data-name="Trazado 34762" class="cls-12" d="M2843.88,850.336a2.052,2.052,0,0,1-.268-4.087,20.885,20.885,0,0,0,17.95-23.455l-.586-4.407L2834.7,821.88a2.052,2.052,0,1,1-.541-4.069l28.309-3.765a2.054,2.054,0,0,1,2.306,1.765l.856,6.442a24.989,24.989,0,0,1-21.479,28.065A2.083,2.083,0,0,1,2843.88,850.336Z" transform="translate(-2832.378 -814.029)"/>
        </g>
        <g id="Grupo_10757" data-name="Grupo 10757" transform="translate(93.737 6.231)">
          <path id="Trazado_34763" data-name="Trazado 34763" class="cls-12" d="M2891.287,843.443a25.026,25.026,0,0,1-24.753-21.7l-.857-6.442a2.051,2.051,0,0,1,1.764-2.3l46.5-6.183a2.052,2.052,0,0,1,2.3,1.765l.856,6.442a24.989,24.989,0,0,1-21.478,28.065l-1.03.137A25.208,25.208,0,0,1,2891.287,843.443ZM2870.016,816.8l.586,4.407a20.91,20.91,0,0,0,23.455,17.95l1.03-.136a20.886,20.886,0,0,0,17.95-23.455l-.586-4.407Z" transform="translate(-2865.659 -806.797)"/>
        </g>
        <g id="Grupo_10758" data-name="Grupo 10758" transform="translate(140.606)">
          <path id="Trazado_34764" data-name="Trazado 34764" class="cls-12" d="M2945.648,836.213a25,25,0,0,1-24.72-21.7l-.857-6.442a2.052,2.052,0,0,1,1.765-2.3l46.5-6.183a2.054,2.054,0,0,1,2.3,1.765l.855,6.442a24.988,24.988,0,0,1-21.477,28.065l-1.031.137A25.433,25.433,0,0,1,2945.648,836.213Zm-21.236-26.649.586,4.407a20.884,20.884,0,0,0,23.454,17.95l1.031-.136a20.883,20.883,0,0,0,17.949-23.455l-.586-4.407Z" transform="translate(-2920.054 -799.565)"/>
        </g>
      </g>
      <path id="Trazado_34765" data-name="Trazado 34765" class="cls-8" d="M2890.1,962.112a37.508,37.508,0,0,0,3.845,4.131,31.853,31.853,0,0,0,12.436,7.306l9.115-9.023a10.034,10.034,0,1,0-14.114-14.265l-9.428,9.33A9.776,9.776,0,0,0,2890.1,962.112Z" transform="translate(-2702.503 -741.715)"/>
      <path id="Trazado_34766" data-name="Trazado 34766" class="cls-6" d="M2876.761,953.754a27.03,27.03,0,0,0,7.8,5.89,19.642,19.642,0,0,0,2.286.958,15.759,15.759,0,0,0,2.1.59,12.056,12.056,0,0,0,4.653.137,8.981,8.981,0,0,0,2.312-.738,8.482,8.482,0,0,0,1.923-1.285,9.653,9.653,0,0,0,1.888-2.3,11.316,11.316,0,0,0,1.519-7.352,13.569,13.569,0,0,0-.384-1.978,15.4,15.4,0,0,0-.478-1.522,23.194,23.194,0,0,0-1.906-3.954c-.465-.779-.963-1.53-1.486-2.264-.221-.313-.451-.616-.681-.919a56.126,56.126,0,0,0-10.041-9.925,14.142,14.142,0,0,0-1.365-.561c-.411-.153-.9-.314-1.449-.459-.437-.121-.906-.227-1.4-.322-.2-.032-.392-.063-.593-.092a12.611,12.611,0,0,0-2.078-.125.907.907,0,0,0-.128,0c-.141,0-.284.007-.42.021a9.187,9.187,0,0,0-1.387.2,7.594,7.594,0,0,0-1.283.4,8.142,8.142,0,0,0-.961.466,8.017,8.017,0,0,0-.749.5c-.078.06-.151.118-.226.184-1.814,1.49-3.235,4.115-3.686,8.5C2869.946,943.562,2872.682,949.339,2876.761,953.754Z" transform="translate(-2699.785 -738.964)"/>
      <path id="Trazado_34767" data-name="Trazado 34767" class="cls-6" d="M2901.427,931.43a15.918,15.918,0,0,0,2.719,2.214,1.555,1.555,0,0,0,.16.1,16.319,16.319,0,0,0,1.968,1.077,24.694,24.694,0,0,0,13.083,1.875c.33-.034.661-.081.991-.128.1-.016.2-.028.294-.044a23.344,23.344,0,0,0,10.178-4.037,13.913,13.913,0,0,0,1.53-1.306,10.453,10.453,0,0,0,2.487-3.684,8.8,8.8,0,0,0,0-6.24,11.849,11.849,0,0,0-6.933-7.058,20.591,20.591,0,0,0-3.78-1.175,37.037,37.037,0,0,0-9.3-.629,57.544,57.544,0,0,0-10.058,1.368S2890.355,920.115,2901.427,931.43Z" transform="translate(-2703.491 -736.854)"/>
      <path id="Trazado_34768" data-name="Trazado 34768" class="cls-6" d="M2867.7,929.471a6.9,6.9,0,0,1,.869-.719,8.443,8.443,0,0,1,6.17-1.125c.36.051.709.12,1.036.2a15.623,15.623,0,0,1,2.72.879c.055.022.1.041.144.061.161.072.252.117.252.117s.309.229.837.648c.454.368,1.063.869,1.773,1.495.677.6,1.45,1.3,2.259,2.1.188.191.384.385.579.58.708.725,1.444,1.515,2.156,2.355q.336.389.656.787c.484.6.956,1.22,1.41,1.855.212.3.423.608.623.918l.184.284c.318.5.625,1.014.906,1.535.271.5.519,1.009.749,1.52a11.9,11.9,0,0,1,.69,9.131,8.447,8.447,0,0,1-.4.951c.071-.077.142-.153.21-.235a8.53,8.53,0,0,0,1-1.376,9.819,9.819,0,0,0,.844-1.774,10.1,10.1,0,0,0,.529-4.65,13.356,13.356,0,0,0-.325-1.784,16.077,16.077,0,0,0-.486-1.556c-.176-.477-.37-.95-.592-1.413a24.436,24.436,0,0,0-1.327-2.439,41.462,41.462,0,0,0-6.965-8.187c-.12-.11-.242-.226-.365-.328-.849-.781-1.6-1.419-2.172-1.886-.715-.579-1.147-.9-1.147-.9s-.224-.11-.621-.275a15.983,15.983,0,0,0-1.618-.561,15.482,15.482,0,0,0-1.9-.425,11.444,11.444,0,0,0-1.912-.134,8.911,8.911,0,0,0-1.561.15A6.991,6.991,0,0,0,2867.7,929.471Z" transform="translate(-2699.404 -738.629)"/>
      <path id="Trazado_34769" data-name="Trazado 34769" class="cls-6" d="M2882.01,955.105l.246-.108a9,9,0,0,0,1.525-.869c.105-.072.208-.149.311-.227a9.454,9.454,0,0,0,.932-.8,9.873,9.873,0,0,0,.711-.754,10.1,10.1,0,0,0,1.26-1.924c.107-.2.2-.414.291-.628a9.228,9.228,0,0,0,.354-.948,17.236,17.236,0,0,0,.483-7.4c-.053-.419-.115-.828-.187-1.245-.068-.393-.141-.784-.223-1.178,0-.024-.01-.053-.017-.084-.058-.267-.119-.539-.183-.8-.134-.572-.289-1.136-.447-1.691-.074-.274-.159-.542-.244-.811-.3-.962-.619-1.89-.946-2.755-.177-.463-.353-.912-.534-1.341-.3-.741-.6-1.423-.876-2.03-.1-.222-.2-.438-.3-.635-.3-.638-.565-1.171-.769-1.564-.28-.534-.449-.831-.449-.831a15.16,15.16,0,0,0-4.6-3.577,8.1,8.1,0,0,0-3.824-.845,7.2,7.2,0,0,0-4.488,1.905,6.313,6.313,0,0,1,1.254-.327,7.191,7.191,0,0,1,3.423.3,10.6,10.6,0,0,1,1.993.9,14.221,14.221,0,0,1,2,1.407c.223.183.427.366.611.533a.828.828,0,0,1,.086.079,12.524,12.524,0,0,1,1.093,1.129s.321.569.807,1.547c.157.315.333.674.521,1.073.341.736.729,1.607,1.125,2.572s.788,2.01,1.153,3.126c.12.35.232.711.342,1.08.265.86.5,1.753.708,2.657,0,.01,0,.024.009.034a29.277,29.277,0,0,1,.565,3.4c.035.349.063.695.085,1.043a17.5,17.5,0,0,1-.262,4.428,11.959,11.959,0,0,1-.761,2.454,10.029,10.029,0,0,1-1.419,2.332,9.176,9.176,0,0,1-.8.869C2882.4,954.773,2882.205,954.942,2882.01,955.105Z" transform="translate(-2699.727 -738.204)"/>
      <path id="Trazado_34770" data-name="Trazado 34770" class="cls-3" d="M2898.2,958.385c6.785,6.262,16.3,10.4,25.278,6.943.219-.084.438-.174.655-.267q.656-.282,1.287-.617c7.782-4.137,9.308-12.509,7.73-20.544a55.569,55.569,0,0,0-3.977-11.931c-2.482-5.538-5.324-12.546-10.107-16.475a19.758,19.758,0,0,0-31.354,8.7C2883.5,936.335,2889.128,950.017,2898.2,958.385Z" transform="translate(-2701.976 -736.663)"/>
      <path id="Trazado_34771" data-name="Trazado 34771" class="cls-6" d="M2883.687,935.856a15.791,15.791,0,0,0,1.615,2.188c.068.081.136.162.207.235.078.09.162.177.246.264.154.159.314.318.48.473a2.969,2.969,0,0,0,.467.368,1.2,1.2,0,0,0,.308.152.859.859,0,0,0,.583.025,1.265,1.265,0,0,0,.556-.47,3.4,3.4,0,0,0,.3-.5,4.084,4.084,0,0,0,.255-.593c.21-.561.347-1.155.513-1.728a7.113,7.113,0,0,1,.361-1.017.542.542,0,0,1,.068-.128.129.129,0,0,1,.03-.065,2.888,2.888,0,0,1,.493-.716,2.062,2.062,0,0,1,.219-.214,2.711,2.711,0,0,1,1.277-.6.1.1,0,0,1,.041-.011,2.6,2.6,0,0,1,.363-.048,4.093,4.093,0,0,1,.706-.01,20.653,20.653,0,0,1,3.255.632,11.438,11.438,0,0,0,1.5.234,9.222,9.222,0,0,0,2.208-.055,3.435,3.435,0,0,0,.369-.064,7.433,7.433,0,0,0,1.639-.508,5.956,5.956,0,0,0,2.045-1.467,6.562,6.562,0,0,0,1.616-3.576,5.952,5.952,0,0,0,.079-.815c0-.08.006-.165.008-.251a3.66,3.66,0,0,0-1-2.75c1.356,1.241,6.946,1.319,8.728,1.5a36.118,36.118,0,0,0,6.359.126,26.06,26.06,0,0,0,2.952-.374c.11-.016.219-.037.327-.059a6.469,6.469,0,0,0,2.862-1.129c.092-.072.179-.156.266-.24a2.867,2.867,0,0,0,.842-1.793,2.056,2.056,0,0,0-.081-.707c.352.256.71.509,1.065.77.286.207.577.411.863.618l-.352-.536a15.531,15.531,0,0,1-2.883-9.043c.011-.63.014-1.275,0-1.925,0-.141-.01-.289-.015-.436-.185-5.715-1.7-11.558-7.29-10.341,0,0-1.241-11.831-8.57-6.1a20.836,20.836,0,0,0-2.779,2.718,14.24,14.24,0,0,0-1.243-.789c-1.963-1.126-5.712-2.751-7.177.16a8.1,8.1,0,0,0-.59,3.96,21.472,21.472,0,0,0-3.5-.583c-2.822-.249-6.823-.1-9.98,2.005-3.374,2.237-5.783,6.706-4.78,15.291.039.341.079.688.117,1.042.06.552.119,1.118.18,1.69.024.217.05.44.075.663.031.325.065.655.1.982.016.124.027.255.045.384.005.056.01.113.018.174.059.508.124,1.026.194,1.542a.4.4,0,0,0,.016.1c.011.132.029.26.049.395.05.369.109.74.167,1.112A26.891,26.891,0,0,0,2883.687,935.856Z" transform="translate(-2701.006 -734.257)"/>
      <g id="Grupo_10760" data-name="Grupo 10760" transform="translate(307.173 197.188)">
        <path id="Trazado_34772" data-name="Trazado 34772" class="cls-3" d="M3049.585,952.919a8.028,8.028,0,0,0-5.448-15.066l-9.45,2.72A8.028,8.028,0,0,0,3039.127,956l9.451-2.72A8.058,8.058,0,0,0,3049.585,952.919Z" transform="translate(-3028.876 -937.538)"/>
      </g>
      <g id="Grupo_10761" data-name="Grupo 10761" transform="translate(319.881 190.494)">
        <path id="Trazado_34773" data-name="Trazado 34773" class="cls-3" d="M3070.721,934.378a2.409,2.409,0,0,0-1.635-4.52l-18.8,5.414c-.056.013-.111.026-.166.042l-4.755,1.37a2.409,2.409,0,0,0,1.335,4.629l4.592-1.323c.055-.012.109-.026.164-.041l18.963-5.461A2.189,2.189,0,0,0,3070.721,934.378Z" transform="translate(-3043.625 -929.764)"/>
      </g>
      <g id="Grupo_10762" data-name="Grupo 10762" transform="translate(311.239 196.75)">
        <path id="Trazado_34774" data-name="Trazado 34774" class="cls-3" d="M3060.7,941.641a2.408,2.408,0,0,0-1.634-4.519l-23.723,6.828a2.408,2.408,0,0,0,1.332,4.629l23.722-6.828A2.169,2.169,0,0,0,3060.7,941.641Z" transform="translate(-3033.596 -937.027)"/>
      </g>
      <g id="Grupo_10763" data-name="Grupo 10763" transform="translate(312.35 200.605)">
        <path id="Trazado_34775" data-name="Trazado 34775" class="cls-3" d="M3061.985,946.118a2.409,2.409,0,0,0-1.635-4.52l-23.722,6.829a2.408,2.408,0,1,0,1.332,4.628l23.722-6.828A2.528,2.528,0,0,0,3061.985,946.118Z" transform="translate(-3034.885 -941.503)"/>
      </g>
      <g id="Grupo_10764" data-name="Grupo 10764" transform="translate(313.459 205.737)">
        <path id="Trazado_34776" data-name="Trazado 34776" class="cls-3" d="M3058.837,952.076a2.408,2.408,0,0,0-1.634-4.519l-19.287,5.552a2.408,2.408,0,1,0,1.332,4.628l19.286-5.552A2.42,2.42,0,0,0,3058.837,952.076Z" transform="translate(-3036.173 -947.462)"/>
      </g>
      <path id="Trazado_34777" data-name="Trazado 34777" class="cls-9" d="M2786.33,1053.893l1.1.008,15.349.1a1.2,1.2,0,0,0,.146.008c.005,0,4.375.024,4.375.024l.062-.066c.17-.191.691-.77,1.507-1.687a.321.321,0,0,0,.058-.058c.674-.75,1.526-1.7,2.548-2.846,3.085-3.445,7.672-8.56,12.972-14.5,8.21-9.206,18.148-20.378,26.946-30.363,6.224-7.069,11.878-13.55,15.938-18.306.088-.11.178-.215.27-.32a15.324,15.324,0,0,0,.6-19.122c-.018-.024-.043-.053-.061-.078a15.178,15.178,0,0,0-11.457-6.053,15.217,15.217,0,0,0-13.932,7.455l-5.648,8.593-22.911,34.842-22.529,34.26s-4.935,7.5-4.935,7.5Z" transform="translate(-2688.146 -743.579)"/>
      <g id="Grupo_10765" data-name="Grupo 10765" transform="translate(216.056 187.791)">
        <path id="Trazado_34778" data-name="Trazado 34778" class="cls-4" d="M2935.431,945.511a9.635,9.635,0,0,1-11.935-6.628l-.017-.061c-.015-.053-.023-.087-.023-.085a1.835,1.835,0,0,1-.053-.227,9.6,9.6,0,0,1,6.363-11.4c.1-.039.22-.074.332-.108a8.588,8.588,0,0,1,1.013-.231,8.917,8.917,0,0,1,1.779-.139,7.276,7.276,0,0,1,1.066.068,5.378,5.378,0,0,1,.578.091,9.6,9.6,0,0,1,4.395,2.064,9.353,9.353,0,0,1,2.25,2.707,9.632,9.632,0,0,1-5.748,13.951Zm-9.139-14.01a7.831,7.831,0,0,0-.676,1.108,7.95,7.95,0,0,0-.649,5.542l.054.222c.013.046.026.091.028.1a8.03,8.03,0,1,0,14.727-6.134,7.8,7.8,0,0,0-1.872-2.252,8.019,8.019,0,0,0-3.677-1.724,4.539,4.539,0,0,0-.461-.073,6.1,6.1,0,0,0-.894-.056,7.445,7.445,0,0,0-1.491.116,7.134,7.134,0,0,0-.83.189c-.076.022-.157.047-.264.085a8,8,0,0,0-.777.293A7.906,7.906,0,0,0,2926.292,931.5Z" transform="translate(-2923.13 -926.627)"/>
      </g>
      <g id="Grupo_10766" data-name="Grupo 10766" transform="translate(197.863 193.015)">
        <path id="Trazado_34779" data-name="Trazado 34779" class="cls-4" d="M2914.317,951.587a9.622,9.622,0,1,1,1.2-.433A9.725,9.725,0,0,1,2914.317,951.587Zm-9.69-13.142a8.027,8.027,0,1,0,4.8-3.83,8.218,8.218,0,0,0-1.013.365A7.964,7.964,0,0,0,2904.628,938.445Z" transform="translate(-2902.015 -932.692)"/>
      </g>
      <g id="Grupo_10767" data-name="Grupo 10767" transform="translate(190.444 203.421)">
        <rect id="Rectángulo_8904" data-name="Rectángulo 8904" class="cls-4" width="1.605" height="8.534" transform="translate(0 1.597) rotate(-84.11)"/>
      </g>
      <path id="Trazado_34780" data-name="Trazado 34780" class="cls-3" d="M2892.75,955.674a5.684,5.684,0,0,0,3.89-7.034l-1.67-5.8a5.683,5.683,0,0,0-10.923,3.143l1.67,5.8A5.684,5.684,0,0,0,2892.75,955.674Z" transform="translate(-2701.634 -740.514)"/>
      <path id="Trazado_34781" data-name="Trazado 34781" class="cls-8" d="M2886.269,946.8l1.165,4.051a3.941,3.941,0,0,0,2.413,2.606,4,4,0,0,1-.255-.654l-1.163-4.042a3.967,3.967,0,0,1,5.2-4.813,3.961,3.961,0,0,0-7.357,2.853Z" transform="translate(-2701.951 -740.932)"/>
      <path id="Trazado_34782" data-name="Trazado 34782" class="cls-3" d="M2778.986,1075.515l27.356-7.874a14.383,14.383,0,0,0-27.356,7.874Z" transform="translate(-2687.111 -757.23)"/>
      <g id="Grupo_10768" data-name="Grupo 10768" transform="translate(217.141 203.802)">
        <path id="Trazado_34783" data-name="Trazado 34783" class="cls-8" d="M2927.763,956.973a.786.786,0,0,0,.212-.136l2.426-2.157a2.68,2.68,0,0,0,.218-3.791l-4.83-5.405a.8.8,0,0,0-1.2,1.069l4.829,5.406a1.076,1.076,0,0,1-.087,1.522l-2.425,2.157a.8.8,0,0,0,.854,1.336Z" transform="translate(-2924.387 -945.216)"/>
      </g>
      <g id="Grupo_10769" data-name="Grupo 10769" transform="translate(213.066 219.153)">
        <path id="Trazado_34784" data-name="Trazado 34784" class="cls-8" d="M2928.2,964.7c.166-.072.268-.123.3-.136a.8.8,0,0,0-.708-1.441c-.045.019-4.549,2.189-6.786.18a.8.8,0,0,0-1.074,1.194C2922.6,966.895,2927.01,965.217,2928.2,964.7Z" transform="translate(-2919.659 -963.037)"/>
      </g>
      <path id="Trazado_34785" data-name="Trazado 34785" class="cls-6" d="M2929.818,941.007a1.889,1.889,0,0,0,.428.763,1.91,1.91,0,0,1,3.279-.943,1.907,1.907,0,1,0-3.707.181Z" transform="translate(-2707.988 -740.489)"/>
      <path id="Trazado_34786" data-name="Trazado 34786" class="cls-6" d="M2912.932,945.867a1.9,1.9,0,0,0,.428.762,1.91,1.91,0,0,1,3.28-.944,1.908,1.908,0,1,0-3.708.182Z" transform="translate(-2705.652 -741.164)"/>
      <path id="Trazado_34787" data-name="Trazado 34787" class="cls-6" d="M2992.526,909.243a1.9,1.9,0,0,1-.266.832,1.91,1.91,0,0,0-3.4-.263,1.907,1.907,0,1,1,3.668-.57Z" transform="translate(-2716.148 -736.134)"/>
      <g id="Grupo_10770" data-name="Grupo 10770" transform="translate(303.704 171.87)">
        <path id="Trazado_34788" data-name="Trazado 34788" class="cls-13" d="M3042.9,922.973a6.007,6.007,0,0,1-1.366-.158l-12.017-2.789a6.021,6.021,0,1,1,2.723-11.729l12.018,2.789a6.022,6.022,0,0,1-1.356,11.887Z" transform="translate(-3024.852 -908.139)"/>
      </g>
      <g id="Grupo_10771" data-name="Grupo 10771" transform="translate(291.252 168.982)">
        <path id="Trazado_34789" data-name="Trazado 34789" class="cls-13" d="M3028.88,919.719a6.049,6.049,0,0,1-1.366-.157l-12.452-2.89a6.021,6.021,0,1,1,2.721-11.73l12.452,2.89a6.021,6.021,0,0,1-1.354,11.886Z" transform="translate(-3010.4 -904.785)"/>
      </g>
      <g id="Grupo_10772" data-name="Grupo 10772" transform="translate(281.207 168.193)">
        <path id="Trazado_34790" data-name="Trazado 34790" class="cls-13" d="M3014.813,914.7a3.991,3.991,0,0,1-.911-.105l-12.053-2.8a4.014,4.014,0,1,1,1.816-7.82l12.053,2.8a4.014,4.014,0,0,1-.9,7.925Z" transform="translate(-2998.741 -903.868)"/>
      </g>
      <g id="Grupo_10773" data-name="Grupo 10773" transform="translate(315.722 174.658)">
        <path id="Trazado_34791" data-name="Trazado 34791" class="cls-4" d="M3058.72,926.645a6,6,0,0,1-1.366-.158l-13.894-3.224a6.021,6.021,0,1,1,2.721-11.73l13.894,3.224a6.022,6.022,0,0,1-1.355,11.887Z" transform="translate(-3038.798 -911.376)"/>
      </g>
      <g id="Grupo_10774" data-name="Grupo 10774" transform="translate(327.609 175.873)">
        <path id="Trazado_34792" data-name="Trazado 34792" class="cls-13" d="M3081.434,933.676a8.078,8.078,0,0,1-1.822-.209l-20.8-4.829a8.028,8.028,0,0,1,3.629-15.64l20.8,4.829a8.029,8.029,0,0,1-1.808,15.849Z" transform="translate(-3052.594 -912.789)"/>
      </g>
      <g id="Grupo_10775" data-name="Grupo 10775" transform="translate(348.412 180.7)">
        <path id="Trazado_34793" data-name="Trazado 34793" class="cls-4" d="M3089.982,935.66a8.02,8.02,0,0,1-1.821-.21l-5.208-1.208a8.028,8.028,0,0,1,3.629-15.64l5.208,1.209a8.029,8.029,0,0,1-1.807,15.85Z" transform="translate(-3076.738 -918.393)"/>
      </g>
      <g id="Grupo_10780" data-name="Grupo 10780" transform="translate(90.234 307.506)">
        <g id="Grupo_10776" data-name="Grupo 10776" transform="translate(17.365)">
          <path id="Trazado_34794" data-name="Trazado 34794" class="cls-3" d="M2802.875,1080.655a4.011,4.011,0,0,0,2.38-3.2l.874-7.327a4.013,4.013,0,1,0-7.97-.951l-.875,7.328a4.015,4.015,0,0,0,5.591,4.155Z" transform="translate(-2797.256 -1065.634)"/>
        </g>
        <g id="Grupo_10777" data-name="Grupo 10777" transform="translate(11.235 1.686)">
          <path id="Trazado_34795" data-name="Trazado 34795" class="cls-3" d="M2795.761,1084.9a4.011,4.011,0,0,0,2.379-3.2l1.149-9.619a4.013,4.013,0,1,0-7.97-.951l-1.148,9.619a4.015,4.015,0,0,0,5.591,4.156Z" transform="translate(-2790.142 -1067.59)"/>
        </g>
        <g id="Grupo_10778" data-name="Grupo 10778" transform="translate(5.652 3.372)">
          <path id="Trazado_34796" data-name="Trazado 34796" class="cls-3" d="M2789.282,1084.568a4.011,4.011,0,0,0,2.38-3.2l.874-7.326a4.013,4.013,0,1,0-7.97-.952l-.875,7.327a4.015,4.015,0,0,0,5.59,4.156Z" transform="translate(-2783.663 -1069.547)"/>
        </g>
        <g id="Grupo_10779" data-name="Grupo 10779" transform="translate(0 5.057)">
          <path id="Trazado_34797" data-name="Trazado 34797" class="cls-3" d="M2782.722,1084.8a4.013,4.013,0,0,0,2.381-3.2l.67-5.606a4.014,4.014,0,1,0-7.971-.953l-.67,5.607a4.015,4.015,0,0,0,5.591,4.156Z" transform="translate(-2777.103 -1071.503)"/>
        </g>
      </g>
    </g>
    <circle id="Elipse_653" data-name="Elipse 653" class="cls-4" cx="44.123" cy="44.123" r="44.123" transform="translate(2974.221 795.418) rotate(-76.717)"/>
    <g id="Grupo_10782" data-name="Grupo 10782" transform="translate(3003.033 882.435)">
      <path id="Trazado_34798" data-name="Trazado 34798" class="cls-3" d="M3058.534,920.666a2.409,2.409,0,0,1-1.807-4l3.637-4.132a2.409,2.409,0,0,1,1.143-.724l4.407-1.267a2.408,2.408,0,1,1,1.331,4.629l-3.73,1.073-3.172,3.6A2.4,2.4,0,0,1,3058.534,920.666Z" transform="translate(-3056.127 -910.45)"/>
    </g>
    <g id="Grupo_10783" data-name="Grupo 10783" transform="translate(3007.881 882.782)">
      <path id="Trazado_34799" data-name="Trazado 34799" class="cls-3" d="M3064.16,920.022a2.408,2.408,0,0,1-1.806-4l3.636-4.132a2.408,2.408,0,0,1,1.687-.813l4.407-.221a2.408,2.408,0,0,1,.241,4.81l-3.392.17-2.964,3.369A2.4,2.4,0,0,1,3064.16,920.022Z" transform="translate(-3061.754 -910.852)"/>
    </g>
    <g id="Grupo_10784" data-name="Grupo 10784" transform="translate(3016.35 884.095)">
      <path id="Trazado_34800" data-name="Trazado 34800" class="cls-3" d="M3073.989,921.546a2.409,2.409,0,0,1-1.807-4l3.636-4.132a2.4,2.4,0,0,1,1.687-.814l4.408-.221a2.408,2.408,0,1,1,.24,4.811l-3.391.17-2.965,3.368A2.4,2.4,0,0,1,3073.989,921.546Z" transform="translate(-3071.583 -912.376)"/>
    </g>
    <g id="Grupo_10785" data-name="Grupo 10785" transform="translate(3011.202 884.057)">
      <path id="Trazado_34801" data-name="Trazado 34801" class="cls-3" d="M3068.014,922.739a2.408,2.408,0,0,1-1.806-4l4.725-5.369a2.4,2.4,0,0,1,1.687-.813l4.407-.221a2.408,2.408,0,0,1,.24,4.811l-3.391.17-4.053,4.605A2.406,2.406,0,0,1,3068.014,922.739Z" transform="translate(-3065.607 -912.333)"/>
    </g>
    <path id="Trazado_34802" data-name="Trazado 34802" class="cls-3" d="M2962.648,1000.242a7.423,7.423,0,0,1,3.053-11.288c3.33-1.4,6.5-2.69,7.154-2.86,4.651-1.211,6.214-1.184,9.45,2.453l1.532,1.722a.936.936,0,0,1-.454,1.526l-.19.052a4.1,4.1,0,0,1-3.829-.916l2.04,1.361,1.014,1.31a1.935,1.935,0,0,1-1.132,3.078l-.695.146.634.5a1.834,1.834,0,0,1-.769,3.234l-.613.126.258.186a1.754,1.754,0,0,1-1.284,3.158l-1.387-.208-9.131-.482a7.415,7.415,0,0,1-5.547-2.96Z" transform="translate(-39.955 -38.415)"/>
    <path id="Trazado_34803" data-name="Trazado 34803" class="cls-20" d="M2763.57,716.584l.178.358c-.2,0-.4.006-.6.006C2763.289,716.829,2763.433,716.71,2763.57,716.584Z" transform="translate(-12.558 -1.108)"/>
    <path id="Trazado_34804" data-name="Trazado 34804" class="cls-20" d="M2825.256,720.575l.333,1.276C2825.577,721.851,2825.256,720.575,2825.256,720.575Z" transform="translate(-21.152 -1.66)"/>
    <path id="Trazado_34805" data-name="Trazado 34805" class="cls-20" d="M2984.675,725.5c.072-.221.143-.447.208-.667-.065.22-.131.446-.2.667Z" transform="translate(-43.208 -2.249)"/>
  </g>
</svg>
