<svg xmlns="http://www.w3.org/2000/svg" width="83.644" height="48" viewBox="0 0 83.644 48">
  <defs>
    <style>
      .cls-1 {
        fill: #fff;
      }

      .cls-2 {
        fill: #1d1d1b;
      }

      .cls-3 {
        fill: none;
        stroke: #a22441;
        stroke-miterlimit: 10;
        stroke-width: 0.709px;
      }
    </style>
  </defs>
  <g id="snef-logo" transform="translate(7430 -13106.73)">
    <path id="Trazado_30951" data-name="Trazado 30951" class="cls-1" d="M3907.643,111.324a1.452,1.452,0,0,1-1.494,1.407h-80.655a1.453,1.453,0,0,1-1.494-1.407V66.138a1.453,1.453,0,0,1,1.494-1.408h80.655a1.453,1.453,0,0,1,1.494,1.408Z" transform="translate(-11254 13042)"/>
    <path id="Trazado_34825" data-name="Trazado 34825" class="cls-2" d="M7.145-2.717v1.462h-6.1V-9.127H7v1.462H2.86v1.709H6.515v1.417H2.86v1.822ZM8.6-9.127h3.576a5.026,5.026,0,0,1,2.266.489,3.663,3.663,0,0,1,1.53,1.378,3.875,3.875,0,0,1,.545,2.069,3.875,3.875,0,0,1-.545,2.069,3.663,3.663,0,0,1-1.53,1.378,5.026,5.026,0,0,1-2.266.489H8.6ZM12.082-2.75a2.646,2.646,0,0,0,1.884-.658,2.324,2.324,0,0,0,.7-1.783,2.324,2.324,0,0,0-.7-1.783,2.646,2.646,0,0,0-1.884-.658H10.417V-2.75Zm9.3,1.631a3.562,3.562,0,0,1-2.626-.933,3.594,3.594,0,0,1-.939-2.665V-9.127h1.822v4.341q0,2.114,1.754,2.114a1.644,1.644,0,0,0,1.3-.512,2.385,2.385,0,0,0,.45-1.6V-9.127h1.8v4.409a3.594,3.594,0,0,1-.939,2.665A3.562,3.562,0,0,1,21.382-1.12Zm9.132,0a4.522,4.522,0,0,1-2.176-.523,3.9,3.9,0,0,1-1.53-1.451,4,4,0,0,1-.557-2.1,4,4,0,0,1,.557-2.1,3.9,3.9,0,0,1,1.53-1.451,4.545,4.545,0,0,1,2.187-.523,4.588,4.588,0,0,1,1.85.36,3.706,3.706,0,0,1,1.389,1.035L32.6-6.788a2.515,2.515,0,0,0-1.979-.922,2.628,2.628,0,0,0-1.3.321,2.279,2.279,0,0,0-.894.894,2.628,2.628,0,0,0-.321,1.3,2.628,2.628,0,0,0,.321,1.3,2.279,2.279,0,0,0,.894.894,2.628,2.628,0,0,0,1.3.321A2.5,2.5,0,0,0,32.6-3.605l1.17,1.08A3.646,3.646,0,0,1,32.37-1.48,4.628,4.628,0,0,1,30.514-1.12Zm9.5-1.822H36.363l-.7,1.687H33.8l3.509-7.872h1.8l3.52,7.872H40.715Zm-.574-1.383L38.2-7.339,36.947-4.325ZM47.1-1.12a4.522,4.522,0,0,1-2.176-.523A3.9,3.9,0,0,1,43.4-3.093a4,4,0,0,1-.557-2.1,4,4,0,0,1,.557-2.1,3.9,3.9,0,0,1,1.53-1.451,4.545,4.545,0,0,1,2.187-.523,4.588,4.588,0,0,1,1.85.36,3.706,3.706,0,0,1,1.389,1.035l-1.17,1.08A2.515,2.515,0,0,0,47.2-7.71a2.628,2.628,0,0,0-1.3.321,2.279,2.279,0,0,0-.894.894,2.628,2.628,0,0,0-.321,1.3,2.628,2.628,0,0,0,.321,1.3,2.279,2.279,0,0,0,.894.894,2.628,2.628,0,0,0,1.3.321,2.5,2.5,0,0,0,1.979-.933l1.17,1.08A3.646,3.646,0,0,1,48.958-1.48,4.628,4.628,0,0,1,47.1-1.12Zm4.476-8.007H53.4v7.872H51.579Zm7.5,8.007a4.6,4.6,0,0,1-2.21-.529A3.923,3.923,0,0,1,55.33-3.1a3.976,3.976,0,0,1-.557-2.086,3.976,3.976,0,0,1,.557-2.086A3.923,3.923,0,0,1,56.87-8.733a4.6,4.6,0,0,1,2.21-.529,4.562,4.562,0,0,1,2.2.529,3.974,3.974,0,0,1,1.541,1.456,3.946,3.946,0,0,1,.562,2.086A3.946,3.946,0,0,1,62.825-3.1a3.974,3.974,0,0,1-1.541,1.456A4.562,4.562,0,0,1,59.08-1.12Zm0-1.552a2.5,2.5,0,0,0,1.26-.321,2.3,2.3,0,0,0,.883-.894,2.628,2.628,0,0,0,.321-1.3,2.628,2.628,0,0,0-.321-1.3,2.3,2.3,0,0,0-.883-.894,2.5,2.5,0,0,0-1.26-.321,2.5,2.5,0,0,0-1.26.321,2.3,2.3,0,0,0-.883.894,2.628,2.628,0,0,0-.321,1.3,2.628,2.628,0,0,0,.321,1.3,2.3,2.3,0,0,0,.883.894A2.5,2.5,0,0,0,59.08-2.672Zm.495-8.716h1.889L59.429-9.768H58.057Zm12.4,2.261v7.872h-1.5l-3.925-4.78v4.78h-1.8V-9.127h1.507l3.914,4.78v-4.78Z" transform="translate(-7424.611 13128.253)"/>
    <path id="Trazado_34826" data-name="Trazado 34826" class="cls-2" d="M2.784-7.178V-5.16H6.317v1.418H2.784V-.961H1.017V-8.6H6.786v1.418ZM7.986-8.6H9.753V-.961H7.986Zm10.579,0V-.961h-1.45L13.308-5.6V-.961H11.563V-8.6h1.461l3.8,4.635V-8.6Zm6.838,6H21.858L21.182-.961h-1.81l3.4-7.634h1.745L27.933-.961H26.079Zm-.556-1.341L23.636-6.862,22.425-3.939ZM35.73-8.6V-.961H34.28L30.474-5.6V-.961H28.729V-8.6H30.19l3.8,4.635V-8.6ZM41.194-.831a4.385,4.385,0,0,1-2.11-.507A3.785,3.785,0,0,1,37.6-2.745a3.876,3.876,0,0,1-.54-2.034,3.876,3.876,0,0,1,.54-2.034,3.785,3.785,0,0,1,1.483-1.407,4.408,4.408,0,0,1,2.121-.507A4.449,4.449,0,0,1,43-8.377a3.593,3.593,0,0,1,1.347,1L43.212-6.327a2.439,2.439,0,0,0-1.919-.894,2.549,2.549,0,0,0-1.265.311,2.21,2.21,0,0,0-.867.867,2.549,2.549,0,0,0-.311,1.265,2.549,2.549,0,0,0,.311,1.265,2.21,2.21,0,0,0,.867.867,2.549,2.549,0,0,0,1.265.311,2.427,2.427,0,0,0,1.919-.905l1.134,1.047A3.535,3.535,0,0,1,42.994-1.18,4.488,4.488,0,0,1,41.194-.831ZM45.535-8.6H47.3V-.961H45.535Zm9.488,6.216V-.961H49.112V-8.6h5.769v1.418H50.868V-5.52h3.544v1.374H50.868v1.767ZM61.294-.961,59.821-3.088H58.2V-.961H56.43V-8.6h3.3a4.241,4.241,0,0,1,1.761.338,2.617,2.617,0,0,1,1.151.96,2.644,2.644,0,0,1,.4,1.472,2.591,2.591,0,0,1-.409,1.467,2.592,2.592,0,0,1-1.161.943L63.191-.961Zm-.033-4.864a1.209,1.209,0,0,0-.414-.987,1.855,1.855,0,0,0-1.211-.344H58.2v2.661h1.44a1.835,1.835,0,0,0,1.211-.349A1.213,1.213,0,0,0,61.261-5.825ZM69.473-2.6H65.929L65.253-.961h-1.81l3.4-7.634H68.59L72-.961H70.149Zm-.556-1.341L67.706-6.862,66.5-3.939Z" transform="translate(-7424.292 13138.507)"/>
    <path id="Trazado_34824" data-name="Trazado 34824" class="cls-2" d="M1.848-.469a2.819,2.819,0,0,1-.9-.144,1.843,1.843,0,0,1-.68-.374l.218-.459a1.8,1.8,0,0,0,.6.344,2.216,2.216,0,0,0,.756.132,1.362,1.362,0,0,0,.765-.174A.535.535,0,0,0,2.866-1.6a.455.455,0,0,0-.138-.344.925.925,0,0,0-.341-.2q-.2-.071-.574-.159a5.912,5.912,0,0,1-.75-.224,1.24,1.24,0,0,1-.488-.344.919.919,0,0,1-.2-.627A1.06,1.06,0,0,1,.545-4.1a1.192,1.192,0,0,1,.527-.424,2.136,2.136,0,0,1,.877-.159,2.774,2.774,0,0,1,.718.094,1.91,1.91,0,0,1,.606.271l-.194.471a2.13,2.13,0,0,0-.553-.25,2.064,2.064,0,0,0-.577-.085A1.271,1.271,0,0,0,1.2-4a.559.559,0,0,0-.25.471.45.45,0,0,0,.141.344.98.98,0,0,0,.35.206,5.47,5.47,0,0,0,.568.156,5.752,5.752,0,0,1,.747.224,1.258,1.258,0,0,1,.485.341.9.9,0,0,1,.2.618,1.052,1.052,0,0,1-.177.591,1.182,1.182,0,0,1-.535.424A2.215,2.215,0,0,1,1.848-.469Zm5.443-.559v.512H4.3V-4.635H7.209v.512H4.89v1.265H6.956v.5H4.89v1.33Zm4.772.512-.006-3-1.489,2.5H10.3L8.809-3.5V-.516H8.244V-4.635h.483l1.718,2.9,1.695-2.9h.483l.006,4.119Zm4.425-1.03H14.3l-.453,1.03H13.24l1.865-4.119h.583L17.559-.516h-.618Zm-.206-.471-.889-2.018L14.5-2.016Zm5.431-2.618V-.516h-.483L18.759-3.587V-.516h-.588V-4.635h.483l2.471,3.072V-4.635Zm3.86,3.089H23.384l-.453,1.03h-.606L24.19-4.635h.583L26.644-.516h-.618Zm-.206-.471-.889-2.018L23.59-2.016Zm7.014-2.618V-.516H31.9L29.427-3.587V-.516h-.588V-4.635h.483l2.471,3.072V-4.635Zm3.86,3.089H34.052L33.6-.516h-.606l1.865-4.119h.583L37.312-.516h-.618Zm-.206-.471-.889-2.018-.889,2.018ZM39.707-.469a2.274,2.274,0,0,1-1.115-.274,2.013,2.013,0,0,1-.78-.753,2.087,2.087,0,0,1-.282-1.08,2.087,2.087,0,0,1,.282-1.08,2.008,2.008,0,0,1,.783-.753,2.291,2.291,0,0,1,1.118-.274,2.333,2.333,0,0,1,.883.162,1.806,1.806,0,0,1,.683.48L40.9-3.67a1.535,1.535,0,0,0-1.159-.488,1.679,1.679,0,0,0-.83.206,1.493,1.493,0,0,0-.58.568,1.589,1.589,0,0,0-.209.809,1.589,1.589,0,0,0,.209.809,1.493,1.493,0,0,0,.58.568,1.679,1.679,0,0,0,.83.206A1.538,1.538,0,0,0,40.9-1.487l.382.371a1.83,1.83,0,0,1-.686.483A2.319,2.319,0,0,1,39.707-.469Zm2.413-4.166h.588V-.516h-.588ZM45.8-.469a2.3,2.3,0,0,1-1.124-.274,2.022,2.022,0,0,1-.786-.756,2.075,2.075,0,0,1-.285-1.077,2.075,2.075,0,0,1,.285-1.077,2.022,2.022,0,0,1,.786-.756A2.3,2.3,0,0,1,45.8-4.682a2.291,2.291,0,0,1,1.118.274,2.008,2.008,0,0,1,.783.753,2.087,2.087,0,0,1,.282,1.08A2.087,2.087,0,0,1,47.7-1.5a2.008,2.008,0,0,1-.783.753A2.291,2.291,0,0,1,45.8-.469Zm0-.524a1.618,1.618,0,0,0,.815-.206,1.511,1.511,0,0,0,.571-.568,1.589,1.589,0,0,0,.209-.809,1.589,1.589,0,0,0-.209-.809,1.511,1.511,0,0,0-.571-.568,1.618,1.618,0,0,0-.815-.206,1.651,1.651,0,0,0-.821.206,1.5,1.5,0,0,0-.577.568,1.589,1.589,0,0,0-.209.809,1.589,1.589,0,0,0,.209.809,1.5,1.5,0,0,0,.577.568A1.651,1.651,0,0,0,45.8-.992Zm6.626-3.642V-.516h-.483L49.474-3.587V-.516h-.588V-4.635h.483L51.84-1.563V-4.635Zm3.86,3.089H54.1l-.453,1.03H53.04l1.865-4.119h.583L57.359-.516h-.618Zm-.206-.471-.889-2.018-.889,2.018Zm1.889-2.618h.588v3.607h2.23v.512H57.971Zm5.078,0h1.736a2.51,2.51,0,0,1,1.159.259,1.9,1.9,0,0,1,.786.727,2.053,2.053,0,0,1,.28,1.074A2.053,2.053,0,0,1,66.73-1.5a1.9,1.9,0,0,1-.786.727,2.51,2.51,0,0,1-1.159.259H63.049Zm1.7,3.607a1.906,1.906,0,0,0,.88-.194,1.4,1.4,0,0,0,.585-.544,1.566,1.566,0,0,0,.206-.809,1.566,1.566,0,0,0-.206-.809,1.4,1.4,0,0,0-.585-.544,1.906,1.906,0,0,0-.88-.194H63.638v3.1Zm6.149,0v.512H67.91V-4.635h2.907v.512H68.5v1.265h2.065v.5H68.5v1.33Z" transform="translate(-7423.576 13115.897)"/>
    <path id="Trazado_34830" data-name="Trazado 34830" class="cls-2" d="M6.388-2.06v1.026H.457v-.8L3.817-5.078A4.014,4.014,0,0,0,4.643-6.1a1.943,1.943,0,0,0,.212-.867A1.213,1.213,0,0,0,4.4-7.973a2.057,2.057,0,0,0-1.3-.36,2.587,2.587,0,0,0-2.111.9l-.8-.7a3.218,3.218,0,0,1,1.268-.92A4.471,4.471,0,0,1,3.2-9.382a3.189,3.189,0,0,1,2.063.619,2.045,2.045,0,0,1,.766,1.68,2.852,2.852,0,0,1-.283,1.25A5,5,0,0,1,4.678-4.489L2.155-2.06Z" transform="translate(-7423.46 13151.631)"/>
    <path id="Trazado_34829" data-name="Trazado 34829" class="cls-2" d="M4.008-.939a3.089,3.089,0,0,1-1.739-.5A3.36,3.36,0,0,1,1.072-2.9,5.41,5.41,0,0,1,.636-5.161a5.41,5.41,0,0,1,.436-2.264,3.36,3.36,0,0,1,1.2-1.456,3.089,3.089,0,0,1,1.739-.5,3.069,3.069,0,0,1,1.727.5,3.36,3.36,0,0,1,1.2,1.456,5.41,5.41,0,0,1,.436,2.264A5.41,5.41,0,0,1,6.933-2.9a3.36,3.36,0,0,1-1.2,1.456A3.069,3.069,0,0,1,4.008-.939Zm0-1.049A1.87,1.87,0,0,0,5.594-2.8a3.956,3.956,0,0,0,.6-2.358,3.956,3.956,0,0,0-.6-2.358,1.87,1.87,0,0,0-1.586-.814,1.881,1.881,0,0,0-1.6.814,3.956,3.956,0,0,0-.6,2.358,3.956,3.956,0,0,0,.6,2.358A1.881,1.881,0,0,0,4.008-1.989Z" transform="translate(-7401.743 13151.631)"/>
    <path id="Trazado_34827" data-name="Trazado 34827" class="cls-2" d="M6.388-2.06v1.026H.457v-.8L3.817-5.078A4.014,4.014,0,0,0,4.643-6.1a1.943,1.943,0,0,0,.212-.867A1.213,1.213,0,0,0,4.4-7.973a2.057,2.057,0,0,0-1.3-.36,2.587,2.587,0,0,0-2.111.9l-.8-.7a3.218,3.218,0,0,1,1.268-.92A4.471,4.471,0,0,1,3.2-9.382a3.189,3.189,0,0,1,2.063.619,2.045,2.045,0,0,1,.766,1.68,2.852,2.852,0,0,1-.283,1.25A5,5,0,0,1,4.678-4.489L2.155-2.06Z" transform="translate(-7380.957 13151.631)"/>
    <path id="Trazado_34828" data-name="Trazado 34828" class="cls-2" d="M4.008-.939a3.089,3.089,0,0,1-1.739-.5A3.36,3.36,0,0,1,1.072-2.9,5.41,5.41,0,0,1,.636-5.161a5.41,5.41,0,0,1,.436-2.264,3.36,3.36,0,0,1,1.2-1.456,3.089,3.089,0,0,1,1.739-.5,3.069,3.069,0,0,1,1.727.5,3.36,3.36,0,0,1,1.2,1.456,5.41,5.41,0,0,1,.436,2.264A5.41,5.41,0,0,1,6.933-2.9a3.36,3.36,0,0,1-1.2,1.456A3.069,3.069,0,0,1,4.008-.939Zm0-1.049A1.87,1.87,0,0,0,5.594-2.8a3.956,3.956,0,0,0,.6-2.358,3.956,3.956,0,0,0-.6-2.358,1.87,1.87,0,0,0-1.586-.814,1.881,1.881,0,0,0-1.6.814,3.956,3.956,0,0,0-.6,2.358,3.956,3.956,0,0,0,.6,2.358A1.881,1.881,0,0,0,4.008-1.989Z" transform="translate(-7359.241 13151.631)"/>
    <line id="Línea_60" data-name="Línea 60" class="cls-3" x2="70.732" transform="translate(-7423.245 13140.239)"/>
  </g>
</svg>
