<svg xmlns="http://www.w3.org/2000/svg" width="87.171" height="48" viewBox="0 0 87.171 48">
  <defs>
    <style>
      .cls-1 {
        fill: #1d1d1b;
      }

      .cls-2 {
        fill: none;
        stroke: #a22441;
        stroke-miterlimit: 10;
        stroke-width: 0.709px;
      }
    </style>
  </defs>
  <g id="Grupo_10850" data-name="Grupo 10850" transform="translate(6900.563 -12098.485)">
    <path id="Trazado_34825" data-name="Trazado 34825" class="cls-1" d="M8.461-.844V.933H1.049V-8.639H8.283v1.778H3.251v2.079H7.7V-3.06H3.251V-.844Zm1.764-7.795h4.349a6.112,6.112,0,0,1,2.755.595,4.454,4.454,0,0,1,1.86,1.675,4.712,4.712,0,0,1,.663,2.516,4.712,4.712,0,0,1-.663,2.516A4.454,4.454,0,0,1,17.329.339a6.112,6.112,0,0,1-2.755.595H10.225ZM14.464-.885a3.217,3.217,0,0,0,2.291-.8,2.826,2.826,0,0,0,.855-2.167,2.826,2.826,0,0,0-.855-2.167,3.217,3.217,0,0,0-2.291-.8H12.44V-.885ZM25.773,1.1A4.332,4.332,0,0,1,22.58-.037a4.37,4.37,0,0,1-1.142-3.241V-8.639h2.215V-3.36q0,2.571,2.133,2.571a2,2,0,0,0,1.586-.622A2.9,2.9,0,0,0,27.92-3.36V-8.639h2.188v5.361A4.37,4.37,0,0,1,28.966-.037,4.332,4.332,0,0,1,25.773,1.1Zm11.1,0A5.5,5.5,0,0,1,34.231.462,4.746,4.746,0,0,1,32.371-1.3a4.86,4.86,0,0,1-.677-2.55,4.86,4.86,0,0,1,.677-2.55,4.746,4.746,0,0,1,1.86-1.764,5.527,5.527,0,0,1,2.66-.636,5.579,5.579,0,0,1,2.25.438,4.506,4.506,0,0,1,1.689,1.258L39.407-5.795A3.058,3.058,0,0,0,37-6.916a3.2,3.2,0,0,0-1.586.39,2.771,2.771,0,0,0-1.087,1.087,3.2,3.2,0,0,0-.39,1.586,3.2,3.2,0,0,0,.39,1.586,2.771,2.771,0,0,0,1.087,1.087A3.2,3.2,0,0,0,37-.79a3.043,3.043,0,0,0,2.407-1.135L40.829-.612A4.433,4.433,0,0,1,39.134.66,5.628,5.628,0,0,1,36.877,1.1ZM48.433-1.118H43.988L43.14.933H40.87l4.267-9.572h2.188L51.605.933H49.28Zm-.7-1.682L46.217-6.465,44.7-2.8Zm9.313,3.9A5.5,5.5,0,0,1,54.4.462,4.746,4.746,0,0,1,52.542-1.3a4.86,4.86,0,0,1-.677-2.55,4.86,4.86,0,0,1,.677-2.55A4.746,4.746,0,0,1,54.4-8.167a5.527,5.527,0,0,1,2.66-.636,5.579,5.579,0,0,1,2.25.438A4.506,4.506,0,0,1,61-7.107L59.578-5.795a3.058,3.058,0,0,0-2.407-1.121,3.2,3.2,0,0,0-1.586.39A2.771,2.771,0,0,0,54.5-5.439a3.2,3.2,0,0,0-.39,1.586,3.2,3.2,0,0,0,.39,1.586,2.771,2.771,0,0,0,1.087,1.087,3.2,3.2,0,0,0,1.586.39,3.043,3.043,0,0,0,2.407-1.135L61-.612A4.433,4.433,0,0,1,59.3.66,5.628,5.628,0,0,1,57.048,1.1ZM62.49-8.639h2.215V.933H62.49ZM71.612,1.1A5.587,5.587,0,0,1,68.924.455a4.77,4.77,0,0,1-1.873-1.771,4.835,4.835,0,0,1-.677-2.537,4.835,4.835,0,0,1,.677-2.537A4.77,4.77,0,0,1,68.924-8.16,5.587,5.587,0,0,1,71.612-8.8a5.548,5.548,0,0,1,2.68.643,4.832,4.832,0,0,1,1.873,1.771,4.8,4.8,0,0,1,.684,2.537,4.8,4.8,0,0,1-.684,2.537A4.832,4.832,0,0,1,74.292.455,5.548,5.548,0,0,1,71.612,1.1Zm0-1.887a3.038,3.038,0,0,0,1.532-.39,2.8,2.8,0,0,0,1.073-1.087,3.2,3.2,0,0,0,.39-1.586,3.2,3.2,0,0,0-.39-1.586,2.8,2.8,0,0,0-1.073-1.087,3.038,3.038,0,0,0-1.532-.39,3.038,3.038,0,0,0-1.532.39,2.8,2.8,0,0,0-1.073,1.087,3.2,3.2,0,0,0-.39,1.586,3.2,3.2,0,0,0,.39,1.586A2.8,2.8,0,0,0,70.08-1.179,3.038,3.038,0,0,0,71.612-.79Zm.6-10.6h2.3L72.035-9.418H70.367ZM87.3-8.639V.933H85.478L80.705-4.878V.933H78.517V-8.639H80.35l4.759,5.812V-8.639Z" transform="translate(-6901.611 12116.742)"/>
    <path id="Trazado_34826" data-name="Trazado 34826" class="cls-1" d="M3.166-6.843V-4.39h4.3v1.724h-4.3V.715H1.017V-8.567H8.032v1.724ZM9.491-8.567h2.148V.715H9.491Zm12.863,0V.715H20.59L15.962-4.921V.715H13.84V-8.567h1.777l4.615,5.636V-8.567Zm8.315,7.293h-4.31L25.537.715h-2.2l4.137-9.283h2.122L33.745.715H31.491ZM29.992-2.9,28.52-6.459,27.048-2.9ZM43.227-8.567V.715H41.463L36.835-4.921V.715H34.713V-8.567H36.49L41.1-2.931V-8.567ZM49.87.874A5.332,5.332,0,0,1,47.3.258a4.6,4.6,0,0,1-1.8-1.711,4.713,4.713,0,0,1-.656-2.473A4.713,4.713,0,0,1,45.5-6.4,4.6,4.6,0,0,1,47.3-8.11a5.36,5.36,0,0,1,2.579-.617,5.41,5.41,0,0,1,2.181.424A4.369,4.369,0,0,1,53.7-7.082L52.323-5.809A2.965,2.965,0,0,0,49.99-6.9a3.1,3.1,0,0,0-1.538.378A2.687,2.687,0,0,0,47.4-5.464a3.1,3.1,0,0,0-.378,1.538A3.1,3.1,0,0,0,47.4-2.388a2.687,2.687,0,0,0,1.054,1.054,3.1,3.1,0,0,0,1.538.378,2.951,2.951,0,0,0,2.334-1.1L53.7-.783A4.3,4.3,0,0,1,52.058.45,5.458,5.458,0,0,1,49.87.874Zm5.278-9.442H57.3V.715H55.148ZM66.685-1.009V.715H59.5V-8.567h7.015v1.724h-4.88v2.016h4.31v1.671h-4.31v2.148ZM74.31.715,72.52-1.871H70.544V.715H68.4V-8.567h4.018a5.157,5.157,0,0,1,2.142.411,3.182,3.182,0,0,1,1.4,1.167,3.215,3.215,0,0,1,.491,1.79,3.151,3.151,0,0,1-.5,1.784,3.152,3.152,0,0,1-1.412,1.147L76.617.715ZM74.27-5.2a1.47,1.47,0,0,0-.5-1.2,2.256,2.256,0,0,0-1.472-.418h-1.75v3.236h1.75a2.231,2.231,0,0,0,1.472-.424A1.474,1.474,0,0,0,74.27-5.2Zm9.985,3.925h-4.31L79.124.715h-2.2L81.06-8.567h2.122L87.332.715H85.078ZM83.579-2.9,82.107-6.459,80.635-2.9Z" transform="translate(-6901.23 12129.785)"/>
    <path id="Trazado_34824" data-name="Trazado 34824" class="cls-1" d="M2.189.441A3.428,3.428,0,0,1,1.1.266,2.241,2.241,0,0,1,.271-.189L.536-.747a2.192,2.192,0,0,0,.733.419,2.7,2.7,0,0,0,.919.161,1.656,1.656,0,0,0,.93-.211A.651.651,0,0,0,3.426-.94a.553.553,0,0,0-.168-.419,1.124,1.124,0,0,0-.415-.247q-.247-.086-.7-.193a7.189,7.189,0,0,1-.912-.272A1.508,1.508,0,0,1,.64-2.489a1.118,1.118,0,0,1-.247-.762A1.289,1.289,0,0,1,.6-3.973a1.45,1.45,0,0,1,.64-.515A2.6,2.6,0,0,1,2.31-4.682a3.374,3.374,0,0,1,.873.114,2.322,2.322,0,0,1,.737.329l-.236.572a2.59,2.59,0,0,0-.673-.3,2.51,2.51,0,0,0-.7-.1,1.545,1.545,0,0,0-.912.222.679.679,0,0,0-.3.572.547.547,0,0,0,.172.419,1.191,1.191,0,0,0,.426.25,6.651,6.651,0,0,0,.69.19,6.994,6.994,0,0,1,.909.272,1.53,1.53,0,0,1,.59.415,1.093,1.093,0,0,1,.247.751,1.279,1.279,0,0,1-.215.719,1.438,1.438,0,0,1-.651.515A2.693,2.693,0,0,1,2.189.441Zm6.618-.68V.384H5.172V-4.625H8.707V-4H5.888v1.538H8.4v.608H5.888V-.239Zm5.8.622L14.6-3.265,12.792-.224h-.329l-1.81-3.019V.384H9.966V-4.625h.587L12.642-1.1,14.7-4.625h.587L15.3.384ZM19.99-.868H17.328L16.777.384H16.04l2.268-5.008h.708L21.292.384h-.751Zm-.25-.572-1.08-2.454-1.08,2.454Zm6.6-3.184V.384h-.587L22.751-3.351V.384h-.715V-4.625h.587L25.628-.89V-4.625ZM31.037-.868H28.375L27.824.384h-.737l2.268-5.008h.708L32.339.384h-.751Zm-.25-.572-1.08-2.454-1.08,2.454Zm8.529-3.184V.384h-.587L35.723-3.351V.384h-.715V-4.625h.587L38.6-.89V-4.625ZM44.008-.868H41.347L40.8.384h-.737l2.268-5.008h.708L45.311.384h-.751Zm-.25-.572-1.08-2.454L41.6-1.441ZM48.223.441A2.765,2.765,0,0,1,46.867.108a2.448,2.448,0,0,1-.948-.916,2.538,2.538,0,0,1-.343-1.313,2.538,2.538,0,0,1,.343-1.313,2.441,2.441,0,0,1,.952-.916,2.785,2.785,0,0,1,1.359-.333,2.837,2.837,0,0,1,1.073.2,2.2,2.2,0,0,1,.83.583l-.465.451a1.866,1.866,0,0,0-1.409-.594,2.042,2.042,0,0,0-1.009.25,1.816,1.816,0,0,0-.7.69,1.932,1.932,0,0,0-.254.984,1.932,1.932,0,0,0,.254.984,1.816,1.816,0,0,0,.7.69,2.042,2.042,0,0,0,1.009.25,1.87,1.87,0,0,0,1.409-.6l.465.451A2.226,2.226,0,0,1,49.3.241,2.82,2.82,0,0,1,48.223.441Zm2.933-5.066h.715V.384h-.715ZM55.635.441A2.8,2.8,0,0,1,54.268.108a2.459,2.459,0,0,1-.955-.919,2.523,2.523,0,0,1-.347-1.309,2.523,2.523,0,0,1,.347-1.309,2.459,2.459,0,0,1,.955-.919,2.8,2.8,0,0,1,1.367-.333,2.785,2.785,0,0,1,1.359.333,2.441,2.441,0,0,1,.952.916,2.538,2.538,0,0,1,.343,1.313,2.538,2.538,0,0,1-.343,1.313,2.441,2.441,0,0,1-.952.916A2.785,2.785,0,0,1,55.635.441Zm0-.637a1.968,1.968,0,0,0,.991-.25,1.837,1.837,0,0,0,.694-.69,1.932,1.932,0,0,0,.254-.984A1.932,1.932,0,0,0,57.32-3.1a1.837,1.837,0,0,0-.694-.69,1.968,1.968,0,0,0-.991-.25,2.007,2.007,0,0,0-1,.25,1.823,1.823,0,0,0-.7.69,1.932,1.932,0,0,0-.254.984,1.932,1.932,0,0,0,.254.984,1.823,1.823,0,0,0,.7.69A2.007,2.007,0,0,0,55.635-.2Zm8.056-4.429V.384H63.1L60.1-3.351V.384h-.715V-4.625h.587L62.976-.89V-4.625ZM68.385-.868H65.723L65.172.384h-.737L66.7-4.625h.708L69.687.384h-.751Zm-.25-.572-1.08-2.454-1.08,2.454Zm2.3-3.184h.715V-.239h2.712V.384H70.431Zm6.175,0h2.111a3.051,3.051,0,0,1,1.41.315,2.313,2.313,0,0,1,.955.884,2.5,2.5,0,0,1,.34,1.306,2.5,2.5,0,0,1-.34,1.306,2.313,2.313,0,0,1-.955.884,3.051,3.051,0,0,1-1.41.315H76.606ZM78.673-.239a2.317,2.317,0,0,0,1.07-.236,1.707,1.707,0,0,0,.712-.662,1.9,1.9,0,0,0,.25-.984,1.9,1.9,0,0,0-.25-.984,1.707,1.707,0,0,0-.712-.662A2.317,2.317,0,0,0,78.673-4H77.321V-.239Zm7.477,0V.384H82.516V-4.625H86.05V-4H83.231v1.538h2.511v.608H83.231V-.239Z" transform="translate(-6900.521 12103.167)"/>
    <path id="Trazado_34830" data-name="Trazado 34830" class="cls-1" d="M7.727-.478V.769H.515V-.206L4.6-4.149a4.881,4.881,0,0,0,1-1.24,2.362,2.362,0,0,0,.258-1.054,1.475,1.475,0,0,0-.552-1.226,2.5,2.5,0,0,0-1.584-.437A3.146,3.146,0,0,0,1.16-7.016L.186-7.862A3.913,3.913,0,0,1,1.727-8.98a5.436,5.436,0,0,1,2.129-.4,3.878,3.878,0,0,1,2.509.753A2.487,2.487,0,0,1,7.3-6.586a3.468,3.468,0,0,1-.344,1.52,6.076,6.076,0,0,1-1.3,1.634L2.58-.478Z" transform="translate(-6900.398 12145.602)"/>
    <path id="Trazado_34829" data-name="Trazado 34829" class="cls-1" d="M4.737.884A3.756,3.756,0,0,1,2.622.274,4.086,4.086,0,0,1,1.167-1.5a6.579,6.579,0,0,1-.53-2.753A6.579,6.579,0,0,1,1.167-7,4.086,4.086,0,0,1,2.622-8.773a3.756,3.756,0,0,1,2.115-.609,3.732,3.732,0,0,1,2.1.609A4.086,4.086,0,0,1,8.292-7a6.579,6.579,0,0,1,.53,2.753A6.579,6.579,0,0,1,8.292-1.5,4.086,4.086,0,0,1,6.837.274,3.732,3.732,0,0,1,4.737.884Zm0-1.276a2.274,2.274,0,0,0,1.928-.989,4.81,4.81,0,0,0,.724-2.867,4.81,4.81,0,0,0-.724-2.867,2.274,2.274,0,0,0-1.928-.989,2.287,2.287,0,0,0-1.943.989A4.81,4.81,0,0,0,2.07-4.249a4.81,4.81,0,0,0,.724,2.867A2.287,2.287,0,0,0,4.737-.392Z" transform="translate(-6873.894 12145.602)"/>
    <path id="Trazado_34827" data-name="Trazado 34827" class="cls-1" d="M7.727-.478V.769H.515V-.206L4.6-4.149a4.881,4.881,0,0,0,1-1.24,2.362,2.362,0,0,0,.258-1.054,1.475,1.475,0,0,0-.552-1.226,2.5,2.5,0,0,0-1.584-.437A3.146,3.146,0,0,0,1.16-7.016L.186-7.862A3.913,3.913,0,0,1,1.727-8.98a5.436,5.436,0,0,1,2.129-.4,3.878,3.878,0,0,1,2.509.753A2.487,2.487,0,0,1,7.3-6.586a3.468,3.468,0,0,1-.344,1.52,6.076,6.076,0,0,1-1.3,1.634L2.58-.478Z" transform="translate(-6848.717 12145.602)"/>
    <path id="Trazado_34828" data-name="Trazado 34828" class="cls-1" d="M4.737.884A3.756,3.756,0,0,1,2.622.274,4.086,4.086,0,0,1,1.167-1.5a6.579,6.579,0,0,1-.53-2.753A6.579,6.579,0,0,1,1.167-7,4.086,4.086,0,0,1,2.622-8.773a3.756,3.756,0,0,1,2.115-.609,3.732,3.732,0,0,1,2.1.609A4.086,4.086,0,0,1,8.292-7a6.579,6.579,0,0,1,.53,2.753A6.579,6.579,0,0,1,8.292-1.5,4.086,4.086,0,0,1,6.837.274,3.732,3.732,0,0,1,4.737.884Zm0-1.276a2.274,2.274,0,0,0,1.928-.989,4.81,4.81,0,0,0,.724-2.867,4.81,4.81,0,0,0-.724-2.867,2.274,2.274,0,0,0-1.928-.989,2.287,2.287,0,0,0-1.943.989A4.81,4.81,0,0,0,2.07-4.249a4.81,4.81,0,0,0,.724,2.867A2.287,2.287,0,0,0,4.737-.392Z" transform="translate(-6822.214 12145.602)"/>
    <line id="Línea_60" data-name="Línea 60" class="cls-2" x2="86.007" transform="translate(-6900.176 12133.776)"/>
  </g>
</svg>
