<svg xmlns="http://www.w3.org/2000/svg" xmlns:xlink="http://www.w3.org/1999/xlink" width="244" height="159.49" viewBox="0 0 244 159.49">
  <defs>
    <style>
      .cls-1 {
        fill: #393323;
      }

      .cls-2 {
        fill: #534939;
      }

      .cls-3 {
        fill: #fff;
      }

      .cls-4 {
        fill: url(#linear-gradient);
      }

      .cls-5 {
        mix-blend-mode: multiply;
      }

      .cls-25, .cls-5 {
        isolation: isolate;
      }

      .cls-6 {
        fill: #edf1bc;
      }

      .cls-7 {
        fill: #d4d680;
      }

      .cls-8 {
        fill: #e23737;
      }

      .cls-9 {
        fill: #ff5a5a;
      }

      .cls-10 {
        fill: #c42d2d;
      }

      .cls-11 {
        fill: #618f7e;
      }

      .cls-12 {
        fill: #72aa93;
      }

      .cls-13 {
        fill: #fe994d;
      }

      .cls-14 {
        fill: #f07738;
      }

      .cls-15 {
        fill: #6b5e4b;
      }

      .cls-16 {
        fill: #201a0a;
      }

      .cls-17 {
        fill: #ff9359;
      }

      .cls-18 {
        fill: #485d54;
      }

      .cls-19 {
        fill: #6daa91;
      }

      .cls-20 {
        fill: #ffb888;
      }

      .cls-21 {
        opacity: 0.15;
      }

      .cls-22 {
        fill: #ffa96e;
      }

      .cls-23 {
        fill: #8a2734;
      }

      .cls-24 {
        fill: #504838;
      }

      .cls-26 {
        clip-path: url(#clip-path);
      }

      .cls-27 {
        clip-path: url(#clip-path-2);
      }

      .cls-28 {
        fill: #fdc853;
      }

      .cls-29 {
        fill: #efa511;
      }

      .cls-30 {
        fill: #601b36;
      }

      .cls-31 {
        fill: #872a50;
      }

      .cls-32 {
        fill: #d3661c;
      }

      .cls-33 {
        fill: #f96464;
      }

      .cls-34 {
        fill: #87c6ab;
      }

      .cls-35 {
        fill: #fd9;
      }

      .cls-36 {
        fill: #726552;
      }

      .cls-37 {
        fill: #8c2650;
      }
    </style>
    <linearGradient id="linear-gradient" x1="-12.381" y1="15.318" x2="-12.381" y2="16.857" gradientUnits="objectBoundingBox">
      <stop offset="0.002" stop-color="#00b783"/>
      <stop offset="1" stop-color="#00935c"/>
    </linearGradient>
    <clipPath id="clip-path">
      <path id="Trazado_33429" data-name="Trazado 33429" class="cls-1" d="M3633.523,1025.444l11.287-2.942,11.831,2.948-11.286,2.942Z" transform="translate(-3633.523 -1022.502)"/>
    </clipPath>
    <clipPath id="clip-path-2">
      <path id="Trazado_33432" data-name="Trazado 33432" class="cls-2" d="M3633.523,1024.363l11.287-2.942,11.831,2.948-11.286,2.942Z" transform="translate(-3633.523 -1021.421)"/>
    </clipPath>
  </defs>
  <g id="tarjeta-memorama-08" transform="translate(8191.027 -15158.761)">
    <g id="Grupo_7667" data-name="Grupo 7667" transform="translate(-8191.027 15158.761)">
      <g id="Grupo_7666" data-name="Grupo 7666" transform="translate(0 0)">
        <path id="Trazado_32397" data-name="Trazado 32397" class="cls-3" d="M3564.433,979.266c-.88.529-1.638.987-1.638,1.867s.759,1.336,1.638,1.867c.946.57,2.018,1.214,2.018,2.537s-1.072,1.968-2.017,2.538c-.88.529-1.638.987-1.638,1.867s.759,1.337,1.638,1.867c.946.569,2.018,1.215,2.018,2.537s-1.072,1.968-2.017,2.537c-.879.53-1.639.987-1.637,1.867s.759,1.338,1.637,1.867c.946.57,2.018,1.214,2.018,2.536s-1.072,1.969-2.017,2.538c-.879.529-1.638.986-1.637,1.867s.759,1.337,1.637,1.866c.946.57,2.018,1.215,2.018,2.537s-1.072,1.969-2.017,2.538c-.879.529-1.638.987-1.638,1.867s.759,1.338,1.638,1.867c.946.57,2.017,1.215,2.018,2.537s-1.072,1.969-2.018,2.538c-.879.529-1.638.986-1.638,1.867s.759,1.338,1.639,1.867c.946.57,2.017,1.215,2.018,2.537s-1.072,1.969-2.017,2.538c-.879.53-1.639.987-1.639,1.868s.759,1.336,1.639,1.866c.946.57,2.017,1.215,2.018,2.537s-1.072,1.969-2.017,2.539c-.879.529-1.639.987-1.639,1.867s.759,1.339,1.639,1.868c.946.57,2.017,1.215,2.018,2.538s-1.072,1.969-2.017,2.538c-.879.53-1.639.987-1.639,1.868s.759,1.339,1.639,1.868c.946.57,2.017,1.216,2.017,2.539h-.016c-.006,1.314-1.073,1.958-2.016,2.527-.879.529-1.638.986-1.638,1.866s.759,1.338,1.638,1.867c.946.57,2.018,1.215,2.018,2.538s-1.071,1.968-2.017,2.537c-.879.53-1.638.987-1.638,1.868s.759,1.336,1.639,1.866c.945.57,2.017,1.215,2.017,2.537s-1.071,1.969-2.017,2.538c-.879.529-1.638.986-1.638,1.867s.759,1.337,1.639,1.866c.945.57,2.017,1.215,2.017,2.537s-1.071,1.968-2.017,2.537c-.878.53-1.638.987-1.638,1.867s.759,1.337,1.638,1.867c.945.57,2.017,1.215,2.017,2.537s-1.071,1.968-2.017,2.538c-.878.529-1.637.986-1.637,1.867s.759,1.337,1.638,1.867c.945.569,2.017,1.215,2.017,2.537s-1.071,1.968-2.017,2.537c-.878.53-1.637.987-1.637,1.867s.759,1.338,1.639,1.868c.945.57,2.017,1.214,2.017,2.537s-1.071,1.969-2.017,2.538c-.879.529-1.638.987-1.638,1.867s.759,1.338,1.638,1.867c.946.57,2.018,1.215,2.018,2.537s-1.072,1.969-2.017,2.538c-.88.53-1.638.987-1.638,1.868s.759,1.338,1.638,1.868c.946.57,2.018,1.215,2.018,2.537s-1.071,1.969-2.017,2.539c-.88.53-1.638.987-1.638,1.868s.759,1.338,1.638,1.868a4.346,4.346,0,0,1,1.8,1.6l235.53-.925a4.338,4.338,0,0,1,1.8-1.611c.88-.53,1.638-.987,1.639-1.868s-.759-1.337-1.639-1.868c-.945-.571-2.017-1.216-2.017-2.539s1.072-1.968,2.018-2.538c.879-.529,1.638-.986,1.638-1.867s-.759-1.338-1.638-1.868c-.945-.57-2.017-1.215-2.017-2.538s1.072-1.968,2.018-2.537c.879-.529,1.637-.986,1.639-1.867s-.759-1.338-1.639-1.867c-.945-.571-2.017-1.216-2.017-2.538s1.072-1.968,2.018-2.538c.879-.529,1.638-.986,1.638-1.867s-.758-1.336-1.637-1.867c-.946-.57-2.018-1.215-2.018-2.537s1.072-1.969,2.018-2.537c.879-.53,1.638-.987,1.638-1.867s-.758-1.338-1.638-1.867c-.945-.571-2.017-1.216-2.017-2.538s1.072-1.968,2.018-2.537c.879-.529,1.638-.987,1.638-1.867s-.758-1.337-1.638-1.867c-.945-.57-2.017-1.215-2.017-2.537s1.072-1.968,2.018-2.537c.879-.529,1.638-.986,1.638-1.866s-.758-1.338-1.638-1.867c-.945-.57-2.017-1.215-2.017-2.538s1.072-1.968,2.018-2.537c.879-.529,1.638-.986,1.638-1.866s-.758-1.338-1.638-1.868c-.945-.57-2.017-1.215-2.017-2.538s1.072-1.968,2.018-2.537c.878-.529,1.637-.986,1.637-1.867s-.758-1.337-1.637-1.866c-.943-.569-2.009-1.212-2.016-2.528h0v-.01h0c.007-1.315,1.074-1.959,2.017-2.528.878-.529,1.637-.987,1.637-1.868s-.759-1.338-1.637-1.868c-.946-.57-2.017-1.216-2.017-2.538s1.072-1.969,2.017-2.538c.879-.529,1.638-.987,1.638-1.868s-.759-1.338-1.637-1.867c-.946-.571-2.017-1.216-2.017-2.539s1.072-1.968,2.017-2.537c.879-.529,1.638-.986,1.638-1.866s-.759-1.338-1.638-1.868c-.946-.569-2.017-1.215-2.017-2.538s1.072-1.968,2.017-2.537c.88-.529,1.639-.987,1.639-1.867s-.759-1.338-1.638-1.867c-.946-.571-2.017-1.216-2.017-2.538s1.072-1.968,2.017-2.537c.88-.529,1.639-.986,1.639-1.867s-.759-1.338-1.638-1.867c-.946-.57-2.017-1.215-2.017-2.538s1.072-1.968,2.017-2.537c.88-.529,1.639-.986,1.639-1.867s-.759-1.336-1.638-1.866c-.946-.57-2.017-1.215-2.017-2.538s1.072-1.967,2.017-2.536c.88-.529,1.639-.987,1.639-1.867s-.759-1.337-1.638-1.867c-.946-.57-2.017-1.215-2.017-2.537s1.072-1.969,2.017-2.537c.879-.53,1.639-.987,1.639-1.867s-.759-1.337-1.638-1.867c-.946-.571-2.017-1.216-2.017-2.538s1.072-1.968,2.017-2.537c.879-.53,1.639-.987,1.639-1.867s-.759-1.337-1.638-1.867a4.35,4.35,0,0,1-1.8-1.6l-235.551.926A4.341,4.341,0,0,1,3564.433,979.266Z" transform="translate(-3562.004 -975.798)"/>
        <path id="Trazado_32398" data-name="Trazado 32398" d="M3566.418,976.691h-.783c0,.88-.759,1.337-1.638,1.867-.946.57-2.017,1.215-2.017,2.537s1.072,1.968,2.017,2.537c.879.529,1.639.987,1.639,1.867s-.759,1.337-1.638,1.867c-.946.571-2.017,1.216-2.017,2.538s1.072,1.968,2.017,2.537c.879.529,1.639.986,1.639,1.867s-.759,1.337-1.638,1.867c-.946.57-2.018,1.215-2.017,2.537s1.072,1.968,2.017,2.537c.879.529,1.639.986,1.639,1.867s-.759,1.337-1.639,1.866c-.945.57-2.017,1.215-2.016,2.538s1.071,1.968,2.017,2.537c.879.529,1.639.986,1.639,1.866s-.759,1.337-1.639,1.868c-.945.57-2.017,1.215-2.016,2.537s1.071,1.969,2.017,2.538c.88.529,1.639.986,1.639,1.866s-.759,1.337-1.639,1.867c-.945.571-2.017,1.216-2.016,2.539s1.071,1.968,2.017,2.537c.88.53,1.638.987,1.638,1.867s-.759,1.337-1.638,1.868c-.945.57-2.017,1.215-2.017,2.538s1.072,1.968,2.018,2.537c.879.529,1.637.986,1.638,1.866s-.759,1.338-1.638,1.868c-.945.57-2.017,1.216-2.017,2.538s1.072,1.969,2.018,2.538c.879.53,1.637.987,1.639,1.868s-.759,1.338-1.639,1.868c-.945.571-2.017,1.216-2.017,2.538s1.072,1.969,2.018,2.538c.875.528,1.63.984,1.636,1.857h-.014c0,.88-.758,1.337-1.638,1.867-.945.57-2.017,1.215-2.017,2.538s1.072,1.968,2.018,2.537c.878.529,1.637.986,1.637,1.867s-.758,1.338-1.637,1.867c-.946.57-2.017,1.215-2.017,2.538s1.072,1.968,2.018,2.537c.878.529,1.637.986,1.637,1.866s-.758,1.338-1.637,1.868c-.945.57-2.017,1.215-2.017,2.537s1.072,1.968,2.018,2.537c.878.529,1.637.986,1.637,1.866s-.759,1.338-1.637,1.867c-.946.57-2.017,1.215-2.017,2.537s1.072,1.968,2.017,2.537c.879.53,1.638.987,1.638,1.867s-.759,1.338-1.638,1.867c-.946.571-2.017,1.216-2.017,2.538s1.072,1.968,2.017,2.537c.88.529,1.639.986,1.639,1.867s-.759,1.338-1.638,1.867c-.946.57-2.017,1.215-2.017,2.538s1.072,1.968,2.017,2.537c.88.529,1.639.987,1.639,1.867s-.759,1.338-1.638,1.867c-.946.571-2.017,1.216-2.017,2.538s1.072,1.969,2.018,2.538c.879.528,1.638.986,1.638,1.866s-.759,1.337-1.638,1.868c-.946.57-2.017,1.215-2.017,2.538s1.072,1.969,2.017,2.538c.879.529,1.639.987,1.639,1.867s-.759,1.339-1.638,1.869c-.946.57-2.017,1.215-2.017,2.538s1.072,1.969,2.017,2.538c.879.53,1.639.987,1.639,1.868h.783v0l235.482-.925v0h.4c0-.88.76-1.338,1.638-1.868.946-.57,2.017-1.215,2.018-2.538s-1.072-1.969-2.017-2.539c-.88-.529-1.639-.987-1.639-1.868s.759-1.338,1.639-1.867c.946-.57,2.017-1.215,2.017-2.538s-1.071-1.969-2.016-2.538c-.879-.53-1.639-.987-1.639-1.868s.759-1.338,1.639-1.866c.946-.57,2.017-1.215,2.017-2.538s-1.071-1.968-2.016-2.538c-.879-.529-1.639-.986-1.639-1.867s.759-1.338,1.639-1.867c.946-.57,2.017-1.215,2.017-2.537s-1.071-1.969-2.016-2.538c-.879-.529-1.639-.987-1.639-1.867s.759-1.337,1.639-1.867c.946-.57,2.017-1.215,2.018-2.537s-1.072-1.968-2.017-2.538c-.879-.529-1.639-.987-1.639-1.867s.759-1.338,1.639-1.867c.945-.569,2.017-1.215,2.017-2.537s-1.071-1.968-2.017-2.537c-.878-.529-1.638-.987-1.638-1.867s.759-1.337,1.639-1.866c.945-.57,2.017-1.215,2.017-2.537s-1.071-1.969-2.017-2.538c-.879-.529-1.638-.986-1.638-1.867s.759-1.337,1.639-1.866c.945-.57,2.017-1.215,2.017-2.537s-1.071-1.969-2.017-2.538c-.879-.529-1.638-.987-1.638-1.867s.759-1.338,1.639-1.867c.945-.571,2.017-1.215,2.017-2.537s-1.071-1.969-2.017-2.538c-.879-.529-1.637-.986-1.638-1.866s.762-1.33,1.638-1.858c.945-.57,2.017-1.215,2.017-2.538s-1.071-1.969-2.017-2.538c-.879-.53-1.638-.987-1.638-1.868s.759-1.339,1.639-1.868c.945-.57,2.017-1.215,2.017-2.538s-1.071-1.969-2.017-2.538c-.879-.529-1.638-.987-1.638-1.868s.759-1.337,1.638-1.866c.946-.57,2.018-1.215,2.018-2.537s-1.071-1.969-2.017-2.538c-.878-.53-1.637-.987-1.637-1.868s.759-1.337,1.638-1.867c.945-.57,2.017-1.215,2.017-2.537s-1.071-1.968-2.017-2.538c-.878-.529-1.637-.987-1.637-1.867s.759-1.336,1.637-1.867c.946-.569,2.018-1.214,2.018-2.537s-1.071-1.968-2.017-2.537c-.878-.53-1.638-.987-1.638-1.868s.759-1.337,1.639-1.866c.945-.57,2.017-1.215,2.017-2.537s-1.071-1.969-2.017-2.538c-.879-.529-1.638-.986-1.638-1.867s.759-1.337,1.638-1.866c.946-.57,2.018-1.215,2.018-2.537s-1.072-1.968-2.017-2.537c-.879-.53-1.638-.987-1.638-1.867s.759-1.337,1.638-1.867c.946-.57,2.018-1.215,2.018-2.537s-1.072-1.969-2.017-2.538c-.88-.529-1.638-.987-1.638-1.867s.759-1.337,1.638-1.867c.946-.57,2.018-1.215,2.018-2.537s-1.072-1.968-2.017-2.537c-.88-.53-1.638-.987-1.638-1.867h-.783v.008Zm237.134,1.607c.878.529,1.638.987,1.638,1.867s-.759,1.337-1.639,1.867c-.945.57-2.017,1.214-2.017,2.537s1.071,1.968,2.017,2.538c.878.529,1.638.986,1.638,1.867s-.759,1.337-1.639,1.867c-.945.569-2.017,1.214-2.017,2.537s1.071,1.968,2.017,2.537c.879.53,1.638.987,1.638,1.867s-.759,1.338-1.639,1.867c-.945.57-2.017,1.214-2.017,2.536s1.071,1.969,2.017,2.538c.879.529,1.638.986,1.638,1.866s-.759,1.338-1.639,1.867c-.945.57-2.017,1.215-2.017,2.537s1.071,1.969,2.017,2.538c.879.529,1.638.987,1.638,1.867s-.759,1.337-1.639,1.867c-.945.57-2.017,1.215-2.017,2.537s1.071,1.968,2.017,2.538c.879.529,1.638.986,1.638,1.867s-.759,1.338-1.639,1.867c-.945.569-2.017,1.215-2.017,2.537s1.071,1.969,2.017,2.538c.878.53,1.638.987,1.638,1.868s-.759,1.337-1.638,1.866c-.945.57-2.017,1.215-2.017,2.537s1.071,1.969,2.017,2.539c.878.529,1.637.987,1.637,1.867s-.759,1.339-1.638,1.868c-.945.57-2.017,1.215-2.017,2.538s1.071,1.969,2.017,2.538c.878.53,1.637.987,1.637,1.868s-.759,1.339-1.637,1.868c-.943.569-2.01,1.212-2.017,2.528h0v.01h0c.007,1.315,1.073,1.959,2.016,2.528.879.529,1.637.986,1.637,1.866s-.759,1.338-1.637,1.867c-.946.57-2.018,1.215-2.018,2.537s1.072,1.969,2.017,2.538c.88.53,1.638.987,1.638,1.868s-.759,1.337-1.638,1.866c-.946.57-2.018,1.215-2.018,2.537s1.072,1.969,2.017,2.538c.88.529,1.638.986,1.638,1.867s-.759,1.336-1.638,1.866c-.946.569-2.018,1.215-2.018,2.537s1.072,1.968,2.017,2.537c.88.53,1.638.987,1.638,1.867s-.759,1.338-1.638,1.867c-.946.57-2.018,1.215-2.018,2.537s1.072,1.968,2.017,2.538c.88.529,1.638.986,1.638,1.867s-.759,1.336-1.638,1.867c-.946.569-2.018,1.214-2.018,2.537s1.072,1.968,2.018,2.537c.879.53,1.638.987,1.637,1.867s-.758,1.338-1.638,1.867c-.946.571-2.018,1.215-2.018,2.538s1.072,1.968,2.017,2.538c.879.529,1.639.987,1.639,1.867s-.759,1.338-1.639,1.867c-.946.57-2.018,1.215-2.018,2.537s1.072,1.969,2.017,2.538c.879.53,1.638.987,1.638,1.868s-.759,1.338-1.638,1.867c-.946.57-2.017,1.216-2.018,2.538s1.072,1.969,2.017,2.539c.88.53,1.639.987,1.639,1.868s-.759,1.338-1.639,1.868a4.338,4.338,0,0,0-1.8,1.611l-235.53.925a4.346,4.346,0,0,0-1.8-1.6c-.879-.53-1.638-.987-1.638-1.868s.758-1.338,1.638-1.868c.946-.571,2.017-1.216,2.017-2.539s-1.072-1.968-2.018-2.537c-.879-.53-1.638-.987-1.638-1.868s.758-1.338,1.638-1.868c.945-.57,2.017-1.215,2.017-2.538s-1.072-1.968-2.018-2.537c-.879-.529-1.638-.986-1.638-1.867s.759-1.338,1.638-1.867c.946-.57,2.017-1.216,2.017-2.538s-1.072-1.968-2.017-2.537c-.88-.53-1.639-.987-1.639-1.868s.759-1.337,1.637-1.867c.946-.57,2.017-1.215,2.017-2.537s-1.072-1.969-2.017-2.537c-.879-.53-1.638-.987-1.638-1.867s.759-1.337,1.637-1.867c.946-.571,2.017-1.216,2.017-2.538s-1.072-1.968-2.017-2.537c-.879-.529-1.638-.986-1.638-1.867s.759-1.337,1.638-1.867c.946-.57,2.017-1.215,2.017-2.537s-1.072-1.968-2.017-2.537c-.88-.529-1.639-.986-1.639-1.866s.759-1.337,1.638-1.867c.946-.57,2.017-1.216,2.017-2.538s-1.072-1.968-2.017-2.537c-.88-.529-1.639-.986-1.639-1.866s.759-1.338,1.638-1.868c.946-.57,2.017-1.215,2.017-2.537s-1.072-1.969-2.018-2.538c-.879-.529-1.638-.986-1.638-1.867s.759-1.337,1.638-1.866c.943-.569,2.01-1.212,2.016-2.527h.016c0-1.323-1.071-1.97-2.017-2.539-.879-.529-1.639-.987-1.639-1.868s.759-1.338,1.639-1.868c.945-.57,2.017-1.216,2.017-2.538s-1.072-1.969-2.018-2.538c-.879-.529-1.639-.987-1.639-1.868s.759-1.337,1.639-1.867c.945-.571,2.017-1.216,2.017-2.539s-1.072-1.968-2.018-2.537c-.879-.529-1.638-.986-1.639-1.866s.759-1.338,1.639-1.868c.945-.57,2.017-1.215,2.017-2.538s-1.072-1.968-2.018-2.537c-.88-.529-1.638-.987-1.639-1.867s.759-1.338,1.638-1.867c.946-.57,2.018-1.216,2.018-2.538s-1.072-1.968-2.018-2.537c-.879-.529-1.638-.986-1.638-1.867s.759-1.337,1.638-1.867c.945-.57,2.017-1.215,2.017-2.538s-1.072-1.968-2.018-2.537c-.878-.529-1.637-.986-1.637-1.866s.758-1.337,1.637-1.867c.945-.57,2.017-1.215,2.017-2.538s-1.072-1.967-2.018-2.536c-.878-.529-1.637-.987-1.637-1.867s.758-1.337,1.637-1.867c.945-.57,2.017-1.215,2.017-2.537s-1.072-1.969-2.018-2.537c-.879-.53-1.638-.987-1.638-1.867s.758-1.337,1.638-1.867c.945-.571,2.017-1.216,2.017-2.538s-1.072-1.968-2.018-2.537c-.879-.53-1.638-.987-1.638-1.867s.758-1.338,1.638-1.867a4.341,4.341,0,0,0,1.8-1.606l235.551-.926A4.35,4.35,0,0,0,3803.552,978.3Z" transform="translate(-3561.973 -975.761)"/>
      </g>
      <rect id="Rectángulo_7593" data-name="Rectángulo 7593" class="cls-4" width="220.474" height="140.471" transform="translate(11.763 9.51)"/>
      <path id="Trazado_32399" data-name="Trazado 32399" d="M3795.119,985.16v141.4h-221.4V985.16Zm-.931,140.472V986.091H3574.644v139.541Z" transform="translate(-3562.417 -976.116)"/>
    </g>
    <g id="Grupo_10429" data-name="Grupo 10429" transform="translate(-8134.246 15188.5)">
      <g id="Grupo_10194" data-name="Grupo 10194" class="cls-5" transform="translate(10.127 36.93)">
        <path id="Trazado_33364" data-name="Trazado 33364" class="cls-6" d="M3750.877,1104.732c0,.442,0,.884-.014,1.324q-.049,2.292-.27,4.539H3631.954c-.054,0-.109,0-.162-.006q-.216-2.223-.268-4.492c-.012-.453-.016-.908-.016-1.365a59.684,59.684,0,0,1,57.828-59.655q.925-.03,1.857-.029a59.635,59.635,0,0,1,59.684,59.684Z" transform="translate(-3631.508 -1045.048)"/>
      </g>
      <g id="Grupo_10195" data-name="Grupo 10195" transform="translate(26.988 85.677)">
        <rect id="Rectángulo_8723" data-name="Rectángulo 8723" class="cls-7" width="12.861" height="14.5" rx="1.223"/>
      </g>
      <g id="Grupo_10201" data-name="Grupo 10201" transform="translate(116.989 71.862)">
        <g id="Grupo_10196" data-name="Grupo 10196" transform="translate(0 9.017)">
          <path id="Trazado_33365" data-name="Trazado 33365" class="cls-7" d="M3753.214,1108.29a6.008,6.008,0,0,0-2.2-9.3v-5.738h.134a1.264,1.264,0,0,0,0-2.528H3746a1.264,1.264,0,1,0,0,2.528h.134v5.738a6.008,6.008,0,0,0-2.2,9.3,1.263,1.263,0,0,0,.852,2.2h7.582a1.263,1.263,0,0,0,.851-2.2Z" transform="translate(-3742.565 -1090.721)"/>
        </g>
        <g id="Grupo_10197" data-name="Grupo 10197" transform="translate(4.967 6.548)">
          <path id="Trazado_33366" data-name="Trazado 33366" class="cls-7" d="M3748.354,1088.156a.626.626,0,1,0,.626.626A.626.626,0,0,0,3748.354,1088.156Z" transform="translate(-3747.727 -1088.156)"/>
        </g>
        <g id="Grupo_10198" data-name="Grupo 10198" transform="translate(0.939 4.893)">
          <path id="Trazado_33367" data-name="Trazado 33367" class="cls-7" d="M3744.568,1088.488a1.027,1.027,0,1,0-1.027-1.027A1.026,1.026,0,0,0,3744.568,1088.488Z" transform="translate(-3743.541 -1086.435)"/>
        </g>
        <g id="Grupo_10199" data-name="Grupo 10199" transform="translate(3.777)">
          <circle id="Elipse_576" data-name="Elipse 576" class="cls-7" cx="1.402" cy="1.402" r="1.402"/>
        </g>
        <g id="Grupo_10200" data-name="Grupo 10200" transform="translate(7.061 4.082)">
          <path id="Trazado_33368" data-name="Trazado 33368" class="cls-7" d="M3750.712,1087.212a.81.81,0,1,0-.809-.809A.809.809,0,0,0,3750.712,1087.212Z" transform="translate(-3749.903 -1085.593)"/>
        </g>
      </g>
      <g id="Grupo_10202" data-name="Grupo 10202" transform="translate(53.021 34.093)">
        <path id="Trazado_33369" data-name="Trazado 33369" class="cls-7" d="M3724.433,1110.484a7.417,7.417,0,0,1,.84-1.637c-.086-.158-.164-.321-.236-.488a5.846,5.846,0,0,1-3.7-2.751l-.234-.4-.719,1.851-.56,2.9a2.2,2.2,0,0,1-.131.427,1.281,1.281,0,0,1,.286.1h-42.868c-.076-.11-.147-.221-.214-.336a5.34,5.34,0,0,1-.264-.5c-.04-.086-.078-.172-.114-.261q-.095-.232-.168-.476a5.619,5.619,0,0,1-.156-.63,5.43,5.43,0,0,1-.078-.553c-.016-.18-.026-.365-.026-.55v-.08c0-.109.008-.216.016-.324l0-.053c.008-.092.017-.184.028-.274l0-.034c.014-.1.028-.2.046-.294v-.009c.02-.1.042-.208.067-.311a5.845,5.845,0,0,1,1.035-2.173c0-.034-.01-.069-.014-.1s-.011-.083-.017-.123l-.013-.124c-.008-.07-.012-.142-.016-.215,0-.04,0-.08-.006-.119l0-.146v-.116c0-.048,0-.1,0-.147l0-.108c0-.081.009-.161.016-.242l.009-.072c.006-.062.013-.123.022-.187,0-.031.009-.063.015-.1.009-.057.018-.116.029-.173,0-.028.01-.058.016-.088.017-.084.036-.167.056-.251l.009-.033c.019-.077.04-.152.063-.227.007-.026.015-.053.025-.08.019-.062.039-.123.062-.185.009-.027.017-.052.027-.077.031-.086.063-.169.1-.255l2.742-6.577-.33-.85a13.274,13.274,0,0,1-.828-6.344v-.008c-.019-.167-.035-.336-.047-.5-.019-.229-.029-.455-.036-.681a13.228,13.228,0,0,1,12.833-13.591c.109,0,.218,0,.327,0h1.585a6.55,6.55,0,0,1-1.046-3.561v-2.868a2.773,2.773,0,0,1-.883-5.4v-3.158a4.882,4.882,0,0,1-1.059-2.534,4.906,4.906,0,0,1,1.127-3.7,3.968,3.968,0,0,1-1.238-1.21,3.914,3.914,0,0,1,2.858-6l12.154-1.346a3.923,3.923,0,0,1,4.074,2.472l.894-.1a2.071,2.071,0,0,1,.242-.013,2.208,2.208,0,0,1,2.187,1.957,2.182,2.182,0,0,1-.2,1.179,4.959,4.959,0,0,1,2,1.561l0,.007a4.892,4.892,0,0,1-.348,6.317v4.563a2.773,2.773,0,0,1-.883,5.4v2.868a6.833,6.833,0,0,1-.052.833,6.543,6.543,0,0,1-.993,2.728h.828c.109,0,.219,0,.328,0a13.226,13.226,0,0,1,12.832,13.556v.007c-.006.236-.017.474-.036.712-.011.165-.028.331-.048.495a13.217,13.217,0,0,1-.229,4.392l3.61,6.2c.168-.011.336-.02.507-.02a6.808,6.808,0,0,1,6.808,6.808c0,.09,0,.18-.008.268,0,.059,0,.116-.009.173-.01.176-.028.348-.053.519a6.343,6.343,0,0,1-.381,3.124,7.37,7.37,0,0,1,1.394,2.35Z" transform="translate(-3676.086 -1042.099)"/>
      </g>
      <g id="Grupo_10203" data-name="Grupo 10203" transform="translate(45.96 56.834)">
        <path id="Trazado_33370" data-name="Trazado 33370" class="cls-8" d="M3716.323,1079.294v.007c-.006.236-.018.474-.037.712-.012.165-.028.331-.048.5v0a13.342,13.342,0,0,1-.827,3.325l-7.764,19.974h-30.222l-7.764-19.974a13.424,13.424,0,0,1-.828-3.322v0c-.019-.167-.035-.336-.047-.5-.019-.229-.03-.455-.036-.681a13.227,13.227,0,0,1,12.832-13.59c.109,0,.219,0,.327,0h21.252c.109,0,.219,0,.329,0A13.227,13.227,0,0,1,3716.323,1079.294Z" transform="translate(-3668.747 -1065.733)"/>
      </g>
      <g id="Grupo_10204" data-name="Grupo 10204" transform="translate(45.964 57.338)">
        <path id="Trazado_33371" data-name="Trazado 33371" class="cls-9" d="M3716.323,1079.313v.007c-.006.236-.018.474-.037.712a13.2,13.2,0,0,0-12.795-12.258c-.11,0-.22,0-.329,0H3681.91c-.109,0-.218,0-.327,0a13.206,13.206,0,0,0-12.8,12.255c-.019-.229-.03-.455-.036-.681a13.219,13.219,0,0,1,12.832-13.087c.109,0,.219,0,.327,0h21.252c.109,0,.219,0,.329,0A13.22,13.22,0,0,1,3716.323,1079.313Z" transform="translate(-3668.751 -1066.257)"/>
      </g>
      <g id="Grupo_10205" data-name="Grupo 10205" transform="translate(45.959 59.86)">
        <path id="Trazado_33372" data-name="Trazado 33372" class="cls-10" d="M3707.648,1106.956h-30.223l-7.764-19.974a13.261,13.261,0,0,1,11.922-18.1c.109,0,.219,0,.328,0h21.251c.11,0,.219,0,.328,0a13.261,13.261,0,0,1,11.922,18.1Z" transform="translate(-3668.747 -1068.878)"/>
      </g>
      <g id="Grupo_10206" data-name="Grupo 10206" transform="translate(53.989 61.919)">
        <path id="Rectángulo_8724" data-name="Rectángulo 8724" class="cls-11" d="M12.25,0h7.778a12.25,12.25,0,0,1,12.25,12.25V34.719a0,0,0,0,1,0,0H0a0,0,0,0,1,0,0V12.25A12.25,12.25,0,0,1,12.25,0Z"/>
      </g>
      <g id="Grupo_10207" data-name="Grupo 10207" transform="translate(77.22 64.381)">
        <path id="Trazado_33373" data-name="Trazado 33373" class="cls-11" d="M3722.274,1093.841l-10.108-17.351a5.864,5.864,0,0,0-8.017-2.118h0a5.862,5.862,0,0,0-2.118,8.016l10.109,17.35a5.862,5.862,0,0,0,8.016,2.119h0A5.863,5.863,0,0,0,3722.274,1093.841Z" transform="translate(-3701.234 -1073.576)"/>
      </g>
      <g id="Grupo_10208" data-name="Grupo 10208" transform="translate(44.007 63.255)">
        <path id="Trazado_33374" data-name="Trazado 33374" class="cls-11" d="M3677.992,1099.063l7.73-18.532a5.863,5.863,0,0,0-3.15-7.67h0a5.863,5.863,0,0,0-7.67,3.15l-7.731,18.533a5.862,5.862,0,0,0,3.15,7.67h0A5.864,5.864,0,0,0,3677.992,1099.063Z" transform="translate(-3666.718 -1072.406)"/>
      </g>
      <g id="Grupo_10209" data-name="Grupo 10209" transform="translate(44.007 61.919)">
        <path id="Trazado_33375" data-name="Trazado 33375" class="cls-12" d="M3667.172,1096.847l7.731-18.533a5.863,5.863,0,0,1,7.465-3.23,11.729,11.729,0,0,1,6.119-1.711h8.7a11.739,11.739,0,0,1,7.374,2.594,5.866,5.866,0,0,1,6.3,2.784l10.108,17.35a5.852,5.852,0,0,1,.675,1.77,5.843,5.843,0,0,0-.675-4.126l-10.108-17.351a5.863,5.863,0,0,0-6.3-2.783,11.733,11.733,0,0,0-7.374-2.594h-8.7a11.729,11.729,0,0,0-6.119,1.711,5.862,5.862,0,0,0-7.465,3.23l-7.731,18.533a5.837,5.837,0,0,0-.334,3.438A5.849,5.849,0,0,1,3667.172,1096.847Z" transform="translate(-3666.718 -1071.017)"/>
      </g>
      <g id="Grupo_10210" data-name="Grupo 10210" transform="translate(64.849 53.372)">
        <path id="Trazado_33376" data-name="Trazado 33376" class="cls-13" d="M3698.935,1067.413v7.307a5.278,5.278,0,0,1-10.557,0v-7.307a5.278,5.278,0,0,1,10.557,0Z" transform="translate(-3688.378 -1062.135)"/>
      </g>
      <g id="Grupo_10211" data-name="Grupo 10211" transform="translate(64.849 53.372)">
        <path id="Trazado_33377" data-name="Trazado 33377" class="cls-14" d="M3698.935,1067.413v3.876a6.533,6.533,0,0,1-1.408.151h-7.741a6.533,6.533,0,0,1-1.408-.151v-3.876a5.278,5.278,0,0,1,10.557,0Z" transform="translate(-3688.378 -1062.135)"/>
      </g>
      <g id="Grupo_10212" data-name="Grupo 10212" transform="translate(42.878 86.253)">
        <path id="Trazado_33378" data-name="Trazado 33378" class="cls-13" d="M3671.323,1108.032l20.079.278a5.863,5.863,0,0,0,5.947-5.778h0a5.865,5.865,0,0,0-5.778-5.947l-20.079-.278a5.864,5.864,0,0,0-5.947,5.778h0A5.862,5.862,0,0,0,3671.323,1108.032Z" transform="translate(-3665.544 -1096.306)"/>
      </g>
      <g id="Grupo_10213" data-name="Grupo 10213" transform="translate(42.878 90.733)">
        <path id="Trazado_33379" data-name="Trazado 33379" class="cls-14" d="M3691.4,1105.713l-20.079-.278a5.865,5.865,0,0,1-5.613-4.472,5.838,5.838,0,0,0-.166,1.3h0a5.862,5.862,0,0,0,5.778,5.946l20.079.278a5.863,5.863,0,0,0,5.947-5.778h0a5.906,5.906,0,0,0-.166-1.474A5.866,5.866,0,0,1,3691.4,1105.713Z" transform="translate(-3665.544 -1100.962)"/>
      </g>
      <g id="Grupo_10214" data-name="Grupo 10214" transform="translate(48.44 69.443)">
        <path id="Trazado_33380" data-name="Trazado 33380" class="cls-15" d="M3707.572,1104.306H3677.7a2.227,2.227,0,0,1-2.2-1.784l-4.134-21.067a2.211,2.211,0,0,1,2.2-2.618H3711.7a2.211,2.211,0,0,1,2.2,2.618l-4.133,21.067A2.228,2.228,0,0,1,3707.572,1104.306Z" transform="translate(-3671.325 -1078.837)"/>
      </g>
      <g id="Grupo_10215" data-name="Grupo 10215" transform="translate(48.779 71.208)">
        <path id="Trazado_33381" data-name="Trazado 33381" class="cls-1" d="M3713.576,1083.289l-4.066,21.068a2.2,2.2,0,0,1-2.161,1.784h-29.4a2.2,2.2,0,0,1-2.161-1.784l-1.071-5.542-3-15.526a2.2,2.2,0,0,1,2.161-2.618h37.536A2.2,2.2,0,0,1,3713.576,1083.289Z" transform="translate(-3671.677 -1080.671)"/>
      </g>
      <g id="Grupo_10216" data-name="Grupo 10216" transform="translate(52.097 95.291)">
        <rect id="Rectángulo_8725" data-name="Rectángulo 8725" class="cls-16" width="35.43" height="2.648" rx="1.324"/>
      </g>
      <g id="Grupo_10217" data-name="Grupo 10217" transform="translate(48.779 71.208)">
        <path id="Trazado_33382" data-name="Trazado 33382" class="cls-2" d="M3703.081,1087.043c0,7.695-8.275,13.931-18.482,13.931a22.979,22.979,0,0,1-9.884-2.158l-3-15.526a2.2,2.2,0,0,1,2.161-2.618h27.16A11.206,11.206,0,0,1,3703.081,1087.043Z" transform="translate(-3671.677 -1080.671)"/>
      </g>
      <g id="Grupo_10218" data-name="Grupo 10218" transform="translate(66.471 81.295)">
        <path id="Trazado_33383" data-name="Trazado 33383" class="cls-1" d="M3694.225,1093.234a1.927,1.927,0,0,1,1.2-1.608,4.543,4.543,0,0,0-2.08-.472c-1.81,0-3.278.931-3.278,2.08s1.469,2.08,3.278,2.08a4.544,4.544,0,0,0,2.08-.472A1.925,1.925,0,0,1,3694.225,1093.234Z" transform="translate(-3690.063 -1091.154)"/>
      </g>
      <g id="Grupo_10219" data-name="Grupo 10219" transform="translate(16.541 97.939)">
        <path id="Trazado_33384" data-name="Trazado 33384" class="cls-17" d="M3748.5,1110.72a2.269,2.269,0,0,1-2.27,2.27H3640.443a2.269,2.269,0,1,1,0-4.539h105.785A2.269,2.269,0,0,1,3748.5,1110.72Z" transform="translate(-3638.173 -1108.451)"/>
      </g>
      <g id="Grupo_10220" data-name="Grupo 10220" transform="translate(90.53 82.178)">
        <circle id="Elipse_577" data-name="Elipse 577" class="cls-18" cx="6.809" cy="6.809" r="6.809"/>
      </g>
      <g id="Grupo_10221" data-name="Grupo 10221" transform="translate(90.53 82.177)">
        <path id="Trazado_33385" data-name="Trazado 33385" class="cls-19" d="M3721.876,1092.954a6.808,6.808,0,0,1,6.793,6.367c.009-.146.015-.292.015-.442a6.809,6.809,0,1,0-13.617,0c0,.149.007.3.016.442A6.807,6.807,0,0,1,3721.876,1092.954Z" transform="translate(-3715.067 -1092.071)"/>
      </g>
      <g id="Grupo_10222" data-name="Grupo 10222" transform="translate(91.303 84.338)">
        <circle id="Elipse_578" data-name="Elipse 578" class="cls-13" cx="6.414" cy="6.414" r="6.414"/>
      </g>
      <g id="Grupo_10223" data-name="Grupo 10223" transform="translate(90.782 90.562)">
        <path id="Trazado_33386" data-name="Trazado 33386" class="cls-1" d="M3722.706,1100.785a7.376,7.376,0,0,0-7.376,7.376h14.753A7.376,7.376,0,0,0,3722.706,1100.785Z" transform="translate(-3715.329 -1100.785)"/>
      </g>
      <g id="Grupo_10224" data-name="Grupo 10224" transform="translate(96.457 90.562)">
        <path id="Trazado_33387" data-name="Trazado 33387" class="cls-2" d="M3722.928,1100.785a7.352,7.352,0,0,0-1.7.2,7.377,7.377,0,0,1,5.674,7.176h3.4A7.376,7.376,0,0,0,3722.928,1100.785Z" transform="translate(-3721.226 -1100.785)"/>
      </g>
      <g id="Grupo_10225" data-name="Grupo 10225" transform="translate(92.8 90.121)">
        <path id="Trazado_33388" data-name="Trazado 33388" class="cls-14" d="M3719.38,1104.992h0a1.96,1.96,0,0,1-1.954-1.954v-.756a1.96,1.96,0,0,1,1.954-1.954h0a1.96,1.96,0,0,1,1.954,1.954v.756A1.96,1.96,0,0,1,3719.38,1104.992Z" transform="translate(-3717.426 -1100.327)"/>
      </g>
      <g id="Grupo_10226" data-name="Grupo 10226" transform="translate(92.8 91.382)">
        <path id="Trazado_33389" data-name="Trazado 33389" class="cls-13" d="M3719.38,1106.3h0a1.96,1.96,0,0,1-1.954-1.954v-.756a1.96,1.96,0,0,1,1.954-1.954h0a1.96,1.96,0,0,1,1.954,1.954v.756A1.96,1.96,0,0,1,3719.38,1106.3Z" transform="translate(-3717.426 -1101.637)"/>
      </g>
      <g id="Grupo_10227" data-name="Grupo 10227" transform="translate(95.899 87.537)">
        <path id="Trazado_33390" data-name="Trazado 33390" class="cls-14" d="M3722.526,1102.3h0a1.959,1.959,0,0,1-1.878-2.027l.029-.756a1.96,1.96,0,0,1,2.027-1.877h0a1.96,1.96,0,0,1,1.878,2.027l-.029.756A1.959,1.959,0,0,1,3722.526,1102.3Z" transform="translate(-3720.646 -1097.641)"/>
      </g>
      <g id="Grupo_10228" data-name="Grupo 10228" transform="translate(95.899 86.669)">
        <path id="Trazado_33391" data-name="Trazado 33391" class="cls-14" d="M3722.526,1101.4h0a1.959,1.959,0,0,1-1.878-2.027l.029-.756a1.96,1.96,0,0,1,2.027-1.877h0a1.96,1.96,0,0,1,1.878,2.027l-.029.756A1.959,1.959,0,0,1,3722.526,1101.4Z" transform="translate(-3720.646 -1096.739)"/>
      </g>
      <g id="Grupo_10229" data-name="Grupo 10229" transform="translate(95.899 86.039)">
        <path id="Trazado_33392" data-name="Trazado 33392" class="cls-14" d="M3722.526,1100.748h0a1.96,1.96,0,0,1-1.878-2.028l.029-.755a1.96,1.96,0,0,1,2.027-1.878h0a1.96,1.96,0,0,1,1.878,2.027l-.029.756A1.961,1.961,0,0,1,3722.526,1100.748Z" transform="translate(-3720.646 -1096.085)"/>
      </g>
      <g id="Grupo_10231" data-name="Grupo 10231" transform="translate(93.452 93.147)">
        <g id="Grupo_10230" data-name="Grupo 10230">
          <path id="Trazado_33393" data-name="Trazado 33393" class="cls-20" d="M3719.763,1103.5a1.19,1.19,0,0,1,0,2.33,1.956,1.956,0,0,1-.714,0,1.19,1.19,0,0,1,0-2.33,1.908,1.908,0,0,1,.714,0Z" transform="translate(-3718.103 -1103.471)"/>
        </g>
      </g>
      <g id="Grupo_10232" data-name="Grupo 10232" transform="translate(99.62 88.489)">
        <path id="Trazado_33394" data-name="Trazado 33394" class="cls-14" d="M3726.67,1104.3h0a1.96,1.96,0,0,1-2.058-1.845l-.1-1.762a1.96,1.96,0,0,1,1.846-2.058h0a1.961,1.961,0,0,1,2.057,1.846l.1,1.763A1.959,1.959,0,0,1,3726.67,1104.3Z" transform="translate(-3724.514 -1098.63)"/>
      </g>
      <g id="Grupo_10234" data-name="Grupo 10234" transform="translate(99.691 89.506)">
        <g id="Grupo_10233" data-name="Grupo 10233">
          <path id="Trazado_33395" data-name="Trazado 33395" class="cls-13" d="M3728.581,1103.168v.024a1.953,1.953,0,0,1-3.9.107l-.088-1.634a1.953,1.953,0,0,1,3.9-.13Z" transform="translate(-3724.588 -1099.687)"/>
        </g>
      </g>
      <g id="Grupo_10236" data-name="Grupo 10236" transform="translate(19.17 86.285)">
        <g id="Grupo_10235" data-name="Grupo 10235">
          <path id="Trazado_33396" data-name="Trazado 33396" class="cls-16" d="M3646.16,1105.526h-2.689a2.568,2.568,0,0,1-2.564-2.564V1098.9a2.567,2.567,0,0,1,2.564-2.564h2.689a2.567,2.567,0,0,1,2.564,2.564v4.057A2.568,2.568,0,0,1,3646.16,1105.526Zm-2.689-7.294a.673.673,0,0,0-.673.673v4.057a.673.673,0,0,0,.673.673h2.689a.674.674,0,0,0,.672-.673V1098.9a.673.673,0,0,0-.672-.673Z" transform="translate(-3640.906 -1096.34)"/>
        </g>
      </g>
      <g id="Grupo_10238" data-name="Grupo 10238" transform="translate(100.387 92.012)">
        <g id="Grupo_10237" data-name="Grupo 10237">
          <path id="Trazado_33397" data-name="Trazado 33397" class="cls-20" d="M3726.97,1102.325a1.191,1.191,0,0,1,0,2.331,1.971,1.971,0,0,1-.714,0,1.191,1.191,0,0,1,0-2.331,1.964,1.964,0,0,1,.714,0Z" transform="translate(-3725.31 -1102.292)"/>
        </g>
      </g>
      <g id="Grupo_10239" data-name="Grupo 10239" transform="translate(23.142 83.439)">
        <rect id="Rectángulo_8726" data-name="Rectángulo 8726" class="cls-1" width="12.861" height="14.5" rx="1.223"/>
      </g>
      <g id="Grupo_10240" data-name="Grupo 10240" transform="translate(26.244 87.296)">
        <circle id="Elipse_579" data-name="Elipse 579" class="cls-16" cx="2.9" cy="2.9" r="2.9" transform="translate(0 5.724) rotate(-80.731)"/>
      </g>
      <g id="Grupo_10242" data-name="Grupo 10242" class="cls-21" transform="translate(28.438 83.439)">
        <g id="Grupo_10241" data-name="Grupo 10241">
          <path id="Trazado_33398" data-name="Trazado 33398" class="cls-3" d="M3658.1,1094.558v7.043a6.425,6.425,0,0,1-7.566-6.328v-1.639c0-.085,0-.169.007-.252h6.383A1.177,1.177,0,0,1,3658.1,1094.558Z" transform="translate(-3650.537 -1093.382)"/>
        </g>
      </g>
      <g id="Grupo_10243" data-name="Grupo 10243" transform="translate(58.78 38.804)">
        <rect id="Rectángulo_8727" data-name="Rectángulo 8727" class="cls-1" width="22.695" height="8.069"/>
      </g>
      <g id="Grupo_10244" data-name="Grupo 10244" transform="translate(59.663 35.509)">
        <path id="Trazado_33399" data-name="Trazado 33399" class="cls-13" d="M3703.917,1050.165v11.17a6.845,6.845,0,0,1-.051.833,6.6,6.6,0,0,1-6.543,5.762h-7.741a6.6,6.6,0,0,1-6.594-6.6v-11.17a6.594,6.594,0,0,1,6.594-6.594h7.741A6.594,6.594,0,0,1,3703.917,1050.165Z" transform="translate(-3682.988 -1043.571)"/>
      </g>
      <g id="Grupo_10245" data-name="Grupo 10245" transform="translate(71.768 35.509)">
        <path id="Trazado_33400" data-name="Trazado 33400" class="cls-22" d="M3704.393,1050.165v11.169a6.653,6.653,0,0,1-.051.833c-.021.161-.047.319-.081.477a10.462,10.462,0,0,1-8.693-10.312V1048.9a10.417,10.417,0,0,1,1.459-5.332h.771A6.594,6.594,0,0,1,3704.393,1050.165Z" transform="translate(-3695.568 -1043.571)"/>
      </g>
      <g id="Grupo_10246" data-name="Grupo 10246" transform="translate(59.663 35.509)">
        <path id="Trazado_33401" data-name="Trazado 33401" class="cls-14" d="M3687.149,1050.2v11.169a6.6,6.6,0,0,0,5.905,6.559h-3.472a6.6,6.6,0,0,1-6.594-6.6v-11.17a6.594,6.594,0,0,1,6.594-6.594h7.741a6.823,6.823,0,0,1,.689.036h-4.27A6.6,6.6,0,0,0,3687.149,1050.2Z" transform="translate(-3682.988 -1043.571)"/>
      </g>
      <g id="Grupo_10247" data-name="Grupo 10247" transform="translate(56.889 44.856)">
        <path id="Trazado_33402" data-name="Trazado 33402" class="cls-14" d="M3682.879,1053.285v5.547a2.774,2.774,0,1,1,0-5.547Z" transform="translate(-3680.105 -1053.285)"/>
      </g>
      <g id="Grupo_10248" data-name="Grupo 10248" transform="translate(58.023 45.991)">
        <path id="Trazado_33403" data-name="Trazado 33403" class="cls-8" d="M3682.1,1056.1a1.634,1.634,0,0,0,.82,1.419v.219a1.639,1.639,0,1,1,0-3.278v.219A1.636,1.636,0,0,0,3682.1,1056.1Z" transform="translate(-3681.284 -1054.464)"/>
      </g>
      <g id="Grupo_10249" data-name="Grupo 10249" transform="translate(57.692 32.158)">
        <path id="Trazado_33404" data-name="Trazado 33404" class="cls-1" d="M3701.688,1049.892l-15.289,1.694a4.931,4.931,0,0,1-5.429-4.346h0a4.931,4.931,0,0,1,4.345-5.428l15.29-1.693a4.931,4.931,0,0,1,5.428,4.345h0A4.931,4.931,0,0,1,3701.688,1049.892Z" transform="translate(-3680.94 -1040.088)"/>
      </g>
      <g id="Grupo_10250" data-name="Grupo 10250" transform="translate(56.989 27.035)">
        <path id="Trazado_33405" data-name="Trazado 33405" class="cls-1" d="M3696.7,1042.559l-12.155,1.346a3.921,3.921,0,0,1-4.316-3.455h0a3.921,3.921,0,0,1,3.455-4.316l12.154-1.346a3.92,3.92,0,0,1,4.315,3.454h0A3.92,3.92,0,0,1,3696.7,1042.559Z" transform="translate(-3680.209 -1034.764)"/>
      </g>
      <g id="Grupo_10251" data-name="Grupo 10251" transform="translate(68.797 29.418)">
        <path id="Trazado_33406" data-name="Trazado 33406" class="cls-1" d="M3701.759,1041.625l-6.837.757a2.2,2.2,0,0,1-2.427-1.944h0a2.2,2.2,0,0,1,1.943-2.428l6.837-.756a2.205,2.205,0,0,1,2.428,1.943h0A2.206,2.206,0,0,1,3701.759,1041.625Z" transform="translate(-3692.481 -1037.241)"/>
      </g>
      <g id="Grupo_10252" data-name="Grupo 10252" transform="translate(64.58 47.756)">
        <path id="Trazado_33407" data-name="Trazado 33407" class="cls-23" d="M3689.233,1058.568h0a1.138,1.138,0,0,1-1.135-1.134h0a1.138,1.138,0,0,1,1.135-1.135h0a1.138,1.138,0,0,1,1.135,1.135h0A1.138,1.138,0,0,1,3689.233,1058.568Z" transform="translate(-3688.098 -1056.299)"/>
      </g>
      <g id="Grupo_10253" data-name="Grupo 10253" transform="translate(63.067 46.747)">
        <path id="Trazado_33408" data-name="Trazado 33408" class="cls-1" d="M3691.127,1057.142h-3.656a.948.948,0,0,1-.945-.946h0a.949.949,0,0,1,.945-.946h3.656a.949.949,0,0,1,.946.946h0A.948.948,0,0,1,3691.127,1057.142Z" transform="translate(-3686.526 -1055.25)"/>
      </g>
      <g id="Grupo_10254" data-name="Grupo 10254" transform="translate(66.37 53.052)">
        <path id="Trazado_33409" data-name="Trazado 33409" class="cls-23" d="M3697.5,1062.294a5.714,5.714,0,0,1-.265,1.527,2.855,2.855,0,0,1-.594,1.049,2.417,2.417,0,0,1-1.874.735,5.018,5.018,0,0,1-1.54-.264,6.152,6.152,0,0,1-.937-.4,4.3,4.3,0,0,1-2.317-2.584.466.466,0,0,1,.461-.56h6.6A.467.467,0,0,1,3697.5,1062.294Z" transform="translate(-3689.958 -1061.802)"/>
      </g>
      <g id="Grupo_10255" data-name="Grupo 10255" transform="translate(68.698 55.008)">
        <path id="Trazado_33410" data-name="Trazado 33410" class="cls-8" d="M3696.729,1064.946a2.417,2.417,0,0,1-1.874.735,5.018,5.018,0,0,1-1.54-.264,6.152,6.152,0,0,1-.937-.4,2.635,2.635,0,0,1,4.351-.076Z" transform="translate(-3692.378 -1063.835)"/>
      </g>
      <g id="Grupo_10256" data-name="Grupo 10256" transform="translate(67.354 53.056)">
        <path id="Trazado_33411" data-name="Trazado 33411" class="cls-3" d="M3696.528,1061.806v.406a.6.6,0,0,1-.6.6h-4.35a.6.6,0,0,1-.6-.6v-.406Z" transform="translate(-3690.981 -1061.806)"/>
      </g>
      <g id="Grupo_10259" data-name="Grupo 10259" transform="translate(80.592 44.855)">
        <g id="Grupo_10257" data-name="Grupo 10257">
          <path id="Trazado_33412" data-name="Trazado 33412" class="cls-13" d="M3707.514,1056.059a2.774,2.774,0,0,1-2.775,2.773v-5.548A2.775,2.775,0,0,1,3707.514,1056.059Z" transform="translate(-3704.739 -1053.284)"/>
        </g>
        <g id="Grupo_10258" data-name="Grupo 10258" transform="translate(0 1.135)">
          <path id="Trazado_33413" data-name="Trazado 33413" class="cls-14" d="M3706.379,1056.1a1.639,1.639,0,0,1-1.64,1.639v-.218a1.64,1.64,0,0,0,0-2.841v-.219A1.64,1.64,0,0,1,3706.379,1056.1Z" transform="translate(-3704.739 -1054.464)"/>
        </g>
      </g>
      <g id="Grupo_10260" data-name="Grupo 10260" transform="translate(60.237 29.046)">
        <path id="Trazado_33414" data-name="Trazado 33414" class="cls-24" d="M3692.84,1041.227l-6.82.755a2.2,2.2,0,0,1-2.421-1.938h0a2.2,2.2,0,0,1,1.939-2.422l6.819-.755a2.2,2.2,0,0,1,2.422,1.939h0A2.2,2.2,0,0,1,3692.84,1041.227Z" transform="translate(-3683.585 -1036.854)"/>
      </g>
      <g id="Grupo_10261" data-name="Grupo 10261" transform="translate(67.113 34.356)">
        <path id="Trazado_33415" data-name="Trazado 33415" class="cls-24" d="M3701.749,1047.58l-8.12.9a2.619,2.619,0,0,1-2.883-2.308h0a2.618,2.618,0,0,1,2.307-2.883l8.12-.9a2.619,2.619,0,0,1,2.883,2.308h0A2.619,2.619,0,0,1,3701.749,1047.58Z" transform="translate(-3690.73 -1042.373)"/>
      </g>
      <g id="Grupo_10262" data-name="Grupo 10262" transform="translate(76.427 25.435)">
        <circle id="Elipse_580" data-name="Elipse 580" class="cls-1" cx="1.261" cy="1.261" r="1.261" transform="translate(0 2.454) rotate(-76.673)"/>
      </g>
      <g id="Grupo_10263" data-name="Grupo 10263" transform="translate(106.704 37.184)">
        <path id="Trazado_33416" data-name="Trazado 33416" class="cls-3" d="M3733.053,1067.982l6.639-.567a1.478,1.478,0,0,1,1.129.395q.279.258.578.5a12.526,12.526,0,1,0-4.412-7.477v.007a1.514,1.514,0,0,1-.276,1.176l-4,5.357A.38.38,0,0,0,3733.053,1067.982Z" transform="translate(-3731.905 -1045.34)"/>
        <path id="Trazado_33417" data-name="Trazado 33417" class="cls-13" d="M3749.247,1071.84a13.127,13.127,0,0,1-8.343-2.985c-.205-.167-.412-.346-.614-.534a.74.74,0,0,0-.564-.2l-6.64.567a1.117,1.117,0,0,1-.989-1.78l4-5.358a.778.778,0,0,0,.143-.6l0-.012a13.262,13.262,0,1,1,14.7,10.8A13.616,13.616,0,0,1,3749.247,1071.84Zm-9.463-5.195a2.226,2.226,0,0,1,1.508.6c.179.166.362.324.543.472a11.79,11.79,0,0,0,16.929-2.13,11.862,11.862,0,0,0-1.609-15.784,11.79,11.79,0,0,0-19.474,10.87l0,.015a2.259,2.259,0,0,1-.411,1.747l-3.521,4.721,5.849-.5C3739.662,1066.647,3739.723,1066.645,3739.784,1066.645Zm-6.821.574h0Z" transform="translate(-3731.876 -1045.311)"/>
      </g>
      <g id="Grupo_10264" data-name="Grupo 10264" transform="translate(5.221 3.509)">
        <path id="Trazado_33418" data-name="Trazado 33418" class="cls-3" d="M3662.965,1046.161l-3.272-8.53a2.025,2.025,0,0,1,.089-1.636q.235-.466.444-.953a17.174,17.174,0,1,0-8.169,8.656l.009,0a2.073,2.073,0,0,1,1.653-.084l8.577,3.224A.521.521,0,0,0,3662.965,1046.161Z" transform="translate(-3626.44 -1010.345)"/>
        <path id="Trazado_33419" data-name="Trazado 33419" class="cls-13" d="M3662.453,1047.638a1.326,1.326,0,0,1-.471-.087l-8.577-3.224a1.28,1.28,0,0,0-1.018.052,17.971,17.971,0,1,1,8.541-9.055c-.141.33-.3.666-.465,1a1.23,1.23,0,0,0-.058.991l3.274,8.53a1.323,1.323,0,0,1-1.226,1.794Zm-9.494-4.987a2.864,2.864,0,0,1,1.009.183l8,3.008-3.052-7.956a2.827,2.827,0,0,1,.123-2.28c.152-.3.293-.608.421-.907a16.376,16.376,0,0,0-9.37-21.77,16.478,16.478,0,0,0-20.444,8.232,16.377,16.377,0,0,0,22.024,21.792A2.9,2.9,0,0,1,3652.959,1042.651Z" transform="translate(-3626.409 -1010.314)"/>
      </g>
      <g id="Grupo_10265" data-name="Grupo 10265" transform="translate(89.785 3.215)">
        <path id="Trazado_33420" data-name="Trazado 33420" class="cls-3" d="M3715.113,1035.605l3.574-6.161a1.574,1.574,0,0,0,.134-1.27c-.082-.259-.157-.522-.223-.788a13.388,13.388,0,1,1,5.216,7.673l0,0a1.62,1.62,0,0,0-1.263-.269l-7,1.42A.406.406,0,0,1,3715.113,1035.605Z" transform="translate(-3714.321 -1010.038)"/>
        <path id="Trazado_33421" data-name="Trazado 33421" class="cls-13" d="M3731.559,1038.258a14.123,14.123,0,0,1-8.2-2.628.889.889,0,0,0-.694-.151l-7,1.421a1.143,1.143,0,0,1-1.215-1.695l3.575-6.16a.848.848,0,0,0,.067-.678c-.089-.279-.167-.559-.236-.833a14.124,14.124,0,0,1,10.958-17.257,14.214,14.214,0,0,1,16.285,9.81,14.128,14.128,0,0,1-13.537,18.171Zm-8.724-4.269a2.362,2.362,0,0,1,1.371.438,12.654,12.654,0,1,0-4.924-7.247c.061.244.131.494.21.744a2.318,2.318,0,0,1-.2,1.862l-3.205,5.525,6.281-1.274A2.31,2.31,0,0,1,3722.836,1033.989Zm-7.115,1.956h0Z" transform="translate(-3714.292 -1010.009)"/>
      </g>
      <g id="Grupo_10266" data-name="Grupo 10266" transform="translate(74.289 46.961)">
        <path id="Trazado_33422" data-name="Trazado 33422" class="cls-23" d="M3700.457,1056.607a1.134,1.134,0,1,0-2.269,0v.279a1.188,1.188,0,0,1,0,.236v.28a1.134,1.134,0,1,0,2.269,0v-.28c0-.039,0-.079-.006-.117s.006-.078.006-.118Z" transform="translate(-3698.188 -1055.472)"/>
      </g>
      <g id="Grupo_10267" data-name="Grupo 10267" transform="translate(72.66 46.101)">
        <path id="Trazado_33423" data-name="Trazado 33423" class="cls-1" d="M3700.97,1056.872l-3.634-.407a.949.949,0,0,1-.834-1.045h0a.949.949,0,0,1,1.045-.835l3.634.408a.948.948,0,0,1,.834,1.045h0A.947.947,0,0,1,3700.97,1056.872Z" transform="translate(-3696.496 -1054.579)"/>
      </g>
      <g id="Grupo_10299" data-name="Grupo 10299" transform="translate(12.067 14.196)">
        <g id="Grupo_10288" data-name="Grupo 10288">
          <g id="Grupo_10269" data-name="Grupo 10269" transform="translate(3.579 2.944)">
            <g id="Grupo_10268" data-name="Grupo 10268">
              <path id="Trazado_33424" data-name="Trazado 33424" class="cls-1" d="M3653.2,1024.481v10.685a.577.577,0,0,1-.1.31H3637.34a.571.571,0,0,1-.1-.31v-10.685Z" transform="translate(-3637.243 -1024.481)"/>
            </g>
          </g>
          <g id="Grupo_10271" data-name="Grupo 10271" transform="translate(3.579 2.269)">
            <g id="Grupo_10270" data-name="Grupo 10270">
              <path id="Trazado_33425" data-name="Trazado 33425" class="cls-16" d="M3653.2,1025.835v2.864l-3.716.97a16.178,16.178,0,0,1-7.994.043l-4.25-1.058v-2.865l1.115-.292,4-1.042.012,0,2.581-.674,2.7.674.011,0,4.188,1.042Z" transform="translate(-3637.243 -1023.779)"/>
            </g>
          </g>
          <g id="Grupo_10273" data-name="Grupo 10273" transform="translate(3.579 11.633)">
            <g id="Grupo_10272" data-name="Grupo 10272">
              <path id="Trazado_33426" data-name="Trazado 33426" class="cls-1" d="M3653.2,1035.507a.577.577,0,0,1-.1.31c-.6.955-3.9,1.686-7.883,1.686s-7.289-.731-7.884-1.686a.572.572,0,0,1-.1-.31c0-1.1,3.573-2,7.981-2S3653.2,1034.4,3653.2,1035.507Z" transform="translate(-3637.243 -1033.511)"/>
            </g>
          </g>
          <g id="Grupo_10279" data-name="Grupo 10279" transform="translate(0 1.04)">
            <g id="Grupo_10278" data-name="Grupo 10278" class="cls-25">
              <path id="Trazado_33427" data-name="Trazado 33427" class="cls-1" d="M3633.523,1025.444l11.287-2.942,11.831,2.948-11.286,2.942Z" transform="translate(-3633.523 -1022.502)"/>
              <g id="Grupo_10277" data-name="Grupo 10277" class="cls-26">
                <g id="Grupo_10276" data-name="Grupo 10276">
                  <g id="Grupo_10275" data-name="Grupo 10275">
                    <g id="Grupo_10274" data-name="Grupo 10274">
                      <path id="Trazado_33428" data-name="Trazado 33428" class="cls-1" d="M3656.642,1025.45l-11.831-2.948-11.287,2.942,11.832,2.948,11.286-2.942Z" transform="translate(-3633.523 -1022.502)"/>
                    </g>
                  </g>
                </g>
              </g>
            </g>
          </g>
          <g id="Grupo_10281" data-name="Grupo 10281" transform="translate(0 2.942)">
            <g id="Grupo_10280" data-name="Grupo 10280">
              <rect id="Rectángulo_8728" data-name="Rectángulo 8728" class="cls-1" width="23.118" height="1.045"/>
            </g>
          </g>
          <g id="Grupo_10287" data-name="Grupo 10287">
            <g id="Grupo_10286" data-name="Grupo 10286" class="cls-25">
              <path id="Trazado_33430" data-name="Trazado 33430" class="cls-2" d="M3633.523,1024.363l11.287-2.942,11.831,2.948-11.286,2.942Z" transform="translate(-3633.523 -1021.421)"/>
              <g id="Grupo_10285" data-name="Grupo 10285" class="cls-27">
                <g id="Grupo_10284" data-name="Grupo 10284">
                  <g id="Grupo_10283" data-name="Grupo 10283">
                    <g id="Grupo_10282" data-name="Grupo 10282">
                      <path id="Trazado_33431" data-name="Trazado 33431" class="cls-2" d="M3656.642,1024.369l-11.831-2.948-11.287,2.942,11.832,2.948,11.286-2.942Z" transform="translate(-3633.523 -1021.421)"/>
                    </g>
                  </g>
                </g>
              </g>
            </g>
          </g>
        </g>
        <g id="Grupo_10290" data-name="Grupo 10290" transform="translate(9.55 1.77)">
          <g id="Grupo_10289" data-name="Grupo 10289">
            <path id="Trazado_33433" data-name="Trazado 33433" class="cls-1" d="M3647.628,1024.2c0,.521-.935.942-2.09.942s-2.09-.422-2.09-.942.935-.943,2.09-.943S3647.628,1023.683,3647.628,1024.2Z" transform="translate(-3643.448 -1023.261)"/>
          </g>
        </g>
        <g id="Grupo_10292" data-name="Grupo 10292" transform="translate(11.281 2.355)">
          <g id="Grupo_10291" data-name="Grupo 10291">
            <path id="Trazado_33434" data-name="Trazado 33434" class="cls-28" d="M3652.4,1031.933a.359.359,0,0,1-.359-.359v-5.8l-6.5-1.194a.359.359,0,1,1,.129-.705l6.793,1.248a.359.359,0,0,1,.293.353v6.1A.359.359,0,0,1,3652.4,1031.933Z" transform="translate(-3645.247 -1023.868)"/>
          </g>
        </g>
        <g id="Grupo_10294" data-name="Grupo 10294" transform="translate(17.548 8.046)">
          <g id="Grupo_10293" data-name="Grupo 10293">
            <rect id="Rectángulo_8729" data-name="Rectángulo 8729" class="cls-2" width="1.769" height="2.629" rx="0.586"/>
          </g>
        </g>
        <g id="Grupo_10296" data-name="Grupo 10296" transform="translate(17.048 9.362)">
          <g id="Grupo_10295" data-name="Grupo 10295">
            <path id="Trazado_33435" data-name="Trazado 33435" class="cls-28" d="M3653.874,1033.779h-.375l-.146-.813-.138.813h-1.838a.136.136,0,0,1-.134-.163l.5-2.466h1.769l.5,2.466A.135.135,0,0,1,3653.874,1033.779Z" transform="translate(-3651.24 -1031.15)"/>
          </g>
        </g>
        <g id="Grupo_10298" data-name="Grupo 10298" transform="translate(17.454 9.362)">
          <g id="Grupo_10297" data-name="Grupo 10297">
            <path id="Trazado_33436" data-name="Trazado 33436" class="cls-29" d="M3651.662,1031.622a.68.68,0,0,0,.334.089h1.291a.693.693,0,0,0,.335-.089l-.1-.472h-1.769Z" transform="translate(-3651.662 -1031.15)"/>
          </g>
        </g>
      </g>
      <g id="Grupo_10300" data-name="Grupo 10300" transform="translate(95.851 88.797)">
        <path id="Trazado_33437" data-name="Trazado 33437" class="cls-13" d="M3722.476,1103.614h0a1.96,1.96,0,0,1-1.878-2.028l.029-.755a1.961,1.961,0,0,1,2.028-1.878h0a1.96,1.96,0,0,1,1.878,2.027l-.029.756A1.96,1.96,0,0,1,3722.476,1103.614Z" transform="translate(-3720.596 -1098.95)"/>
      </g>
      <g id="Grupo_10301" data-name="Grupo 10301" transform="translate(95.851 87.299)">
        <path id="Trazado_33438" data-name="Trazado 33438" class="cls-13" d="M3722.476,1102.057h0a1.96,1.96,0,0,1-1.878-2.027l.029-.756a1.961,1.961,0,0,1,2.028-1.878h0a1.96,1.96,0,0,1,1.878,2.028l-.029.755A1.96,1.96,0,0,1,3722.476,1102.057Z" transform="translate(-3720.596 -1097.394)"/>
      </g>
      <g id="Grupo_10303" data-name="Grupo 10303" transform="translate(96.419 90.485)">
        <g id="Grupo_10302" data-name="Grupo 10302">
          <path id="Trazado_33439" data-name="Trazado 33439" class="cls-20" d="M3723.132,1100.891a1.19,1.19,0,0,1-.594,2.253,1.908,1.908,0,0,1-.354-.06,1.84,1.84,0,0,1-.336-.123,1.19,1.19,0,0,1,.594-2.253,1.977,1.977,0,0,1,.691.183Z" transform="translate(-3721.187 -1100.704)"/>
        </g>
      </g>
      <g id="Grupo_10317" data-name="Grupo 10317" transform="translate(99.36 11.839)">
        <g id="Grupo_10308" data-name="Grupo 10308" transform="translate(1.103)">
          <g id="Grupo_10305" data-name="Grupo 10305">
            <g id="Grupo_10304" data-name="Grupo 10304">
              <path id="Trazado_33440" data-name="Trazado 33440" class="cls-12" d="M3731.612,1030.238l-5.725-1.94a.73.73,0,0,1-.5-.692v-7.9a.731.731,0,0,1,.965-.693l5.725,1.94a.732.732,0,0,1,.5.693v7.9A.731.731,0,0,1,3731.612,1030.238Z" transform="translate(-3725.39 -1018.971)"/>
            </g>
          </g>
          <g id="Grupo_10307" data-name="Grupo 10307" transform="translate(6.085)">
            <g id="Grupo_10306" data-name="Grupo 10306">
              <path id="Trazado_33441" data-name="Trazado 33441" class="cls-12" d="M3732.68,1030.238l5.725-1.94a.731.731,0,0,0,.5-.692v-7.9a.731.731,0,0,0-.966-.693l-5.725,1.94a.731.731,0,0,0-.5.693v7.9A.731.731,0,0,0,3732.68,1030.238Z" transform="translate(-3731.714 -1018.971)"/>
            </g>
          </g>
        </g>
        <g id="Grupo_10310" data-name="Grupo 10310" transform="translate(0 0.454)">
          <g id="Grupo_10309" data-name="Grupo 10309">
            <path id="Trazado_33442" data-name="Trazado 33442" class="cls-30" d="M3731.431,1031.325l-7.188-2.436v-9.447l7.188,2.436Z" transform="translate(-3724.243 -1019.443)"/>
          </g>
        </g>
        <g id="Grupo_10312" data-name="Grupo 10312" transform="translate(8.254 0.454)">
          <g id="Grupo_10311" data-name="Grupo 10311">
            <path id="Trazado_33443" data-name="Trazado 33443" class="cls-30" d="M3740.009,1019.443l-7.187,2.436v9.447l7.188-2.436Z" transform="translate(-3732.822 -1019.443)"/>
          </g>
        </g>
        <g id="Grupo_10314" data-name="Grupo 10314" transform="translate(6.679 2.306)">
          <g id="Grupo_10313" data-name="Grupo 10313">
            <path id="Trazado_33444" data-name="Trazado 33444" class="cls-31" d="M3732.227,1031.765h0a1.042,1.042,0,0,1-1.043-1.042v-8.313a1.042,1.042,0,0,1,1.043-1.042h0a1.042,1.042,0,0,1,1.042,1.042v8.313A1.042,1.042,0,0,1,3732.227,1031.765Z" transform="translate(-3731.184 -1021.368)"/>
          </g>
        </g>
        <g id="Grupo_10316" data-name="Grupo 10316" transform="translate(9.311 0.922)">
          <g id="Grupo_10315" data-name="Grupo 10315">
            <path id="Trazado_33445" data-name="Trazado 33445" class="cls-13" d="M3735.391,1027.127a.378.378,0,0,1-.378-.378v-5.269l-.972-.894a.378.378,0,0,1,.512-.556l1.094,1.006a.38.38,0,0,1,.122.278v5.435A.378.378,0,0,1,3735.391,1027.127Z" transform="translate(-3733.919 -1019.929)"/>
          </g>
        </g>
      </g>
      <g id="Grupo_10318" data-name="Grupo 10318" transform="translate(0 50.023)">
        <path id="Trazado_33446" data-name="Trazado 33446" class="cls-3" d="M3653.245,1079.535l-4.854-5.016a1.547,1.547,0,0,1-.427-1.177q.026-.4.026-.8a13.119,13.119,0,1,0-3.15,8.529l0,0a1.589,1.589,0,0,1,1.138-.553l6.993-.3A.4.4,0,0,0,3653.245,1079.535Z" transform="translate(-3621.012 -1058.683)"/>
        <path id="Trazado_33447" data-name="Trazado 33447" class="cls-13" d="M3634.841,1086.368a13.858,13.858,0,0,1-13.843-14.51,13.945,13.945,0,0,1,13.188-13.188,13.856,13.856,0,0,1,14.51,13.842c0,.277-.009.563-.027.849a.815.815,0,0,0,.22.618l4.854,5.015a1.134,1.134,0,0,1-.767,1.923l-6.994.3a.854.854,0,0,0-.609.3A13.852,13.852,0,0,1,3634.841,1086.368Zm0-26.241c-.2,0-.394,0-.591.013a12.461,12.461,0,0,0-11.785,11.784,12.385,12.385,0,0,0,21.782,8.637,2.334,2.334,0,0,1,1.669-.816l6.242-.269-4.331-4.475a2.288,2.288,0,0,1-.632-1.736c.017-.255.025-.509.025-.755a12.384,12.384,0,0,0-12.379-12.384Z" transform="translate(-3620.983 -1058.654)"/>
      </g>
      <g id="Grupo_10336" data-name="Grupo 10336" transform="translate(8.627 55.473)">
        <g id="Grupo_10319" data-name="Grupo 10319" transform="translate(1.291 3.84)">
          <path id="Trazado_33448" data-name="Trazado 33448" class="cls-13" d="M3638.94,1072.133a3.825,3.825,0,1,0-7.129,1.925c.45.771,1.308,1.928,1.308,2.7v1.742h3.994v-1.743c0-.773.868-1.932,1.318-2.712A3.809,3.809,0,0,0,3638.94,1072.133Z" transform="translate(-3631.291 -1068.309)"/>
        </g>
        <g id="Grupo_10335" data-name="Grupo 10335">
          <g id="Grupo_10321" data-name="Grupo 10321" transform="translate(3.207 8.174)">
            <g id="Grupo_10320" data-name="Grupo 10320">
              <path id="Trazado_33449" data-name="Trazado 33449" class="cls-32" d="M3635.169,1078.613h0a.147.147,0,0,1-.136-.1l-1.74-4.779a.147.147,0,0,1,.056-.173l1.089-.726a.149.149,0,0,1,.186.018l.622.622.622-.622a.146.146,0,0,1,.185-.018l1.088.726a.147.147,0,0,1,.056.176l-1.888,4.78A.146.146,0,0,1,3635.169,1078.613Zm-1.562-4.869,1.568,4.307,1.7-4.309-.889-.593-.64.64a.147.147,0,0,1-.1.043h0a.144.144,0,0,1-.1-.043l-.641-.64Z" transform="translate(-3633.281 -1072.813)"/>
            </g>
          </g>
          <g id="Grupo_10323" data-name="Grupo 10323" transform="translate(2.569 12.359)">
            <g id="Grupo_10322" data-name="Grupo 10322">
              <rect id="Rectángulo_8730" data-name="Rectángulo 8730" class="cls-1" width="5.05" height="1.373" rx="0.634"/>
            </g>
          </g>
          <g id="Grupo_10325" data-name="Grupo 10325" transform="translate(2.569 13.731)">
            <g id="Grupo_10324" data-name="Grupo 10324">
              <rect id="Rectángulo_8731" data-name="Rectángulo 8731" class="cls-24" width="5.05" height="1.373" rx="0.634"/>
            </g>
          </g>
          <g id="Grupo_10327" data-name="Grupo 10327" transform="translate(2.569 15.104)">
            <g id="Grupo_10326" data-name="Grupo 10326">
              <rect id="Rectángulo_8732" data-name="Rectángulo 8732" class="cls-1" width="5.05" height="1.373" rx="0.634"/>
            </g>
          </g>
          <g id="Grupo_10334" data-name="Grupo 10334">
            <g id="Grupo_10329" data-name="Grupo 10329" transform="translate(4.626)">
              <g id="Grupo_10328" data-name="Grupo 10328">
                <path id="Trazado_33450" data-name="Trazado 33450" class="cls-13" d="M3635.246,1067.156a.49.49,0,0,1-.49-.49v-1.857a.49.49,0,1,1,.98,0v1.857A.49.49,0,0,1,3635.246,1067.156Z" transform="translate(-3634.756 -1064.318)"/>
              </g>
            </g>
            <g id="Grupo_10331" data-name="Grupo 10331" transform="translate(7.925 1.929)">
              <g id="Grupo_10330" data-name="Grupo 10330">
                <path id="Trazado_33451" data-name="Trazado 33451" class="cls-13" d="M3638.675,1068.616a.49.49,0,0,1-.346-.836l1.313-1.313a.49.49,0,0,1,.693.693l-1.312,1.313A.488.488,0,0,1,3638.675,1068.616Z" transform="translate(-3638.185 -1066.323)"/>
              </g>
            </g>
            <g id="Grupo_10333" data-name="Grupo 10333" transform="translate(0 1.898)">
              <g id="Grupo_10332" data-name="Grupo 10332">
                <path id="Trazado_33452" data-name="Trazado 33452" class="cls-13" d="M3631.752,1068.585a.488.488,0,0,1-.347-.144l-1.313-1.312a.491.491,0,0,1,.694-.694l1.313,1.313a.491.491,0,0,1-.346.837Z" transform="translate(-3629.949 -1066.291)"/>
              </g>
            </g>
          </g>
        </g>
      </g>
      <g id="Grupo_10359" data-name="Grupo 10359" transform="translate(117.578 43.014)">
        <g id="Grupo_10338" data-name="Grupo 10338" transform="translate(3.54)">
          <g id="Grupo_10337" data-name="Grupo 10337">
            <path id="Trazado_33453" data-name="Trazado 33453" class="cls-1" d="M3750,1066.114c-1.766,0-3.148-3.238-3.148-7.373s1.383-7.372,3.148-7.372,3.149,3.238,3.149,7.372S3751.771,1066.114,3750,1066.114Zm0-14.215c-1.264,0-2.619,2.75-2.619,6.842s1.355,6.843,2.619,6.843,2.62-2.75,2.62-6.843S3751.27,1051.9,3750,1051.9Z" transform="translate(-3746.856 -1051.37)"/>
          </g>
        </g>
        <g id="Grupo_10340" data-name="Grupo 10340" transform="translate(0.104 2.763)">
          <g id="Grupo_10339" data-name="Grupo 10339">
            <path id="Trazado_33454" data-name="Trazado 33454" class="cls-1" d="M3745.674,1063.455a2.37,2.37,0,0,1-2.189-.919c-.882-1.529,1.231-4.347,4.81-6.413a14.1,14.1,0,0,1,4.871-1.814c1.549-.215,2.645.089,3.089.855.883,1.529-1.23,4.345-4.81,6.413h0A12.467,12.467,0,0,1,3745.674,1063.455Zm8.4-8.684a6.034,6.034,0,0,0-.84.063,13.538,13.538,0,0,0-4.679,1.748c-3.545,2.047-5.248,4.595-4.616,5.69s3.69.894,7.236-1.153,5.248-4.595,4.616-5.69A1.886,1.886,0,0,0,3754.079,1054.771Z" transform="translate(-3743.285 -1054.242)"/>
          </g>
        </g>
        <g id="Grupo_10342" data-name="Grupo 10342" transform="translate(0.104 2.767)">
          <g id="Grupo_10341" data-name="Grupo 10341">
            <path id="Trazado_33455" data-name="Trazado 33455" class="cls-1" d="M3754.066,1063.456a12.469,12.469,0,0,1-5.771-1.877h0c-3.579-2.068-5.692-4.884-4.81-6.413s4.379-1.109,7.959.958,5.693,4.884,4.81,6.413A2.369,2.369,0,0,1,3754.066,1063.456Zm-5.506-2.336c3.545,2.047,6.6,2.249,7.236,1.153s-1.072-3.643-4.616-5.69-6.6-2.249-7.236-1.153,1.071,3.643,4.616,5.69Z" transform="translate(-3743.285 -1054.246)"/>
          </g>
        </g>
        <g id="Grupo_10344" data-name="Grupo 10344" transform="translate(0 1.842)">
          <g id="Grupo_10343" data-name="Grupo 10343">
            <circle id="Elipse_581" data-name="Elipse 581" class="cls-8" cx="1.443" cy="1.443" r="1.443"/>
          </g>
        </g>
        <g id="Grupo_10346" data-name="Grupo 10346" transform="translate(0.364 2.338)">
          <g id="Grupo_10345" data-name="Grupo 10345">
            <circle id="Elipse_582" data-name="Elipse 582" class="cls-33" cx="0.682" cy="0.682" r="0.682"/>
          </g>
        </g>
        <g id="Grupo_10348" data-name="Grupo 10348" transform="translate(11.346 3.767)">
          <g id="Grupo_10347" data-name="Grupo 10347">
            <circle id="Elipse_583" data-name="Elipse 583" class="cls-12" cx="1.443" cy="1.443" r="1.443"/>
          </g>
        </g>
        <g id="Grupo_10350" data-name="Grupo 10350" transform="translate(12.366 4.25)">
          <g id="Grupo_10349" data-name="Grupo 10349">
            <circle id="Elipse_584" data-name="Elipse 584" class="cls-34" cx="0.71" cy="0.71" r="0.71"/>
          </g>
        </g>
        <g id="Grupo_10352" data-name="Grupo 10352" transform="translate(3.511 11.687)">
          <g id="Grupo_10351" data-name="Grupo 10351">
            <circle id="Elipse_585" data-name="Elipse 585" class="cls-28" cx="1.443" cy="1.443" r="1.443" transform="translate(0 2.809) rotate(-76.666)"/>
          </g>
        </g>
        <g id="Grupo_10354" data-name="Grupo 10354" transform="translate(4.841 12.432)">
          <g id="Grupo_10353" data-name="Grupo 10353">
            <path id="Trazado_33456" data-name="Trazado 33456" class="cls-35" d="M3749.442,1064.908a.617.617,0,1,1-.617-.618A.617.617,0,0,1,3749.442,1064.908Z" transform="translate(-3748.208 -1064.29)"/>
          </g>
        </g>
        <g id="Grupo_10356" data-name="Grupo 10356" transform="translate(4.987 5.67)">
          <g id="Grupo_10355" data-name="Grupo 10355">
            <circle id="Elipse_586" data-name="Elipse 586" class="cls-2" cx="1.702" cy="1.702" r="1.702"/>
          </g>
        </g>
        <g id="Grupo_10358" data-name="Grupo 10358" transform="translate(5.616 6.162)">
          <g id="Grupo_10357" data-name="Grupo 10357">
            <path id="Trazado_33457" data-name="Trazado 33457" class="cls-36" d="M3750.785,1058.659a.886.886,0,1,1-.885-.885A.886.886,0,0,1,3750.785,1058.659Z" transform="translate(-3749.013 -1057.774)"/>
          </g>
        </g>
      </g>
      <g id="Grupo_10360" data-name="Grupo 10360" transform="translate(103.585 40.206)">
        <circle id="Elipse_587" data-name="Elipse 587" class="cls-7" cx="1.7" cy="1.7" r="1.7" transform="translate(0 3.356) rotate(-80.752)"/>
      </g>
      <g id="Grupo_10361" data-name="Grupo 10361" transform="translate(105.727 34.477)">
        <circle id="Elipse_588" data-name="Elipse 588" class="cls-7" cx="2.832" cy="2.832" r="2.832"/>
      </g>
      <g id="Grupo_10362" data-name="Grupo 10362" transform="translate(39.569 77.408)">
        <circle id="Elipse_589" data-name="Elipse 589" class="cls-3" cx="1.836" cy="1.836" r="1.836"/>
      </g>
      <g id="Grupo_10363" data-name="Grupo 10363" transform="translate(33.111 72.92)">
        <circle id="Elipse_590" data-name="Elipse 590" class="cls-3" cx="3.059" cy="3.059" r="3.059"/>
      </g>
      <g id="Grupo_10364" data-name="Grupo 10364" transform="translate(102.517 77.034)">
        <path id="Trazado_33458" data-name="Trazado 33458" class="cls-3" d="M3731.1,1086.726l-3.571,2.293,3.771,1.946-.2-4.239-3.571,2.293,3.771,1.946Z" transform="translate(-3727.525 -1086.726)"/>
      </g>
      <g id="Grupo_10365" data-name="Grupo 10365" transform="translate(104.781 72.648)">
        <path id="Trazado_33459" data-name="Trazado 33459" class="cls-3" d="M3733.448,1082.168l-3.571,2.293,3.771,1.946-.2-4.239-3.571,2.293,3.771,1.946Z" transform="translate(-3729.877 -1082.168)"/>
      </g>
      <g id="Grupo_10367" data-name="Grupo 10367" transform="translate(94.995 51.406)">
        <g id="Grupo_10366" data-name="Grupo 10366">
          <path id="Trazado_33460" data-name="Trazado 33460" class="cls-3" d="M3722.991,1062.252a2.657,2.657,0,0,1-.42,1.633,1.463,1.463,0,0,1-1.234.545,1.425,1.425,0,0,1-1.2-.56,2.639,2.639,0,0,1-.425-1.619q0-2.159,1.63-2.16a1.454,1.454,0,0,1,1.227.56A2.6,2.6,0,0,1,3722.991,1062.252Zm-2.093.01a2.82,2.82,0,0,0,.105.895c.071.2.185.3.343.3q.453,0,.453-1.19t-.453-1.182c-.158,0-.271.1-.343.291A2.777,2.777,0,0,0,3720.9,1062.262Zm5.344-2.07-3.833,6.909h-1.135l3.833-6.909Zm1.587,4.82a2.645,2.645,0,0,1-.42,1.628,1.462,1.462,0,0,1-1.233.546,1.425,1.425,0,0,1-1.205-.56,2.628,2.628,0,0,1-.425-1.614q0-2.159,1.63-2.159a1.45,1.45,0,0,1,1.227.56A2.593,2.593,0,0,1,3727.83,1065.012Zm-2.093.01a2.8,2.8,0,0,0,.106.9c.071.2.185.3.342.3q.453,0,.453-1.19t-.453-1.181c-.158,0-.271.1-.342.29A2.761,2.761,0,0,0,3725.737,1065.021Z" transform="translate(-3719.707 -1060.092)"/>
        </g>
      </g>
      <g id="Grupo_10372" data-name="Grupo 10372" transform="translate(63.323 8.472)">
        <g id="Grupo_10369" data-name="Grupo 10369" transform="translate(5.376 0.046)">
          <g id="Grupo_10368" data-name="Grupo 10368">
            <path id="Trazado_33461" data-name="Trazado 33461" class="cls-7" d="M3694.79,1024.43v-.66a2.936,2.936,0,0,1,.365-1.491,4.812,4.812,0,0,1,1.34-1.348,5.579,5.579,0,0,0,1.236-1.089,1.574,1.574,0,0,0,.3-.938,1.015,1.015,0,0,0-.428-.883,2.049,2.049,0,0,0-1.2-.3,6.874,6.874,0,0,0-3.053.876l-.974-1.955a8.5,8.5,0,0,1,4.223-1.116,4.492,4.492,0,0,1,2.924.883,2.886,2.886,0,0,1,1.086,2.357,3.137,3.137,0,0,1-.447,1.7,6.361,6.361,0,0,1-1.7,1.607,5.268,5.268,0,0,0-1.085.964,1.5,1.5,0,0,0-.227.866v.536Zm-.286,3.053a1.5,1.5,0,0,1,.4-1.133,1.632,1.632,0,0,1,1.17-.384,1.58,1.58,0,0,1,1.147.394,1.733,1.733,0,0,1,0,2.236,1.557,1.557,0,0,1-1.143.406,1.6,1.6,0,0,1-1.16-.4A1.485,1.485,0,0,1,3694.5,1027.483Z" transform="translate(-3692.379 -1015.52)"/>
          </g>
        </g>
        <g id="Grupo_10371" data-name="Grupo 10371">
          <g id="Grupo_10370" data-name="Grupo 10370">
            <path id="Trazado_33462" data-name="Trazado 33462" class="cls-7" d="M3686.792,1027.456a1.524,1.524,0,0,1,.409-1.154,1.656,1.656,0,0,1,1.19-.391,1.609,1.609,0,0,1,1.167.4,1.764,1.764,0,0,1,0,2.276,1.578,1.578,0,0,1-1.162.414,1.631,1.631,0,0,1-1.182-.4A1.514,1.514,0,0,1,3686.792,1027.456Zm2.716-3.107h-2.216l-.464-8.877h3.144Z" transform="translate(-3686.792 -1015.472)"/>
          </g>
        </g>
      </g>
      <g id="Grupo_10373" data-name="Grupo 10373" transform="translate(36.538 49.702)">
        <path id="Trazado_33463" data-name="Trazado 33463" class="cls-3" d="M3668.4,1064.619l-.688-.377a3.95,3.95,0,0,0,.049-.615,3.892,3.892,0,0,0-.083-.8l.668-.41a.9.9,0,0,0,.3-1.23l-.411-.67a.894.894,0,0,0-1.229-.3l-.67.41a3.832,3.832,0,0,0-1.134-.636v-.785a.893.893,0,0,0-.894-.893h-.786a.894.894,0,0,0-.894.894V1060a3.845,3.845,0,0,0-1.276.756l-.689-.377a.893.893,0,0,0-1.213.354l-.378.689a.894.894,0,0,0,.355,1.213l.688.377a3.816,3.816,0,0,0-.05.615,3.906,3.906,0,0,0,.083.8l-.669.409a.894.894,0,0,0-.3,1.23l.41.67a.893.893,0,0,0,1.229.3l.67-.41a3.862,3.862,0,0,0,1.135.637v.784a.893.893,0,0,0,.893.894h.786a.894.894,0,0,0,.894-.894v-.784a3.842,3.842,0,0,0,1.276-.757l.689.378a.9.9,0,0,0,1.213-.355l.377-.689A.893.893,0,0,0,3668.4,1064.619Z" transform="translate(-3658.955 -1058.321)"/>
      </g>
      <g id="Grupo_10374" data-name="Grupo 10374" transform="translate(38.987 52.505)">
        <circle id="Elipse_591" data-name="Elipse 591" class="cls-6" cx="2.503" cy="2.503" r="2.503"/>
      </g>
      <g id="Grupo_10395" data-name="Grupo 10395" transform="translate(113.153 69.16)">
        <g id="Grupo_10375" data-name="Grupo 10375" transform="translate(0.953 26.254)">
          <path id="Trazado_33464" data-name="Trazado 33464" class="cls-3" d="M3748.413,1108.356h-7.581a1.264,1.264,0,0,1-1.263-1.264h0a1.264,1.264,0,0,1,1.263-1.264h7.581a1.264,1.264,0,0,1,1.264,1.264h0A1.264,1.264,0,0,1,3748.413,1108.356Z" transform="translate(-3739.568 -1105.827)"/>
        </g>
        <g id="Grupo_10394" data-name="Grupo 10394">
          <g id="Grupo_10376" data-name="Grupo 10376" transform="translate(3.569 10.281)">
            <rect id="Rectángulo_8733" data-name="Rectángulo 8733" class="cls-3" width="4.877" height="12.491"/>
          </g>
          <g id="Grupo_10377" data-name="Grupo 10377" transform="translate(2.171 9.017)">
            <path id="Trazado_33465" data-name="Trazado 33465" class="cls-3" d="M3747.242,1090.441H3742.1a1.264,1.264,0,0,1-1.263-1.263h0a1.264,1.264,0,0,1,1.263-1.264h5.145a1.264,1.264,0,0,1,1.264,1.264h0A1.264,1.264,0,0,1,3747.242,1090.441Z" transform="translate(-3740.834 -1087.913)"/>
          </g>
          <g id="Grupo_10378" data-name="Grupo 10378" transform="translate(0 16.764)">
            <circle id="Elipse_592" data-name="Elipse 592" class="cls-3" cx="6.008" cy="6.008" r="6.008"/>
          </g>
          <g id="Grupo_10379" data-name="Grupo 10379" transform="translate(1.571 18.335)">
            <circle id="Elipse_593" data-name="Elipse 593" class="cls-6" cx="4.437" cy="4.437" r="4.437"/>
          </g>
          <g id="Grupo_10380" data-name="Grupo 10380" transform="translate(1.569 20.867)">
            <path id="Trazado_33466" data-name="Trazado 33466" class="cls-30" d="M3749.083,1102.133a4.5,4.5,0,0,1-6.991,3.717,3.186,3.186,0,0,1-1.169-1.17,4.714,4.714,0,0,1-.285-4.452h8.016A4.418,4.418,0,0,1,3749.083,1102.133Z" transform="translate(-3740.208 -1100.228)"/>
          </g>
          <g id="Grupo_10381" data-name="Grupo 10381" transform="translate(2.608 21.929)">
            <circle id="Elipse_594" data-name="Elipse 594" class="cls-37" cx="0.961" cy="0.961" r="0.961"/>
          </g>
          <g id="Grupo_10382" data-name="Grupo 10382" transform="translate(7.813 21.89)">
            <circle id="Elipse_595" data-name="Elipse 595" class="cls-37" cx="0.633" cy="0.633" r="0.633"/>
          </g>
          <g id="Grupo_10383" data-name="Grupo 10383" transform="translate(5.329 24.053)">
            <path id="Trazado_33467" data-name="Trazado 33467" class="cls-37" d="M3745.806,1104.384a.845.845,0,1,1-.845-.845A.845.845,0,0,1,3745.806,1104.384Z" transform="translate(-3744.116 -1103.539)"/>
          </g>
          <g id="Grupo_10384" data-name="Grupo 10384" transform="translate(5.518 22.976)">
            <path id="Trazado_33468" data-name="Trazado 33468" class="cls-37" d="M3745.292,1102.911a.49.49,0,1,1-.49-.491A.49.49,0,0,1,3745.292,1102.911Z" transform="translate(-3744.312 -1102.42)"/>
          </g>
          <g id="Grupo_10385" data-name="Grupo 10385" transform="translate(4.887 11.545)">
            <rect id="Rectángulo_8734" data-name="Rectángulo 8734" class="cls-6" width="2.24" height="9.323"/>
          </g>
          <g id="Grupo_10386" data-name="Grupo 10386" transform="translate(5.184 18.752)">
            <path id="Trazado_33469" data-name="Trazado 33469" class="cls-30" d="M3745.612,1098.854a.823.823,0,1,1-.824-.824A.823.823,0,0,1,3745.612,1098.854Z" transform="translate(-3743.965 -1098.03)"/>
          </g>
          <g id="Grupo_10387" data-name="Grupo 10387" transform="translate(5.179 16.526)">
            <circle id="Elipse_596" data-name="Elipse 596" class="cls-30" cx="0.414" cy="0.414" r="0.414"/>
          </g>
          <g id="Grupo_10388" data-name="Grupo 10388" transform="translate(4.967 6.549)">
            <path id="Trazado_33470" data-name="Trazado 33470" class="cls-30" d="M3744.992,1085.974a.626.626,0,1,1-.625-.626A.625.625,0,0,1,3744.992,1085.974Z" transform="translate(-3743.74 -1085.348)"/>
          </g>
          <g id="Grupo_10389" data-name="Grupo 10389" transform="translate(6.033 15.121)">
            <circle id="Elipse_597" data-name="Elipse 597" class="cls-30" cx="0.217" cy="0.217" r="0.217"/>
          </g>
          <g id="Grupo_10390" data-name="Grupo 10390" transform="translate(5.675 12.703)">
            <path id="Trazado_33471" data-name="Trazado 33471" class="cls-30" d="M3745.627,1092.319a.576.576,0,1,1-.576-.575A.576.576,0,0,1,3745.627,1092.319Z" transform="translate(-3744.475 -1091.744)"/>
          </g>
          <g id="Grupo_10391" data-name="Grupo 10391" transform="translate(0.939 4.893)">
            <path id="Trazado_33472" data-name="Trazado 33472" class="cls-37" d="M3741.607,1084.654a1.027,1.027,0,1,1-1.027-1.027A1.027,1.027,0,0,1,3741.607,1084.654Z" transform="translate(-3739.553 -1083.627)"/>
          </g>
          <g id="Grupo_10392" data-name="Grupo 10392" transform="translate(3.777)">
            <circle id="Elipse_598" data-name="Elipse 598" class="cls-37" cx="1.402" cy="1.402" r="1.402"/>
          </g>
          <g id="Grupo_10393" data-name="Grupo 10393" transform="translate(7.061 4.083)">
            <path id="Trazado_33473" data-name="Trazado 33473" class="cls-37" d="M3747.535,1083.6a.81.81,0,1,1-.81-.81A.81.81,0,0,1,3747.535,1083.6Z" transform="translate(-3745.916 -1082.785)"/>
          </g>
        </g>
      </g>
      <g id="Grupo_10396" data-name="Grupo 10396" transform="translate(8.304 97.939)">
        <path id="Trazado_33474" data-name="Trazado 33474" class="cls-17" d="M3739.938,1110.72a2.269,2.269,0,0,1-2.27,2.27H3631.883c-.054,0-.109,0-.162-.006a2.269,2.269,0,0,1-.268-4.492,2.19,2.19,0,0,1,.43-.041h105.786A2.269,2.269,0,0,1,3739.938,1110.72Z" transform="translate(-3629.613 -1108.451)"/>
      </g>
      <g id="Grupo_10397" data-name="Grupo 10397" transform="translate(87.685 97.939)">
        <path id="Trazado_33475" data-name="Trazado 33475" class="cls-14" d="M3751.291,1110.72a2.269,2.269,0,0,1-2.27,2.27H3714.38a2.269,2.269,0,1,1,0-4.539h34.641A2.269,2.269,0,0,1,3751.291,1110.72Z" transform="translate(-3712.11 -1108.451)"/>
      </g>
      <g id="Grupo_10398" data-name="Grupo 10398" transform="translate(93.431 97.939)">
        <path id="Trazado_33476" data-name="Trazado 33476" class="cls-14" d="M3757.263,1110.72a2.268,2.268,0,0,1-2.27,2.27h-34.641a2.269,2.269,0,1,1,0-4.539h34.641A2.269,2.269,0,0,1,3757.263,1110.72Z" transform="translate(-3718.082 -1108.451)"/>
      </g>
      <g id="Grupo_10403" data-name="Grupo 10403" transform="translate(47.922 16.909)">
        <g id="Grupo_10399" data-name="Grupo 10399">
          <rect id="Rectángulo_8735" data-name="Rectángulo 8735" class="cls-8" width="7.54" height="7.815" rx="1.205"/>
        </g>
        <g id="Grupo_10402" data-name="Grupo 10402" transform="translate(1.618 1.756)">
          <g id="Grupo_10400" data-name="Grupo 10400">
            <path id="Trazado_33477" data-name="Trazado 33477" class="cls-3" d="M3676.064,1026.831l-2.831,2.831Z" transform="translate(-3672.497 -1026.095)"/>
            <path id="Trazado_33478" data-name="Trazado 33478" class="cls-3" d="M3673.2,1030.369a.736.736,0,0,1-.521-1.257l2.831-2.831a.736.736,0,0,1,1.041,1.041l-2.831,2.831A.73.73,0,0,1,3673.2,1030.369Z" transform="translate(-3672.468 -1026.066)"/>
          </g>
          <g id="Grupo_10401" data-name="Grupo 10401">
            <path id="Trazado_33479" data-name="Trazado 33479" class="cls-3" d="M3676.064,1029.662l-2.831-2.831Z" transform="translate(-3672.497 -1026.095)"/>
            <path id="Trazado_33480" data-name="Trazado 33480" class="cls-3" d="M3676.035,1030.369a.732.732,0,0,1-.521-.215l-2.831-2.831a.736.736,0,0,1,1.041-1.041l2.831,2.831a.736.736,0,0,1-.521,1.257Z" transform="translate(-3672.468 -1026.066)"/>
          </g>
        </g>
      </g>
      <g id="Grupo_10408" data-name="Grupo 10408" transform="translate(81.786 0)">
        <g id="Grupo_10404" data-name="Grupo 10404">
          <rect id="Rectángulo_8736" data-name="Rectángulo 8736" class="cls-8" width="7.54" height="7.815" rx="1.205"/>
        </g>
        <g id="Grupo_10407" data-name="Grupo 10407" transform="translate(1.082 1.756)">
          <g id="Grupo_10405" data-name="Grupo 10405" transform="translate(1.952)">
            <path id="Trazado_33481" data-name="Trazado 33481" class="cls-3" d="M3709.868,1012.8a.735.735,0,0,1-.6-1.154l1.951-2.831a.736.736,0,1,1,1.212.835l-1.951,2.831A.735.735,0,0,1,3709.868,1012.8Z" transform="translate(-3709.133 -1008.493)"/>
          </g>
          <g id="Grupo_10406" data-name="Grupo 10406">
            <path id="Trazado_33482" data-name="Trazado 33482" class="cls-3" d="M3709.793,1012.8a.733.733,0,0,1-.607-.319l-1.952-2.831a.737.737,0,0,1,1.213-.835l1.951,2.831a.736.736,0,0,1-.189,1.024A.727.727,0,0,1,3709.793,1012.8Z" transform="translate(-3707.104 -1008.493)"/>
          </g>
        </g>
      </g>
      <g id="Grupo_10409" data-name="Grupo 10409" transform="translate(50.809 26.325)">
        <circle id="Elipse_599" data-name="Elipse 599" class="cls-7" cx="0.884" cy="0.884" r="0.884"/>
      </g>
      <g id="Grupo_10410" data-name="Grupo 10410" transform="translate(50.809 29.914)">
        <circle id="Elipse_600" data-name="Elipse 600" class="cls-7" cx="0.884" cy="0.884" r="0.884"/>
      </g>
      <g id="Grupo_10411" data-name="Grupo 10411" transform="translate(50.808 33.502)">
        <path id="Trazado_33483" data-name="Trazado 33483" class="cls-7" d="M3675.554,1042.369a.884.884,0,1,1-.884-.884A.884.884,0,0,1,3675.554,1042.369Z" transform="translate(-3673.786 -1041.485)"/>
      </g>
      <g id="Grupo_10412" data-name="Grupo 10412" transform="translate(50.809 37.091)">
        <circle id="Elipse_601" data-name="Elipse 601" class="cls-7" cx="0.884" cy="0.884" r="0.884"/>
      </g>
      <g id="Grupo_10413" data-name="Grupo 10413" transform="translate(50.809 40.68)">
        <circle id="Elipse_602" data-name="Elipse 602" class="cls-3" cx="0.884" cy="0.884" r="0.884"/>
      </g>
      <g id="Grupo_10414" data-name="Grupo 10414" transform="translate(50.809 44.268)">
        <circle id="Elipse_603" data-name="Elipse 603" class="cls-3" cx="0.884" cy="0.884" r="0.884"/>
      </g>
      <g id="Grupo_10415" data-name="Grupo 10415" transform="translate(50.809 47.857)">
        <circle id="Elipse_604" data-name="Elipse 604" class="cls-3" cx="0.884" cy="0.884" r="0.884"/>
      </g>
      <g id="Grupo_10416" data-name="Grupo 10416" transform="translate(50.809 51.445)">
        <circle id="Elipse_605" data-name="Elipse 605" class="cls-3" cx="0.884" cy="0.884" r="0.884"/>
      </g>
      <g id="Grupo_10417" data-name="Grupo 10417" transform="translate(84.673 10.283)">
        <circle id="Elipse_606" data-name="Elipse 606" class="cls-7" cx="0.884" cy="0.884" r="0.884"/>
      </g>
      <g id="Grupo_10418" data-name="Grupo 10418" transform="translate(84.673 13.894)">
        <circle id="Elipse_607" data-name="Elipse 607" class="cls-7" cx="0.884" cy="0.884" r="0.884"/>
      </g>
      <g id="Grupo_10419" data-name="Grupo 10419" transform="translate(84.673 17.504)">
        <circle id="Elipse_608" data-name="Elipse 608" class="cls-7" cx="0.884" cy="0.884" r="0.884"/>
      </g>
      <g id="Grupo_10420" data-name="Grupo 10420" transform="translate(84.673 21.115)">
        <circle id="Elipse_609" data-name="Elipse 609" class="cls-7" cx="0.884" cy="0.884" r="0.884"/>
      </g>
      <g id="Grupo_10421" data-name="Grupo 10421" transform="translate(84.673 24.725)">
        <circle id="Elipse_610" data-name="Elipse 610" class="cls-7" cx="0.884" cy="0.884" r="0.884"/>
      </g>
      <g id="Grupo_10422" data-name="Grupo 10422" transform="translate(84.673 28.336)">
        <circle id="Elipse_611" data-name="Elipse 611" class="cls-7" cx="0.884" cy="0.884" r="0.884"/>
      </g>
      <g id="Grupo_10423" data-name="Grupo 10423" transform="translate(84.673 31.946)">
        <circle id="Elipse_612" data-name="Elipse 612" class="cls-7" cx="0.884" cy="0.884" r="0.884"/>
      </g>
      <g id="Grupo_10424" data-name="Grupo 10424" transform="translate(84.673 35.557)">
        <circle id="Elipse_613" data-name="Elipse 613" class="cls-3" cx="0.884" cy="0.884" r="0.884"/>
      </g>
      <g id="Grupo_10425" data-name="Grupo 10425" transform="translate(84.673 39.167)">
        <circle id="Elipse_614" data-name="Elipse 614" class="cls-3" cx="0.884" cy="0.884" r="0.884"/>
      </g>
      <g id="Grupo_10426" data-name="Grupo 10426" transform="translate(84.673 42.778)">
        <circle id="Elipse_615" data-name="Elipse 615" class="cls-3" cx="0.884" cy="0.884" r="0.884"/>
      </g>
      <g id="Grupo_10427" data-name="Grupo 10427" transform="translate(84.673 46.388)">
        <circle id="Elipse_616" data-name="Elipse 616" class="cls-3" cx="0.884" cy="0.884" r="0.884"/>
      </g>
      <g id="Grupo_10428" data-name="Grupo 10428" transform="translate(84.673 49.999)">
        <circle id="Elipse_617" data-name="Elipse 617" class="cls-3" cx="0.884" cy="0.884" r="0.884"/>
      </g>
    </g>
  </g>
</svg>
