<svg xmlns="http://www.w3.org/2000/svg" xmlns:xlink="http://www.w3.org/1999/xlink" width="244" height="159.49" viewBox="0 0 244 159.49">
  <defs>
    <style>
      .cls-1 {
        fill: #fff;
      }

      .cls-2 {
        fill: url(#linear-gradient);
      }

      .cls-3 {
        fill: #4859d9;
        opacity: 0.2;
        mix-blend-mode: multiply;
        isolation: isolate;
      }

      .cls-4 {
        fill: #ed7b5a;
      }

      .cls-5 {
        fill: #031a5b;
      }

      .cls-6 {
        fill: #ffa375;
      }

      .cls-7 {
        fill: #092c74;
      }

      .cls-8 {
        fill: #b0c8ff;
      }

      .cls-9 {
        fill: #0f3d8d;
      }

      .cls-10 {
        fill: #7999fd;
      }

      .cls-11 {
        fill: #6b91d3;
      }
    </style>
    <linearGradient id="linear-gradient" x1="-9.646" y1="19.608" x2="-9.646" y2="21.147" gradientUnits="objectBoundingBox">
      <stop offset="0.016" stop-color="#00d6d4"/>
      <stop offset="0.999" stop-color="#9d64c3"/>
    </linearGradient>
  </defs>
  <g id="tarjeta-memorama-01" transform="translate(8191.245 -14532.289)">
    <g id="Grupo_7677" data-name="Grupo 7677" transform="translate(-8191.245 14532.289)">
      <g id="Grupo_7676" data-name="Grupo 7676" transform="translate(0 0)">
        <path id="Trazado_32412" data-name="Trazado 32412" class="cls-1" d="M3564.214,352.794c-.878.529-1.638.987-1.638,1.867s.759,1.337,1.639,1.867c.946.57,2.017,1.215,2.018,2.537s-1.072,1.968-2.017,2.538c-.88.529-1.639.987-1.639,1.867s.759,1.337,1.639,1.867c.946.57,2.017,1.215,2.017,2.537s-1.071,1.968-2.016,2.537c-.879.53-1.639.987-1.639,1.867s.759,1.337,1.639,1.867c.946.57,2.017,1.214,2.017,2.537s-1.071,1.968-2.015,2.537c-.88.529-1.639.986-1.639,1.867s.759,1.337,1.639,1.866c.946.57,2.017,1.215,2.017,2.537s-1.071,1.969-2.016,2.538c-.88.53-1.638.987-1.638,1.867s.759,1.337,1.638,1.867c.945.57,2.017,1.215,2.017,2.537s-1.071,1.969-2.017,2.538c-.878.529-1.638.987-1.638,1.867s.76,1.337,1.639,1.867c.945.57,2.017,1.215,2.017,2.537s-1.071,1.969-2.017,2.538c-.878.53-1.637.987-1.637,1.868s.759,1.337,1.639,1.867c.945.569,2.017,1.214,2.017,2.536s-1.071,1.969-2.017,2.539c-.879.529-1.638.987-1.638,1.867s.759,1.339,1.639,1.868c.945.57,2.017,1.215,2.017,2.538s-1.071,1.969-2.017,2.538c-.878.53-1.638.988-1.638,1.868s.759,1.338,1.639,1.868c.945.571,2.017,1.216,2.017,2.539h-.017c-.005,1.314-1.073,1.959-2.016,2.527-.879.529-1.638.986-1.638,1.867s.759,1.337,1.638,1.866c.946.57,2.018,1.215,2.018,2.538s-1.071,1.968-2.017,2.537c-.879.53-1.638.987-1.638,1.868s.759,1.337,1.638,1.866c.946.57,2.018,1.215,2.018,2.537s-1.071,1.969-2.017,2.538c-.879.529-1.637.987-1.637,1.867s.759,1.337,1.637,1.866c.946.57,2.018,1.215,2.018,2.537s-1.072,1.968-2.017,2.537c-.879.53-1.638.987-1.638,1.867s.759,1.337,1.638,1.867c.946.57,2.018,1.215,2.018,2.537s-1.072,1.968-2.017,2.538c-.879.529-1.638.987-1.638,1.867s.759,1.338,1.638,1.867c.946.57,2.018,1.215,2.018,2.537s-1.072,1.968-2.017,2.538c-.879.529-1.638.986-1.637,1.867s.759,1.337,1.637,1.867c.946.57,2.018,1.214,2.018,2.537s-1.072,1.969-2.017,2.538c-.879.529-1.639.987-1.638,1.867s.759,1.337,1.638,1.867c.946.57,2.018,1.215,2.018,2.537s-1.072,1.969-2.017,2.538c-.879.53-1.638.987-1.638,1.868s.759,1.337,1.638,1.868c.946.57,2.018,1.215,2.018,2.537s-1.072,1.969-2.017,2.539c-.88.53-1.639.987-1.638,1.868s.759,1.338,1.638,1.868a4.345,4.345,0,0,1,1.8,1.605l235.529-.925a4.34,4.34,0,0,1,1.8-1.611c.878-.53,1.637-.987,1.637-1.868s-.758-1.337-1.637-1.868c-.945-.571-2.017-1.216-2.017-2.539s1.072-1.968,2.018-2.538c.878-.529,1.638-.986,1.638-1.867s-.758-1.337-1.638-1.868c-.945-.57-2.017-1.215-2.017-2.538s1.072-1.968,2.018-2.537c.879-.529,1.638-.986,1.638-1.867s-.758-1.338-1.638-1.867c-.946-.57-2.017-1.216-2.017-2.538s1.072-1.968,2.018-2.537c.878-.53,1.638-.987,1.638-1.867s-.759-1.337-1.638-1.867c-.945-.571-2.017-1.216-2.017-2.538s1.072-1.968,2.017-2.537c.879-.53,1.638-.987,1.638-1.867s-.759-1.337-1.638-1.867c-.946-.571-2.017-1.216-2.017-2.538s1.072-1.968,2.017-2.537c.88-.529,1.639-.986,1.639-1.867s-.759-1.337-1.638-1.867c-.946-.57-2.017-1.215-2.017-2.537s1.072-1.968,2.017-2.537c.88-.529,1.639-.986,1.639-1.866s-.759-1.338-1.638-1.867c-.946-.57-2.017-1.215-2.017-2.538s1.072-1.968,2.017-2.537c.879-.529,1.638-.986,1.638-1.866s-.759-1.338-1.638-1.868c-.946-.57-2.017-1.215-2.017-2.537s1.072-1.969,2.018-2.538c.878-.529,1.637-.986,1.637-1.866s-.759-1.337-1.637-1.867c-.943-.568-2.01-1.212-2.016-2.527h0V428.6h0c.007-1.315,1.074-1.959,2.016-2.528.88-.529,1.638-.987,1.638-1.868s-.759-1.337-1.637-1.868c-.946-.57-2.017-1.216-2.017-2.538s1.072-1.969,2.017-2.538c.879-.529,1.639-.987,1.639-1.868s-.759-1.337-1.638-1.867c-.946-.571-2.017-1.216-2.017-2.539s1.072-1.968,2.017-2.537c.88-.529,1.638-.986,1.638-1.866s-.759-1.337-1.638-1.868c-.946-.57-2.018-1.215-2.017-2.538s1.072-1.968,2.017-2.537c.88-.529,1.639-.987,1.639-1.867s-.759-1.338-1.638-1.867c-.946-.57-2.018-1.215-2.017-2.538s1.072-1.968,2.017-2.537c.879-.529,1.639-.986,1.639-1.867s-.759-1.337-1.638-1.867c-.946-.57-2.018-1.215-2.017-2.538s1.071-1.968,2.017-2.537c.88-.529,1.639-.986,1.639-1.866s-.76-1.338-1.639-1.867c-.945-.57-2.017-1.215-2.017-2.538s1.072-1.967,2.018-2.536c.88-.529,1.639-.987,1.639-1.867s-.759-1.337-1.639-1.867c-.945-.57-2.017-1.215-2.017-2.537s1.072-1.968,2.018-2.537c.879-.53,1.638-.987,1.638-1.867s-.759-1.337-1.638-1.867c-.945-.571-2.017-1.216-2.017-2.538s1.072-1.968,2.018-2.537c.88-.53,1.638-.987,1.639-1.867s-.759-1.337-1.638-1.867a4.368,4.368,0,0,1-1.8-1.6l-235.55.925A4.343,4.343,0,0,1,3564.214,352.794Z" transform="translate(-3561.786 -349.326)"/>
        <path id="Trazado_32413" data-name="Trazado 32413" d="M3566.2,350.22h-.783c0,.879-.759,1.336-1.639,1.867-.945.57-2.017,1.215-2.017,2.537s1.072,1.968,2.018,2.537c.88.529,1.639.987,1.639,1.867s-.759,1.337-1.639,1.867c-.945.571-2.017,1.216-2.017,2.538s1.072,1.968,2.018,2.537c.879.529,1.637.986,1.639,1.867s-.76,1.337-1.639,1.867c-.945.57-2.017,1.215-2.017,2.537s1.072,1.968,2.018,2.537c.878.529,1.638.986,1.638,1.867s-.759,1.337-1.638,1.866c-.945.57-2.017,1.215-2.017,2.538s1.072,1.968,2.018,2.537c.878.529,1.638.986,1.638,1.866s-.758,1.337-1.638,1.868c-.945.57-2.017,1.215-2.017,2.537s1.072,1.969,2.018,2.538c.878.529,1.637.986,1.637,1.866s-.758,1.337-1.637,1.868c-.945.57-2.017,1.215-2.017,2.537s1.072,1.968,2.018,2.537c.878.53,1.638.987,1.638,1.867s-.758,1.337-1.638,1.868c-.945.57-2.017,1.216-2.017,2.538s1.072,1.968,2.018,2.537c.879.529,1.638.986,1.638,1.866s-.758,1.338-1.638,1.868c-.944.571-2.017,1.216-2.017,2.539s1.072,1.968,2.018,2.537c.878.53,1.638.987,1.638,1.868s-.759,1.338-1.638,1.868c-.945.571-2.017,1.216-2.017,2.538s1.072,1.969,2.018,2.538c.875.528,1.63.984,1.637,1.857h-.015c0,.88-.759,1.338-1.638,1.868-.946.569-2.017,1.215-2.017,2.537s1.072,1.968,2.017,2.537c.88.529,1.638.986,1.638,1.867s-.759,1.338-1.637,1.867c-.946.57-2.017,1.215-2.017,2.538s1.072,1.968,2.017,2.537c.879.529,1.639.986,1.639,1.867s-.759,1.337-1.638,1.867c-.946.57-2.017,1.215-2.017,2.537s1.072,1.968,2.017,2.537c.88.529,1.639.986,1.639,1.866s-.759,1.337-1.638,1.867c-.946.57-2.017,1.215-2.017,2.537s1.072,1.969,2.017,2.537c.88.53,1.639.987,1.639,1.867s-.759,1.337-1.637,1.867c-.946.571-2.017,1.216-2.017,2.538s1.072,1.968,2.017,2.537c.879.529,1.639.987,1.639,1.867s-.759,1.337-1.638,1.867c-.946.57-2.018,1.215-2.017,2.538s1.071,1.968,2.017,2.537c.88.529,1.639.987,1.639,1.867s-.759,1.338-1.639,1.868c-.945.57-2.017,1.215-2.016,2.538s1.071,1.968,2.017,2.537c.88.529,1.639.986,1.639,1.866s-.759,1.337-1.639,1.868c-.945.57-2.017,1.216-2.016,2.538s1.071,1.969,2.017,2.538c.879.529,1.639.987,1.639,1.868s-.759,1.337-1.639,1.868c-.945.57-2.017,1.216-2.017,2.538s1.072,1.969,2.018,2.538c.879.53,1.639.987,1.639,1.868h.783v0l235.481-.925v0h.4c0-.88.759-1.338,1.639-1.868.945-.57,2.017-1.215,2.017-2.538s-1.071-1.969-2.017-2.538c-.878-.53-1.638-.988-1.638-1.868s.76-1.339,1.639-1.868c.945-.57,2.017-1.215,2.017-2.538s-1.071-1.969-2.017-2.538c-.878-.53-1.637-.987-1.637-1.868s.759-1.337,1.639-1.866c.945-.57,2.017-1.215,2.017-2.537s-1.071-1.969-2.017-2.539c-.879-.529-1.638-.986-1.638-1.867s.759-1.337,1.639-1.867c.945-.57,2.016-1.215,2.016-2.537s-1.071-1.969-2.016-2.538c-.879-.529-1.638-.987-1.638-1.867s.759-1.337,1.639-1.867c.945-.57,2.017-1.215,2.017-2.537s-1.071-1.968-2.017-2.538c-.879-.529-1.638-.987-1.638-1.867s.759-1.337,1.639-1.867c.945-.57,2.017-1.215,2.017-2.537s-1.071-1.968-2.017-2.537c-.878-.529-1.638-.987-1.638-1.867s.759-1.337,1.639-1.866c.945-.57,2.016-1.215,2.016-2.537s-1.071-1.968-2.016-2.538c-.879-.529-1.638-.986-1.638-1.867s.76-1.337,1.639-1.866c.945-.57,2.017-1.215,2.017-2.537s-1.071-1.969-2.017-2.538c-.879-.529-1.638-.987-1.638-1.867s.759-1.337,1.638-1.867c.946-.57,2.018-1.215,2.018-2.537s-1.071-1.969-2.017-2.538c-.879-.529-1.638-.986-1.638-1.866s.762-1.33,1.637-1.858c.946-.57,2.018-1.215,2.018-2.538s-1.071-1.968-2.017-2.538c-.88-.53-1.638-.987-1.638-1.868s.759-1.338,1.638-1.868c.946-.57,2.018-1.215,2.018-2.538s-1.072-1.968-2.017-2.538c-.879-.529-1.637-.987-1.637-1.868s.759-1.337,1.637-1.866c.946-.57,2.018-1.215,2.018-2.537s-1.072-1.969-2.017-2.538c-.88-.53-1.638-.987-1.638-1.868s.759-1.337,1.638-1.867c.946-.57,2.018-1.215,2.018-2.537s-1.072-1.968-2.017-2.538c-.879-.529-1.639-.986-1.638-1.867s.759-1.337,1.638-1.867c.946-.569,2.018-1.214,2.018-2.537s-1.072-1.968-2.017-2.537c-.879-.53-1.639-.987-1.637-1.868s.758-1.337,1.637-1.866c.946-.57,2.018-1.215,2.018-2.537s-1.072-1.969-2.017-2.538c-.879-.529-1.639-.986-1.638-1.866s.759-1.337,1.638-1.867c.946-.57,2.018-1.215,2.018-2.537s-1.072-1.968-2.016-2.537c-.88-.53-1.639-.987-1.639-1.867s.759-1.337,1.639-1.867c.946-.57,2.016-1.215,2.018-2.537s-1.072-1.968-2.017-2.538c-.88-.529-1.639-.987-1.639-1.867s.759-1.337,1.639-1.867c.946-.57,2.017-1.215,2.018-2.537s-1.072-1.968-2.017-2.537c-.88-.53-1.638-.987-1.638-1.867h-.783v.008Zm237.133,1.607c.879.529,1.638.987,1.638,1.867s-.759,1.337-1.639,1.867c-.946.57-2.017,1.214-2.018,2.537s1.072,1.968,2.017,2.538c.879.529,1.639.987,1.639,1.867s-.759,1.337-1.639,1.867c-.946.57-2.017,1.215-2.018,2.537s1.072,1.968,2.017,2.537c.88.53,1.639.987,1.639,1.867s-.759,1.337-1.639,1.867c-.946.57-2.017,1.214-2.018,2.536s1.072,1.969,2.017,2.538c.88.529,1.639.986,1.639,1.867s-.759,1.336-1.639,1.866c-.946.57-2.017,1.215-2.017,2.537s1.071,1.969,2.017,2.538c.878.529,1.638.987,1.638,1.867s-.759,1.337-1.639,1.867c-.945.57-2.017,1.215-2.017,2.537s1.071,1.969,2.017,2.538c.878.529,1.637.986,1.637,1.867s-.759,1.337-1.638,1.867c-.945.57-2.016,1.215-2.016,2.537s1.071,1.969,2.016,2.538c.879.53,1.638.987,1.638,1.868s-.759,1.337-1.638,1.866c-.945.57-2.017,1.215-2.017,2.537s1.071,1.969,2.017,2.539c.878.529,1.638.987,1.638,1.867s-.759,1.338-1.638,1.868c-.945.57-2.017,1.215-2.017,2.538s1.071,1.969,2.017,2.538c.878.53,1.637.987,1.637,1.868s-.759,1.338-1.639,1.868c-.942.569-2.009,1.212-2.016,2.528h0v.011h0c.006,1.314,1.073,1.959,2.016,2.527.878.529,1.637.986,1.637,1.867s-.759,1.337-1.637,1.866c-.946.57-2.018,1.215-2.018,2.538s1.071,1.968,2.017,2.537c.878.53,1.638.987,1.638,1.868s-.759,1.337-1.638,1.866c-.945.57-2.017,1.215-2.017,2.537s1.071,1.969,2.017,2.538c.878.529,1.638.987,1.638,1.867s-.759,1.336-1.639,1.866c-.945.57-2.017,1.215-2.017,2.537s1.071,1.968,2.017,2.537c.879.53,1.638.987,1.638,1.867s-.759,1.337-1.639,1.867c-.945.57-2.017,1.215-2.017,2.537s1.071,1.968,2.017,2.538c.878.529,1.638.987,1.638,1.867s-.759,1.337-1.639,1.867c-.945.57-2.017,1.215-2.017,2.537s1.072,1.968,2.017,2.538c.879.529,1.638.986,1.638,1.867s-.759,1.337-1.638,1.867c-.946.57-2.018,1.214-2.018,2.537s1.071,1.969,2.016,2.538c.88.529,1.638.987,1.638,1.867s-.759,1.337-1.638,1.867c-.946.57-2.018,1.215-2.018,2.537s1.072,1.969,2.017,2.538c.88.53,1.638.987,1.638,1.868s-.759,1.338-1.638,1.867c-.946.571-2.018,1.216-2.018,2.538s1.072,1.969,2.017,2.539c.879.53,1.637.987,1.637,1.868s-.759,1.338-1.637,1.868a4.339,4.339,0,0,0-1.805,1.611l-235.529.925a4.344,4.344,0,0,0-1.8-1.605c-.879-.53-1.638-.987-1.638-1.868s.758-1.337,1.638-1.868c.945-.571,2.017-1.216,2.017-2.539s-1.072-1.968-2.018-2.537c-.879-.53-1.638-.987-1.638-1.868s.759-1.337,1.638-1.868c.945-.57,2.017-1.215,2.017-2.538s-1.072-1.968-2.018-2.537c-.878-.529-1.638-.986-1.638-1.867s.759-1.338,1.638-1.867c.945-.57,2.017-1.216,2.017-2.538s-1.072-1.968-2.018-2.537c-.878-.53-1.637-.987-1.637-1.867s.758-1.338,1.637-1.867c.945-.571,2.017-1.216,2.017-2.538s-1.072-1.968-2.018-2.537c-.878-.529-1.638-.987-1.638-1.867s.759-1.337,1.638-1.867c.945-.571,2.017-1.216,2.017-2.538s-1.072-1.968-2.018-2.537c-.878-.529-1.638-.986-1.638-1.867s.759-1.337,1.638-1.867c.945-.57,2.017-1.215,2.017-2.537s-1.072-1.968-2.018-2.537c-.878-.529-1.637-.986-1.637-1.866s.758-1.337,1.637-1.867c.946-.57,2.017-1.215,2.017-2.538s-1.072-1.968-2.018-2.537c-.878-.529-1.638-.986-1.638-1.866s.758-1.338,1.638-1.868c.946-.57,2.017-1.215,2.017-2.537s-1.072-1.969-2.018-2.538c-.879-.529-1.638-.986-1.638-1.866s.759-1.338,1.638-1.867c.943-.568,2.01-1.212,2.016-2.527h.017c0-1.323-1.072-1.969-2.017-2.539-.88-.529-1.639-.987-1.639-1.868s.76-1.338,1.638-1.868c.946-.57,2.017-1.216,2.017-2.538s-1.072-1.969-2.017-2.538c-.879-.529-1.639-.987-1.639-1.868s.76-1.337,1.638-1.867c.946-.571,2.017-1.216,2.017-2.539s-1.072-1.968-2.017-2.536c-.879-.53-1.639-.987-1.639-1.867s.759-1.337,1.637-1.868c.946-.57,2.017-1.215,2.017-2.538s-1.071-1.968-2.017-2.537c-.879-.529-1.639-.987-1.639-1.867s.759-1.337,1.638-1.867c.946-.57,2.017-1.215,2.017-2.538s-1.072-1.968-2.017-2.537c-.88-.529-1.639-.986-1.639-1.867s.759-1.337,1.639-1.867c.945-.57,2.017-1.215,2.016-2.538s-1.071-1.968-2.017-2.537c-.88-.529-1.639-.986-1.639-1.866s.759-1.337,1.639-1.867c.945-.57,2.017-1.215,2.016-2.537s-1.071-1.968-2.017-2.537c-.879-.529-1.638-.987-1.638-1.867s.759-1.337,1.638-1.867c.945-.57,2.017-1.215,2.016-2.537s-1.071-1.968-2.017-2.537c-.88-.529-1.639-.987-1.639-1.867s.759-1.337,1.639-1.867c.945-.571,2.017-1.216,2.017-2.538s-1.072-1.968-2.018-2.537c-.88-.53-1.638-.987-1.639-1.867s.759-1.337,1.638-1.867a4.342,4.342,0,0,0,1.8-1.606l235.55-.925A4.368,4.368,0,0,0,3803.334,351.826Z" transform="translate(-3561.756 -349.289)"/>
      </g>
      <rect id="Rectángulo_7598" data-name="Rectángulo 7598" class="cls-2" width="220.474" height="140.471" transform="translate(11.763 9.51)"/>
      <path id="Trazado_32414" data-name="Trazado 32414" d="M3794.9,358.689v141.4H3573.5v-141.4Zm-.93,140.471V359.619H3574.426V499.16Z" transform="translate(-3562.198 -349.644)"/>
    </g>
    <g id="Grupo_10702" data-name="Grupo 10702" transform="translate(-8156.836 14554.998)">
      <g id="Grupo_10603" data-name="Grupo 10603" transform="translate(21.553 40.33)">
        <path id="Trazado_34196" data-name="Trazado 34196" class="cls-3" d="M3621.041,419.532a2.364,2.364,0,0,0,.223.288,2.325,2.325,0,0,0,.171.324l.1.152a3.193,3.193,0,0,0,.469,2.223l.895,1.39a4.461,4.461,0,0,0-.274,5.281l9.442,14.346a1.287,1.287,0,0,0,.075,1.287l1.483,2.255a1.289,1.289,0,1,0,2.153-1.417l-1.484-2.254a1.284,1.284,0,0,0-1.151-.577l-9.443-14.346a3.167,3.167,0,0,1-.044-3.419L3634.3,441.59l.4.628,5.393-3.473-.717-1.114-10.5-16.306-.162.1.162-.1-.689-1.071-.01.007-.783-1.214a3.2,3.2,0,0,0-2.1-1.414,2.424,2.424,0,0,0-.21-.27,2.384,2.384,0,0,0-.171-.322l-.76-1.181a2.3,2.3,0,1,0-3.87,2.492Z" transform="translate(-3619.914 -414.803)"/>
      </g>
      <path id="Trazado_34197" data-name="Trazado 34197" class="cls-3" d="M3730.685,449.2a3.5,3.5,0,0,0,3.422,1.583,2.982,2.982,0,0,1,.06.56h-5.318a2.991,2.991,0,0,1,1.593-2.6A3.414,3.414,0,0,0,3730.685,449.2Zm-3.637-27.871a1.408,1.408,0,0,1-.507,1.082,5.175,5.175,0,0,0,.05-.684v-.11a2.6,2.6,0,0,0,.448-.443C3727.044,421.227,3727.048,421.278,3727.048,421.33Z" transform="translate(-3602.389 -374.714)"/>
      <path id="Trazado_34198" data-name="Trazado 34198" class="cls-1" d="M3754.821,426.483a4.771,4.771,0,0,1-3.885,4.31,4.829,4.829,0,0,1-1.262.063,4.777,4.777,0,1,1,5.148-4.373Z" transform="translate(-3603.097 -374.719)"/>
      <ellipse id="Elipse_634" data-name="Elipse 634" class="cls-1" cx="2.82" cy="3.619" rx="2.82" ry="3.619" transform="translate(142.11 46.119) rotate(-81.511)"/>
      <ellipse id="Elipse_635" data-name="Elipse 635" class="cls-1" cx="4.092" cy="5.251" rx="4.092" ry="5.251" transform="translate(141.61 42.979) rotate(-81.511)"/>
      <path id="Trazado_34199" data-name="Trazado 34199" class="cls-4" d="M3762.228,477.715l-3.357.078-1.381-16.8,5.342-.123Z" transform="translate(-3603.558 -376.213)"/>
      <g id="Grupo_10604" data-name="Grupo 10604" transform="translate(152.784 95.946)">
        <path id="Trazado_34200" data-name="Trazado 34200" class="cls-5" d="M3761.376,479.972a.447.447,0,0,1-.447-.431l-.2-5.792a.651.651,0,1,1,1.3,0l-.2,5.792A.447.447,0,0,1,3761.376,479.972Z" transform="translate(-3756.464 -472.62)"/>
        <path id="Trazado_34201" data-name="Trazado 34201" class="cls-5" d="M3759,480.01a.92.92,0,0,1-.887-1.062l.2-3.96a2.042,2.042,0,0,1,.1-.551,2.382,2.382,0,0,1,2.064-1.688,1.4,1.4,0,0,1,1.384,1.468,2.074,2.074,0,0,1-.128.766l-1.408,3.964A1.525,1.525,0,0,1,3759,480.01Z" transform="translate(-3756.365 -472.608)"/>
        <path id="Trazado_34202" data-name="Trazado 34202" class="cls-4" d="M3757.8,479.444c-.439-.1-.643-.6-.483-1.2l1.031-3.827a2.358,2.358,0,0,1,.2-.521,2.1,2.1,0,0,1,2.038-1.27c.648.146.956.853.795,1.685a2.409,2.409,0,0,1-.272.724l-2.01,3.61A1.337,1.337,0,0,1,3757.8,479.444Z" transform="translate(-3756.333 -472.602)"/>
        <rect id="Rectángulo_8819" data-name="Rectángulo 8819" class="cls-5" width="3.907" height="2.409" rx="1.119" transform="translate(0 4.993)"/>
      </g>
      <path id="Trazado_34203" data-name="Trazado 34203" class="cls-6" d="M3763.636,477.5l-2.378.055-1.381-16.8,5.342-4.516Z" transform="translate(-3603.648 -376.038)"/>
      <path id="Trazado_34204" data-name="Trazado 34204" class="cls-5" d="M3766.7,447.558v13.567h-13.849V447.792a7.03,7.03,0,0,1,7.042-7.042,6.809,6.809,0,0,1,6.807,6.808Z" transform="translate(-3603.382 -375.453)"/>
      <path id="Trazado_34205" data-name="Trazado 34205" class="cls-7" d="M3761.894,447.575v13.567h-9.042V447.808a7.046,7.046,0,0,1,4.614-6.613,6.814,6.814,0,0,1,4.428,6.38Z" transform="translate(-3603.382 -375.47)"/>
      <path id="Trazado_34206" data-name="Trazado 34206" class="cls-7" d="M3755.9,426.814a4.772,4.772,0,0,1-3.885,4.31,4.777,4.777,0,1,1-.488-9.457,4.76,4.76,0,0,1,4.373,5.147Z" transform="translate(-3603.136 -374.732)"/>
      <path id="Trazado_34207" data-name="Trazado 34207" class="cls-5" d="M3755.968,426.818a3.971,3.971,0,1,1-3.885-5.083A4.771,4.771,0,0,1,3755.968,426.818Z" transform="translate(-3603.206 -374.735)"/>
      <ellipse id="Elipse_636" data-name="Elipse 636" class="cls-5" cx="2.82" cy="3.619" rx="2.82" ry="3.619" transform="translate(143.158 46.119) rotate(-81.511)"/>
      <g id="Grupo_10605" data-name="Grupo 10605" transform="translate(134.798 59.607)">
        <path id="Trazado_34208" data-name="Trazado 34208" class="cls-1" d="M3739.667,444.035a2.061,2.061,0,0,1-1.15-3.772l7.567-5.077a2.061,2.061,0,0,1,2.3,3.423l-7.567,5.077A2.056,2.056,0,0,1,3739.667,444.035Z" transform="translate(-3737.605 -434.837)"/>
      </g>
      <g id="Grupo_10606" data-name="Grupo 10606" transform="translate(142.661 53.311)">
        <path id="Trazado_34209" data-name="Trazado 34209" class="cls-8" d="M3747.836,438.137a2.061,2.061,0,0,1-1.65-3.295l4.279-5.721a2.06,2.06,0,1,1,3.3,2.468l-4.278,5.721A2.057,2.057,0,0,1,3747.836,438.137Z" transform="translate(-3745.776 -428.294)"/>
      </g>
      <path id="Trazado_34210" data-name="Trazado 34210" class="cls-1" d="M3759.17,444.819a4.635,4.635,0,0,1-6.622-3.151l-1.841-8.506h9.472l1.417,6.549A4.634,4.634,0,0,1,3759.17,444.819Z" transform="translate(-3603.302 -375.167)"/>
      <path id="Trazado_34211" data-name="Trazado 34211" class="cls-8" d="M3759.31,444.528a4.613,4.613,0,0,1-2.429-3.15l-2.343-10.829a2.937,2.937,0,1,1,4.856-1.958l2.343,10.829A4.635,4.635,0,0,1,3759.31,444.528Z" transform="translate(-3603.443 -374.875)"/>
      <path id="Trazado_34212" data-name="Trazado 34212" class="cls-6" d="M3754.588,429.837a2,2,0,0,1-1.988-1.989v-3.419a1.988,1.988,0,1,1,3.977,0v3.419A1.994,1.994,0,0,1,3754.588,429.837Z" transform="translate(-3603.373 -374.762)"/>
      <g id="Grupo_10607" data-name="Grupo 10607" transform="translate(146.71 52.67)">
        <path id="Trazado_34213" data-name="Trazado 34213" class="cls-6" d="M3752.272,432.383a2.29,2.29,0,0,1-.11-4.577l3.6-.176a2.289,2.289,0,0,1,.224,4.573l-3.6.177Z" transform="translate(-3749.984 -427.627)"/>
      </g>
      <path id="Trazado_34214" data-name="Trazado 34214" class="cls-7" d="M3764.193,427.873a4.773,4.773,0,0,1-5.147,4.373c-.081-.007-.16-.013-.239-.025a4.777,4.777,0,0,1-.009-9.47,4.873,4.873,0,0,1,1.021-.025A4.774,4.774,0,0,1,3764.193,427.873Z" transform="translate(-3603.45 -374.772)"/>
      <path id="Trazado_34215" data-name="Trazado 34215" class="cls-5" d="M3762.933,427.875a4.185,4.185,0,1,1-4.135-5.122A4.777,4.777,0,0,1,3762.933,427.875Z" transform="translate(-3603.45 -374.773)"/>
      <g id="Grupo_10608" data-name="Grupo 10608" transform="translate(143.611 54.972)">
        <path id="Trazado_34216" data-name="Trazado 34216" class="cls-1" d="M3755.253,435.648a2.284,2.284,0,0,1-.385-.033l-6.2-1.048a2.29,2.29,0,1,1,.763-4.516l6.2,1.049a2.29,2.29,0,0,1-.379,4.548Z" transform="translate(-3746.764 -430.02)"/>
      </g>
      <path id="Trazado_34217" data-name="Trazado 34217" class="cls-4" d="M3758.44,418.824l-.081,1.007a4.969,4.969,0,1,1-9.906-.8l.081-1.006a4.973,4.973,0,0,1,4.161-4.508,4.9,4.9,0,0,1,1.191-.046,4.969,4.969,0,0,1,4.553,5.352Z" transform="translate(-3603.216 -374.422)"/>
      <path id="Trazado_34218" data-name="Trazado 34218" class="cls-6" d="M3756.082,418.637l-.082,1.006a3.9,3.9,0,1,1-7.547-.608l.081-1.006a3.818,3.818,0,1,1,7.547.608Z" transform="translate(-3603.216 -374.425)"/>
      <path id="Trazado_34219" data-name="Trazado 34219" class="cls-7" d="M3762.39,421.136a3.445,3.445,0,0,1-3.709,3.151c-.089-.007-.177-.018-.262-.033a3.441,3.441,0,1,1,3.971-3.119Z" transform="translate(-3603.484 -374.572)"/>
      <path id="Trazado_34220" data-name="Trazado 34220" class="cls-5" d="M3761.3,421.138a2.937,2.937,0,1,1-2.892-3.678A3.443,3.443,0,0,1,3761.3,421.138Z" transform="translate(-3603.484 -374.574)"/>
      <path id="Trazado_34221" data-name="Trazado 34221" class="cls-1" d="M3752.769,421.724a1.306,1.306,0,1,1-2.6-.212Z" transform="translate(-3603.281 -374.727)"/>
      <path id="Trazado_34222" data-name="Trazado 34222" class="cls-5" d="M3766.671,451.046h-12.162a.76.76,0,1,1,0-1.519h12.162a.76.76,0,0,1,0,1.519Z" transform="translate(-3603.417 -375.785)"/>
      <g id="Grupo_10609" data-name="Grupo 10609" transform="translate(148.341 64.542)">
        <path id="Trazado_34223" data-name="Trazado 34223" class="cls-5" d="M3767.2,449.6h-12.88l-1.951-9.632h12.88Z" transform="translate(-3751.706 -439.966)"/>
        <path id="Trazado_34224" data-name="Trazado 34224" class="cls-1" d="M3767.175,449.659l-12.846.692-2.648-8.762h12.88Z" transform="translate(-3751.68 -440.027)"/>
        <path id="Trazado_34225" data-name="Trazado 34225" class="cls-8" d="M3767.229,449.633h-12.88l-1.22-8.738h12.88Z" transform="translate(-3751.734 -440.001)"/>
        <path id="Trazado_34226" data-name="Trazado 34226" class="cls-9" d="M3767.312,450.308h-12.88l.02-9.849h12.88Z" transform="translate(-3751.784 -439.984)"/>
      </g>
      <path id="Trazado_34227" data-name="Trazado 34227" class="cls-5" d="M3767.025,451.046h-11.832a.76.76,0,0,1,0-1.519h11.832a.76.76,0,0,1,0,1.519Z" transform="translate(-3603.442 -375.785)"/>
      <g id="Grupo_10610" data-name="Grupo 10610" transform="translate(154.912 60.63)">
        <path id="Trazado_34228" data-name="Trazado 34228" class="cls-1" d="M3760.569,448.65h-.049a2.06,2.06,0,0,1-2.012-2.107l.2-8.628a2.061,2.061,0,1,1,4.12.1l-.2,8.627A2.06,2.06,0,0,1,3760.569,448.65Z" transform="translate(-3758.508 -435.9)"/>
      </g>
      <g id="Grupo_10611" data-name="Grupo 10611" transform="translate(151.7 53.551)">
        <path id="Trazado_34229" data-name="Trazado 34229" class="cls-6" d="M3758.114,434.5a2.061,2.061,0,0,1-1.858-1.166l-.882-1.83a2.06,2.06,0,1,1,3.712-1.789l.882,1.829a2.062,2.062,0,0,1-1.855,2.956Z" transform="translate(-3755.17 -428.543)"/>
      </g>
      <g id="Grupo_10612" data-name="Grupo 10612" transform="translate(152.582 55.38)">
        <path id="Trazado_34230" data-name="Trazado 34230" class="cls-1" d="M3760.679,439.816a2.062,2.062,0,0,1-1.858-1.166l-2.529-5.249a2.061,2.061,0,1,1,3.713-1.79l2.53,5.249a2.062,2.062,0,0,1-1.855,2.956Z" transform="translate(-3756.087 -430.444)"/>
      </g>
      <circle id="Elipse_637" data-name="Elipse 637" class="cls-6" cx="2.96" cy="2.96" r="2.96" transform="translate(154.013 68.116)"/>
      <g id="Grupo_10613" data-name="Grupo 10613" transform="translate(155.572 95.946)">
        <path id="Trazado_34231" data-name="Trazado 34231" class="cls-7" d="M3764.274,479.972a.447.447,0,0,1-.447-.431l-.2-5.792a.651.651,0,1,1,1.3,0l-.2,5.792A.447.447,0,0,1,3764.274,479.972Z" transform="translate(-3759.362 -472.62)"/>
        <path id="Trazado_34232" data-name="Trazado 34232" class="cls-7" d="M3761.9,480.01a.92.92,0,0,1-.887-1.062l.2-3.96a2.032,2.032,0,0,1,.1-.551,2.383,2.383,0,0,1,2.064-1.688,1.4,1.4,0,0,1,1.384,1.468,2.094,2.094,0,0,1-.128.766l-1.409,3.964A1.524,1.524,0,0,1,3761.9,480.01Z" transform="translate(-3759.263 -472.608)"/>
        <path id="Trazado_34233" data-name="Trazado 34233" class="cls-6" d="M3760.7,479.444c-.439-.1-.643-.6-.483-1.2l1.029-3.827a2.46,2.46,0,0,1,.2-.521,2.1,2.1,0,0,1,2.04-1.27c.648.146.955.853.794,1.685a2.422,2.422,0,0,1-.272.724l-2.01,3.61A1.335,1.335,0,0,1,3760.7,479.444Z" transform="translate(-3759.231 -472.602)"/>
        <rect id="Rectángulo_8820" data-name="Rectángulo 8820" class="cls-7" width="3.907" height="2.409" rx="1.119" transform="translate(0 4.993)"/>
      </g>
      <ellipse id="Elipse_638" data-name="Elipse 638" class="cls-5" cx="4.092" cy="5.251" rx="4.092" ry="5.251" transform="translate(142.658 42.979) rotate(-81.511)"/>
      <ellipse id="Elipse_639" data-name="Elipse 639" class="cls-7" cx="2.354" cy="3.021" rx="2.354" ry="3.021" transform="translate(144.072 40.616) rotate(-81.512)"/>
      <path id="Trazado_34234" data-name="Trazado 34234" class="cls-1" d="M3760.171,416.913a2.913,2.913,0,0,1-2.565,2.242,4.534,4.534,0,0,1-1.431.011c-1.976-.293-3.394-1.781-3.162-3.322s2.017-2.551,4-2.255a.538.538,0,0,1,.073.013C3759.019,413.92,3760.4,415.389,3760.171,416.913Z" transform="translate(-3603.388 -374.425)"/>
      <path id="Trazado_34235" data-name="Trazado 34235" class="cls-7" d="M3760.966,417.289a2.912,2.912,0,0,1-2.565,2.241,4.532,4.532,0,0,1-1.431.012c-1.976-.292-3.394-1.781-3.162-3.323s2.017-2.551,4-2.255a.56.56,0,0,1,.073.014C3759.814,414.3,3761.192,415.766,3760.966,417.289Z" transform="translate(-3603.417 -374.44)"/>
      <path id="Trazado_34236" data-name="Trazado 34236" class="cls-5" d="M3761.025,417.292a2.912,2.912,0,0,1-2.565,2.241c-1.937-.32-3.315-1.791-3.086-3.311a2.9,2.9,0,0,1,2.562-2.241C3759.874,414.3,3761.252,415.769,3761.025,417.292Z" transform="translate(-3603.477 -374.442)"/>
      <path id="Trazado_34237" data-name="Trazado 34237" class="cls-6" d="M3756.059,421.4a.951.951,0,0,1-.871-1.025l.073-.9a.951.951,0,0,1,1.9.154l-.073.9A.951.951,0,0,1,3756.059,421.4Z" transform="translate(-3603.47 -374.617)"/>
      <g id="Grupo_10614" data-name="Grupo 10614" transform="translate(121.307 70.025)">
        <path id="Trazado_34238" data-name="Trazado 34238" class="cls-5" d="M3727.593,453.684a4.01,4.01,0,0,1,0-8.02v1.018a2.992,2.992,0,0,0,0,5.983Z" transform="translate(-3723.583 -445.664)"/>
      </g>
      <g id="Grupo_10615" data-name="Grupo 10615" transform="translate(120.645 70.025)">
        <path id="Trazado_34239" data-name="Trazado 34239" class="cls-7" d="M3726.906,453.684a4.01,4.01,0,1,1,0-8.02.509.509,0,1,1,0,1.018,2.992,2.992,0,0,0,0,5.983.51.51,0,0,1,0,1.019Z" transform="translate(-3722.895 -445.664)"/>
      </g>
      <g id="Grupo_10616" data-name="Grupo 10616" transform="translate(126.3 70.426)">
        <path id="Trazado_34240" data-name="Trazado 34240" class="cls-5" d="M3731.154,450.2a.509.509,0,0,1-.509-.51,2.985,2.985,0,0,0-1.6-2.648.51.51,0,0,1,.476-.9,4,4,0,0,1,2.142,3.55A.509.509,0,0,1,3731.154,450.2Z" transform="translate(-3728.773 -446.081)"/>
      </g>
      <path id="Rectángulo_8821" data-name="Rectángulo 8821" class="cls-5" d="M1.747,0H16.514a1.747,1.747,0,0,1,1.747,1.747V9.89a1.747,1.747,0,0,1-1.747,1.747H1.749A1.749,1.749,0,0,1,0,9.888V1.747A1.747,1.747,0,0,1,1.747,0Z" transform="translate(117.528 73.997)"/>
      <path id="Rectángulo_8822" data-name="Rectángulo 8822" class="cls-9" d="M1.747,0H16.514a1.747,1.747,0,0,1,1.747,1.747V9.89a1.747,1.747,0,0,1-1.747,1.747H1.749A1.749,1.749,0,0,1,0,9.888V1.747A1.747,1.747,0,0,1,1.747,0Z" transform="translate(115.175 74.035)"/>
      <path id="Trazado_34241" data-name="Trazado 34241" class="cls-7" d="M3735.473,451.512a4.136,4.136,0,0,1-4.135,4.138h-9.991a4.135,4.135,0,0,1-4.136-4.136,1.683,1.683,0,0,1,1.683-1.683h14.9A1.681,1.681,0,0,1,3735.473,451.512Z" transform="translate(-3602.037 -375.796)"/>
      <g id="Grupo_10617" data-name="Grupo 10617" transform="translate(121.816 78.463)">
        <path id="Trazado_34242" data-name="Trazado 34242" class="cls-8" d="M3725.517,456.884a1.047,1.047,0,1,1,0-2.095h2.2a1.047,1.047,0,0,1,0,2.095Z" transform="translate(-3724.125 -454.446)"/>
        <path id="Trazado_34243" data-name="Trazado 34243" class="cls-1" d="M3727.7,455.119a.7.7,0,0,1,0,1.409h-2.2a.7.7,0,0,1,0-1.409Zm0-.686h-2.2a1.391,1.391,0,1,0,0,2.782h2.2a1.391,1.391,0,0,0,0-2.782Z" transform="translate(-3724.113 -454.433)"/>
      </g>
      <path id="Trazado_34244" data-name="Trazado 34244" class="cls-1" d="M3713.918,420.832v4.3a2.5,2.5,0,1,0,5,0v-4.3a2.5,2.5,0,0,0-3.577-2.253,2.522,2.522,0,0,0-.687.486A2.49,2.49,0,0,0,3713.918,420.832Z" transform="translate(-3601.912 -374.607)"/>
      <path id="Trazado_34245" data-name="Trazado 34245" class="cls-1" d="M3714.086,417.715v1.054a4.069,4.069,0,1,0,7.9.006v-1.054a3.984,3.984,0,1,0-7.9-.006Z" transform="translate(-3601.919 -374.393)"/>
      <g id="Grupo_10618" data-name="Grupo 10618" transform="translate(117.494 59.715)">
        <path id="Trazado_34246" data-name="Trazado 34246" class="cls-7" d="M3727.857,446.593a2.489,2.489,0,0,1-1.89-.865l-5.741-6.655a2.495,2.495,0,1,1,3.778-3.259l5.74,6.655a2.494,2.494,0,0,1-1.888,4.124Z" transform="translate(-3719.621 -434.949)"/>
      </g>
      <path id="Trazado_34247" data-name="Trazado 34247" class="cls-1" d="M3720.5,419.267h-.765a2.618,2.618,0,0,1,0-5.236h.765a2.618,2.618,0,1,1,0,5.236Z" transform="translate(-3602.033 -374.444)"/>
      <path id="Trazado_34248" data-name="Trazado 34248" class="cls-5" d="M3719.73,419.048h-.766a2.618,2.618,0,0,1,0-5.236h.766a2.618,2.618,0,0,1,0,5.236Z" transform="translate(-3602.003 -374.436)"/>
      <g id="Grupo_10619" data-name="Grupo 10619" transform="translate(115.651 52.123)">
        <path id="Trazado_34249" data-name="Trazado 34249" class="cls-7" d="M3722.041,439.641a2.5,2.5,0,0,1-2.423-1.907l-1.842-7.591a2.495,2.495,0,0,1,4.849-1.177l1.842,7.591a2.5,2.5,0,0,1-2.426,3.084Z" transform="translate(-3717.706 -427.06)"/>
      </g>
      <circle id="Elipse_640" data-name="Elipse 640" class="cls-4" cx="3.5" cy="3.5" r="3.5" transform="matrix(0.855, -0.519, 0.519, 0.855, 122.306, 68.795)"/>
      <g id="Grupo_10620" data-name="Grupo 10620" transform="translate(112.811 69.061)">
        <rect id="Rectángulo_8823" data-name="Rectángulo 8823" class="cls-5" width="6.414" height="33.931" transform="matrix(1, -0.017, 0.017, 1, 0, 0.109)"/>
      </g>
      <g id="Grupo_10621" data-name="Grupo 10621" transform="translate(102.253 68.583)">
        <rect id="Rectángulo_8824" data-name="Rectángulo 8824" class="cls-7" width="34.403" height="6.415" transform="translate(0 33.926) rotate(-80.441)"/>
      </g>
      <path id="Trazado_34250" data-name="Trazado 34250" class="cls-5" d="M3720.165,450.238a4.431,4.431,0,0,1-4.377-3.9l-1.495-16.207a3.563,3.563,0,0,1,3.655-3.92,4.43,4.43,0,0,1,4.376,3.906l1.5,16.207A3.563,3.563,0,0,1,3720.165,450.238Z" transform="translate(-3601.925 -374.904)"/>
      <circle id="Elipse_641" data-name="Elipse 641" class="cls-7" cx="4.205" cy="4.205" r="4.205" transform="translate(105.894 74.366) rotate(-58.536)"/>
      <path id="Trazado_34251" data-name="Trazado 34251" class="cls-1" d="M3708.113,432.671v9.476a6.227,6.227,0,0,0,3.115,5.4,6.044,6.044,0,0,0,.964.45,6.192,6.192,0,0,0,2.25.383,6.319,6.319,0,0,0,6.128-6.367V432.2a5.992,5.992,0,0,0-5.992-5.993A6.465,6.465,0,0,0,3708.113,432.671Z" transform="translate(-3601.693 -374.904)"/>
      <g id="Grupo_10622" data-name="Grupo 10622" transform="translate(113.637 49.706)">
        <path id="Trazado_34252" data-name="Trazado 34252" class="cls-10" d="M3717.93,427.423a1.071,1.071,0,0,1-.543-.148l-1.249-.738a1.069,1.069,0,0,1,1.088-1.841l1.248.737a1.069,1.069,0,0,1-.544,1.99Z" transform="translate(-3715.613 -424.547)"/>
      </g>
      <path id="Trazado_34253" data-name="Trazado 34253" class="cls-6" d="M3713.218,420.713v4.3a2.5,2.5,0,1,0,5,0v-4.3a2.5,2.5,0,0,0-3.577-2.253,2.546,2.546,0,0,0-.687.486A2.492,2.492,0,0,0,3713.218,420.713Z" transform="translate(-3601.885 -374.602)"/>
      <g id="Grupo_10623" data-name="Grupo 10623" transform="translate(113.763 51.284)">
        <path id="Trazado_34254" data-name="Trazado 34254" class="cls-7" d="M3716.544,428.1a.8.8,0,0,1-.158-1.587l1.552-.316a.8.8,0,0,1,.318,1.571l-1.551.315A.842.842,0,0,1,3716.544,428.1Z" transform="translate(-3715.743 -426.187)"/>
      </g>
      <path id="Trazado_34255" data-name="Trazado 34255" class="cls-4" d="M3713.218,420.852v4.3a1.573,1.573,0,1,0,2.837,0v-4.3a2.5,2.5,0,0,0-1.419-2.253,2.524,2.524,0,0,0-.687.486A2.492,2.492,0,0,0,3713.218,420.852Z" transform="translate(-3601.885 -374.617)"/>
      <g id="Grupo_10624" data-name="Grupo 10624" transform="translate(110.406 49.81)">
        <path id="Trazado_34256" data-name="Trazado 34256" class="cls-1" d="M3715.443,428.046a1.062,1.062,0,0,1-.543-.149l-2.121-1.252a1.069,1.069,0,0,1,1.087-1.841l2.121,1.252a1.069,1.069,0,0,1-.544,1.99Z" transform="translate(-3712.255 -424.655)"/>
      </g>
      <path id="Trazado_34257" data-name="Trazado 34257" class="cls-5" d="M3710.6,450.39a3.641,3.641,0,0,1-3.68-3.964l1.181-16.42a4.329,4.329,0,0,1,4.249-3.963,3.639,3.639,0,0,1,3.679,3.963l-1.181,16.42A4.327,4.327,0,0,1,3710.6,450.39Z" transform="translate(-3601.647 -374.898)"/>
      <g id="Grupo_10625" data-name="Grupo 10625" transform="translate(106.986 52.74)">
        <path id="Trazado_34258" data-name="Trazado 34258" class="cls-7" d="M3721.9,445.357a2.481,2.481,0,0,1-.924-.178l-9.8-3.912a2.494,2.494,0,0,1-1.556-2.058l-.911-8.755a2.494,2.494,0,1,1,4.962-.517l.755,7.256,8.4,3.353a2.495,2.495,0,0,1-.927,4.811Z" transform="translate(-3708.701 -427.7)"/>
      </g>
      <path id="Trazado_34259" data-name="Trazado 34259" class="cls-4" d="M3710.819,417.59v1.053a5.187,5.187,0,1,0,10.373.008V417.6a5.186,5.186,0,0,0-10.373-.007Z" transform="translate(-3601.795 -374.383)"/>
      <path id="Trazado_34260" data-name="Trazado 34260" class="cls-6" d="M3713.385,417.6v1.054a4.069,4.069,0,1,0,7.9.006V417.6a3.984,3.984,0,1,0-7.9-.006Z" transform="translate(-3601.892 -374.388)"/>
      <path id="Trazado_34261" data-name="Trazado 34261" class="cls-1" d="M3716.751,421.18a1.306,1.306,0,0,0,2.612,0Z" transform="translate(-3602.019 -374.714)"/>
      <g id="Grupo_10626" data-name="Grupo 10626" transform="translate(113.682 42.26)">
        <path id="Trazado_34262" data-name="Trazado 34262" class="cls-1" d="M3717.382,420.255a1.723,1.723,0,1,1,1.722-1.723A1.724,1.724,0,0,1,3717.382,420.255Zm0-3.078a1.355,1.355,0,1,0,1.354,1.355A1.357,1.357,0,0,0,3717.382,417.177Z" transform="translate(-3715.66 -416.809)"/>
      </g>
      <g id="Grupo_10627" data-name="Grupo 10627" transform="translate(117.389 42.26)">
        <path id="Trazado_34263" data-name="Trazado 34263" class="cls-1" d="M3721.235,420.255a1.723,1.723,0,1,1,1.723-1.723A1.725,1.725,0,0,1,3721.235,420.255Zm0-3.078a1.355,1.355,0,1,0,1.355,1.355A1.357,1.357,0,0,0,3721.235,417.177Z" transform="translate(-3719.512 -416.809)"/>
      </g>
      <path id="Trazado_34264" data-name="Trazado 34264" class="cls-5" d="M3711.954,419.713h-.589a1.762,1.762,0,0,1,0-3.524h.589a1.762,1.762,0,0,1,0,3.524Z" transform="translate(-3601.749 -374.526)"/>
      <g id="Grupo_10628" data-name="Grupo 10628" transform="translate(110.547 43.257)">
        <rect id="Rectángulo_8825" data-name="Rectángulo 8825" class="cls-1" width="0.249" height="3.348" transform="translate(0 0.242) rotate(-76.485)"/>
      </g>
      <path id="Trazado_34265" data-name="Trazado 34265" class="cls-1" d="M3715.132,480.122h8.838a4.419,4.419,0,0,0-8.838,0Z" transform="translate(-3601.958 -376.774)"/>
      <path id="Trazado_34266" data-name="Trazado 34266" class="cls-1" d="M3701.2,480.159h8.838a4.419,4.419,0,0,0-8.838,0Z" transform="translate(-3601.431 -376.775)"/>
      <circle id="Elipse_642" data-name="Elipse 642" class="cls-6" cx="3.5" cy="3.5" r="3.5" transform="translate(117.524 64.401)"/>
      <g id="Grupo_10629" data-name="Grupo 10629" transform="translate(114.643 51.829)">
        <path id="Trazado_34267" data-name="Trazado 34267" class="cls-7" d="M3718.586,440.988a.687.687,0,0,1-.686-.667l-.3-9.946a4.51,4.51,0,0,0-.531-1.988l-.333-.623a.687.687,0,0,1,1.211-.649l.333.623a5.894,5.894,0,0,1,.693,2.6l.3,9.947a.686.686,0,0,1-.666.706Z" transform="translate(-3716.659 -426.754)"/>
      </g>
      <path id="Trazado_34268" data-name="Trazado 34268" class="cls-1" d="M3723.938,413.284a3.111,3.111,0,0,1-3.11,3.111h-2.594a3.11,3.11,0,1,1,0-6.221h2.594A3.11,3.11,0,0,1,3723.938,413.284Z" transform="translate(-3601.957 -374.298)"/>
      <path id="Trazado_34269" data-name="Trazado 34269" class="cls-7" d="M3722.871,413.284a3.112,3.112,0,0,1-3.111,3.111h-2.594a3.11,3.11,0,1,1,0-6.221h2.594A3.11,3.11,0,0,1,3722.871,413.284Z" transform="translate(-3601.917 -374.298)"/>
      <path id="Trazado_34270" data-name="Trazado 34270" class="cls-5" d="M3720.658,413.284a3.111,3.111,0,0,1-3.109,3.111h-.383a3.11,3.11,0,1,1,0-6.221h.383A3.11,3.11,0,0,1,3720.658,413.284Z" transform="translate(-3601.917 -374.298)"/>
      <path id="Trazado_34271" data-name="Trazado 34271" class="cls-1" d="M3714.143,417.213h-.765a2.618,2.618,0,0,1,0-5.236h.765a2.618,2.618,0,0,1,0,5.236Z" transform="translate(-3601.792 -374.366)"/>
      <g id="Grupo_10630" data-name="Grupo 10630" transform="translate(125.775 70.426)">
        <path id="Trazado_34272" data-name="Trazado 34272" class="cls-7" d="M3730.608,450.2a.51.51,0,0,1-.51-.51,2.984,2.984,0,0,0-1.6-2.648.51.51,0,0,1,.475-.9,4,4,0,0,1,2.143,3.55A.509.509,0,0,1,3730.608,450.2Z" transform="translate(-3728.227 -446.081)"/>
      </g>
      <path id="Trazado_34273" data-name="Trazado 34273" class="cls-5" d="M3713.482,417.766h-.765a2.618,2.618,0,0,1,0-5.236h.765a2.618,2.618,0,1,1,0,5.236Z" transform="translate(-3601.768 -374.387)"/>
      <path id="Trazado_34274" data-name="Trazado 34274" class="cls-7" d="M3715.078,415.184a1.679,1.679,0,0,1-1.234,1.621,1.648,1.648,0,0,0,.162-.717,1.683,1.683,0,0,0-1.683-1.683h-.493a1.6,1.6,0,0,0-.448.062,1.6,1.6,0,0,1,.329-.474,1.681,1.681,0,0,1,1.191-.492h.493A1.683,1.683,0,0,1,3715.078,415.184Z" transform="translate(-3601.816 -374.424)"/>
      <path id="Trazado_34275" data-name="Trazado 34275" class="cls-6" d="M3712.836,420.018a1.182,1.182,0,0,0,1.182-1.183v-1.121a1.182,1.182,0,0,0-2.364,0v1.121A1.182,1.182,0,0,0,3712.836,420.018Z" transform="translate(-3601.827 -374.539)"/>
      <g id="Grupo_10631" data-name="Grupo 10631" transform="translate(139.773 103.501)">
        <path id="Trazado_34276" data-name="Trazado 34276" class="cls-7" d="M3773.925,482.848h-29.954a1.2,1.2,0,0,1,0-2.394h29.954a1.2,1.2,0,1,1,0,2.394Z" transform="translate(-3742.775 -480.454)"/>
      </g>
      <g id="Grupo_10632" data-name="Grupo 10632" transform="translate(88.295 103.501)">
        <path id="Trazado_34277" data-name="Trazado 34277" class="cls-7" d="M3733.317,482.848h-42.843a1.2,1.2,0,1,1,0-2.394h42.843a1.2,1.2,0,1,1,0,2.394Z" transform="translate(-3689.276 -480.454)"/>
      </g>
      <g id="Grupo_10633" data-name="Grupo 10633" transform="translate(2.075 103.501)">
        <path id="Trazado_34278" data-name="Trazado 34278" class="cls-7" d="M3680.736,482.848h-79.867a1.2,1.2,0,1,1,0-2.394h79.867a1.2,1.2,0,0,1,0,2.394Z" transform="translate(-3599.671 -480.454)"/>
      </g>
      <g id="Grupo_10634" data-name="Grupo 10634" transform="translate(12.995 14.225)">
        <path id="Trazado_34279" data-name="Trazado 34279" class="cls-1" d="M3701.83,400.967l-17.416,62.248a5.442,5.442,0,0,1-4.15,3.98,17.154,17.154,0,0,0-13.543,16.77h-55.7a17.159,17.159,0,0,1,14.548-16.955,4.048,4.048,0,0,0,3.307-3.043l17.223-63Z" transform="translate(-3611.02 -388.175)"/>
        <path id="Trazado_34280" data-name="Trazado 34280" class="cls-1" d="M3712.524,387.673h-.068a7.6,7.6,0,0,0-7.235,5.592l-2.014,7.2h-55.726l1.355-4.4a11.882,11.882,0,0,1,11.356-8.389Z" transform="translate(-3612.398 -387.673)"/>
        <path id="Trazado_34281" data-name="Trazado 34281" class="cls-8" d="M3720.444,400.465h-15.05l2.014-7.2a7.6,7.6,0,0,1,7.235-5.592h1.561a4.6,4.6,0,0,1,3.012.936C3721.486,390.454,3721.472,394.887,3720.444,400.465Z" transform="translate(-3614.585 -387.673)"/>
      </g>
      <g id="Grupo_10635" data-name="Grupo 10635" transform="translate(54.1 29.997)">
        <path id="Trazado_34282" data-name="Trazado 34282" class="cls-8" d="M3673.5,405.907H3654.66a.921.921,0,1,1,0-1.842H3673.5a.921.921,0,0,1,0,1.842Z" transform="translate(-3653.739 -404.065)"/>
      </g>
      <g id="Grupo_10636" data-name="Grupo 10636" transform="translate(83.501 29.997)">
        <path id="Trazado_34283" data-name="Trazado 34283" class="cls-8" d="M3695.772,405.907h-10.557a.921.921,0,1,1,0-1.842h10.557a.921.921,0,1,1,0,1.842Z" transform="translate(-3684.293 -404.065)"/>
      </g>
      <g id="Grupo_10637" data-name="Grupo 10637" transform="translate(52.35 36.55)">
        <path id="Trazado_34284" data-name="Trazado 34284" class="cls-8" d="M3692.8,412.717h-39.959a.921.921,0,1,1,0-1.842H3692.8a.921.921,0,1,1,0,1.842Z" transform="translate(-3651.92 -410.875)"/>
      </g>
      <g id="Grupo_10638" data-name="Grupo 10638" transform="translate(50.601 43.103)">
        <path id="Trazado_34285" data-name="Trazado 34285" class="cls-8" d="M3660.476,419.527h-9.453a.921.921,0,0,1,0-1.842h9.453a.921.921,0,0,1,0,1.842Z" transform="translate(-3650.103 -417.685)"/>
      </g>
      <g id="Grupo_10639" data-name="Grupo 10639" transform="translate(67.082 43.103)">
        <path id="Trazado_34286" data-name="Trazado 34286" class="cls-8" d="M3691.628,419.527h-23.477a.921.921,0,1,1,0-1.842h23.477a.921.921,0,1,1,0,1.842Z" transform="translate(-3667.23 -417.685)"/>
      </g>
      <g id="Grupo_10640" data-name="Grupo 10640" transform="translate(48.852 49.656)">
        <path id="Trazado_34287" data-name="Trazado 34287" class="cls-8" d="M3689.164,426.337h-39.958a.921.921,0,1,1,0-1.842h39.958a.921.921,0,1,1,0,1.842Z" transform="translate(-3648.284 -424.495)"/>
      </g>
      <g id="Grupo_10641" data-name="Grupo 10641" transform="translate(47.102 56.209)">
        <path id="Trazado_34288" data-name="Trazado 34288" class="cls-8" d="M3655.613,433.147h-8.225a.921.921,0,1,1,0-1.842h8.225a.921.921,0,0,1,0,1.842Z" transform="translate(-3646.466 -431.305)"/>
      </g>
      <g id="Grupo_10642" data-name="Grupo 10642" transform="translate(61.159 56.209)">
        <path id="Trazado_34289" data-name="Trazado 34289" class="cls-8" d="M3673.167,433.147H3662a.921.921,0,1,1,0-1.842h11.171a.921.921,0,0,1,0,1.842Z" transform="translate(-3661.074 -431.305)"/>
      </g>
      <g id="Grupo_10643" data-name="Grupo 10643" transform="translate(77.731 56.209)">
        <path id="Trazado_34290" data-name="Trazado 34290" class="cls-8" d="M3688.548,433.147h-9.33a.921.921,0,0,1,0-1.842h9.33a.921.921,0,0,1,0,1.842Z" transform="translate(-3678.298 -431.305)"/>
      </g>
      <g id="Grupo_10644" data-name="Grupo 10644" transform="translate(45.353 62.761)">
        <path id="Trazado_34291" data-name="Trazado 34291" class="cls-8" d="M3663.739,439.956H3645.57a.92.92,0,1,1,0-1.841h18.169a.92.92,0,1,1,0,1.841Z" transform="translate(-3644.649 -438.115)"/>
      </g>
      <g id="Grupo_10645" data-name="Grupo 10645" transform="translate(70.857 62.761)">
        <path id="Trazado_34292" data-name="Trazado 34292" class="cls-8" d="M3686.529,439.956h-14.454a.92.92,0,1,1,0-1.841h14.454a.92.92,0,1,1,0,1.841Z" transform="translate(-3671.154 -438.115)"/>
      </g>
      <g id="Grupo_10646" data-name="Grupo 10646" transform="translate(43.604 69.314)">
        <path id="Trazado_34293" data-name="Trazado 34293" class="cls-8" d="M3683.71,446.766h-39.959a.92.92,0,1,1,0-1.841h39.959a.92.92,0,1,1,0,1.841Z" transform="translate(-3642.83 -444.925)"/>
      </g>
      <g id="Grupo_10647" data-name="Grupo 10647" transform="translate(41.854 75.867)">
        <path id="Trazado_34294" data-name="Trazado 34294" class="cls-8" d="M3647.181,453.576h-5.248a.92.92,0,1,1,0-1.841h5.248a.92.92,0,1,1,0,1.841Z" transform="translate(-3641.013 -451.735)"/>
      </g>
      <g id="Grupo_10648" data-name="Grupo 10648" transform="translate(54.438 75.867)">
        <path id="Trazado_34295" data-name="Trazado 34295" class="cls-8" d="M3682.386,453.576H3655.01a.92.92,0,1,1,0-1.841h27.376a.92.92,0,1,1,0,1.841Z" transform="translate(-3654.09 -451.735)"/>
      </g>
      <g id="Grupo_10649" data-name="Grupo 10649" transform="translate(60.054 82.419)">
        <path id="Trazado_34296" data-name="Trazado 34296" class="cls-8" d="M3680.857,460.386h-20.01a.921.921,0,1,1,0-1.842h20.01a.921.921,0,0,1,0,1.842Z" transform="translate(-3659.926 -458.544)"/>
      </g>
      <g id="Grupo_10650" data-name="Grupo 10650" transform="translate(21.845 103.486)">
        <path id="Trazado_34297" data-name="Trazado 34297" class="cls-8" d="M3638.324,482.279h-17.186a.92.92,0,1,1,0-1.841h17.186a.92.92,0,1,1,0,1.841Z" transform="translate(-3620.218 -480.438)"/>
      </g>
      <g id="Grupo_10651" data-name="Grupo 10651" transform="translate(29.702 98.974)">
        <path id="Trazado_34298" data-name="Trazado 34298" class="cls-8" d="M3640.72,477.591H3629.3a.921.921,0,1,1,0-1.842h11.417a.921.921,0,0,1,0,1.842Z" transform="translate(-3628.383 -475.749)"/>
      </g>
      <g id="Grupo_10652" data-name="Grupo 10652" transform="translate(49.96 94.497)">
        <path id="Trazado_34299" data-name="Trazado 34299" class="cls-7" d="M3650.569,478.08a3.9,3.9,0,0,1,1.547-.939c.87-.126.46.658.274,1.151-.412,1.087-.84,2.164-1.274,3.235-.233.574.468.972.929.759q.919-.424,1.836-.858c.272-.129.552-.293.833-.4.358-.131.646-.379.331.248a.655.655,0,0,0,.993.83,5.013,5.013,0,0,0,1.875-3.328l-1.267.168a12.272,12.272,0,0,0,1.281,4.125.632.632,0,0,0,1.007.167,8.731,8.731,0,0,0,1.792-3.27,12.5,12.5,0,0,1,1.431-3.6c1.6-2.17,4.522-2.557,6.718-3.967.707-.454.023-1.673-.684-1.211-2.173,1.419-4.982,1.875-6.694,3.87s-1.75,5.048-3.447,7.192l1.009.164a11.332,11.332,0,0,1-1.167-3.822c-.1-.815-1.188-.511-1.267.17a3.765,3.765,0,0,1-1.475,2.375q.5.413.994.83c.453-.9.694-2.342-.672-2.48a3.056,3.056,0,0,0-1.554.46c-.833.4-1.662.8-2.5,1.185q.466.378.931.759c.436-1.078.866-2.161,1.281-3.254.273-.724.628-1.615.109-2.315-1.072-1.443-3.142.08-4.082.829-.649.518.266,1.429.911.917Z" transform="translate(-3649.436 -471.096)"/>
      </g>
      <g id="Grupo_10661" data-name="Grupo 10661" transform="translate(15.377 36.913)">
        <g id="Grupo_10653" data-name="Grupo 10653">
          <path id="Trazado_34300" data-name="Trazado 34300" class="cls-7" d="M3616.559,417.037a2.3,2.3,0,0,1-1.937-1.056l-.76-1.181a2.3,2.3,0,1,1,3.87-2.493l.76,1.181a2.3,2.3,0,0,1-1.933,3.549Z" transform="translate(-3613.495 -411.252)"/>
        </g>
        <g id="Grupo_10654" data-name="Grupo 10654" transform="translate(1.154 1.793)">
          <path id="Trazado_34301" data-name="Trazado 34301" class="cls-1" d="M3618.016,419.3a2.3,2.3,0,0,1-1.938-1.056l-1.016-1.579a2.3,2.3,0,1,1,3.87-2.492l1.017,1.579a2.3,2.3,0,0,1-1.933,3.548Z" transform="translate(-3614.695 -413.116)"/>
        </g>
        <g id="Grupo_10655" data-name="Grupo 10655" transform="translate(1.578 2.772)">
          <path id="Trazado_34302" data-name="Trazado 34302" class="cls-7" d="M3619.247,421.946a3.2,3.2,0,0,1-2.7-1.471l-.9-1.4a3.207,3.207,0,0,1,5.393-3.473l.9,1.4a3.208,3.208,0,0,1-2.693,4.944Z" transform="translate(-3615.136 -414.133)"/>
        </g>
        <g id="Grupo_10656" data-name="Grupo 10656" transform="translate(2.882 5.451)">
          <rect id="Rectángulo_8826" data-name="Rectángulo 8826" class="cls-1" width="6.415" height="1.273" transform="translate(0 3.473) rotate(-32.777)"/>
        </g>
        <g id="Grupo_10657" data-name="Grupo 10657" transform="translate(3.571 6.522)">
          <rect id="Rectángulo_8827" data-name="Rectángulo 8827" class="cls-7" width="6.415" height="19.972" transform="translate(0 3.473) rotate(-32.776)"/>
        </g>
        <g id="Grupo_10658" data-name="Grupo 10658" transform="translate(14.071 22.828)">
          <rect id="Rectángulo_8828" data-name="Rectángulo 8828" class="cls-1" width="6.414" height="1.325" transform="translate(0 3.473) rotate(-32.778)"/>
        </g>
        <g id="Grupo_10659" data-name="Grupo 10659" transform="translate(14.788 23.942)">
          <path id="Trazado_34303" data-name="Trazado 34303" class="cls-7" d="M3649.217,468.929c-9.461-11.868-16.3-21.685-20.353-29.322l5.393-3.473c6.537,8.491,12.563,18.959,18.271,30.662Z" transform="translate(-3628.864 -436.134)"/>
        </g>
        <path id="Trazado_34304" data-name="Trazado 34304" class="cls-7" d="M3650.015,470.133l4.465,3.534L3653.326,468Z" transform="translate(-3614.875 -413.396)"/>
        <g id="Grupo_10660" data-name="Grupo 10660" transform="translate(33.963 53.634)">
          <rect id="Rectángulo_8829" data-name="Rectángulo 8829" class="cls-1" width="6.415" height="1.325" transform="translate(0 3.472) rotate(-32.775)"/>
        </g>
      </g>
      <g id="Grupo_10662" data-name="Grupo 10662" transform="translate(27.391 64.934)">
        <path id="Trazado_34305" data-name="Trazado 34305" class="cls-1" d="M3628.756,445.206a1.287,1.287,0,0,1-1.078-.581l-1.484-2.254a1.289,1.289,0,0,1,2.153-1.417l1.484,2.255a1.289,1.289,0,0,1-1.075,2Z" transform="translate(-3625.981 -440.373)"/>
      </g>
      <g id="Grupo_10663" data-name="Grupo 10663" transform="translate(17.35 45.088)">
        <path id="Trazado_34306" data-name="Trazado 34306" class="cls-1" d="M3626.062,440.818l-9.78-14.858a4.465,4.465,0,0,1,1.319-6.212l.7,1.084a3.176,3.176,0,0,0-.938,4.419l9.78,14.859Z" transform="translate(-3615.546 -419.748)"/>
      </g>
      <circle id="Elipse_643" data-name="Elipse 643" class="cls-6" cx="2.96" cy="2.96" r="2.96" transform="translate(133.591 63.785)"/>
      <g id="Grupo_10667" data-name="Grupo 10667" transform="translate(171.177 2.73)">
        <g id="Grupo_10664" data-name="Grupo 10664">
          <rect id="Rectángulo_8830" data-name="Rectángulo 8830" class="cls-1" width="0.552" height="1.105"/>
        </g>
        <g id="Grupo_10665" data-name="Grupo 10665" transform="translate(0 3.467)">
          <path id="Trazado_34307" data-name="Trazado 34307" class="cls-1" d="M3775.964,400.586h-.552v-2.362h.552Zm0-4.724h-.552V393.5h.552Zm0-4.724h-.552v-2.361h.552Zm0-4.724h-.552v-2.361h.552Zm0-4.724h-.552V379.33h.552Z" transform="translate(-3775.411 -379.33)"/>
        </g>
        <g id="Grupo_10666" data-name="Grupo 10666" transform="translate(0 27.084)">
          <rect id="Rectángulo_8831" data-name="Rectángulo 8831" class="cls-1" width="0.552" height="1.105"/>
        </g>
      </g>
      <g id="Grupo_10671" data-name="Grupo 10671" transform="translate(18.059 0)">
        <g id="Grupo_10668" data-name="Grupo 10668" transform="translate(0 0)">
          <rect id="Rectángulo_8832" data-name="Rectángulo 8832" class="cls-1" width="1.105" height="0.552"/>
        </g>
        <g id="Grupo_10669" data-name="Grupo 10669" transform="translate(3.296)">
          <path id="Trazado_34308" data-name="Trazado 34308" class="cls-1" d="M3766.51,373.442h-2.191v-.552h2.191Zm-4.382,0h-2.192v-.552h2.192Zm-4.383,0h-2.191v-.552h2.191Zm-4.382,0h-2.191v-.552h2.191Zm-4.382,0h-2.191v-.552h2.191Zm-4.382,0h-2.191v-.552h2.191Zm-4.382,0h-2.192v-.552h2.192Zm-4.383,0h-2.191v-.552h2.191Zm-4.382,0h-2.191v-.552h2.191Zm-4.383,0h-2.19v-.552h2.19Zm-4.382,0H3720.5v-.552h2.191Zm-4.382,0h-2.191v-.552h2.191Zm-4.383,0h-2.191v-.552h2.191Zm-4.382,0h-2.191v-.552h2.191Zm-4.383,0h-2.19v-.552h2.19Zm-4.382,0h-2.191v-.552h2.191Zm-4.382,0H3694.2v-.552h2.191Zm-4.383,0h-2.191v-.552h2.191Zm-4.382,0h-2.191v-.552h2.191Zm-4.382,0h-2.191v-.552h2.191Zm-4.382,0h-2.191v-.552h2.191Zm-4.382,0h-2.191v-.552h2.191Zm-4.382,0h-2.192v-.552h2.192Zm-4.383,0h-2.191v-.552h2.191Zm-4.382,0h-2.191v-.552h2.191Zm-4.382,0h-2.191v-.552h2.191Zm-4.382,0h-2.191v-.552h2.191Zm-4.382,0H3646v-.552h2.191Zm-4.382,0h-2.191v-.552h2.191Zm-4.383,0h-2.191v-.552h2.191Zm-4.382,0h-2.191v-.552h2.191Zm-4.382,0h-2.191v-.552h2.191Zm-4.382,0h-2.191v-.552h2.191Zm-4.382,0h-2.191v-.552h2.191Z" transform="translate(-3619.708 -372.89)"/>
        </g>
        <g id="Grupo_10670" data-name="Grupo 10670" transform="translate(152.289 0)">
          <rect id="Rectángulo_8833" data-name="Rectángulo 8833" class="cls-1" width="1.105" height="0.552"/>
        </g>
      </g>
      <g id="Grupo_10675" data-name="Grupo 10675" transform="translate(17.782 2.73)">
        <g id="Grupo_10672" data-name="Grupo 10672" transform="translate(0 29.953)">
          <rect id="Rectángulo_8834" data-name="Rectángulo 8834" class="cls-1" width="0.552" height="1.105"/>
        </g>
        <g id="Grupo_10673" data-name="Grupo 10673" transform="translate(0 3.324)">
          <path id="Trazado_34309" data-name="Trazado 34309" class="cls-1" d="M3616.547,403.592H3616v-2.219h.552Zm0-4.438H3616v-2.219h.552Zm0-4.439H3616V392.5h.552Zm0-4.438H3616v-2.219h.552Zm0-4.439H3616V383.62h.552Zm0-4.438H3616v-2.219h.552Z" transform="translate(-3615.995 -379.182)"/>
        </g>
        <g id="Grupo_10674" data-name="Grupo 10674">
          <rect id="Rectángulo_8835" data-name="Rectángulo 8835" class="cls-1" width="0.552" height="1.105"/>
        </g>
      </g>
      <g id="Grupo_10676" data-name="Grupo 10676" transform="translate(135.744 2.73)">
        <path id="Trazado_34310" data-name="Trazado 34310" class="cls-1" d="M3739.141,391.195h-.553v-2.209h.553Zm0-4.419h-.553v-2.209h.553Zm0-4.419h-.553v-2.21h.553Zm0-4.42h-.553v-2.21h.553Z" transform="translate(-3738.587 -375.727)"/>
      </g>
      <g id="Grupo_10677" data-name="Grupo 10677" transform="translate(34.085 2.73)">
        <path id="Trazado_34311" data-name="Trazado 34311" class="cls-1" d="M3633.491,382.357h-.552v-2.21h.552Zm0-4.42h-.552v-2.21h.552Z" transform="translate(-3632.938 -375.727)"/>
      </g>
      <g id="Grupo_10678" data-name="Grupo 10678" transform="translate(7.55 14.637)">
        <path id="Trazado_34312" data-name="Trazado 34312" class="cls-1" d="M3605.914,434.506h-.553V432.3h.553Zm0-4.419h-.553v-2.209h.553Zm0-4.419h-.553v-2.21h.553Zm0-4.419h-.553v-2.21h.553Zm0-4.42h-.553v-2.209h.553Zm0-4.419h-.553V410.2h.553Zm0-4.42h-.553V405.78h.553Zm0-4.42h-.553v-2.209h.553Zm0-4.419h-.553v-2.21h.553Zm0-4.419h-.553v-2.21h.553Zm0-4.42h-.553V388.1h.553Z" transform="translate(-3605.361 -388.102)"/>
      </g>
      <g id="Grupo_10679" data-name="Grupo 10679" transform="translate(8.808 11.68)">
        <path id="Trazado_34313" data-name="Trazado 34313" class="cls-1" d="M3613.3,385.58h-2.21v-.552h2.21Zm-4.42,0h-2.21v-.552h2.21Z" transform="translate(-3606.668 -385.028)"/>
      </g>
      <rect id="Rectángulo_8836" data-name="Rectángulo 8836" class="cls-1" width="15.652" height="11.604" rx="2.838" transform="translate(0 64.433)"/>
      <rect id="Rectángulo_8837" data-name="Rectángulo 8837" class="cls-1" width="15.652" height="11.604" rx="2.838" transform="translate(26.536 11.956)"/>
      <rect id="Rectángulo_8838" data-name="Rectángulo 8838" class="cls-1" width="15.652" height="11.604" rx="2.838" transform="translate(128.194 20.531)"/>
      <rect id="Rectángulo_8839" data-name="Rectángulo 8839" class="cls-1" width="15.652" height="11.604" rx="2.838" transform="translate(148.365 11.086)"/>
      <rect id="Rectángulo_8840" data-name="Rectángulo 8840" class="cls-1" width="15.652" height="11.604" rx="2.838" transform="translate(163.627 34.958)"/>
      <g id="Grupo_10680" data-name="Grupo 10680" transform="translate(155.915 2.73)">
        <path id="Trazado_34314" data-name="Trazado 34314" class="cls-1" d="M3760.1,382.357h-.552v-2.21h.552Zm0-4.42h-.552v-2.21h.552Z" transform="translate(-3759.55 -375.727)"/>
      </g>
      <g id="Grupo_10682" data-name="Grupo 10682" transform="translate(4.169 66.118)">
        <g id="Grupo_10681" data-name="Grupo 10681">
          <path id="Trazado_34315" data-name="Trazado 34315" class="cls-8" d="M3609.161,442.476v6.491a.871.871,0,0,1-.872.87h-5.572a.87.87,0,0,1-.869-.87v-6.493a.866.866,0,0,1,.342-.689.852.852,0,0,1,.529-.181l5.349,0h.223a.868.868,0,0,1,.87.871Z" transform="translate(-3601.847 -441.603)"/>
        </g>
        <path id="Trazado_34316" data-name="Trazado 34316" class="cls-1" d="M3609.406,442.476v.285h-1.093v-1.156h.223a.867.867,0,0,1,.87.871Z" transform="translate(-3602.092 -441.603)"/>
      </g>
      <g id="Grupo_10683" data-name="Grupo 10683" transform="translate(30.567 16.05)">
        <rect id="Rectángulo_8841" data-name="Rectángulo 8841" class="cls-8" width="1.841" height="5.095"/>
      </g>
      <g id="Grupo_10684" data-name="Grupo 10684" transform="translate(33.759 14.638)">
        <rect id="Rectángulo_8842" data-name="Rectángulo 8842" class="cls-11" width="1.841" height="6.506"/>
      </g>
      <g id="Grupo_10685" data-name="Grupo 10685" transform="translate(36.951 18.259)">
        <rect id="Rectángulo_8843" data-name="Rectángulo 8843" class="cls-8" width="1.841" height="2.885"/>
      </g>
      <g id="Grupo_10687" data-name="Grupo 10687" transform="translate(130.661 23.663)">
        <g id="Grupo_10686" data-name="Grupo 10686" transform="translate(0.645 0.644)">
          <path id="Trazado_34317" data-name="Trazado 34317" class="cls-8" d="M3741.566,402.906a.457.457,0,0,1-.334-.144l-3.291-3.475-3.165,3.469a.46.46,0,1,1-.68-.621l3.5-3.835a.46.46,0,0,1,.675-.006l3.237,3.418,1.717-2.534a.46.46,0,0,1,.762.516l-2.038,3.009a.461.461,0,0,1-.344.2Z" transform="translate(-3733.976 -398.151)"/>
        </g>
        <circle id="Elipse_644" data-name="Elipse 644" class="cls-11" cx="1.105" cy="1.105" r="1.105" transform="translate(0 3.834)"/>
        <circle id="Elipse_645" data-name="Elipse 645" class="cls-11" cx="1.105" cy="1.105" r="1.105" transform="translate(3.499)"/>
        <circle id="Elipse_646" data-name="Elipse 646" class="cls-11" cx="1.105" cy="1.105" r="1.105" transform="translate(7.13 3.834)"/>
      </g>
      <g id="Grupo_10688" data-name="Grupo 10688" transform="translate(167.19 36.289)">
        <path id="Trazado_34318" data-name="Trazado 34318" class="cls-8" d="M3771.728,415.109a.389.389,0,0,1-.058,0,.46.46,0,0,1-.4-.514,4.562,4.562,0,0,1,8.583-1.511.46.46,0,1,1-.818.42,3.642,3.642,0,0,0-6.851,1.2A.46.46,0,0,1,3771.728,415.109Z" transform="translate(-3771.267 -410.604)"/>
      </g>
      <g id="Grupo_10689" data-name="Grupo 10689" transform="translate(167.475 40.742)">
        <path id="Trazado_34319" data-name="Trazado 34319" class="cls-8" d="M3775.809,419.9a4.552,4.552,0,0,1-4.208-2.8.46.46,0,1,1,.848-.357,3.642,3.642,0,0,0,6.986-1.094.461.461,0,1,1,.918.079A4.587,4.587,0,0,1,3775.809,419.9Z" transform="translate(-3771.565 -415.231)"/>
      </g>
      <path id="Trazado_34320" data-name="Trazado 34320" class="cls-11" d="M3771.772,416.07l-.562-.974-.562-.974h2.249l-.562.974Z" transform="translate(-3604.055 -374.447)"/>
      <path id="Trazado_34321" data-name="Trazado 34321" class="cls-11" d="M3780.109,414.122l.563.974.562.974h-2.249l.563-.974Z" transform="translate(-3604.369 -374.447)"/>
      <path id="Trazado_34322" data-name="Trazado 34322" class="cls-8" d="M3776.132,412.945a2.218,2.218,0,0,1,0,4.436Z" transform="translate(-3604.262 -374.403)"/>
      <path id="Trazado_34323" data-name="Trazado 34323" class="cls-11" d="M3776.045,415.163h2.217a2.217,2.217,0,1,1-1.244-1.993Z" transform="translate(-3604.175 -374.403)"/>
      <g id="Grupo_10694" data-name="Grupo 10694" transform="translate(127.421 48.7)">
        <g id="Grupo_10690" data-name="Grupo 10690">
          <rect id="Rectángulo_8844" data-name="Rectángulo 8844" class="cls-1" width="7.954" height="0.921"/>
        </g>
        <g id="Grupo_10691" data-name="Grupo 10691" transform="translate(0 2.536)">
          <rect id="Rectángulo_8845" data-name="Rectángulo 8845" class="cls-1" width="8.51" height="0.921"/>
        </g>
        <g id="Grupo_10692" data-name="Grupo 10692" transform="translate(6.756 5.071)">
          <rect id="Rectángulo_8846" data-name="Rectángulo 8846" class="cls-1" width="4.758" height="0.921"/>
        </g>
        <g id="Grupo_10693" data-name="Grupo 10693" transform="translate(0 5.071)">
          <rect id="Rectángulo_8847" data-name="Rectángulo 8847" class="cls-1" width="4.823" height="0.921"/>
        </g>
      </g>
      <g id="Grupo_10695" data-name="Grupo 10695" transform="translate(5.742 68.055)">
        <path id="Trazado_34324" data-name="Trazado 34324" class="cls-1" d="M3607.189,444.537h-3.247a.46.46,0,1,1,0-.921h3.247a.46.46,0,0,1,0,.921Z" transform="translate(-3603.482 -443.616)"/>
      </g>
      <g id="Grupo_10696" data-name="Grupo 10696" transform="translate(5.742 70.136)">
        <path id="Trazado_34325" data-name="Trazado 34325" class="cls-1" d="M3607.189,446.7h-3.247a.46.46,0,1,1,0-.921h3.247a.46.46,0,0,1,0,.921Z" transform="translate(-3603.482 -445.779)"/>
      </g>
      <g id="Grupo_10697" data-name="Grupo 10697" transform="translate(5.742 72.217)">
        <path id="Trazado_34326" data-name="Trazado 34326" class="cls-1" d="M3607.189,448.863h-3.247a.46.46,0,1,1,0-.921h3.247a.46.46,0,0,1,0,.921Z" transform="translate(-3603.482 -447.942)"/>
      </g>
      <g id="Grupo_10698" data-name="Grupo 10698" transform="translate(152.074 12.771)">
        <path id="Trazado_34327" data-name="Trazado 34327" class="cls-8" d="M3759.676,394.4a4.117,4.117,0,1,1,4.117-4.117A4.122,4.122,0,0,1,3759.676,394.4Zm0-7.315a3.2,3.2,0,1,0,3.2,3.2A3.2,3.2,0,0,0,3759.676,387.082Z" transform="translate(-3755.558 -386.162)"/>
      </g>
      <circle id="Elipse_647" data-name="Elipse 647" class="cls-11" cx="0.417" cy="0.417" r="0.417" transform="translate(155.774 14.055)"/>
      <circle id="Elipse_648" data-name="Elipse 648" class="cls-11" cx="0.417" cy="0.417" r="0.417" transform="translate(155.774 18.886)"/>
      <circle id="Elipse_649" data-name="Elipse 649" class="cls-11" cx="0.417" cy="0.417" r="0.417" transform="translate(158.189 16.471)"/>
      <circle id="Elipse_650" data-name="Elipse 650" class="cls-11" cx="0.417" cy="0.417" r="0.417" transform="translate(153.358 16.471)"/>
      <g id="Grupo_10699" data-name="Grupo 10699" transform="translate(155.904 15.374)">
        <path id="Trazado_34328" data-name="Trazado 34328" class="cls-8" d="M3759.826,390.558a.286.286,0,0,1-.286-.286v-1.118a.286.286,0,1,1,.573,0v1.118A.286.286,0,0,1,3759.826,390.558Z" transform="translate(-3759.54 -388.867)"/>
      </g>
      <g id="Grupo_10700" data-name="Grupo 10700" transform="translate(155.904 15.374)">
        <path id="Trazado_34329" data-name="Trazado 34329" class="cls-8" d="M3759.826,390.558a.286.286,0,0,1-.286-.286v-1.118a.286.286,0,1,1,.573,0v1.118A.286.286,0,0,1,3759.826,390.558Z" transform="translate(-3759.54 -388.867)"/>
      </g>
      <g id="Grupo_10701" data-name="Grupo 10701" transform="translate(156.014 16.601)">
        <path id="Trazado_34330" data-name="Trazado 34330" class="cls-8" d="M3761.057,390.716h-1.118a.286.286,0,0,1,0-.573h1.118a.286.286,0,1,1,0,.573Z" transform="translate(-3759.653 -390.143)"/>
      </g>
      <circle id="Elipse_651" data-name="Elipse 651" class="cls-11" cx="0.57" cy="0.57" r="0.57" transform="translate(155.621 16.318)"/>
    </g>
  </g>
</svg>
