<svg xmlns="http://www.w3.org/2000/svg" xmlns:xlink="http://www.w3.org/1999/xlink" width="244" height="159.491" viewBox="0 0 244 159.491">
  <defs>
    <style>
      .cls-1, .cls-35 {
        fill: #fff;
      }

      .cls-2 {
        fill: url(#linear-gradient);
      }

      .cls-11, .cls-12, .cls-13, .cls-16, .cls-17, .cls-20, .cls-21, .cls-22, .cls-23, .cls-24, .cls-25, .cls-26, .cls-29, .cls-3, .cls-30, .cls-31, .cls-32, .cls-33, .cls-34, .cls-35, .cls-36, .cls-37, .cls-4, .cls-40, .cls-41, .cls-42, .cls-43, .cls-44, .cls-45, .cls-46, .cls-47, .cls-48, .cls-49, .cls-5, .cls-50, .cls-51, .cls-52, .cls-53, .cls-54, .cls-55, .cls-56, .cls-57, .cls-6, .cls-9 {
        fill-rule: evenodd;
      }

      .cls-3 {
        opacity: 0.63;
        mix-blend-mode: multiply;
        isolation: isolate;
      }

      .cls-10, .cls-3 {
        fill: url(#linear-gradient-2);
      }

      .cls-4 {
        fill: #146add;
      }

      .cls-5 {
        fill: url(#linear-gradient-3);
      }

      .cls-6 {
        fill: #a7bde5;
      }

      .cls-56, .cls-7 {
        fill: #4f7dd2;
      }

      .cls-8, .cls-9 {
        fill: #652e40;
      }

      .cls-11 {
        fill: #d5e2fa;
      }

      .cls-12 {
        fill: url(#linear-gradient-6);
      }

      .cls-13 {
        fill: url(#linear-gradient-7);
      }

      .cls-14 {
        fill: #a8d48d;
      }

      .cls-15, .cls-17 {
        fill: #c4ebac;
      }

      .cls-16, .cls-18 {
        fill: #9cc780;
      }

      .cls-19 {
        fill: #85a86d;
      }

      .cls-20 {
        fill: #2c2e45;
      }

      .cls-21 {
        fill: #2f252d;
      }

      .cls-22 {
        fill: #ea793f;
      }

      .cls-23 {
        fill: #773c1c;
      }

      .cls-24, .cls-27 {
        fill: #8e4b28;
      }

      .cls-25 {
        fill: #b25929;
      }

      .cls-26 {
        fill: #da6f37;
      }

      .cls-28, .cls-29 {
        fill: #ffe198;
      }

      .cls-30 {
        fill: #102652;
      }

      .cls-31 {
        fill: #f37f56;
      }

      .cls-32 {
        fill: url(#linear-gradient-8);
      }

      .cls-33 {
        fill: url(#linear-gradient-9);
      }

      .cls-34 {
        fill: #de384f;
      }

      .cls-36 {
        fill: #ff5656;
      }

      .cls-37 {
        fill: #35435b;
      }

      .cls-38 {
        fill: url(#linear-gradient-10);
      }

      .cls-39 {
        fill: #ed5448;
      }

      .cls-40 {
        fill: #792e39;
      }

      .cls-41 {
        fill: #ef664b;
      }

      .cls-42 {
        fill: #c86632;
      }

      .cls-43 {
        fill: #f59977;
      }

      .cls-44 {
        fill: #3b313a;
      }

      .cls-45 {
        fill: url(#linear-gradient-11);
      }

      .cls-46 {
        fill: url(#linear-gradient-13);
      }

      .cls-47 {
        fill: url(#linear-gradient-14);
      }

      .cls-48 {
        fill: url(#linear-gradient-15);
      }

      .cls-49 {
        fill: #a9db76;
      }

      .cls-50 {
        fill: #729d56;
      }

      .cls-51 {
        fill: url(#linear-gradient-16);
      }

      .cls-52 {
        fill: #fabf68;
      }

      .cls-53 {
        fill: #ee7126;
      }

      .cls-54 {
        fill: #e6e6e6;
      }

      .cls-55 {
        fill: #ebf1fc;
      }

      .cls-57 {
        fill: #d6e3fa;
      }
    </style>
    <linearGradient id="linear-gradient" x1="-8.4" y1="17.653" x2="-8.4" y2="19.192" gradientUnits="objectBoundingBox">
      <stop offset="0.016" stop-color="#00d6d4"/>
      <stop offset="0.997" stop-color="#07aacf"/>
    </linearGradient>
    <linearGradient id="linear-gradient-2" x1="0" y1="0.5" x2="1" y2="0.5" xlink:href="#linear-gradient"/>
    <linearGradient id="linear-gradient-3" y1="0.5" x2="1" y2="0.5" gradientUnits="objectBoundingBox">
      <stop offset="0" stop-color="#468ff2"/>
      <stop offset="1" stop-color="#1e70e1"/>
    </linearGradient>
    <linearGradient id="linear-gradient-6" y1="0.5" x2="1" y2="0.5" gradientUnits="objectBoundingBox">
      <stop offset="0" stop-color="#f6b048"/>
      <stop offset="1" stop-color="#eb9a22"/>
    </linearGradient>
    <linearGradient id="linear-gradient-7" y1="0.5" x2="1" y2="0.5" gradientUnits="objectBoundingBox">
      <stop offset="0" stop-color="#fa9796"/>
      <stop offset="1" stop-color="#f83f45"/>
    </linearGradient>
    <linearGradient id="linear-gradient-8" x1="0.5" y1="0.84" x2="0.5" y2="-0.108" gradientUnits="objectBoundingBox">
      <stop offset="0" stop-color="#f8a695"/>
      <stop offset="1" stop-color="#e97057"/>
    </linearGradient>
    <linearGradient id="linear-gradient-9" x1="0.5" y1="0.843" x2="0.5" y2="-0.077" gradientUnits="objectBoundingBox">
      <stop offset="0" stop-color="#ff7e67"/>
      <stop offset="1" stop-color="#e55639"/>
    </linearGradient>
    <linearGradient id="linear-gradient-10" x1="0.5" y1="3.783" x2="0.5" y2="-2.162" xlink:href="#linear-gradient-8"/>
    <linearGradient id="linear-gradient-11" y1="0.5" x2="1" y2="0.5" gradientUnits="objectBoundingBox">
      <stop offset="0" stop-color="#fa6a6c"/>
      <stop offset="1" stop-color="#cb2624"/>
    </linearGradient>
    <linearGradient id="linear-gradient-13" y1="0.5" x2="1" y2="0.5" gradientUnits="objectBoundingBox">
      <stop offset="0.007" stop-color="#fcc0b8"/>
      <stop offset="1" stop-color="#f06e62"/>
    </linearGradient>
    <linearGradient id="linear-gradient-14" x1="0.539" y1="0.5" x2="1.005" y2="0.5" gradientUnits="objectBoundingBox">
      <stop offset="0" stop-color="#81b34f"/>
      <stop offset="1" stop-color="#719c56"/>
    </linearGradient>
    <linearGradient id="linear-gradient-15" x1="0.037" y1="0.5" x2="1.163" y2="0.5" gradientUnits="objectBoundingBox">
      <stop offset="0" stop-color="#a8e07c"/>
      <stop offset="0.415" stop-color="#95cc5f"/>
      <stop offset="1" stop-color="#81b34f"/>
    </linearGradient>
    <linearGradient id="linear-gradient-16" y1="0.5" x2="1" y2="0.5" gradientUnits="objectBoundingBox">
      <stop offset="0" stop-color="#faa951"/>
      <stop offset="1" stop-color="#e85d17"/>
    </linearGradient>
  </defs>
  <g id="tarjeta-memorama-02" transform="translate(8476.631 -14532.289)">
    <g id="Grupo_7671" data-name="Grupo 7671" transform="translate(-8476.631 14532.289)">
      <g id="Grupo_7670" data-name="Grupo 7670" transform="translate(0 0)">
        <path id="Trazado_32403" data-name="Trazado 32403" class="cls-1" d="M3278.827,352.794c-.878.529-1.638.987-1.638,1.867s.759,1.337,1.639,1.867c.945.57,2.017,1.215,2.017,2.537s-1.071,1.968-2.017,2.538c-.879.529-1.638.987-1.638,1.867s.759,1.337,1.639,1.867c.945.57,2.017,1.215,2.017,2.537s-1.071,1.968-2.017,2.537c-.879.53-1.638.987-1.638,1.867s.759,1.338,1.639,1.867c.945.57,2.017,1.214,2.017,2.537s-1.071,1.968-2.017,2.537c-.879.529-1.638.986-1.638,1.867s.759,1.337,1.639,1.866c.945.57,2.017,1.215,2.017,2.537s-1.071,1.969-2.017,2.538c-.879.53-1.638.987-1.638,1.867s.759,1.337,1.639,1.867c.945.57,2.017,1.215,2.017,2.537s-1.071,1.969-2.017,2.538c-.879.529-1.638.987-1.638,1.867s.759,1.337,1.638,1.867c.945.57,2.017,1.215,2.017,2.537s-1.071,1.969-2.017,2.538c-.878.53-1.637.987-1.637,1.868s.759,1.337,1.638,1.867c.945.569,2.017,1.214,2.017,2.536s-1.071,1.969-2.017,2.539c-.878.529-1.637.987-1.637,1.867s.759,1.338,1.638,1.868c.945.57,2.017,1.215,2.017,2.538s-1.071,1.969-2.017,2.538c-.878.53-1.638.988-1.638,1.868s.759,1.338,1.638,1.868c.946.571,2.018,1.216,2.018,2.539h-.017c-.007,1.314-1.074,1.959-2.016,2.527-.879.529-1.637.986-1.637,1.867s.759,1.337,1.637,1.866c.946.57,2.018,1.215,2.018,2.538s-1.072,1.968-2.017,2.537c-.879.53-1.638.987-1.637,1.868s.759,1.337,1.637,1.866c.946.57,2.018,1.215,2.018,2.537s-1.072,1.969-2.017,2.538c-.879.529-1.638.987-1.638,1.867s.759,1.337,1.638,1.866c.946.57,2.018,1.215,2.018,2.537s-1.072,1.968-2.017,2.537c-.879.53-1.639.987-1.639,1.867s.759,1.337,1.639,1.867c.946.57,2.017,1.215,2.018,2.537s-1.072,1.968-2.017,2.538c-.879.529-1.639.987-1.639,1.867s.759,1.337,1.639,1.867c.946.57,2.017,1.215,2.017,2.537s-1.071,1.968-2.017,2.538c-.878.529-1.638.986-1.638,1.867s.759,1.337,1.639,1.867c.946.57,2.017,1.214,2.018,2.537s-1.072,1.969-2.017,2.538c-.88.529-1.639.987-1.639,1.867s.759,1.337,1.639,1.867c.946.57,2.017,1.215,2.018,2.537s-1.072,1.969-2.017,2.538c-.879.53-1.639.987-1.639,1.868s.759,1.337,1.639,1.868c.946.57,2.017,1.215,2.017,2.537s-1.071,1.969-2.017,2.539c-.878.53-1.638.987-1.638,1.868s.759,1.337,1.639,1.868a4.347,4.347,0,0,1,1.8,1.605l235.529-.925a4.343,4.343,0,0,1,1.8-1.611c.879-.53,1.639-.987,1.639-1.868s-.759-1.337-1.638-1.868c-.946-.571-2.017-1.216-2.017-2.539s1.072-1.968,2.017-2.538c.88-.529,1.639-.986,1.639-1.867s-.759-1.337-1.638-1.868c-.946-.57-2.017-1.215-2.017-2.538s1.072-1.968,2.017-2.537c.88-.529,1.639-.986,1.639-1.867s-.759-1.337-1.638-1.867c-.946-.57-2.017-1.216-2.017-2.538s1.072-1.968,2.017-2.537c.88-.53,1.639-.987,1.639-1.867s-.759-1.337-1.638-1.867c-.946-.571-2.017-1.216-2.017-2.538s1.072-1.968,2.017-2.537c.879-.53,1.639-.987,1.639-1.867s-.759-1.337-1.638-1.867c-.946-.571-2.017-1.216-2.017-2.538s1.072-1.968,2.017-2.537c.879-.529,1.639-.986,1.639-1.867s-.759-1.337-1.638-1.867c-.946-.57-2.017-1.215-2.017-2.537s1.072-1.968,2.017-2.537c.88-.529,1.639-.986,1.639-1.866s-.759-1.338-1.638-1.867c-.946-.57-2.017-1.215-2.017-2.538s1.072-1.968,2.017-2.537c.88-.529,1.639-.986,1.639-1.866s-.759-1.337-1.638-1.868c-.946-.57-2.017-1.215-2.017-2.537s1.071-1.969,2.017-2.538c.879-.529,1.639-.986,1.639-1.866s-.759-1.337-1.638-1.867c-.943-.568-2.01-1.212-2.016-2.527h0V428.6h0c.006-1.315,1.073-1.959,2.016-2.528.879-.529,1.639-.987,1.639-1.868s-.759-1.337-1.638-1.868c-.946-.57-2.018-1.216-2.017-2.538s1.071-1.969,2.017-2.538c.879-.529,1.638-.987,1.639-1.868s-.759-1.337-1.639-1.867c-.945-.571-2.017-1.216-2.017-2.539s1.072-1.968,2.018-2.537c.879-.529,1.638-.986,1.638-1.866s-.759-1.337-1.638-1.868c-.945-.57-2.017-1.215-2.017-2.538s1.072-1.968,2.018-2.537c.879-.529,1.638-.987,1.638-1.867s-.759-1.338-1.637-1.867c-.946-.57-2.018-1.215-2.018-2.538s1.072-1.968,2.018-2.537c.879-.529,1.637-.986,1.638-1.867s-.759-1.338-1.638-1.867c-.945-.57-2.017-1.215-2.017-2.538s1.072-1.968,2.018-2.537c.879-.529,1.638-.986,1.639-1.866s-.759-1.338-1.639-1.867c-.945-.57-2.017-1.215-2.017-2.538s1.072-1.967,2.018-2.536c.879-.529,1.638-.987,1.638-1.867s-.758-1.337-1.638-1.867c-.945-.57-2.017-1.215-2.017-2.537s1.072-1.968,2.018-2.537c.879-.53,1.638-.987,1.638-1.867s-.758-1.337-1.638-1.867c-.945-.571-2.017-1.216-2.017-2.538s1.072-1.968,2.018-2.537c.879-.53,1.638-.987,1.638-1.867s-.758-1.337-1.638-1.867a4.368,4.368,0,0,1-1.8-1.6l-235.551.925A4.346,4.346,0,0,1,3278.827,352.794Z" transform="translate(-3276.4 -349.326)"/>
        <path id="Trazado_32404" data-name="Trazado 32404" d="M3280.813,350.219h-.783c0,.879-.758,1.337-1.638,1.867-.945.57-2.017,1.215-2.017,2.537s1.072,1.968,2.018,2.537c.879.529,1.638.987,1.638,1.867s-.758,1.337-1.638,1.867c-.945.571-2.017,1.216-2.017,2.538s1.072,1.968,2.018,2.537c.878.529,1.638.986,1.638,1.867s-.758,1.337-1.638,1.867c-.945.57-2.017,1.215-2.017,2.537s1.072,1.968,2.018,2.537c.878.529,1.638.986,1.638,1.867s-.759,1.337-1.638,1.866c-.945.57-2.017,1.215-2.017,2.538s1.072,1.968,2.018,2.537c.878.529,1.637.986,1.637,1.866s-.758,1.337-1.637,1.868c-.946.57-2.017,1.215-2.017,2.537s1.072,1.969,2.017,2.538c.879.529,1.638.986,1.638,1.866s-.759,1.337-1.637,1.868c-.946.57-2.017,1.215-2.017,2.537s1.072,1.968,2.017,2.537c.879.53,1.638.987,1.638,1.867s-.759,1.337-1.638,1.868c-.946.57-2.017,1.216-2.017,2.538s1.072,1.968,2.018,2.537c.879.529,1.638.986,1.638,1.866s-.759,1.338-1.638,1.868c-.946.571-2.017,1.216-2.017,2.539s1.072,1.968,2.017,2.537c.88.53,1.639.987,1.639,1.868s-.759,1.337-1.638,1.868c-.946.571-2.017,1.216-2.017,2.538s1.072,1.969,2.017,2.538c.875.528,1.631.984,1.638,1.857h-.014c0,.88-.759,1.337-1.638,1.868-.946.569-2.018,1.215-2.017,2.537s1.072,1.968,2.017,2.537c.879.529,1.639.986,1.639,1.867s-.759,1.338-1.638,1.867c-.946.57-2.018,1.215-2.017,2.538s1.071,1.968,2.017,2.537c.879.529,1.639.986,1.639,1.867s-.759,1.337-1.639,1.867c-.945.57-2.017,1.215-2.016,2.537s1.071,1.968,2.017,2.537c.88.529,1.639.986,1.639,1.866s-.759,1.337-1.639,1.867c-.945.57-2.017,1.215-2.017,2.537s1.072,1.969,2.018,2.537c.88.53,1.638.987,1.639,1.867s-.759,1.337-1.639,1.867c-.945.571-2.017,1.216-2.017,2.538s1.072,1.968,2.018,2.537c.879.529,1.638.987,1.639,1.867s-.759,1.337-1.639,1.867c-.945.57-2.017,1.215-2.017,2.538s1.072,1.968,2.018,2.537c.879.529,1.638.987,1.638,1.867s-.758,1.337-1.638,1.868c-.945.57-2.017,1.215-2.017,2.538s1.072,1.968,2.018,2.537c.879.529,1.638.986,1.638,1.866s-.758,1.338-1.638,1.868c-.945.57-2.017,1.216-2.017,2.538s1.072,1.969,2.018,2.538c.88.529,1.638.987,1.638,1.868s-.758,1.337-1.638,1.868c-.945.57-2.017,1.216-2.017,2.538s1.072,1.969,2.018,2.538c.879.53,1.638.987,1.638,1.868h.783v0l235.482-.925v0h.4c0-.88.759-1.337,1.638-1.868.945-.57,2.017-1.215,2.017-2.538s-1.071-1.969-2.017-2.538c-.878-.53-1.637-.988-1.637-1.868s.759-1.338,1.638-1.868c.945-.57,2.017-1.215,2.017-2.538s-1.071-1.969-2.017-2.538c-.878-.53-1.638-.987-1.638-1.868s.759-1.337,1.638-1.866c.946-.57,2.018-1.215,2.018-2.537s-1.071-1.969-2.017-2.539c-.879-.529-1.638-.986-1.638-1.867s.759-1.337,1.639-1.867c.945-.57,2.017-1.215,2.017-2.537s-1.072-1.969-2.017-2.538c-.879-.529-1.638-.987-1.638-1.867s.759-1.337,1.638-1.867c.946-.57,2.018-1.215,2.018-2.537s-1.071-1.968-2.017-2.538c-.88-.529-1.638-.987-1.638-1.867s.759-1.337,1.638-1.867c.946-.57,2.018-1.215,2.018-2.537s-1.072-1.968-2.017-2.537c-.879-.529-1.638-.987-1.638-1.867s.759-1.337,1.638-1.866c.946-.57,2.018-1.215,2.018-2.537s-1.072-1.968-2.017-2.538c-.879-.529-1.638-.986-1.638-1.867s.759-1.337,1.638-1.866c.946-.57,2.018-1.215,2.018-2.537s-1.072-1.969-2.017-2.538c-.879-.529-1.639-.987-1.638-1.867s.759-1.337,1.638-1.867c.946-.57,2.018-1.215,2.018-2.537s-1.072-1.969-2.017-2.538c-.879-.529-1.638-.986-1.638-1.866s.761-1.33,1.637-1.858c.946-.57,2.018-1.215,2.018-2.538s-1.072-1.968-2.017-2.538c-.88-.53-1.639-.987-1.638-1.868s.758-1.337,1.638-1.868c.946-.57,2.018-1.215,2.018-2.538s-1.072-1.968-2.017-2.538c-.88-.529-1.639-.987-1.639-1.868s.759-1.337,1.639-1.866c.946-.57,2.018-1.215,2.018-2.537s-1.072-1.969-2.017-2.538c-.88-.53-1.639-.987-1.639-1.868s.759-1.337,1.639-1.867c.946-.57,2.017-1.215,2.018-2.537s-1.072-1.968-2.017-2.538c-.88-.529-1.639-.986-1.639-1.867s.759-1.337,1.639-1.867c.946-.569,2.017-1.214,2.018-2.537s-1.072-1.968-2.017-2.537c-.879-.53-1.638-.987-1.638-1.868s.759-1.337,1.638-1.866c.946-.57,2.017-1.215,2.017-2.537s-1.071-1.969-2.016-2.538c-.879-.529-1.638-.986-1.638-1.866s.759-1.337,1.638-1.867c.945-.57,2.017-1.215,2.017-2.537s-1.071-1.968-2.017-2.537c-.878-.53-1.637-.987-1.637-1.867s.759-1.337,1.639-1.867c.946-.57,2.017-1.215,2.017-2.537s-1.071-1.968-2.017-2.538c-.879-.529-1.638-.987-1.638-1.867s.759-1.337,1.639-1.867c.945-.57,2.017-1.215,2.017-2.537s-1.071-1.968-2.017-2.537c-.879-.53-1.638-.987-1.638-1.867h-.783v.008Zm237.134,1.607c.88.529,1.638.987,1.638,1.867s-.759,1.337-1.638,1.867c-.946.57-2.018,1.214-2.018,2.537s1.072,1.968,2.017,2.538c.88.529,1.639.987,1.638,1.867s-.759,1.337-1.638,1.867c-.946.57-2.018,1.215-2.018,2.537s1.072,1.968,2.017,2.537c.88.53,1.639.987,1.638,1.867s-.759,1.337-1.638,1.867c-.946.57-2.018,1.214-2.018,2.536s1.072,1.969,2.017,2.538c.88.529,1.639.986,1.639,1.867s-.76,1.337-1.639,1.866c-.946.57-2.018,1.215-2.018,2.537s1.072,1.969,2.017,2.538c.879.529,1.638.987,1.638,1.867s-.759,1.337-1.638,1.867c-.946.57-2.017,1.215-2.018,2.537s1.072,1.969,2.018,2.538c.878.529,1.637.986,1.637,1.867s-.759,1.338-1.638,1.867c-.946.57-2.017,1.215-2.018,2.537s1.072,1.969,2.017,2.538c.879.53,1.638.987,1.638,1.868s-.759,1.337-1.638,1.866c-.946.57-2.017,1.215-2.018,2.537s1.072,1.969,2.017,2.539c.879.529,1.639.987,1.639,1.867s-.759,1.338-1.639,1.868c-.946.57-2.017,1.215-2.017,2.538s1.071,1.969,2.017,2.538c.878.53,1.638.987,1.638,1.868s-.759,1.338-1.639,1.868c-.943.569-2.01,1.212-2.016,2.528h0v.011h0c.006,1.314,1.073,1.959,2.016,2.527.878.529,1.638.986,1.638,1.867s-.759,1.337-1.639,1.866c-.946.57-2.017,1.215-2.017,2.538s1.071,1.968,2.017,2.537c.878.53,1.638.987,1.638,1.868s-.759,1.337-1.639,1.866c-.945.57-2.017,1.215-2.017,2.537s1.071,1.969,2.017,2.538c.879.529,1.638.987,1.638,1.867s-.759,1.337-1.639,1.866c-.945.57-2.017,1.215-2.017,2.537s1.071,1.968,2.017,2.537c.879.53,1.638.987,1.638,1.867s-.759,1.338-1.639,1.867c-.945.57-2.017,1.215-2.017,2.537s1.071,1.968,2.017,2.538c.878.529,1.638.987,1.638,1.867s-.759,1.337-1.639,1.867c-.945.57-2.017,1.215-2.017,2.537s1.071,1.968,2.017,2.538c.879.529,1.638.986,1.638,1.867s-.759,1.337-1.639,1.867c-.945.57-2.017,1.214-2.017,2.537s1.071,1.969,2.017,2.538c.879.529,1.638.987,1.638,1.867s-.759,1.337-1.639,1.867c-.945.57-2.017,1.215-2.017,2.537s1.071,1.969,2.017,2.538c.879.53,1.638.987,1.638,1.868s-.759,1.338-1.639,1.867c-.945.571-2.017,1.216-2.017,2.538s1.071,1.969,2.017,2.539c.878.53,1.638.987,1.638,1.868s-.759,1.338-1.639,1.868a4.343,4.343,0,0,0-1.8,1.611l-235.529.925a4.347,4.347,0,0,0-1.8-1.605c-.879-.53-1.639-.987-1.639-1.868s.759-1.337,1.638-1.868c.946-.571,2.018-1.216,2.017-2.539s-1.071-1.968-2.017-2.537c-.879-.53-1.639-.987-1.639-1.868s.759-1.337,1.639-1.868c.945-.57,2.017-1.215,2.017-2.538s-1.072-1.968-2.018-2.537c-.88-.529-1.639-.986-1.639-1.867s.759-1.338,1.639-1.867c.945-.57,2.017-1.216,2.017-2.538s-1.072-1.968-2.018-2.537c-.879-.53-1.639-.987-1.639-1.867s.759-1.338,1.638-1.867c.946-.571,2.018-1.216,2.017-2.538s-1.071-1.968-2.017-2.537c-.879-.529-1.638-.987-1.639-1.867s.759-1.338,1.639-1.867c.945-.571,2.017-1.216,2.017-2.538s-1.072-1.968-2.018-2.537c-.879-.529-1.638-.986-1.639-1.867s.759-1.337,1.639-1.867c.945-.57,2.017-1.215,2.017-2.537s-1.072-1.968-2.018-2.537c-.878-.529-1.638-.986-1.638-1.866s.758-1.337,1.638-1.867c.945-.57,2.017-1.215,2.017-2.538s-1.072-1.968-2.018-2.537c-.878-.529-1.637-.986-1.637-1.866s.758-1.338,1.637-1.868c.945-.57,2.017-1.215,2.017-2.537s-1.072-1.969-2.018-2.538c-.878-.529-1.637-.986-1.637-1.866s.758-1.338,1.637-1.867c.942-.568,2.009-1.212,2.016-2.527h.017c0-1.323-1.072-1.969-2.018-2.539-.878-.529-1.638-.987-1.638-1.868s.759-1.338,1.638-1.868c.946-.57,2.017-1.216,2.017-2.538s-1.072-1.969-2.017-2.538c-.879-.529-1.638-.987-1.638-1.868s.759-1.337,1.637-1.867c.946-.571,2.017-1.216,2.017-2.539s-1.072-1.968-2.017-2.536c-.879-.53-1.638-.987-1.638-1.867s.759-1.337,1.637-1.868c.946-.57,2.017-1.215,2.017-2.538s-1.072-1.968-2.017-2.537c-.879-.529-1.638-.987-1.638-1.867s.759-1.338,1.638-1.867c.946-.57,2.017-1.215,2.017-2.538s-1.072-1.968-2.017-2.537c-.88-.529-1.639-.986-1.639-1.867s.759-1.337,1.638-1.867c.946-.57,2.017-1.215,2.017-2.538s-1.072-1.968-2.017-2.537c-.88-.529-1.639-.986-1.639-1.866s.759-1.337,1.638-1.867c.946-.57,2.017-1.215,2.017-2.537s-1.072-1.968-2.017-2.537c-.88-.529-1.639-.987-1.639-1.867s.759-1.337,1.638-1.867c.946-.57,2.017-1.215,2.017-2.537s-1.072-1.968-2.017-2.537c-.88-.529-1.639-.987-1.639-1.867s.759-1.338,1.638-1.867c.946-.571,2.018-1.216,2.017-2.538s-1.072-1.968-2.017-2.537c-.879-.53-1.639-.987-1.639-1.867s.759-1.338,1.638-1.867a4.346,4.346,0,0,0,1.8-1.606l235.551-.925A4.368,4.368,0,0,0,3517.948,351.826Z" transform="translate(-3276.369 -349.289)"/>
      </g>
      <rect id="Rectángulo_7595" data-name="Rectángulo 7595" class="cls-2" width="220.475" height="140.472" transform="translate(11.762 9.51)"/>
      <path id="Trazado_32405" data-name="Trazado 32405" d="M3509.515,358.689v141.4h-221.4v-141.4Zm-.93,140.471V359.618H3289.04V499.16Z" transform="translate(-3276.812 -349.644)"/>
    </g>
    <g id="Grupo_10438" data-name="Grupo 10438" transform="translate(-8436.491 14552.702)">
      <path id="Trazado_33484" data-name="Trazado 33484" class="cls-3" d="M3325.535,412.618c8.622-11.394,21.417-20.7,42.119-27.842,28.919-9.972,71.746-9.816,89.592,6.961,27.241,25.606,16.956,70.675-7.139,84.953-16.775,0-79.955,6.068-91.2,2.677s.714-28.2-16.777-29.805S3315.54,425.825,3325.535,412.618Z" transform="translate(-3318.209 -370.788)"/>
      <path id="Trazado_33485" data-name="Trazado 33485" class="cls-4" d="M3343.968,398.717h2.609v19.477l.522-1.041V413.5l1.364-2.72h2.179v10.14l.317-.633V408.226l2.316-4.618h0l1.788,3.565h1.037v-1.906h3.531v-6.278h6.4v17.483h1.193v-10.4l1.154-2.3h0l2.306,4.6v4.1l2.121-4.227h0l2.516,5.017v20.966H3356.1V416.742h-.509v22.8h-20.866v-12.7l1.045-2.085v-4.2l1.751-3.489h1.75v5.064h.338v-.47l1.664-3.316h.087V403.918l2.609-5.2Zm17.927-8.432h.261l.261.52v3.021h.937v1.885h-2.4v-1.885h.937v-3.541Zm-1.083,6.133h4.144V398.3h-4.144Z" transform="translate(-3318.713 -371.25)"/>
      <path id="Trazado_33486" data-name="Trazado 33486" class="cls-5" d="M3408.321,411.252l-1.96,1.131a6.157,6.157,0,0,1,8.362,2.26h0a6.156,6.156,0,0,1-2.235,8.378l18.353-10.6a6.156,6.156,0,0,1,8.385,2.247h0a6.156,6.156,0,0,1-2.247,8.385l-6.776,3.912a6.156,6.156,0,0,1,8.385,2.246h0a6.156,6.156,0,0,1-2.247,8.385l-47.363,27.345a6.156,6.156,0,0,0,2.246-8.385h0a6.156,6.156,0,0,0-8.38-2.25l-18.036,10.414a6.156,6.156,0,0,1-8.385-2.247h0a6.154,6.154,0,0,1,2.247-8.384l6.454-3.726a6.156,6.156,0,0,0,2.237-8.379h0a6.156,6.156,0,0,0-8.367-2.256h0l-15.389,8.884-7.453,4.3a6.155,6.155,0,0,1-8.385-2.246h0a6.155,6.155,0,0,1,2.248-8.384l7.445-4.3.01,0,64.717-37.364,7.454-4.3a6.156,6.156,0,0,1,8.385,2.247h0a6.155,6.155,0,0,1-2.247,8.385l-7.442,4.3-.013.008Zm21.881,15.717-47.359,27.342,0,0Z" transform="translate(-3318.419 -371.447)"/>
      <path id="Trazado_33487" data-name="Trazado 33487" class="cls-6" d="M3453.866,444.3l-56.579,32.667a6.156,6.156,0,0,1-8.385-2.247h0a6.155,6.155,0,0,1,2.248-8.384l62.717-36.211Z" transform="translate(-3320.728 -372.755)"/>
      <rect id="Rectángulo_8737" data-name="Rectángulo 8737" class="cls-7" width="3.82" height="1.524" rx="0.762" transform="translate(40.602 72.028)"/>
      <rect id="Rectángulo_8738" data-name="Rectángulo 8738" class="cls-8" width="10.747" height="10.652" rx="3.793" transform="translate(56.074 15.775)"/>
      <path id="Trazado_33488" data-name="Trazado 33488" class="cls-9" d="M3376.5,388.792a.946.946,0,1,1-.946.947A.947.947,0,0,1,3376.5,388.792Z" transform="translate(-3320.255 -371.194)"/>
      <path id="Trazado_33489" data-name="Trazado 33489" class="cls-9" d="M3377.436,387.426a.946.946,0,1,1-.946.946A.946.946,0,0,1,3377.436,387.426Z" transform="translate(-3320.29 -371.142)"/>
      <circle id="Elipse_618" data-name="Elipse 618" class="cls-10" cx="33.83" cy="33.83" r="33.83" transform="translate(74.073 20.478)"/>
      <path id="Trazado_33490" data-name="Trazado 33490" class="cls-5" d="M3454.982,425.931a25.771,25.771,0,1,1-25.771-25.771v9.055a16.717,16.717,0,1,0,16.717,16.717Z" transform="translate(-3321.308 -371.623)"/>
      <path id="Trazado_33491" data-name="Trazado 33491" class="cls-11" d="M3452.168,426.081a21.946,21.946,0,0,0-21.946-21.946v21.946Z" transform="translate(-3322.32 -371.773)"/>
      <path id="Trazado_33492" data-name="Trazado 33492" class="cls-12" d="M3442.269,439.89h0a18.308,18.308,0,1,1,0-25.892l-12.945,12.946Z" transform="translate(-3321.594 -371.944)"/>
      <path id="Trazado_33493" data-name="Trazado 33493" class="cls-13" d="M3419.089,411.972A18.314,18.314,0,0,1,3442.572,414l-11.709,11.71c-2.177.124-3.752.19-3.752.19Z" transform="translate(-3321.899 -371.944)"/>
      <rect id="Rectángulo_8739" data-name="Rectángulo 8739" class="cls-14" width="5.695" height="10.642" transform="translate(66.761 8.857) rotate(-60)"/>
      <g id="Grupo_10430" data-name="Grupo 10430" transform="translate(67.343 4.261)">
        <rect id="Rectángulo_8740" data-name="Rectángulo 8740" class="cls-15" width="0.523" height="9.297" transform="translate(2.586 0.453) rotate(-59.99)"/>
        <rect id="Rectángulo_8741" data-name="Rectángulo 8741" class="cls-15" width="0.523" height="9.297" transform="translate(0 4.933) rotate(-59.999)"/>
      </g>
      <g id="Grupo_10431" data-name="Grupo 10431" transform="translate(70.257 6.722)">
        <path id="Trazado_33494" data-name="Trazado 33494" class="cls-16" d="M3394.169,377.763a2.047,2.047,0,1,1-2.8.75A2.047,2.047,0,0,1,3394.169,377.763Z" transform="translate(-3391.098 -377.489)"/>
        <path id="Trazado_33495" data-name="Trazado 33495" class="cls-17" d="M3393.843,378.372l.008,0a.684.684,0,0,1,.25.931l-.021.036h0a.126.126,0,0,1,.046.172l-.037.065a.126.126,0,0,1-.172.046h0l-.021.036a.684.684,0,0,1-.66.337l-.127.219.151.088a.677.677,0,0,1,.247.923l-.073.127a1.832,1.832,0,0,1-1.983-1.1l.094-.164a.678.678,0,0,1,.923-.247l.15.088.127-.219a.684.684,0,0,1-.039-.74l.021-.037h0a.127.127,0,0,1-.046-.172l.039-.066a.127.127,0,0,1,.172-.046h0l.021-.037A.684.684,0,0,1,3393.843,378.372Z" transform="translate(-3391.112 -377.519)"/>
      </g>
      <path id="Trazado_33496" data-name="Trazado 33496" class="cls-17" d="M3390.732,377.447a.623.623,0,1,1-.853.228A.624.624,0,0,1,3390.732,377.447Z" transform="translate(-3320.793 -370.762)"/>
      <path id="Trazado_33497" data-name="Trazado 33497" class="cls-17" d="M3396.643,380.859a.624.624,0,1,1-.852.229A.624.624,0,0,1,3396.643,380.859Z" transform="translate(-3321.016 -370.891)"/>
      <rect id="Rectángulo_8742" data-name="Rectángulo 8742" class="cls-15" width="0.582" height="1.829" transform="matrix(0.5, -0.866, 0.866, 0.5, 74.236, 11.961)"/>
      <rect id="Rectángulo_8743" data-name="Rectángulo 8743" class="cls-18" width="0.333" height="3.055" transform="matrix(0.5, -0.866, 0.866, 0.5, 74.733, 8.648)"/>
      <rect id="Rectángulo_8744" data-name="Rectángulo 8744" class="cls-18" width="0.332" height="1.185" transform="matrix(0.5, -0.866, 0.866, 0.5, 75.273, 9.584)"/>
      <rect id="Rectángulo_8745" data-name="Rectángulo 8745" class="cls-19" width="0.945" height="1.829" transform="translate(67.196 9.108) rotate(-59.995)"/>
      <rect id="Rectángulo_8746" data-name="Rectángulo 8746" class="cls-19" width="0.945" height="1.829" transform="translate(69.57 4.995) rotate(-60.005)"/>
      <rect id="Rectángulo_8747" data-name="Rectángulo 8747" class="cls-14" width="5.695" height="10.642" transform="translate(70.401 3.192) rotate(-29.869)"/>
      <g id="Grupo_10432" data-name="Grupo 10432" transform="translate(70.736 0.939)">
        <rect id="Rectángulo_8748" data-name="Rectángulo 8748" class="cls-15" width="0.523" height="9.297" transform="matrix(0.867, -0.498, 0.498, 0.867, 4.484, 0.26)"/>
        <rect id="Rectángulo_8749" data-name="Rectángulo 8749" class="cls-15" width="0.523" height="9.297" transform="translate(0 2.835) rotate(-29.853)"/>
      </g>
      <g id="Grupo_10433" data-name="Grupo 10433" transform="translate(73.191 3.852)">
        <path id="Trazado_33498" data-name="Trazado 33498" class="cls-16" d="M3397.971,375.534a2.048,2.048,0,1,1-2.794-.755A2.047,2.047,0,0,1,3397.971,375.534Z" transform="translate(-3394.148 -374.506)"/>
        <path id="Trazado_33499" data-name="Trazado 33499" class="cls-17" d="M3397.4,375.9l0,.008a.683.683,0,0,1-.251.93l-.037.021h0a.127.127,0,0,1-.046.172l-.067.038a.127.127,0,0,1-.172-.046h0l-.037.02a.684.684,0,0,1-.74-.039l-.219.126.087.151a.677.677,0,0,1-.249.922l-.128.073a1.827,1.827,0,0,1-1.163-1.944l.163-.094a.679.679,0,0,1,.923.249l.086.151.219-.126a.684.684,0,0,1,.339-.659l.035-.02h0a.127.127,0,0,1,.046-.172l.066-.038a.125.125,0,0,1,.171.046h0l.035-.021A.685.685,0,0,1,3397.4,375.9Z" transform="translate(-3394.156 -374.546)"/>
      </g>
      <path id="Trazado_33500" data-name="Trazado 33500" class="cls-17" d="M3395.192,373.514a.623.623,0,1,1-.851-.23A.622.622,0,0,1,3395.192,373.514Z" transform="translate(-3320.952 -370.605)"/>
      <path id="Trazado_33501" data-name="Trazado 33501" class="cls-17" d="M3398.592,379.433a.623.623,0,1,1-.852-.23A.623.623,0,0,1,3398.592,379.433Z" transform="translate(-3321.081 -370.829)"/>
      <rect id="Rectángulo_8750" data-name="Rectángulo 8750" class="cls-15" width="0.582" height="1.829" transform="translate(75.307 9.63) rotate(-29.872)"/>
      <rect id="Rectángulo_8751" data-name="Rectángulo 8751" class="cls-18" width="0.333" height="3.055" transform="matrix(0.867, -0.498, 0.498, 0.867, 77.4, 7.014)"/>
      <rect id="Rectángulo_8752" data-name="Rectángulo 8752" class="cls-18" width="0.332" height="1.185" transform="translate(77.397 8.094) rotate(-29.867)"/>
      <rect id="Rectángulo_8753" data-name="Rectángulo 8753" class="cls-19" width="0.945" height="1.829" transform="translate(70.65 3.628) rotate(-29.871)"/>
      <rect id="Rectángulo_8754" data-name="Rectángulo 8754" class="cls-19" width="0.945" height="1.829" transform="translate(74.769 1.262) rotate(-29.867)"/>
      <rect id="Rectángulo_8755" data-name="Rectángulo 8755" class="cls-14" width="5.695" height="10.642" transform="translate(76.449 0.481) rotate(-4.841)"/>
      <g id="Grupo_10434" data-name="Grupo 10434" transform="translate(76.506 0.67)">
        <rect id="Rectángulo_8756" data-name="Rectángulo 8756" class="cls-15" width="0.523" height="9.297" transform="translate(5.154 0.044) rotate(-4.841)"/>
        <rect id="Rectángulo_8757" data-name="Rectángulo 8757" class="cls-15" width="0.523" height="9.297" transform="matrix(0.996, -0.084, 0.084, 0.996, 0, 0.481)"/>
      </g>
      <g id="Grupo_10435" data-name="Grupo 10435" transform="translate(77.641 2.933)">
        <path id="Trazado_33502" data-name="Trazado 33502" class="cls-16" d="M3402.86,375.425a2.047,2.047,0,1,1-2.213-1.867A2.048,2.048,0,0,1,3402.86,375.425Z" transform="translate(-3398.772 -373.551)"/>
        <path id="Trazado_33503" data-name="Trazado 33503" class="cls-17" d="M3402.2,375.518v.009a.684.684,0,0,1-.622.737l-.041,0h0a.127.127,0,0,1-.115.137l-.075.007a.127.127,0,0,1-.137-.115h0l-.042,0a.684.684,0,0,1-.653-.349l-.252.021.014.173a.678.678,0,0,1-.616.73l-.147.013a1.83,1.83,0,0,1-.232-2.255l.188-.015a.678.678,0,0,1,.73.616l.014.173.252-.021a.684.684,0,0,1,.586-.454l.041,0h0a.128.128,0,0,1,.115-.137l.076-.007a.126.126,0,0,1,.135.115h0l.041,0A.684.684,0,0,1,3402.2,375.518Z" transform="translate(-3398.781 -373.591)"/>
      </g>
      <path id="Trazado_33504" data-name="Trazado 33504" class="cls-17" d="M3401.225,372.4a.623.623,0,1,1-.674-.569A.623.623,0,0,1,3401.225,372.4Z" transform="translate(-3321.177 -370.553)"/>
      <path id="Trazado_33505" data-name="Trazado 33505" class="cls-17" d="M3401.8,379.2a.624.624,0,1,1-.675-.569A.624.624,0,0,1,3401.8,379.2Z" transform="translate(-3321.199 -370.81)"/>
      <rect id="Rectángulo_8758" data-name="Rectángulo 8758" class="cls-15" width="0.582" height="1.829" transform="translate(78.172 8.389) rotate(-4.846)"/>
      <rect id="Rectángulo_8759" data-name="Rectángulo 8759" class="cls-18" width="0.332" height="3.055" transform="matrix(0.996, -0.084, 0.084, 0.996, 81.175, 6.904)"/>
      <rect id="Rectángulo_8760" data-name="Rectángulo 8760" class="cls-18" width="0.332" height="1.185" transform="translate(80.715 7.882) rotate(-4.847)"/>
      <rect id="Rectángulo_8761" data-name="Rectángulo 8761" class="cls-19" width="0.945" height="1.829" transform="translate(76.492 0.981) rotate(-4.842)"/>
      <rect id="Rectángulo_8762" data-name="Rectángulo 8762" class="cls-19" width="0.945" height="1.829" transform="translate(81.224 0.58) rotate(-4.845)"/>
      <path id="Trazado_33506" data-name="Trazado 33506" class="cls-20" d="M3382.93,408.368a2.063,2.063,0,0,0-2.422,3.34c7.644,5.55,15.1,7.06,21.09,6.179a19.2,19.2,0,0,0,6.669-2.23,14.928,14.928,0,0,0,4.754-4.17l.049-.069a11.041,11.041,0,0,0,2.076-8.1,2.059,2.059,0,1,0-4.073.6,6.963,6.963,0,0,1-1.35,5.088l-.041.055a10.829,10.829,0,0,1-3.458,3,15.026,15.026,0,0,1-5.229,1.75C3395.963,414.553,3389.6,413.214,3382.93,408.368Z" transform="translate(-3320.41 -371.676)"/>
      <path id="Trazado_33507" data-name="Trazado 33507" class="cls-21" d="M3415.421,401.88a2.059,2.059,0,0,0-3.138,2.041,6.64,6.64,0,0,1-.61,3.835,3.191,3.191,0,0,0,.926.121,3.823,3.823,0,0,0,2.822-6Z" transform="translate(-3321.619 -371.676)"/>
      <path id="Trazado_33508" data-name="Trazado 33508" class="cls-22" d="M3413.512,401.45a4.351,4.351,0,1,1-2.645,2.022,4.333,4.333,0,0,1,2.645-2.022Zm2.778,1.339a3.315,3.315,0,1,0,1.537,2.015A3.3,3.3,0,0,0,3416.29,402.79Z" transform="translate(-3321.566 -371.667)"/>
      <path id="Trazado_33509" data-name="Trazado 33509" class="cls-23" d="M3421.588,404.177l-.539.069a2.388,2.388,0,0,0-2.058,2.667l.269,2.094.327,2.544.234,1.814a2.259,2.259,0,0,1-1.947,2.519l-4.072.524.031,0,9.307-1.2a2.256,2.256,0,0,0,1.946-2.519l-.233-1.814-.327-2.544-.271-2.094A2.389,2.389,0,0,0,3421.588,404.177Z" transform="translate(-3321.699 -371.774)"/>
      <path id="Trazado_33510" data-name="Trazado 33510" class="cls-23" d="M3425.832,420.131l-10.652,1.37a1.849,1.849,0,0,0,1.593-2.063l-.209-1.619-.907-7.058-.181-1.4a1.746,1.746,0,0,1,1.5-1.948l7.2-.927a1.745,1.745,0,0,1,1.948,1.5l.18,1.4.908,7.058.209,1.619A1.848,1.848,0,0,1,3425.832,420.131Z" transform="translate(-3321.751 -371.862)"/>
      <path id="Trazado_33511" data-name="Trazado 33511" class="cls-24" d="M3425.37,419.576l-1.738.224-1.5-11.666a1.8,1.8,0,0,0,2.012,1.553h0a1.8,1.8,0,0,0,1.553-2.012l.15,1.16.907,7.059.209,1.619A1.848,1.848,0,0,1,3425.37,419.576Z" transform="translate(-3322.014 -371.907)"/>
      <path id="Trazado_33512" data-name="Trazado 33512" class="cls-25" d="M3407.489,422.454l18.015-2.317a1.849,1.849,0,0,1-2.063-1.592l-.209-1.619-.907-7.059-.181-1.4a1.746,1.746,0,0,0-1.948-1.5l-14.562,1.874a1.746,1.746,0,0,0-1.5,1.948l.18,1.4.908,7.058.209,1.619A1.847,1.847,0,0,0,3407.489,422.454Z" transform="translate(-3321.333 -371.88)"/>
      <path id="Trazado_33513" data-name="Trazado 33513" class="cls-26" d="M3407.621,405.934l13.771-1.772a2.391,2.391,0,0,0-2.059,2.667l.269,2.094.327,2.544.234,1.815a2.257,2.257,0,0,1-1.945,2.519l-9.308,1.2a2.257,2.257,0,0,1-2.52-1.945l-.233-1.814-.327-2.545-.269-2.093A2.389,2.389,0,0,1,3407.621,405.934Z" transform="translate(-3321.387 -371.774)"/>
      <path id="Trazado_33514" data-name="Trazado 33514" class="cls-22" d="M3407.621,405.969l6.918-.89a14.828,14.828,0,0,1-7.633,11.174,2.231,2.231,0,0,1-.515-1.165l-.234-1.814-.328-2.546-.268-2.093A2.388,2.388,0,0,1,3407.621,405.969Z" transform="translate(-3321.387 -371.809)"/>
      <path id="Rectángulo_8763" data-name="Rectángulo 8763" class="cls-27" d="M.452,0h.7A.452.452,0,0,1,1.6.452V2.435a.453.453,0,0,1-.453.453h-.7A.452.452,0,0,1,0,2.435V.452A.452.452,0,0,1,.452,0Z" transform="translate(87.147 43.749) rotate(-7.33)"/>
      <rect id="Rectángulo_8764" data-name="Rectángulo 8764" class="cls-27" width="1.604" height="2.888" rx="0.452" transform="translate(94.465 42.808) rotate(-7.332)"/>
      <rect id="Rectángulo_8765" data-name="Rectángulo 8765" class="cls-28" width="1.009" height="0.894" rx="0.252" transform="matrix(0.992, -0.127, 0.127, 0.992, 87.644, 45.279)"/>
      <rect id="Rectángulo_8766" data-name="Rectángulo 8766" class="cls-28" width="1.01" height="0.894" rx="0.252" transform="translate(94.962 44.338) rotate(-7.346)"/>
      <path id="Trazado_33515" data-name="Trazado 33515" class="cls-29" d="M3411.192,409.142l2.372-.305a.7.7,0,0,1,.784.606h0a.7.7,0,0,1-.606.785l-2.371.305a.7.7,0,0,1-.784-.606h0A.7.7,0,0,1,3411.192,409.142Z" transform="translate(-3321.578 -371.951)"/>
      <path id="Trazado_33516" data-name="Trazado 33516" class="cls-30" d="M3392.786,486.059c9.551,0,17.34-1.363,17.34-3.032s-7.789-3.033-17.34-3.033-17.34,1.363-17.34,3.033S3383.235,486.059,3392.786,486.059Z" transform="translate(-3320.251 -374.638)"/>
      <path id="Trazado_33517" data-name="Trazado 33517" class="cls-30" d="M3428.213,486.059c9.551,0,17.341-1.363,17.341-3.032s-7.79-3.033-17.341-3.033-17.34,1.363-17.34,3.033S3418.662,486.059,3428.213,486.059Z" transform="translate(-3321.589 -374.638)"/>
      <path id="Trazado_33518" data-name="Trazado 33518" class="cls-30" d="M3360.247,486.059c9.551,0,17.341-1.363,17.341-3.032s-7.791-3.033-17.341-3.033-17.34,1.363-17.34,3.033S3350.7,486.059,3360.247,486.059Z" transform="translate(-3319.022 -374.638)"/>
      <path id="Trazado_33519" data-name="Trazado 33519" class="cls-31" d="M3396.337,381.572a3.4,3.4,0,0,0,1.192,4.867,3.976,3.976,0,0,0,5.3-.7,3.4,3.4,0,0,0-1.191-4.867A3.976,3.976,0,0,0,3396.337,381.572Z" transform="translate(-3321.017 -370.869)"/>
      <path id="Trazado_33520" data-name="Trazado 33520" class="cls-9" d="M3387.533,391.052a3.346,3.346,0,1,0-3.346-3.347A3.353,3.353,0,0,0,3387.533,391.052Z" transform="translate(-3320.581 -371.027)"/>
      <rect id="Rectángulo_8767" data-name="Rectángulo 8767" class="cls-8" width="12.253" height="3.881" rx="1.94" transform="translate(57.606 15.775)"/>
      <path id="Trazado_33521" data-name="Trazado 33521" class="cls-32" d="M3384.446,401.6h-.616a1.372,1.372,0,0,0-1.171,1.353v2.159h-4.125V388.876h5.913a5.93,5.93,0,0,1,5.913,5.913v.9A5.929,5.929,0,0,1,3384.446,401.6Z" transform="translate(-3320.367 -371.197)"/>
      <path id="Trazado_33522" data-name="Trazado 33522" class="cls-33" d="M3384.556,401.6h-.616a1.372,1.372,0,0,0-1.171,1.353v2.159h-1.316v-2.159a1.372,1.372,0,0,1,1.17-1.353h.618a5.929,5.929,0,0,0,5.912-5.912v-.9a5.93,5.93,0,0,0-5.912-5.913h1.316a5.93,5.93,0,0,1,5.913,5.913v.9A5.929,5.929,0,0,1,3384.556,401.6Z" transform="translate(-3320.478 -371.197)"/>
      <path id="Trazado_33523" data-name="Trazado 33523" class="cls-34" d="M3384.491,397.533v-1.278a.3.3,0,0,1,.3-.3h2.8a.3.3,0,0,1,.3.3v1.278a1.583,1.583,0,0,1-1.578,1.578h-.24A1.582,1.582,0,0,1,3384.491,397.533Z" transform="translate(-3320.592 -371.465)"/>
      <path id="Trazado_33524" data-name="Trazado 33524" class="cls-35" d="M3385.14,395.956h2.472a.3.3,0,0,1,.183.063,1.574,1.574,0,0,1-1.18.534h-.24A1.579,1.579,0,0,1,3385.14,395.956Z" transform="translate(-3320.617 -371.465)"/>
      <path id="Trazado_33525" data-name="Trazado 33525" class="cls-36" d="M3384.864,397.319v-.5l.1,0h.217a1.43,1.43,0,0,1,1.426,1.426v.5l-.1,0h-.218A1.43,1.43,0,0,1,3384.864,397.319Z" transform="translate(-3320.606 -371.497)"/>
      <path id="Trazado_33526" data-name="Trazado 33526" class="cls-20" d="M3390.4,437.258a2.059,2.059,0,0,1-3.152-2.651c8.226-9.779,16.852-14.759,22.944-15.584a10.187,10.187,0,0,1,6.1.81,6.706,6.706,0,0,1,3.518,4.665c.778,3.444-.517,8.489-4.751,14.841a2.069,2.069,0,0,1-3.444-2.3c3.553-5.331,4.713-9.236,4.17-11.64a2.712,2.712,0,0,0-1.4-1.9,6.2,6.2,0,0,0-3.644-.391C3405.509,423.821,3397.908,428.33,3390.4,437.258Z" transform="translate(-3320.678 -372.331)"/>
      <path id="Trazado_33527" data-name="Trazado 33527" class="cls-37" d="M3379.166,432.088c0,9.8,14.425,9.872,13.484-2.478V423.9h-13.458V429.8h-.026v2.29Zm2.76-.732h1.222l-1.222.225Z" transform="translate(-3320.391 -372.52)"/>
      <path id="Trazado_33528" data-name="Trazado 33528" class="cls-21" d="M3383.383,439.159a6.543,6.543,0,0,0,2.1.47c.093-1.437-.01-3.547-.01-3.547l-.714-.024S3384.025,437.663,3383.383,439.159Z" transform="translate(-3320.551 -372.979)"/>
      <path id="Trazado_33529" data-name="Trazado 33529" class="cls-35" d="M3380.484,405.752h7.909a7.931,7.931,0,0,1,7.907,7.908v6.286a7.931,7.931,0,0,1-7.907,7.908h-7.909Z" transform="translate(-3320.441 -371.835)"/>
      <path id="Trazado_33530" data-name="Trazado 33530" class="cls-20" d="M3378.23,405.752h5.656a5.672,5.672,0,0,1,5.656,5.656v15.048a5.672,5.672,0,0,1-5.656,5.655h-6.622a2.8,2.8,0,0,1-2.788-2.788h.458a3.307,3.307,0,0,0,3.3-3.3Z" transform="translate(-3320.214 -371.835)"/>
      <path id="Trazado_33531" data-name="Trazado 33531" class="cls-35" d="M3378.378,405.647h5.443V404.3a1.347,1.347,0,0,0-1.343-1.343h-4.1Z" transform="translate(-3320.361 -371.729)"/>
      <path id="Trazado_33532" data-name="Trazado 33532" class="cls-37" d="M3380.234,435.56a2.063,2.063,0,0,1,4.058.744c-1.7,9.292-6.049,15.531-10.991,19.031a19.166,19.166,0,0,1-6.365,2.991,14.93,14.93,0,0,1-6.318.267l-.084-.017a11.036,11.036,0,0,1-7.093-4.424,2.059,2.059,0,1,1,3.362-2.377,6.961,6.961,0,0,0,4.49,2.75l.068.011a10.835,10.835,0,0,0,4.573-.217,15.043,15.043,0,0,0,4.991-2.344C3375.075,449.033,3378.752,443.672,3380.234,435.56Z" transform="translate(-3319.406 -372.896)"/>
      <path id="Trazado_33533" data-name="Trazado 33533" class="cls-9" d="M3380.074,387.848h3.739a2.14,2.14,0,0,1,1.835,1.047h-1.813a2.141,2.141,0,0,0-2.135,2.135v1.96a2.114,2.114,0,0,0,.3,1.087h-1.926a2.14,2.14,0,0,1-2.134-2.134v-1.961A2.14,2.14,0,0,1,3380.074,387.848Z" transform="translate(-3320.345 -371.158)"/>
      <circle id="Elipse_619" data-name="Elipse 619" class="cls-38" cx="1.294" cy="1.294" r="1.294" transform="translate(56.872 21.526)"/>
      <circle id="Elipse_620" data-name="Elipse 620" class="cls-39" cx="0.559" cy="0.559" r="0.559" transform="translate(57.607 22.261)"/>
      <path id="Trazado_33534" data-name="Trazado 33534" class="cls-40" d="M3385.065,393.5c0,.78-1.187.648-1.269.41-.207-.605,1.092-.144.817-.493-.1-.123-.85.2-.85-.556,0-.776,1.107-.647,1.192-.415.215.576-1,.162-.74.493C3384.31,393.061,3385.065,392.736,3385.065,393.5Z" transform="translate(-3320.565 -371.325)"/>
      <path id="Trazado_33535" data-name="Trazado 33535" class="cls-40" d="M3389.169,393.5c0,.78-1.188.648-1.269.41-.208-.605,1.091-.144.816-.493-.1-.123-.849.2-.849-.556,0-.776,1.106-.647,1.192-.415.214.576-1,.162-.741.493C3388.413,393.061,3389.169,392.736,3389.169,393.5Z" transform="translate(-3320.72 -371.325)"/>
      <path id="Trazado_33536" data-name="Trazado 33536" class="cls-9" d="M3384.246,385.4a1.478,1.478,0,1,1-1.478,1.479A1.479,1.479,0,0,1,3384.246,385.4Z" transform="translate(-3320.527 -371.066)"/>
      <path id="Trazado_33537" data-name="Trazado 33537" class="cls-40" d="M3383.2,390.094l1.612-.38a.36.36,0,0,1,.433.268h0a.36.36,0,0,1-.267.433l-1.612.38a.361.361,0,0,1-.433-.268h0A.359.359,0,0,1,3383.2,390.094Z" transform="translate(-3320.533 -371.228)"/>
      <path id="Trazado_33538" data-name="Trazado 33538" class="cls-40" d="M3390.148,391.428l-1.612-.379a.36.36,0,0,0-.433.267h0a.362.362,0,0,0,.268.434l1.612.379a.361.361,0,0,0,.433-.267h0A.36.36,0,0,0,3390.148,391.428Z" transform="translate(-3320.728 -371.279)"/>
      <path id="Trazado_33539" data-name="Trazado 33539" class="cls-41" d="M3380.921,398.167a3.682,3.682,0,0,0,2.661,3.017S3380.186,401.311,3380.921,398.167Z" transform="translate(-3320.454 -371.548)"/>
      <path id="Trazado_33540" data-name="Trazado 33540" class="cls-23" d="M3414,437.439l-2.738,2.23s-1.038,1.394,2.155,1.419,15.686-5.376,11.735-5.83S3414,437.439,3414,437.439Z" transform="translate(-3321.597 -372.947)"/>
      <path id="Trazado_33541" data-name="Trazado 33541" class="cls-42" d="M3411.27,439.654s2.8-6.636,13.891-4.411C3425.161,435.243,3416.9,435.315,3411.27,439.654Z" transform="translate(-3321.604 -372.931)"/>
      <path id="Trazado_33542" data-name="Trazado 33542" class="cls-23" d="M3354.953,453.852l3.487.551s1.732-.156-.38-2.552-14.471-8.1-12.172-4.852S3354.953,453.852,3354.953,453.852Z" transform="translate(-3319.124 -373.356)"/>
      <path id="Trazado_33543" data-name="Trazado 33543" class="cls-42" d="M3358.451,454.441s-6.812,2.339-12.552-7.4C3345.9,447.038,3351.461,453.14,3358.451,454.441Z" transform="translate(-3319.135 -373.394)"/>
      <path id="Trazado_33544" data-name="Trazado 33544" class="cls-37" d="M3381.669,407.152a2.063,2.063,0,0,0,.415,4.1c9.4-.946,15.967-4.78,19.853-9.425a19.2,19.2,0,0,0,3.493-6.1,14.932,14.932,0,0,0,.772-6.277l-.01-.085a11.033,11.033,0,0,0-3.839-7.426,2.059,2.059,0,0,0-2.639,3.161,6.958,6.958,0,0,1,2.38,4.7l.006.069a10.823,10.823,0,0,1-.584,4.54,15.038,15.038,0,0,1-2.739,4.786C3395.513,403.094,3389.874,406.327,3381.669,407.152Z" transform="translate(-3320.416 -370.917)"/>
      <path id="Trazado_33545" data-name="Trazado 33545" class="cls-31" d="M3414.893,406.383a3.729,3.729,0,0,0,3.509-3.733,3.4,3.4,0,0,0-3.346-3.619,3.73,3.73,0,0,0-3.51,3.732A3.4,3.4,0,0,0,3414.893,406.383Z" transform="translate(-3321.614 -371.581)"/>
      <path id="Trazado_33546" data-name="Trazado 33546" class="cls-43" d="M3414.175,403.9a2.159,2.159,0,0,0,2.032-2.16,1.968,1.968,0,0,0-1.938-2.1,2.159,2.159,0,0,0-2.032,2.161A1.967,1.967,0,0,0,3414.175,403.9Z" transform="translate(-3321.64 -371.604)"/>
      <path id="Trazado_33547" data-name="Trazado 33547" class="cls-44" d="M3393.541,412.8a.451.451,0,1,0-.451-.451A.453.453,0,0,0,3393.541,412.8Z" transform="translate(-3320.917 -372.067)"/>
      <path id="Trazado_33548" data-name="Trazado 33548" class="cls-44" d="M3393.541,416.729a.451.451,0,1,0-.451-.451A.453.453,0,0,0,3393.541,416.729Z" transform="translate(-3320.917 -372.215)"/>
      <path id="Trazado_33549" data-name="Trazado 33549" class="cls-44" d="M3393.541,420.659a.452.452,0,1,0-.451-.451A.452.452,0,0,0,3393.541,420.659Z" transform="translate(-3320.917 -372.363)"/>
      <path id="Trazado_33550" data-name="Trazado 33550" class="cls-45" d="M3379.067,465.393h28.672v16.414c0,1.372-6.418,2.484-14.336,2.484s-14.336-1.111-14.336-2.484Z" transform="translate(-3320.387 -374.087)"/>
      <path id="Trazado_33551" data-name="Trazado 33551" class="cls-13" d="M3400.058,481.483c.007-.035.014-.069.02-.1.012-.069.022-.139.031-.208,0-.032.008-.063.011-.094.01-.1.015-.2.015-.306V465.493l0-.1h-21.066v16.414c0,1.176,4.719,2.161,11.055,2.418h6.562l.279-.012a3.472,3.472,0,0,0,3.01-2.407h0l.009-.032c.01-.032.018-.064.027-.1C3400.028,481.613,3400.044,481.548,3400.058,481.483Z" transform="translate(-3320.387 -374.087)"/>
      <path id="Trazado_33552" data-name="Trazado 33552" class="cls-46" d="M3393.4,467.779c7.9,0,14.335-1.116,14.335-2.484s-6.439-2.484-14.335-2.484-14.337,1.115-14.337,2.484S3385.507,467.779,3393.4,467.779Z" transform="translate(-3320.387 -373.99)"/>
      <path id="Trazado_33553" data-name="Trazado 33553" class="cls-47" d="M3412.97,451.012h28.672v30.252c0,1.372-6.418,2.484-14.336,2.484s-14.335-1.111-14.335-2.484Z" transform="translate(-3321.668 -373.544)"/>
      <path id="Trazado_33554" data-name="Trazado 33554" class="cls-48" d="M3412.97,451.012h20.86v29.223a3.467,3.467,0,0,1-3.185,3.445l-.272.011h-6.134c-6.444-.243-11.269-1.237-11.269-2.427Z" transform="translate(-3321.668 -373.544)"/>
      <path id="Trazado_33555" data-name="Trazado 33555" class="cls-49" d="M3427.305,453.4c7.9,0,14.336-1.116,14.336-2.484s-6.44-2.484-14.336-2.484-14.335,1.115-14.335,2.484S3419.41,453.4,3427.305,453.4Z" transform="translate(-3321.668 -373.446)"/>
      <path id="Trazado_33556" data-name="Trazado 33556" class="cls-50" d="M3412.993,451.067a.467.467,0,0,1-.023-.14c0-.916,2.865-1.717,7.125-2.147,4.058.075,7.218.67,7.218,1.393,0,.774-3.621,1.4-8.089,1.4A32.761,32.761,0,0,1,3412.993,451.067Z" transform="translate(-3321.668 -373.46)"/>
      <path id="Trazado_33557" data-name="Trazado 33557" class="cls-51" d="M3374.188,482.079c0,1.372-6.418,2.484-14.336,2.484s-14.335-1.111-14.335-2.484V472.6h28.671Z" transform="translate(-3319.12 -374.359)"/>
      <path id="Trazado_33558" data-name="Trazado 33558" class="cls-12" d="M3356.138,484.478c-6.117-.283-10.622-1.249-10.622-2.4V472.6h18.026a2.033,2.033,0,0,1,.025.326v9.423a2.137,2.137,0,0,1-2.131,2.131Z" transform="translate(-3319.12 -374.359)"/>
      <path id="Trazado_33559" data-name="Trazado 33559" class="cls-52" d="M3359.852,474.983c7.9,0,14.335-1.116,14.335-2.484s-6.439-2.484-14.335-2.484-14.336,1.115-14.336,2.484S3351.955,474.983,3359.852,474.983Z" transform="translate(-3319.12 -374.262)"/>
      <path id="Trazado_33560" data-name="Trazado 33560" class="cls-53" d="M3372.919,471.38c1.063.346,1.667.742,1.667,1.162s-.6.816-1.667,1.162c-1.725.151-3.8.239-6.041.239-5.979,0-10.825-.627-10.825-1.4s4.846-1.4,10.825-1.4C3369.115,471.141,3371.194,471.229,3372.919,471.38Z" transform="translate(-3319.518 -374.304)"/>
      <path id="Trazado_33561" data-name="Trazado 33561" class="cls-35" d="M3341.052,418.672l15.72-9.643a3.894,3.894,0,0,0-1.279,5.338l1.315,2.145,1.988,3.241,3.341,5.446h0l1.315,2.145a3.9,3.9,0,0,1-1.28,5.339l-15.719,9.643a3.892,3.892,0,0,0,1.279-5.337l-6.645-10.832h0l-1.315-2.145A3.893,3.893,0,0,1,3341.052,418.672Z" transform="translate(-3318.882 -371.958)"/>
      <path id="Trazado_33562" data-name="Trazado 33562" class="cls-54" d="M3355.921,427.939l1-.612a.4.4,0,0,1,.546.131h0a.4.4,0,0,1-.131.546l-1,.611a.4.4,0,0,1-.545-.13h0a.4.4,0,0,1,.131-.546Zm-11.974-4.037,8.123-4.983a.4.4,0,0,1,.546.131h0a.4.4,0,0,1-.131.547l-8.123,4.983a.4.4,0,0,1-.547-.131h0a.4.4,0,0,1,.131-.546Zm-1.015-1.653a.4.4,0,0,0-.13.546h0a.4.4,0,0,0,.546.131l2.782-1.707a.4.4,0,0,0,.131-.547h0a.4.4,0,0,0-.545-.131l-2.784,1.708Zm3.837-2.354a.4.4,0,0,0-.131.546h0a.4.4,0,0,0,.546.131l2.783-1.707a.4.4,0,0,0,.131-.546h0a.4.4,0,0,0-.546-.131l-2.783,1.707Zm-1.806,5.661a.4.4,0,0,0-.131.546h0a.4.4,0,0,0,.545.131l8.124-4.983a.4.4,0,0,0,.13-.547h0a.4.4,0,0,0-.546-.131l-8.123,4.983Zm1.014,1.654,3.724-2.284a.4.4,0,0,1,.546.131h0a.4.4,0,0,1-.131.547l-3.723,2.284a.4.4,0,0,1-.546-.132h0a.4.4,0,0,1,.131-.546Zm4.964-3.045a.4.4,0,0,0-.131.546h0a.4.4,0,0,0,.547.131l.489-.3a.4.4,0,0,0,.13-.546h0a.4.4,0,0,0-.546-.13l-.489.3Zm1.711-1.049a.4.4,0,0,0-.131.546h0a.4.4,0,0,0,.545.131l.489-.3a.4.4,0,0,0,.131-.546h0a.4.4,0,0,0-.545-.131l-.489.3Zm-5.661,5.748a.4.4,0,0,0-.13.546h0a.4.4,0,0,0,.546.131l8.123-4.983a.4.4,0,0,0,.131-.546h0a.4.4,0,0,0-.545-.131l-8.124,4.983Zm1.015,1.654,3.723-2.284a.4.4,0,0,1,.546.131h0a.4.4,0,0,1-.131.546l-3.724,2.284a.4.4,0,0,1-.546-.131h0a.4.4,0,0,1,.131-.546Zm1.014,1.654a.4.4,0,0,0-.131.546h0a.4.4,0,0,0,.546.131l3.723-2.284a.4.4,0,0,0,.131-.546h0a.4.4,0,0,0-.545-.131l-3.724,2.284Zm1.015,1.654,3.724-2.284a.4.4,0,0,1,.546.13h0a.4.4,0,0,1-.131.546l-3.724,2.284a.4.4,0,0,1-.546-.131h0A.4.4,0,0,1,3350.035,433.827Z" transform="translate(-3319.016 -372.302)"/>
      <path id="Trazado_33563" data-name="Trazado 33563" class="cls-55" d="M3412.416,445.041a.847.847,0,1,0-.847-.847A.849.849,0,0,0,3412.416,445.041Z" transform="translate(-3321.615 -373.254)"/>
      <path id="Trazado_33564" data-name="Trazado 33564" class="cls-55" d="M3407.73,447.6a.706.706,0,1,0-.706-.706A.708.708,0,0,0,3407.73,447.6Z" transform="translate(-3321.443 -373.362)"/>
      <path id="Trazado_33565" data-name="Trazado 33565" class="cls-56" d="M3330.237,434.3a1.129,1.129,0,1,1-.268,1.573A1.13,1.13,0,0,1,3330.237,434.3Z" transform="translate(-3318.525 -372.905)"/>
      <path id="Trazado_33566" data-name="Trazado 33566" class="cls-56" d="M3326.06,434.658a.564.564,0,1,1-.135.786A.564.564,0,0,1,3326.06,434.658Z" transform="translate(-3318.376 -372.922)"/>
      <path id="Trazado_33567" data-name="Trazado 33567" class="cls-37" d="M3380.2,422.472h7.206v3.6a3.613,3.613,0,0,1-3.6,3.6h0a3.613,3.613,0,0,1-3.6-3.6Z" transform="translate(-3320.43 -372.466)"/>
      <rect id="Rectángulo_8768" data-name="Rectángulo 8768" class="cls-7" width="3.82" height="1.524" rx="0.762" transform="translate(45.256 72.028)"/>
      <path id="Trazado_33568" data-name="Trazado 33568" class="cls-11" d="M3429.822,433.035a5.592,5.592,0,1,0-5.592-5.592A5.6,5.6,0,0,0,3429.822,433.035Z" transform="translate(-3322.093 -372.443)"/>
      <path id="Trazado_33569" data-name="Trazado 33569" class="cls-57" d="M3362.377,415.981l-.523-.664-.262-.332-.522-.664,1.12-1.779a3.973,3.973,0,0,1-.072-.5l-1.578-1.388.313-.785.157-.393.314-.785,2.036.079a4.088,4.088,0,0,1,.475-.391l.4-1.979.837-.121.418-.061.836-.12.883,1.676a3.975,3.975,0,0,1,.475.157c.106.041.209.088.309.138l1.771-.6.523.664.262.333.522.664-.964,1.531a4.053,4.053,0,0,1,.137.938l1.358,1.2-.313.784-.157.393-.313.785-1.868-.072a4.113,4.113,0,0,1-.668.5l-.372,1.859-.837.122-.418.06-.836.121-.942-1.787c-.07-.023-.14-.049-.21-.077-.122-.049-.24-.1-.355-.162l-1.931.652Zm5.983-3.4a2.355,2.355,0,1,0-3.062,1.314A2.355,2.355,0,0,0,3368.36,412.585Z" transform="translate(-3319.688 -371.848)"/>
      <path id="Trazado_33570" data-name="Trazado 33570" class="cls-35" d="M3368.88,423.755l-.383-.487-.191-.244-.384-.487.822-1.3a2.813,2.813,0,0,1-.053-.364l-1.158-1.018.23-.576.115-.288.23-.575,1.493.058a2.921,2.921,0,0,1,.348-.287l.291-1.451.614-.09.307-.044.614-.089.648,1.23a3.017,3.017,0,0,1,.348.115c.077.031.153.064.226.1l1.3-.44.384.488.191.243.384.487-.707,1.123a2.956,2.956,0,0,1,.1.688l1,.876-.23.576-.115.288-.23.575-1.369-.053a2.958,2.958,0,0,1-.49.369l-.273,1.363-.614.089-.306.044-.614.089-.691-1.311c-.051-.017-.1-.036-.153-.057a2.812,2.812,0,0,1-.261-.118l-1.417.479Zm4.388-2.49a1.727,1.727,0,1,0-2.244.963A1.726,1.726,0,0,0,3373.268,421.264Z" transform="translate(-3319.952 -372.241)"/>
      <g id="Grupo_10436" data-name="Grupo 10436" transform="translate(6.127 50.221)">
        <path id="Trazado_33571" data-name="Trazado 33571" class="cls-35" d="M3324.69,423.25h0a1.315,1.315,0,0,1,1.827-.316l5.916,4.171a1.315,1.315,0,0,1,.315,1.828h0a1.316,1.316,0,0,1-1.828.316l-5.915-4.171A1.316,1.316,0,0,1,3324.69,423.25Z" transform="translate(-3324.451 -422.695)"/>
        <path id="Trazado_33572" data-name="Trazado 33572" class="cls-57" d="M3331.041,427.733h0a.966.966,0,0,1,1.342-.232l.578.408,4.55,3.208.577.408a.965.965,0,0,1,.232,1.341h0a.966.966,0,0,1-1.342.232l-.578-.408-4.549-3.209-.578-.407A.966.966,0,0,1,3331.041,427.733Z" transform="translate(-3324.694 -422.87)"/>
        <path id="Trazado_33573" data-name="Trazado 33573" class="cls-57" d="M3338.019,432.662h0a.339.339,0,0,1,.471-.082l1.17.826a.338.338,0,0,1,.082.47h0a.339.339,0,0,1-.47.082l-1.171-.826A.338.338,0,0,1,3338.019,432.662Z" transform="translate(-3324.962 -423.066)"/>
        <path id="Trazado_33574" data-name="Trazado 33574" class="cls-56" d="M3325.073,425.1h0a.377.377,0,0,1,.525-.09l3.478,2.452a.379.379,0,0,1,.091.525h0a.379.379,0,0,1-.526.09l-3.478-2.453A.376.376,0,0,1,3325.073,425.1Z" transform="translate(-3324.472 -422.78)"/>
      </g>
      <path id="Trazado_33575" data-name="Trazado 33575" class="cls-4" d="M3357.828,433.421a.351.351,0,0,1-.681-.168l.415-1.7a.35.35,0,0,1,.425-.257.346.346,0,0,1,.213.154l.4.632.7-2.489a.351.351,0,0,1,.683.027l.148.76.681-1.123a.351.351,0,1,1,.6.363l-1.141,1.884a.352.352,0,0,1-.658-.1l-.037-.2-.506,1.805a.352.352,0,0,1-.642.111l-.375-.6Z" transform="translate(-3319.559 -372.716)"/>
      <rect id="Rectángulo_8769" data-name="Rectángulo 8769" class="cls-1" width="3.95" height="1.465" rx="0.733" transform="translate(67.54 70.917)"/>
      <rect id="Rectángulo_8770" data-name="Rectángulo 8770" class="cls-1" width="12.984" height="1.465" rx="0.733" transform="translate(67.54 73.774)"/>
      <rect id="Rectángulo_8771" data-name="Rectángulo 8771" class="cls-7" width="4.932" height="1.465" rx="0.733" transform="translate(67.54 76.631)"/>
      <rect id="Rectángulo_8772" data-name="Rectángulo 8772" class="cls-7" width="3.121" height="1.465" rx="0.733" transform="translate(73.783 76.631)"/>
      <rect id="Rectángulo_8773" data-name="Rectángulo 8773" class="cls-7" width="3.95" height="1.465" rx="0.733" transform="translate(72.506 70.917)"/>
      <path id="Trazado_33576" data-name="Trazado 33576" class="cls-35" d="M3448.663,398.751l5.437,5.438a1.023,1.023,0,0,1,0,1.443h0a1.024,1.024,0,0,1-1.443,0l-5.437-5.438a1.024,1.024,0,0,1,0-1.443h0A1.025,1.025,0,0,1,3448.663,398.751Z" transform="translate(-3322.95 -371.559)"/>
      <path id="Trazado_33577" data-name="Trazado 33577" class="cls-35" d="M3447.4,402.851a2.243,2.243,0,0,1,1.588.658l0,0a2.247,2.247,0,1,1-3.178,3.177l0,0a2.247,2.247,0,0,1,1.591-3.836Zm.524,1.721a.743.743,0,0,0-1.266.527.744.744,0,0,0,.215.525l0,0a.744.744,0,0,0,1.267-.528.734.734,0,0,0-.215-.524Z" transform="translate(-3322.883 -371.725)"/>
      <path id="Trazado_33578" data-name="Trazado 33578" class="cls-35" d="M3454.737,397.811a2.244,2.244,0,0,1,1.587.659l0,0a2.247,2.247,0,1,1-3.177,3.177l0,0a2.248,2.248,0,0,1,1.59-3.836Zm.524,1.721a.744.744,0,0,0-1.053,1.053l0,0a.744.744,0,0,0,1.053-1.053Z" transform="translate(-3323.16 -371.535)"/>
      <g id="Grupo_10437" data-name="Grupo 10437" transform="translate(104.645 11.507)">
        <path id="Trazado_33579" data-name="Trazado 33579" class="cls-35" d="M3428.587,386.978l9.1,3.459a1.3,1.3,0,0,1,.749,1.667h0a1.3,1.3,0,0,1-1.667.749l-9.1-3.459a1.3,1.3,0,0,1-.749-1.667h0A1.3,1.3,0,0,1,3428.587,386.978Z" transform="translate(-3426.836 -382.629)"/>
        <path id="Trazado_33580" data-name="Trazado 33580" class="cls-35" d="M3429.274,392.336a2.836,2.836,0,0,1,2.175-.062l0,0a2.844,2.844,0,1,1-2.022,5.317l0,0a2.845,2.845,0,0,1-.153-5.256Zm1.5,1.717a.944.944,0,0,0-1.21.548.944.944,0,0,0,.541,1.213l0,0a.942.942,0,0,0,.67-1.761Z" transform="translate(-3426.865 -382.826)"/>
        <path id="Trazado_33581" data-name="Trazado 33581" class="cls-35" d="M3435.134,382.71a2.84,2.84,0,0,1,2.175-.062l0,0a2.845,2.845,0,0,1-2.022,5.318l0,0a2.846,2.846,0,0,1-.153-5.257Zm1.5,1.717a.941.941,0,0,0-1.189,1.266.947.947,0,0,0,.52.5h.006a.942.942,0,0,0,.669-1.761Z" transform="translate(-3427.086 -382.462)"/>
      </g>
      <path id="Trazado_33582" data-name="Trazado 33582" class="cls-35" d="M3453.625,417.15l3.263,5.264a.825.825,0,0,1-.266,1.132h0a.825.825,0,0,1-1.132-.266l-3.263-5.264a.825.825,0,0,1,.266-1.132h0A.825.825,0,0,1,3453.625,417.15Z" transform="translate(-3323.146 -372.25)"/>
      <path id="Trazado_33583" data-name="Trazado 33583" class="cls-35" d="M3451.871,420.139a1.806,1.806,0,0,1,1.123.809l0,0a1.809,1.809,0,1,1-3.076,1.906l0,0a1.811,1.811,0,0,1,1.953-2.715Zm.094,1.446a.6.6,0,0,0-1.019.631l0,0a.6.6,0,0,0,1.019-.631Z" transform="translate(-3323.053 -372.376)"/>
      <path id="Trazado_33584" data-name="Trazado 33584" class="cls-35" d="M3458.552,417.538a1.8,1.8,0,0,1,1.123.809l0,0a1.81,1.81,0,1,1-3.076,1.906l0,0a1.811,1.811,0,0,1,1.953-2.715Zm.094,1.446a.6.6,0,0,0-1.019.632l0,0a.6.6,0,0,0,1.019-.632Z" transform="translate(-3323.305 -372.278)"/>
      <path id="Trazado_33585" data-name="Trazado 33585" class="cls-35" d="M3429.916,430.726a3.188,3.188,0,1,0-3.188-3.188A3.194,3.194,0,0,0,3429.916,430.726Z" transform="translate(-3322.188 -372.537)"/>
      <path id="Trazado_33586" data-name="Trazado 33586" class="cls-35" d="M3439.913,402.086l-7.9,25.321a.636.636,0,0,1-.84.4l-3.4-1.324a.638.638,0,0,1-.346-.866l11.3-24a.637.637,0,0,1,1.185.462Z" transform="translate(-3322.211 -371.665)"/>
      <path id="Trazado_33587" data-name="Trazado 33587" class="cls-35" d="M3346.1,440.878l-4.183-1.561.375,1.816-6.185-2.653,2.176,2.823-8.949-1.394,11.793,2.979-1.7-2.059,4.8,1.521-1.046-1.918Z" transform="translate(-3318.509 -373.071)"/>
      <path id="Trazado_33588" data-name="Trazado 33588" class="cls-57" d="M3336.36,457.336l-.384-.487-.192-.244-.384-.487.822-1.3a3.022,3.022,0,0,1-.053-.364l-1.158-1.018.23-.576.115-.288.229-.575,1.493.058a2.933,2.933,0,0,1,.349-.287l.291-1.451.614-.089.306-.044.614-.089.648,1.23a2.971,2.971,0,0,1,.349.114c.077.031.152.064.225.1l1.3-.44.384.488.191.243.384.487-.707,1.123a3.01,3.01,0,0,1,.1.688l1,.876-.23.576-.115.287-.23.576-1.37-.053a2.917,2.917,0,0,1-.49.37l-.272,1.363-.614.09-.307.044-.614.089-.69-1.311c-.052-.017-.1-.036-.154-.057-.089-.036-.176-.075-.261-.118l-1.416.479Zm4.388-2.491a1.728,1.728,0,1,0-2.245.964A1.725,1.725,0,0,0,3340.748,454.844Z" transform="translate(-3318.724 -373.509)"/>
      <path id="Trazado_33589" data-name="Trazado 33589" class="cls-56" d="M3429.989,428.931a1.32,1.32,0,1,0-1.32-1.32A1.322,1.322,0,0,0,3429.989,428.931Z" transform="translate(-3322.261 -372.61)"/>
      <path id="Trazado_33590" data-name="Trazado 33590" class="cls-55" d="M3320.582,454.808c-2.77,6.6-5.266,24.341,4.338,19.547s14.131-4.848,13.256-8.333c-.743-2.962-10.417-4.4-12.362-9.9C3324.5,452.41,3322.462,450.325,3320.582,454.808Z" transform="translate(-3318.084 -373.591)"/>
    </g>
  </g>
</svg>
