<svg xmlns="http://www.w3.org/2000/svg" xmlns:xlink="http://www.w3.org/1999/xlink" width="244" height="159.491" viewBox="0 0 244 159.491">
  <defs>
    <style>
      .cls-1, .cls-5 {
        fill: #fff;
      }

      .cls-2 {
        fill: url(#linear-gradient);
      }

      .cls-10, .cls-11, .cls-12, .cls-13, .cls-17, .cls-18, .cls-19, .cls-20, .cls-21, .cls-22, .cls-23, .cls-24, .cls-25, .cls-26, .cls-27, .cls-28, .cls-29, .cls-3, .cls-30, .cls-31, .cls-32, .cls-33, .cls-34, .cls-35, .cls-36, .cls-37, .cls-4, .cls-40, .cls-41, .cls-42, .cls-43, .cls-44, .cls-45, .cls-46, .cls-47, .cls-48, .cls-49, .cls-5, .cls-50, .cls-52, .cls-53, .cls-54, .cls-55, .cls-56, .cls-57, .cls-58, .cls-59, .cls-60, .cls-61, .cls-62, .cls-63, .cls-64, .cls-65, .cls-66, .cls-67, .cls-70, .cls-71, .cls-72, .cls-74, .cls-75, .cls-76, .cls-77, .cls-78, .cls-79, .cls-8, .cls-80, .cls-81, .cls-82, .cls-83, .cls-84, .cls-86, .cls-87, .cls-89, .cls-9, .cls-90, .cls-91, .cls-92, .cls-93, .cls-94 {
        fill-rule: evenodd;
      }

      .cls-13, .cls-3 {
        mix-blend-mode: multiply;
        isolation: isolate;
      }

      .cls-3 {
        fill: url(#linear-gradient-2);
      }

      .cls-4 {
        fill: #ffe88a;
      }

      .cls-6, .cls-9 {
        fill: #ffe899;
      }

      .cls-7 {
        fill: #ffd46b;
      }

      .cls-8 {
        fill: #ffc328;
      }

      .cls-10 {
        fill: #6a6378;
      }

      .cls-11 {
        fill: #5e4957;
      }

      .cls-12 {
        fill: #442f3d;
      }

      .cls-13 {
        fill: url(#linear-gradient-4);
      }

      .cls-14 {
        fill: #694e4f;
      }

      .cls-15 {
        fill: #87596c;
      }

      .cls-16 {
        fill: #76485c;
      }

      .cls-17 {
        fill: #9c6e80;
      }

      .cls-18 {
        fill: #d6abb1;
      }

      .cls-19 {
        fill: #8acc9f;
      }

      .cls-20 {
        fill: #58b68c;
      }

      .cls-21 {
        fill: #b0dcbe;
      }

      .cls-22 {
        fill: #5e6097;
      }

      .cls-23 {
        fill: #7e80c2;
      }

      .cls-24 {
        fill: #a3787e;
      }

      .cls-25 {
        fill: #efc4ca;
      }

      .cls-26 {
        fill: #fff7d4;
      }

      .cls-27, .cls-38 {
        fill: #dc393f;
      }

      .cls-28, .cls-39 {
        fill: #f73f45;
      }

      .cls-29 {
        fill: #ff393f;
      }

      .cls-30 {
        fill: #bcc4ca;
      }

      .cls-31 {
        fill: #af4031;
      }

      .cls-32 {
        fill: #c94f3d;
      }

      .cls-33 {
        fill: #db975e;
      }

      .cls-34 {
        fill: #e85331;
      }

      .cls-35 {
        fill: #a86a24;
      }

      .cls-36 {
        fill: #c17f24;
      }

      .cls-37 {
        fill: #ffbb3f;
      }

      .cls-40 {
        fill: #fff7fd;
      }

      .cls-41 {
        fill: #6595f5;
      }

      .cls-42 {
        fill: #ff595f;
      }

      .cls-43 {
        fill: #ffc285;
      }

      .cls-44 {
        fill: #e89162;
      }

      .cls-45 {
        fill: #d36245;
      }

      .cls-46 {
        fill: #ef7249;
      }

      .cls-47, .cls-51 {
        fill: #86c9e6;
      }

      .cls-48 {
        fill: #ffc75f;
      }

      .cls-49 {
        fill: #ffd894;
      }

      .cls-50 {
        fill: #8b6376;
      }

      .cls-52 {
        fill: #c4e8ff;
      }

      .cls-53 {
        fill: #ffb76f;
      }

      .cls-54 {
        fill: #a53729;
      }

      .cls-55 {
        fill: #bc4736;
      }

      .cls-56 {
        fill: #979a24;
      }

      .cls-57 {
        fill: #7f834a;
      }

      .cls-58 {
        fill: #fe3152;
      }

      .cls-59 {
        fill: #e52958;
      }

      .cls-60 {
        fill: #ec2c32;
      }

      .cls-61 {
        fill: #fe5974;
      }

      .cls-62 {
        fill: #81b75c;
      }

      .cls-63 {
        fill: #90cb69;
      }

      .cls-64 {
        fill: #ffa824;
      }

      .cls-65 {
        fill: #ffc331;
      }

      .cls-66 {
        fill: #ffd257;
      }

      .cls-67 {
        fill: #ffb624;
      }

      .cls-68, .cls-72 {
        fill: #d78a9e;
      }

      .cls-69 {
        fill: #b66f83;
      }

      .cls-70 {
        fill: #9c5569;
      }

      .cls-71 {
        fill: #92465a;
      }

      .cls-73 {
        fill: #7397af;
      }

      .cls-74 {
        fill: #647483;
      }

      .cls-75 {
        fill: #fff6ec;
      }

      .cls-76 {
        fill: #ffcdc3;
      }

      .cls-77 {
        fill: #8fb0c6;
      }

      .cls-78, .cls-88 {
        fill: #f17955;
      }

      .cls-79 {
        fill: #ff9b66;
      }

      .cls-80 {
        fill: #af493e;
      }

      .cls-81 {
        fill: #ffa067;
      }

      .cls-82 {
        fill: #74bf38;
      }

      .cls-83 {
        fill: #ff9f27;
      }

      .cls-84 {
        fill: #a3e27b;
      }

      .cls-85 {
        fill: #4e6ef4;
      }

      .cls-86 {
        fill: #444c5e;
      }

      .cls-87 {
        fill: #ffbd5f;
      }

      .cls-89 {
        fill: #8c3f43;
      }

      .cls-90 {
        fill: #313a4e;
      }

      .cls-91 {
        fill: #505869;
      }

      .cls-92 {
        fill: #d04147;
      }

      .cls-93 {
        fill: #b7353b;
      }

      .cls-94 {
        fill: #ff8288;
      }
    </style>
    <linearGradient id="linear-gradient" x1="-10.564" y1="18.166" x2="-10.564" y2="19.705" gradientUnits="objectBoundingBox">
      <stop offset="0.014" stop-color="#fbb040"/>
      <stop offset="0.996" stop-color="#fb5b97"/>
    </linearGradient>
    <linearGradient id="linear-gradient-2" x1="0" y1="0.5" x2="1" y2="0.5" xlink:href="#linear-gradient"/>
    <linearGradient id="linear-gradient-4" x1="0" y1="0.5" x2="1" y2="0.5" xlink:href="#linear-gradient"/>
  </defs>
  <g id="tarjeta-memorama-04" transform="translate(8191.245 -14742.779)">
    <g id="Grupo_7675" data-name="Grupo 7675" transform="translate(-8191.245 14742.779)">
      <g id="Grupo_7674" data-name="Grupo 7674" transform="translate(0 0)">
        <path id="Trazado_32409" data-name="Trazado 32409" class="cls-1" d="M3564.214,563.285c-.879.529-1.638.987-1.638,1.867s.759,1.337,1.639,1.867c.946.57,2.017,1.214,2.018,2.537s-1.072,1.968-2.017,2.538c-.879.529-1.639.987-1.639,1.867s.759,1.337,1.639,1.867c.946.57,2.017,1.215,2.017,2.537s-1.071,1.968-2.016,2.537c-.879.53-1.639.987-1.639,1.867s.759,1.338,1.639,1.867c.946.57,2.017,1.214,2.017,2.536s-1.071,1.969-2.016,2.538c-.88.529-1.639.986-1.639,1.866s.759,1.337,1.639,1.867c.946.57,2.017,1.215,2.017,2.537s-1.071,1.969-2.016,2.538c-.88.529-1.639.987-1.639,1.867s.759,1.338,1.639,1.867c.945.57,2.017,1.215,2.017,2.537s-1.071,1.968-2.017,2.538c-.878.529-1.638.986-1.638,1.867s.759,1.338,1.639,1.867c.945.57,2.017,1.215,2.017,2.537s-1.071,1.969-2.017,2.538c-.878.53-1.638.987-1.638,1.868s.759,1.337,1.639,1.866c.945.57,2.017,1.215,2.017,2.537s-1.071,1.969-2.017,2.539c-.878.529-1.638.987-1.638,1.867s.759,1.338,1.638,1.868c.945.57,2.017,1.215,2.017,2.538s-1.071,1.969-2.017,2.538c-.878.53-1.637.987-1.637,1.868s.759,1.338,1.639,1.868c.945.57,2.017,1.216,2.017,2.538h-.016c-.006,1.315-1.073,1.959-2.016,2.528-.879.529-1.638.986-1.638,1.867s.759,1.337,1.638,1.866c.946.57,2.018,1.215,2.018,2.537s-1.071,1.969-2.017,2.538c-.88.53-1.638.987-1.638,1.868s.759,1.336,1.638,1.866c.946.57,2.018,1.215,2.018,2.537s-1.071,1.969-2.017,2.538c-.879.529-1.637.986-1.637,1.867s.759,1.336,1.637,1.866c.946.57,2.018,1.215,2.018,2.537s-1.072,1.968-2.017,2.537c-.879.53-1.637.987-1.637,1.867s.759,1.338,1.637,1.867c.946.57,2.018,1.215,2.018,2.537s-1.072,1.968-2.017,2.538c-.879.529-1.638.986-1.638,1.867s.759,1.336,1.638,1.867c.946.57,2.018,1.215,2.018,2.537s-1.072,1.968-2.017,2.537c-.879.53-1.639.987-1.638,1.867s.759,1.337,1.638,1.867c.946.571,2.018,1.215,2.018,2.538s-1.072,1.968-2.017,2.538c-.88.529-1.639.987-1.638,1.867s.759,1.338,1.638,1.867c.946.57,2.018,1.215,2.018,2.537s-1.072,1.969-2.017,2.538c-.88.53-1.639.987-1.638,1.868s.758,1.338,1.638,1.867c.946.571,2.018,1.216,2.018,2.538s-1.072,1.969-2.017,2.539c-.879.53-1.639.987-1.638,1.868s.759,1.337,1.638,1.868a4.345,4.345,0,0,1,1.8,1.6l235.529-.925a4.34,4.34,0,0,1,1.805-1.611c.878-.53,1.637-.987,1.637-1.868s-.758-1.338-1.637-1.868c-.945-.571-2.017-1.216-2.017-2.539s1.072-1.968,2.018-2.538c.878-.529,1.637-.986,1.637-1.867s-.758-1.338-1.637-1.868c-.945-.57-2.017-1.216-2.017-2.538s1.072-1.968,2.018-2.537c.879-.529,1.638-.986,1.638-1.867s-.758-1.338-1.638-1.867c-.946-.571-2.017-1.216-2.017-2.538s1.072-1.969,2.018-2.538c.879-.529,1.638-.986,1.638-1.867s-.758-1.337-1.638-1.867c-.945-.57-2.017-1.215-2.017-2.537s1.072-1.969,2.017-2.537c.88-.53,1.639-.987,1.639-1.867s-.759-1.338-1.638-1.867c-.946-.571-2.017-1.216-2.017-2.538s1.072-1.968,2.017-2.537c.88-.53,1.639-.987,1.639-1.867s-.759-1.338-1.638-1.867c-.946-.57-2.017-1.215-2.017-2.537s1.072-1.968,2.017-2.537c.88-.529,1.639-.986,1.639-1.866s-.759-1.337-1.638-1.867c-.946-.57-2.017-1.216-2.017-2.538s1.072-1.968,2.017-2.537c.879-.529,1.639-.986,1.639-1.867s-.759-1.337-1.637-1.867c-.946-.57-2.017-1.215-2.017-2.538s1.072-1.968,2.018-2.537c.878-.529,1.638-.986,1.638-1.867s-.759-1.336-1.638-1.866c-.943-.569-2.01-1.212-2.016-2.528h0v-.01h0c.007-1.315,1.074-1.959,2.016-2.528.879-.53,1.638-.987,1.638-1.868s-.759-1.338-1.638-1.868c-.946-.57-2.017-1.216-2.017-2.538s1.072-1.969,2.017-2.538c.879-.529,1.639-.987,1.639-1.868s-.759-1.338-1.638-1.868c-.946-.57-2.017-1.215-2.017-2.538s1.072-1.968,2.017-2.537c.88-.529,1.639-.986,1.639-1.866s-.759-1.337-1.638-1.868c-.946-.57-2.018-1.215-2.017-2.538s1.072-1.968,2.017-2.537c.88-.529,1.639-.987,1.639-1.867s-.759-1.338-1.638-1.867c-.946-.571-2.018-1.216-2.017-2.538s1.072-1.968,2.017-2.537c.88-.529,1.639-.986,1.639-1.867s-.759-1.338-1.638-1.867c-.946-.57-2.018-1.215-2.017-2.538s1.071-1.968,2.017-2.537c.879-.529,1.639-.986,1.639-1.867s-.759-1.336-1.639-1.866c-.945-.57-2.017-1.215-2.017-2.538s1.072-1.968,2.018-2.536c.879-.529,1.639-.987,1.639-1.867s-.759-1.337-1.639-1.867c-.945-.57-2.017-1.215-2.017-2.537s1.072-1.969,2.018-2.537c.879-.53,1.639-.987,1.639-1.867s-.759-1.338-1.639-1.867c-.945-.571-2.017-1.216-2.017-2.538s1.072-1.968,2.018-2.538c.88-.529,1.638-.986,1.639-1.866s-.759-1.338-1.638-1.867a4.359,4.359,0,0,1-1.8-1.6l-235.55.926A4.344,4.344,0,0,1,3564.214,563.285Z" transform="translate(-3561.786 -559.816)"/>
        <path id="Trazado_32410" data-name="Trazado 32410" d="M3566.2,560.71h-.783c0,.88-.759,1.337-1.639,1.867-.945.57-2.017,1.215-2.017,2.537s1.072,1.968,2.018,2.537c.88.529,1.639.986,1.639,1.867s-.759,1.338-1.639,1.867c-.945.571-2.017,1.216-2.017,2.538s1.072,1.968,2.018,2.537c.879.529,1.638.986,1.639,1.867s-.759,1.336-1.639,1.867c-.945.57-2.017,1.215-2.017,2.537s1.072,1.968,2.018,2.537c.878.529,1.638.986,1.638,1.867s-.758,1.336-1.638,1.866c-.945.57-2.017,1.215-2.017,2.538s1.072,1.968,2.018,2.537c.878.529,1.638.986,1.638,1.866s-.758,1.338-1.638,1.868c-.945.57-2.017,1.215-2.017,2.537s1.072,1.969,2.018,2.537c.878.53,1.638.987,1.638,1.867s-.758,1.337-1.638,1.867c-.945.571-2.017,1.216-2.017,2.538s1.072,1.968,2.018,2.537c.878.53,1.637.987,1.637,1.867s-.758,1.338-1.637,1.868c-.945.57-2.017,1.215-2.017,2.538s1.072,1.968,2.018,2.537c.878.529,1.637.986,1.637,1.866s-.758,1.339-1.637,1.868c-.945.571-2.017,1.216-2.017,2.538s1.072,1.969,2.018,2.538c.879.53,1.638.987,1.638,1.868s-.758,1.337-1.638,1.868c-.945.57-2.017,1.216-2.017,2.538s1.072,1.969,2.018,2.538c.875.528,1.63.984,1.637,1.857h-.015c0,.88-.759,1.338-1.637,1.867-.946.57-2.017,1.215-2.017,2.538s1.072,1.967,2.017,2.537c.879.529,1.638.986,1.638,1.867s-.759,1.337-1.637,1.867c-.946.57-2.017,1.215-2.017,2.538s1.072,1.968,2.017,2.537c.879.529,1.638.986,1.638,1.866s-.759,1.337-1.638,1.867c-.946.571-2.017,1.216-2.017,2.538s1.072,1.968,2.017,2.537c.88.529,1.639.986,1.639,1.866s-.759,1.337-1.638,1.867c-.946.57-2.017,1.215-2.017,2.537s1.072,1.968,2.017,2.537c.88.53,1.639.986,1.639,1.867s-.759,1.337-1.638,1.867c-.946.571-2.017,1.216-2.017,2.538s1.072,1.968,2.017,2.537c.88.529,1.639.986,1.639,1.867s-.759,1.337-1.638,1.867c-.946.57-2.018,1.215-2.017,2.538s1.071,1.968,2.017,2.537c.88.529,1.639.986,1.639,1.867s-.759,1.338-1.639,1.867c-.945.571-2.017,1.216-2.016,2.538s1.071,1.969,2.017,2.538c.879.528,1.639.986,1.639,1.866s-.759,1.337-1.639,1.868c-.945.57-2.017,1.215-2.016,2.538s1.071,1.969,2.017,2.538c.879.529,1.639.987,1.639,1.867s-.759,1.338-1.639,1.868c-.945.571-2.017,1.216-2.017,2.539s1.072,1.969,2.018,2.538c.879.53,1.639.987,1.639,1.868h.783v0l235.481-.925v0h.4c0-.88.759-1.337,1.639-1.868.945-.57,2.017-1.215,2.017-2.538s-1.071-1.969-2.017-2.539c-.878-.529-1.638-.987-1.638-1.868s.759-1.337,1.639-1.867c.945-.57,2.017-1.215,2.017-2.538s-1.071-1.969-2.017-2.538c-.878-.53-1.638-.987-1.638-1.868s.759-1.338,1.638-1.867c.945-.569,2.017-1.214,2.017-2.537s-1.071-1.968-2.017-2.538c-.878-.529-1.637-.986-1.637-1.867s.759-1.338,1.639-1.867c.945-.57,2.017-1.215,2.017-2.537s-1.071-1.969-2.017-2.538c-.878-.529-1.638-.987-1.638-1.867s.759-1.337,1.639-1.867c.945-.57,2.017-1.215,2.017-2.537s-1.071-1.968-2.017-2.538c-.879-.529-1.638-.987-1.638-1.867s.759-1.338,1.639-1.867c.945-.57,2.017-1.215,2.017-2.537s-1.071-1.968-2.017-2.537c-.879-.529-1.638-.987-1.638-1.867s.759-1.337,1.639-1.866c.945-.57,2.017-1.215,2.017-2.537s-1.071-1.969-2.017-2.538c-.879-.529-1.638-.986-1.638-1.867s.759-1.336,1.639-1.866c.945-.57,2.017-1.215,2.017-2.537s-1.071-1.969-2.017-2.538c-.879-.53-1.638-.987-1.638-1.867s.759-1.337,1.638-1.867c.946-.571,2.018-1.215,2.018-2.538s-1.071-1.968-2.017-2.537c-.879-.529-1.638-.986-1.638-1.866s.762-1.33,1.637-1.858c.946-.57,2.018-1.215,2.018-2.538s-1.071-1.969-2.017-2.538c-.88-.53-1.638-.987-1.638-1.868s.759-1.338,1.638-1.868c.946-.57,2.018-1.215,2.018-2.538s-1.072-1.969-2.017-2.538c-.879-.529-1.637-.987-1.637-1.868s.759-1.337,1.637-1.866c.946-.57,2.018-1.215,2.018-2.537s-1.072-1.969-2.017-2.538c-.879-.53-1.638-.987-1.637-1.868s.759-1.337,1.637-1.867c.946-.57,2.018-1.215,2.018-2.537s-1.072-1.968-2.017-2.538c-.879-.529-1.638-.987-1.638-1.867s.759-1.337,1.638-1.867c.946-.569,2.018-1.214,2.018-2.537s-1.072-1.968-2.017-2.537c-.879-.53-1.639-.987-1.638-1.868s.758-1.337,1.638-1.866c.946-.57,2.018-1.215,2.018-2.538s-1.072-1.968-2.017-2.537c-.879-.529-1.639-.986-1.638-1.867s.759-1.337,1.638-1.866c.946-.57,2.018-1.215,2.018-2.537s-1.072-1.968-2.017-2.537c-.88-.53-1.639-.987-1.639-1.867s.759-1.338,1.639-1.867c.946-.57,2.017-1.215,2.018-2.537s-1.072-1.968-2.017-2.538c-.879-.529-1.639-.987-1.639-1.867s.759-1.338,1.639-1.867c.946-.57,2.017-1.215,2.018-2.537s-1.072-1.968-2.017-2.537c-.879-.53-1.639-.987-1.639-1.867h-.783v.009Zm237.133,1.607c.879.529,1.638.987,1.638,1.867s-.759,1.337-1.639,1.866c-.946.571-2.017,1.215-2.018,2.538s1.072,1.968,2.017,2.538c.879.529,1.639.986,1.639,1.867s-.759,1.336-1.639,1.867c-.946.569-2.017,1.215-2.018,2.537s1.072,1.968,2.017,2.537c.879.53,1.639.987,1.639,1.867s-.759,1.337-1.639,1.867c-.946.569-2.017,1.214-2.018,2.536s1.072,1.969,2.017,2.538c.879.529,1.639.986,1.639,1.866s-.759,1.338-1.639,1.867c-.946.57-2.017,1.215-2.017,2.537s1.071,1.969,2.017,2.538c.879.529,1.638.987,1.638,1.867s-.759,1.337-1.639,1.867c-.945.57-2.017,1.215-2.017,2.537s1.071,1.968,2.017,2.538c.879.529,1.638.986,1.638,1.867s-.759,1.337-1.639,1.867c-.945.57-2.017,1.215-2.017,2.537s1.071,1.969,2.017,2.538c.879.53,1.638.987,1.638,1.868s-.759,1.337-1.639,1.866c-.945.57-2.017,1.215-2.017,2.537s1.071,1.969,2.017,2.538c.878.53,1.638.988,1.638,1.868s-.759,1.338-1.639,1.868c-.945.57-2.017,1.215-2.017,2.538s1.071,1.969,2.017,2.538c.878.53,1.638.987,1.638,1.868s-.759,1.337-1.638,1.868c-.942.569-2.009,1.212-2.016,2.528h0v.01h0c.006,1.315,1.073,1.959,2.016,2.528.878.529,1.638.986,1.638,1.866s-.759,1.338-1.638,1.867c-.946.57-2.018,1.215-2.018,2.537s1.071,1.969,2.017,2.538c.878.53,1.637.987,1.637,1.867s-.759,1.337-1.639,1.867c-.945.57-2.017,1.215-2.017,2.537s1.071,1.969,2.017,2.538c.879.529,1.638.986,1.638,1.867s-.759,1.337-1.639,1.866c-.945.57-2.017,1.215-2.017,2.537s1.071,1.968,2.017,2.537c.879.529,1.638.987,1.638,1.867s-.759,1.336-1.639,1.867c-.945.57-2.017,1.215-2.017,2.537s1.071,1.968,2.017,2.538c.879.529,1.638.986,1.638,1.867s-.759,1.336-1.639,1.867c-.945.569-2.017,1.214-2.017,2.537s1.072,1.968,2.017,2.537c.88.53,1.638.987,1.638,1.867s-.759,1.338-1.638,1.867c-.946.57-2.018,1.215-2.018,2.538s1.071,1.968,2.017,2.538c.88.529,1.638.987,1.638,1.867s-.759,1.337-1.638,1.867c-.946.57-2.018,1.215-2.018,2.537s1.072,1.969,2.017,2.538c.879.53,1.637.987,1.637,1.868s-.759,1.337-1.637,1.867c-.946.571-2.018,1.216-2.018,2.538s1.072,1.969,2.017,2.539c.879.53,1.637.987,1.637,1.868s-.759,1.338-1.637,1.868a4.34,4.34,0,0,0-1.805,1.611l-235.529.925a4.345,4.345,0,0,0-1.8-1.6c-.878-.53-1.638-.987-1.638-1.868s.758-1.338,1.638-1.868c.945-.571,2.017-1.216,2.017-2.539s-1.072-1.968-2.018-2.538c-.88-.529-1.638-.986-1.638-1.867s.758-1.338,1.638-1.868c.945-.57,2.017-1.215,2.017-2.538s-1.072-1.968-2.018-2.537c-.879-.529-1.638-.986-1.638-1.867s.758-1.337,1.638-1.867c.945-.571,2.017-1.216,2.017-2.538s-1.072-1.968-2.018-2.538c-.878-.529-1.638-.986-1.638-1.867s.758-1.337,1.638-1.867c.945-.57,2.017-1.215,2.017-2.537s-1.072-1.968-2.018-2.537c-.878-.53-1.638-.987-1.638-1.867s.758-1.338,1.638-1.867c.945-.571,2.017-1.216,2.017-2.538s-1.072-1.968-2.018-2.537c-.878-.529-1.637-.987-1.637-1.867s.758-1.336,1.637-1.867c.945-.57,2.017-1.215,2.017-2.537s-1.072-1.968-2.018-2.537c-.878-.529-1.637-.986-1.637-1.866s.758-1.338,1.637-1.867c.946-.57,2.017-1.215,2.017-2.538s-1.072-1.968-2.018-2.537c-.879-.529-1.638-.986-1.638-1.866s.758-1.338,1.638-1.868c.946-.57,2.017-1.215,2.017-2.538s-1.072-1.968-2.018-2.537c-.879-.529-1.638-.986-1.638-1.866s.759-1.338,1.638-1.867c.943-.569,2.01-1.212,2.016-2.528h.016c0-1.322-1.072-1.969-2.017-2.538-.879-.529-1.639-.987-1.639-1.868s.759-1.338,1.637-1.868c.946-.57,2.017-1.216,2.017-2.538s-1.072-1.969-2.017-2.538c-.879-.529-1.638-.987-1.638-1.868s.759-1.337,1.638-1.867c.946-.571,2.017-1.216,2.017-2.539s-1.072-1.968-2.017-2.537c-.879-.529-1.639-.986-1.639-1.866s.759-1.338,1.638-1.868c.946-.57,2.017-1.215,2.017-2.538s-1.072-1.968-2.017-2.537c-.879-.529-1.639-.987-1.639-1.867s.759-1.337,1.638-1.867c.946-.571,2.017-1.216,2.017-2.538s-1.072-1.968-2.017-2.537c-.88-.529-1.639-.986-1.639-1.867s.759-1.337,1.639-1.867c.945-.57,2.017-1.215,2.016-2.538s-1.071-1.968-2.017-2.537c-.88-.529-1.639-.986-1.639-1.867s.759-1.337,1.639-1.866c.945-.57,2.017-1.215,2.016-2.538s-1.071-1.967-2.017-2.536c-.879-.529-1.639-.987-1.639-1.867s.759-1.336,1.639-1.867c.945-.57,2.017-1.215,2.016-2.537s-1.071-1.968-2.017-2.537c-.879-.53-1.639-.987-1.639-1.867s.759-1.338,1.639-1.867c.945-.571,2.017-1.216,2.017-2.538s-1.072-1.968-2.018-2.537c-.879-.53-1.638-.987-1.639-1.867s.759-1.337,1.638-1.867a4.344,4.344,0,0,0,1.8-1.606l235.55-.926A4.359,4.359,0,0,0,3803.334,562.317Z" transform="translate(-3561.755 -559.779)"/>
      </g>
      <rect id="Rectángulo_7597" data-name="Rectángulo 7597" class="cls-2" width="220.474" height="140.471" transform="translate(11.763 9.511)"/>
      <path id="Trazado_32411" data-name="Trazado 32411" d="M3794.9,569.179v141.4H3573.5v-141.4Zm-.93,140.472V570.109H3574.427V709.651Z" transform="translate(-3562.198 -560.134)"/>
    </g>
    <g id="Grupo_10602" data-name="Grupo 10602" transform="translate(-8152.283 14767.936)">
      <path id="Trazado_33969" data-name="Trazado 33969" class="cls-3" d="M3634.417,609.152c-16.785,12.737-33.4,43.737-8.486,50.374s84.864-34.6,84.864-34.6S3680.874,573.9,3634.417,609.152Z" transform="translate(-3602.661 -586.331)"/>
      <path id="Trazado_33970" data-name="Trazado 33970" class="cls-4" d="M3749.438,665.331c-15.391,22.411-24.4,17.49-66.225,17.49s-57.215,3.136-67.272-21.06c-14.13-33.988,50.581-34.6,87.968-53.346C3748.3,586.159,3770.275,634.989,3749.438,665.331Z" transform="translate(-3602.689 -586.56)"/>
      <path id="Trazado_33971" data-name="Trazado 33971" class="cls-5" d="M3734.546,680.481c-7.146,8.94-20.5,3.568-47.209,3.568s-39.073-1.147-48.364-9.832c0-23.508,21.653-42.565,48.364-42.565S3738.75,652.188,3734.546,680.481Z" transform="translate(-3603.633 -587.65)"/>
      <g id="Grupo_10583" data-name="Grupo 10583" transform="translate(126.546 41.24)">
        <rect id="Rectángulo_8806" data-name="Rectángulo 8806" class="cls-6" width="32.766" height="23.2" rx="1.988" transform="translate(0 12.425) rotate(-22.285)"/>
        <rect id="Rectángulo_8807" data-name="Rectángulo 8807" class="cls-7" width="27.887" height="21.669" rx="1.193" transform="translate(0.952 12.862) rotate(-22.284)"/>
        <path id="Trazado_33972" data-name="Trazado 33972" class="cls-8" d="M3766.767,641.129a1.215,1.215,0,1,1,1.585.663A1.215,1.215,0,0,1,3766.767,641.129Z" transform="translate(-3735.003 -629.185)"/>
      </g>
      <path id="Trazado_33973" data-name="Trazado 33973" class="cls-9" d="M3770.1,615.543h1.576a.637.637,0,0,1,.58.318l.754,1.3a.638.638,0,0,1-.234.87l-.64.37a4.223,4.223,0,0,1,0,1.524l.64.37a.637.637,0,0,1,.234.869l-.754,1.3a.636.636,0,0,1-.63.313H3770.1a4.082,4.082,0,0,1-.68.313v.74a.638.638,0,0,1-.636.636h-1.506a.638.638,0,0,1-.637-.636v-.74a4.157,4.157,0,0,1-1.318-.763l-.642.371a.627.627,0,0,1-.375.081h-1.463v-2.127h.162a.628.628,0,0,1,.288-.36l.641-.37a4.223,4.223,0,0,1,0-1.524l-.641-.37a.634.634,0,0,1-.288-.359h-.3v-2.127h1.578a.64.64,0,0,1,.4.08l.642.37a4.155,4.155,0,0,1,1.318-.763v-.74a.639.639,0,0,1,.637-.636h1.506a.639.639,0,0,1,.636.636v.74a4.182,4.182,0,0,1,.674.308Zm-2.063,1.512a2.111,2.111,0,1,0,2.112,2.111A2.111,2.111,0,0,0,3768.035,617.055Z" transform="translate(-3608.307 -586.978)"/>
      <path id="Trazado_33974" data-name="Trazado 33974" class="cls-9" d="M3731.726,621.428l12.5-13.995a5.321,5.321,0,0,0,5.463-1.548l.6-.668a9.215,9.215,0,1,0-7.909-7.066l-.6.668a5.319,5.319,0,0,0-.924,5.6l-12.5,13.995a2.267,2.267,0,0,0,.18,3.191h0A2.267,2.267,0,0,0,3731.726,621.428Z" transform="translate(-3606.988 -585.958)"/>
      <path id="Trazado_33975" data-name="Trazado 33975" class="cls-8" d="M3631.6,644.146l6.326,14.785a10.553,10.553,0,0,0,13.813,5.535l-9.673,4.139-16.09,6.885-10.464-24.458-13.264-5.314,16.09-6.885Z" transform="translate(-3602.246 -587.921)"/>
      <path id="Trazado_33976" data-name="Trazado 33976" class="cls-3" d="M3759.67,702.18c6.516,0,11.831-1.436,11.831-3.2s-5.314-3.2-11.831-3.2-11.83,1.436-11.83,3.2S3753.155,702.18,3759.67,702.18Z" transform="translate(-3607.745 -590.073)"/>
      <path id="Trazado_33977" data-name="Trazado 33977" class="cls-5" d="M3751.909,620.286a20.723,20.723,0,0,0-29.3.177l27.224,26.9a2.761,2.761,0,0,0,4.51-.471A20.728,20.728,0,0,0,3751.909,620.286Z" transform="translate(-3606.792 -586.995)"/>
      <path id="Trazado_33978" data-name="Trazado 33978" class="cls-5" d="M3729.074,593.464a9.212,9.212,0,0,1,4.006,13.164,11.166,11.166,0,0,1-14.243,4.383,9.211,9.211,0,0,1-4.006-13.163A11.166,11.166,0,0,1,3729.074,593.464Z" transform="translate(-3606.448 -586.168)"/>
      <g id="Grupo_10584" data-name="Grupo 10584" transform="translate(119.686 0)">
        <path id="Trazado_33979" data-name="Trazado 33979" class="cls-10" d="M3730.573,621.121,3744.7,605.3l-3.371-3.011L3727.2,618.109a2.265,2.265,0,0,0,.18,3.191h0A2.267,2.267,0,0,0,3730.573,621.121Z" transform="translate(-3726.631 -586.541)"/>
        <path id="Trazado_33980" data-name="Trazado 33980" class="cls-11" d="M3749.035,605.259l3.88-4.344L3745,593.85l-3.88,4.344a5.319,5.319,0,0,0,.422,7.488h0A5.319,5.319,0,0,0,3749.035,605.259Z" transform="translate(-3727.127 -586.222)"/>
        <path id="Trazado_33981" data-name="Trazado 33981" class="cls-10" d="M3757.637,601.277a9.215,9.215,0,1,0-13.011.733A9.215,9.215,0,0,0,3757.637,601.277Z" transform="translate(-3727.194 -585.923)"/>
        <path id="Trazado_33982" data-name="Trazado 33982" class="cls-12" d="M3756.635,598.578a6.52,6.52,0,1,0-9.207.519A6.521,6.521,0,0,0,3756.635,598.578Z" transform="translate(-3727.334 -585.991)"/>
        <path id="Trazado_33983" data-name="Trazado 33983" class="cls-10" d="M3755.347,595.737a3.776,3.776,0,0,0,.282-1.357l.64-.211a.581.581,0,0,0,.369-.731l-.429-1.3a.581.581,0,0,0-.73-.37l-.639.211a3.889,3.889,0,0,0-.475-.509,3.828,3.828,0,0,0-.559-.415l.138-.658a.581.581,0,0,0-.449-.685l-1.34-.279a.58.58,0,0,0-.684.448l-.138.659a3.787,3.787,0,0,0-1.316.433l-.5-.448a.581.581,0,0,0-.817.046l-.912,1.021a.581.581,0,0,0,.046.818l.5.448a3.776,3.776,0,0,0-.282,1.357l-.64.211a.58.58,0,0,0-.368.73l.428,1.3a.579.579,0,0,0,.73.369l.64-.211a3.747,3.747,0,0,0,.475.509,3.8,3.8,0,0,0,.559.415l-.138.659a.581.581,0,0,0,.449.684l1.34.28a.58.58,0,0,0,.684-.448l.137-.66a3.78,3.78,0,0,0,1.318-.433l.5.448a.579.579,0,0,0,.817-.046l.912-1.021a.579.579,0,0,0-.045-.817l-.5-.448Zm-2.075-.16a1.92,1.92,0,1,1-.153-2.712A1.921,1.921,0,0,1,3753.271,595.577Z" transform="translate(-3727.4 -586.055)"/>
      </g>
      <path id="Trazado_33984" data-name="Trazado 33984" class="cls-13" d="M3623.347,703.881c6.516,0,11.831-1.437,11.831-3.2s-5.314-3.2-11.831-3.2-11.83,1.436-11.83,3.2S3616.832,703.881,3623.347,703.881Z" transform="translate(-3602.596 -590.137)"/>
      <path id="Rectángulo_8808" data-name="Rectángulo 8808" class="cls-14" d="M2.7,0H14.975a2.7,2.7,0,0,1,2.7,2.7V16.188a2.7,2.7,0,0,1-2.7,2.7H2.7a2.7,2.7,0,0,1-2.7-2.7V2.7A2.7,2.7,0,0,1,2.7,0Z" transform="matrix(0.788, -0.615, 0.615, 0.788, 22.555, 43.473)"/>
      <path id="Trazado_33985" data-name="Trazado 33985" class="cls-3" d="M3687.868,696.535c39.983,0,72.593-3.642,72.593-8.108s-32.61-8.107-72.593-8.107-72.594,3.642-72.594,8.107S3647.886,696.535,3687.868,696.535Z" transform="translate(-3602.738 -589.488)"/>
      <g id="Grupo_10585" data-name="Grupo 10585" transform="translate(124.355 39.258)">
        <rect id="Rectángulo_8809" data-name="Rectángulo 8809" class="cls-15" width="32.766" height="23.2" rx="1.988" transform="translate(0 12.425) rotate(-22.285)"/>
        <rect id="Rectángulo_8810" data-name="Rectángulo 8810" class="cls-16" width="27.887" height="21.669" rx="1.193" transform="matrix(0.925, -0.379, 0.379, 0.925, 0.952, 12.862)"/>
        <path id="Trazado_33986" data-name="Trazado 33986" class="cls-17" d="M3764.49,639.069a1.215,1.215,0,1,1,1.585.663A1.215,1.215,0,0,1,3764.49,639.069Z" transform="translate(-3732.726 -627.125)"/>
      </g>
      <path id="Trazado_33987" data-name="Trazado 33987" class="cls-18" d="M3721.64,622.136a9.582,9.582,0,1,0,13.633,13.469l-2.295-2.268a6.355,6.355,0,1,1-9.042-8.933Z" transform="translate(-3606.651 -587.291)"/>
      <path id="Trazado_33988" data-name="Trazado 33988" class="cls-19" d="M3746.878,619.03a20.723,20.723,0,0,0-29.3.177l27.224,26.9a2.759,2.759,0,0,0,4.51-.471A20.726,20.726,0,0,0,3746.878,619.03Z" transform="translate(-3606.602 -586.947)"/>
      <path id="Trazado_33989" data-name="Trazado 33989" class="cls-20" d="M3729.262,630.755l15.977,15.784a2.759,2.759,0,0,0,4.51-.471,20.752,20.752,0,0,0,2.095-19.935A20.728,20.728,0,0,0,3729.262,630.755Z" transform="translate(-3607.044 -587.384)"/>
      <path id="Trazado_33990" data-name="Trazado 33990" class="cls-21" d="M3736.008,634.614l-21.9-21.635a1.861,1.861,0,0,0-2.625.015h0a1.862,1.862,0,0,0,.016,2.625l21.9,21.635a1.861,1.861,0,0,0,2.625-.015h0A1.862,1.862,0,0,0,3736.008,634.614Z" transform="translate(-3606.352 -586.925)"/>
      <path id="Trazado_33991" data-name="Trazado 33991" class="cls-22" d="M3729.927,616.7,3727,613.808l-5.789,5.86,2.923,2.888a4.131,4.131,0,0,0,5.824-.036h0A4.131,4.131,0,0,0,3729.927,616.7Z" transform="translate(-3606.74 -586.976)"/>
      <path id="Trazado_33992" data-name="Trazado 33992" class="cls-23" d="M3726.955,613.773a4.109,4.109,0,1,0,.036,5.812A4.109,4.109,0,0,0,3726.955,613.773Z" transform="translate(-3606.692 -586.93)"/>
      <path id="Trazado_33993" data-name="Trazado 33993" class="cls-22" d="M3725.669,614.173a2.921,2.921,0,1,0,.025,4.131A2.922,2.922,0,0,0,3725.669,614.173Z" transform="translate(-3606.72 -586.958)"/>
      <path id="Trazado_33994" data-name="Trazado 33994" class="cls-8" d="M3722.263,618.861a2.922,2.922,0,1,0,.47-3.481A2.92,2.92,0,0,0,3722.263,618.861Z" transform="translate(-3606.765 -587.003)"/>
      <path id="Trazado_33995" data-name="Trazado 33995" class="cls-20" d="M3736.523,635.123l-8.758-8.653a1.862,1.862,0,0,0-2.625.016h0a1.862,1.862,0,0,0,.016,2.626l8.758,8.652a1.861,1.861,0,0,0,2.625-.015h0A1.862,1.862,0,0,0,3736.523,635.123Z" transform="translate(-3606.868 -587.434)"/>
      <path id="Trazado_33996" data-name="Trazado 33996" class="cls-19" d="M3736.707,635.305l-4.072-4.023a1.861,1.861,0,0,0-2.625.016h0a1.862,1.862,0,0,0,.016,2.625l4.072,4.023a1.861,1.861,0,0,0,2.625-.015h0A1.862,1.862,0,0,0,3736.707,635.305Z" transform="translate(-3607.052 -587.616)"/>
      <path id="Trazado_33997" data-name="Trazado 33997" class="cls-19" d="M3750.943,631.364l-1.78-1.759a1.862,1.862,0,0,0-2.625.015h0a1.861,1.861,0,0,0,.016,2.625l1.78,1.759a1.862,1.862,0,0,0,2.625-.015h0A1.862,1.862,0,0,0,3750.943,631.364Z" transform="translate(-3607.676 -587.553)"/>
      <path id="Trazado_33998" data-name="Trazado 33998" class="cls-24" d="M3750.4,640.608l-11.048-10.916a1.8,1.8,0,0,0-2.54.015h0a1.8,1.8,0,0,0,.015,2.54l11.048,10.915a1.8,1.8,0,0,0,2.539-.015h0A1.8,1.8,0,0,0,3750.4,640.608Z" transform="translate(-3607.309 -587.557)"/>
      <path id="Trazado_33999" data-name="Trazado 33999" class="cls-25" d="M3749.949,637.986l-1.832-1.81a1.758,1.758,0,0,0-2.485.014l-2.231,2.258a1.759,1.759,0,0,0,.015,2.484l1.832,1.81a1.764,1.764,0,0,0,2.484-.014l2.231-2.258a1.756,1.756,0,0,0,.5-1.243v0a1.755,1.755,0,0,0-.52-1.237Zm-2.787-.844,1.832,1.81a.4.4,0,0,1,0,.564l-2.231,2.258a.4.4,0,0,1-.281.117.394.394,0,0,1-.283-.114l-1.832-1.81a.4.4,0,0,1,0-.564l2.231-2.258a.4.4,0,0,1,.281-.119A.407.407,0,0,1,3747.163,637.142Z" transform="translate(-3607.559 -587.802)"/>
      <g id="Grupo_10586" data-name="Grupo 10586" transform="translate(3.263 28.571)">
        <path id="Trazado_34000" data-name="Trazado 34000" class="cls-26" d="M3641.7,642.808a.923.923,0,0,1-.215-1.19.72.72,0,0,1,1.073-.2.922.922,0,0,1,.214,1.19A.719.719,0,0,1,3641.7,642.808Z" transform="translate(-3606.987 -616.584)"/>
        <path id="Trazado_34001" data-name="Trazado 34001" class="cls-27" d="M3608.935,619.257l.335-3.088a.62.62,0,0,1,1.153-.244l3.93,6.781a.62.62,0,0,1-.7.909l-7.559-2.069a.621.621,0,0,1-.058-1.178Z" transform="translate(-3605.637 -615.615)"/>
        <path id="Trazado_34002" data-name="Trazado 34002" class="cls-28" d="M3612.006,621.623l.334-3.088a.62.62,0,0,1,1.154-.245l3.929,6.781a.62.62,0,0,1-.7.909l-7.559-2.069a.621.621,0,0,1-.058-1.178Z" transform="translate(-3605.753 -615.705)"/>
        <path id="Trazado_34003" data-name="Trazado 34003" class="cls-29" d="M3614.452,623.507l.334-3.089a.621.621,0,0,1,1.154-.244l3.93,6.781a.62.62,0,0,1-.7.909l-7.559-2.069a.621.621,0,0,1-.058-1.178Z" transform="translate(-3605.846 -615.776)"/>
        <path id="Trazado_34004" data-name="Trazado 34004" class="cls-30" d="M3662.448,660.48l.335-3.088a.62.62,0,0,1,1.153-.244l3.93,6.781a.62.62,0,0,1-.7.909l-7.56-2.07a.621.621,0,0,1-.058-1.178Z" transform="translate(-3607.658 -617.172)"/>
        <path id="Trazado_34005" data-name="Trazado 34005" class="cls-31" d="M3653.712,654.911l-45.892-35.352a.886.886,0,0,1-.162-1.238h0a.886.886,0,0,1,1.239-.161l45.892,35.352a.886.886,0,0,1,.161,1.239h0A.887.887,0,0,1,3653.712,654.911Z" transform="translate(-3605.707 -615.704)"/>
        <path id="Trazado_34006" data-name="Trazado 34006" class="cls-32" d="M3662.881,661.974l-11.468-8.834a.886.886,0,0,1-.161-1.238h0a.887.887,0,0,1,1.239-.162l11.468,8.834a.886.886,0,0,1,.161,1.238h0A.885.885,0,0,1,3662.881,661.974Z" transform="translate(-3607.353 -616.973)"/>
        <path id="Trazado_34007" data-name="Trazado 34007" class="cls-33" d="M3618.6,628.31h0a.638.638,0,0,1-.115-.893l.74-.96a.638.638,0,0,1,.893-.116h0a.639.639,0,0,1,.115.893l-.74.96A.638.638,0,0,1,3618.6,628.31Z" transform="translate(-3606.117 -616.015)"/>
        <path id="Trazado_34008" data-name="Trazado 34008" class="cls-33" d="M3619.954,629.355h0a.639.639,0,0,1-.116-.894l.74-.96a.639.639,0,0,1,.893-.115h0a.638.638,0,0,1,.116.893l-.74.96A.638.638,0,0,1,3619.954,629.355Z" transform="translate(-3606.169 -616.055)"/>
      </g>
      <g id="Grupo_10587" data-name="Grupo 10587" transform="translate(12.636 20.033)">
        <path id="Trazado_34009" data-name="Trazado 34009" class="cls-34" d="M3631.341,610.351l.009.014a4.822,4.822,0,0,1-1.3,6.677l-.475.32a1.59,1.59,0,0,0-.426,2.2l4.653,6.9a1.59,1.59,0,0,0,2.2.427l-1.313.886-1.116.753-1.313.886a1.588,1.588,0,0,0,.427-2.2l-4.654-6.9a1.589,1.589,0,0,0-2.2-.427l-.441.3a4.825,4.825,0,0,1-6.677-1.3l-.01-.014.588-.4.009.014a4.113,4.113,0,0,0,5.692,1.1l.842-.569a4.843,4.843,0,0,1-1.131-.085,4.79,4.79,0,0,1-3.072-2.025l-.01-.014.587-.4.01.014a3.4,3.4,0,1,0,5.621-3.794l-.01-.013.588-.4.009.014a4.823,4.823,0,0,1,.385,4.687l.841-.568a4.112,4.112,0,0,0,1.1-5.693l-.009-.013.588-.4Zm-3.057,7.885-.019.013h0Z" transform="translate(-3615.504 -606.878)"/>
        <path id="Trazado_34010" data-name="Trazado 34010" class="cls-35" d="M3618.271,616.364a2.825,2.825,0,0,1,4.527,1.486l-7.406,5A7.6,7.6,0,0,1,3618.271,616.364Z" transform="translate(-3615.378 -607.081)"/>
        <path id="Trazado_34011" data-name="Trazado 34011" class="cls-36" d="M3625.116,607.876c3.349-2.259,6.771-1.031,8.16,2.678l-13.347,9.008C3619.631,615.116,3621.769,610.137,3625.116,607.876Z" transform="translate(-3615.549 -606.742)"/>
        <path id="Trazado_34012" data-name="Trazado 34012" class="cls-37" d="M3631.536,607.472a2.789,2.789,0,0,1,4.47,1.467l-7.313,4.936A7.5,7.5,0,0,1,3631.536,607.472Z" transform="translate(-3615.881 -606.746)"/>
        <path id="Trazado_34013" data-name="Trazado 34013" class="cls-37" d="M3621.648,616.028a1.687,1.687,0,0,1,2.7.887l-4.421,2.984A4.533,4.533,0,0,1,3621.648,616.028Z" transform="translate(-3615.55 -607.078)"/>
        <path id="Trazado_34014" data-name="Trazado 34014" class="cls-37" d="M3635.881,607.245a1.2,1.2,0,0,1,1.929.634l-3.155,2.129A3.24,3.24,0,0,1,3635.881,607.245Z" transform="translate(-3616.106 -606.751)"/>
        <path id="Trazado_34015" data-name="Trazado 34015" class="cls-37" d="M3627.8,611.479a1.919,1.919,0,0,1,3.075,1.01l-5.031,3.395A5.161,5.161,0,0,1,3627.8,611.479Z" transform="translate(-3615.773 -606.905)"/>
      </g>
      <rect id="Rectángulo_8811" data-name="Rectángulo 8811" class="cls-38" width="11.059" height="11.059" rx="2.117" transform="translate(31.8 35.025) rotate(-83.174)"/>
      <rect id="Rectángulo_8812" data-name="Rectángulo 8812" class="cls-39" width="11.059" height="11.059" rx="2.117" transform="translate(29.509 34.751) rotate(-83.173)"/>
      <path id="Trazado_34016" data-name="Trazado 34016" class="cls-40" d="M3641.877,614.785h0a1.117,1.117,0,0,1-.187,1.565l-.936.736.736.937a1.117,1.117,0,0,1-.188,1.566h0a1.117,1.117,0,0,1-1.565-.188l-.736-.936-.937.736a1.117,1.117,0,0,1-1.565-.187h0a1.118,1.118,0,0,1,.187-1.566l.937-.737-.736-.937a1.118,1.118,0,0,1,.187-1.566h0a1.119,1.119,0,0,1,1.567.187l.736.937.937-.736A1.117,1.117,0,0,1,3641.877,614.785Z" transform="translate(-3603.531 -586.982)"/>
      <path id="Trazado_34017" data-name="Trazado 34017" class="cls-41" d="M3684.245,634.986h8.969c17.635,0,32.187,20.347,33.309,45.839h-75.587C3652.058,655.333,3666.61,634.986,3684.245,634.986Z" transform="translate(-3604.085 -587.776)"/>
      <path id="Trazado_34018" data-name="Trazado 34018" class="cls-42" d="M3641.442,654.073a4.189,4.189,0,1,1-2.2,5.5A4.187,4.187,0,0,1,3641.442,654.073Z" transform="translate(-3603.631 -588.484)"/>
      <path id="Trazado_34019" data-name="Trazado 34019" class="cls-43" d="M3648.614,638.4l-13.271,5.678,10.465,24.458,29.36-12.562L3664.7,631.517l-10.775-6.379Z" transform="translate(-3603.496 -587.404)"/>
      <path id="Trazado_34020" data-name="Trazado 34020" class="cls-44" d="M3635.743,643.95l6.326,14.784a10.552,10.552,0,0,0,13.813,5.535l-9.674,4.139-16.09,6.884-10.464-24.458-13.263-5.314,16.09-6.884Z" transform="translate(-3602.403 -587.914)"/>
      <path id="Trazado_34021" data-name="Trazado 34021" class="cls-45" d="M3619.652,650.835l16.09-6.884-13.264-5.315-16.09,6.884Z" transform="translate(-3602.403 -587.914)"/>
      <path id="Trazado_34022" data-name="Trazado 34022" class="cls-8" d="M3623.33,649.685l9.267-3.965a5.041,5.041,0,0,0-9.267,3.965Z" transform="translate(-3603.029 -588.07)"/>
      <path id="Trazado_34023" data-name="Trazado 34023" class="cls-46" d="M3665.225,631.3l-16.09,6.884.678-12.021,16.09-6.884Z" transform="translate(-3604.017 -587.183)"/>
      <g id="Grupo_10588" data-name="Grupo 10588" transform="translate(38.868 17.485)">
        <path id="Trazado_34024" data-name="Trazado 34024" class="cls-42" d="M3645.117,604.53l2.077,2.134a1.448,1.448,0,0,1-.027,2.042h0a1.448,1.448,0,0,1-2.043-.028l-2.077-2.133a1.448,1.448,0,0,1,.028-2.042h0A1.448,1.448,0,0,1,3645.117,604.53Z" transform="translate(-3642.64 -604.095)"/>
        <path id="Trazado_34025" data-name="Trazado 34025" class="cls-47" d="M3647.063,605.945l2.664,2.737a1.856,1.856,0,0,1-.035,2.618h0a1.858,1.858,0,0,1-2.619-.035l-2.664-2.737a1.857,1.857,0,0,1,.035-2.618h0A1.856,1.856,0,0,1,3647.063,605.945Z" transform="translate(-3642.687 -604.144)"/>
        <path id="Trazado_34026" data-name="Trazado 34026" class="cls-48" d="M3649.1,608.04l13.94,14.32a1.857,1.857,0,0,1-.035,2.618h0a1.857,1.857,0,0,1-2.618-.036l-13.941-14.32a1.856,1.856,0,0,1,.036-2.618h0A1.858,1.858,0,0,1,3649.1,608.04Z" transform="translate(-3642.764 -604.223)"/>
        <path id="Trazado_34027" data-name="Trazado 34027" class="cls-49" d="M3649.125,608.04l13.94,14.32a1.857,1.857,0,0,1-.036,2.618l-16.523-16.973A1.858,1.858,0,0,1,3649.125,608.04Z" transform="translate(-3642.786 -604.223)"/>
        <path id="Trazado_34028" data-name="Trazado 34028" class="cls-50" d="M3663.7,624.393l1.134,1.165a.908.908,0,0,1-.017,1.279h0a.906.906,0,0,1-1.279-.017l-1.134-1.164a.907.907,0,0,1,.017-1.279h0A.907.907,0,0,1,3663.7,624.393Z" transform="translate(-3643.377 -604.851)"/>
      </g>
      <path id="Rectángulo_8813" data-name="Rectángulo 8813" class="cls-51" d="M2.7,0H14.975a2.7,2.7,0,0,1,2.7,2.7V16.189a2.7,2.7,0,0,1-2.7,2.7H2.7a2.7,2.7,0,0,1-2.7-2.7V2.7A2.7,2.7,0,0,1,2.7,0Z" transform="matrix(0.788, -0.615, 0.615, 0.788, 27.256, 43.237)"/>
      <path id="Trazado_34029" data-name="Trazado 34029" class="cls-40" d="M3638.34,632.147a5.2,5.2,0,0,1,10.253-.432l.815.615,1.677,1.265-1.934.82-.844.358a5.2,5.2,0,0,1-9.967-2.626Z" transform="translate(-3603.608 -587.496)"/>
      <path id="Trazado_34030" data-name="Trazado 34030" class="cls-47" d="M3640.727,632.8l3.517-2.746a.781.781,0,0,1,1.095.135h0a.781.781,0,0,1-.135,1.094l-3.518,2.747a.782.782,0,0,1-1.094-.135h0A.78.78,0,0,1,3640.727,632.8Z" transform="translate(-3603.688 -587.584)"/>
      <path id="Trazado_34031" data-name="Trazado 34031" class="cls-47" d="M3642.361,634.962l1.469-1.146a.781.781,0,0,1,1.094.134h0a.78.78,0,0,1-.135,1.094l-1.468,1.147a.782.782,0,0,1-1.094-.135h0A.782.782,0,0,1,3642.361,634.962Z" transform="translate(-3603.75 -587.726)"/>
      <path id="Trazado_34032" data-name="Trazado 34032" class="cls-52" d="M3740.289,671.644l16.176-17.13c2.894-3.067,3.168-7.558.608-9.976L3734.157,622.9l-.048.051c3.952,5.169-1.989,10.183-5.7,14.115l-13.355,14.142c-2.9,3.069-3.169,7.558-.608,9.977l22.916,21.638.048-.051c-1.921-2.513-1.469-6.522,1.187-9.335Z" transform="translate(-3606.418 -587.32)"/>
      <path id="Trazado_34033" data-name="Trazado 34033" class="cls-53" d="M3642.988,648.322a65.01,65.01,0,0,1-4.927-5.066l24.047-10.288-.895,7.273Z" transform="translate(-3603.599 -587.7)"/>
      <path id="Trazado_34034" data-name="Trazado 34034" class="cls-40" d="M3642.547,645.617a1.968,1.968,0,0,1,1.463.379l0,0a1.975,1.975,0,0,1-2.376,3.155l0,0a1.975,1.975,0,0,1,.914-3.533Zm.668,1.434a.654.654,0,0,0-.787,1.045l0,0a.654.654,0,0,0,.787-1.045Z" transform="translate(-3603.704 -588.177)"/>
      <path id="Trazado_34035" data-name="Trazado 34035" class="cls-54" d="M3726.617,647.026a.674.674,0,0,1,.948-.235.742.742,0,0,1,.338.959,4.76,4.76,0,0,0,.185,4.673.66.66,0,0,1-.141.958.754.754,0,0,1-1-.235A6.169,6.169,0,0,1,3726.617,647.026Z" transform="translate(-3606.918 -588.218)"/>
      <path id="Trazado_34036" data-name="Trazado 34036" class="cls-55" d="M3727.256,646.792a.546.546,0,0,1,.563.445.426.426,0,0,1-.4.51.548.548,0,0,1-.564-.445A.427.427,0,0,1,3727.256,646.792Z" transform="translate(-3606.953 -588.222)"/>
      <path id="Trazado_34037" data-name="Trazado 34037" class="cls-56" d="M3727.5,652.846a4.764,4.764,0,0,1,1.433-4.138,1.114,1.114,0,0,0,.823.719.868.868,0,0,0,1.044-.8,1.109,1.109,0,0,0-.346-.882,9.344,9.344,0,0,1,2.883-.68S3733.333,653.829,3727.5,652.846Z" transform="translate(-3606.975 -588.232)"/>
      <path id="Trazado_34038" data-name="Trazado 34038" class="cls-57" d="M3733.372,647.063s0,5.988-4.86,5.878A27.778,27.778,0,0,0,3733.372,647.063Z" transform="translate(-3607.015 -588.232)"/>
      <path id="Trazado_34039" data-name="Trazado 34039" class="cls-58" d="M3720.326,645.663a1.658,1.658,0,0,1,1.315,1.733,1.292,1.292,0,0,1-1.556,1.194,1.658,1.658,0,0,1-1.315-1.732A1.293,1.293,0,0,1,3720.326,645.663Z" transform="translate(-3606.647 -588.178)"/>
      <path id="Trazado_34040" data-name="Trazado 34040" class="cls-58" d="M3724.319,645.813a.83.83,0,0,1,.658.866.647.647,0,0,1-.778.6.83.83,0,0,1-.657-.867A.645.645,0,0,1,3724.319,645.813Z" transform="translate(-3606.827 -588.185)"/>
      <path id="Trazado_34041" data-name="Trazado 34041" class="cls-58" d="M3730.135,644.88a.828.828,0,0,1,.657.866.646.646,0,0,1-.777.6.83.83,0,0,1-.657-.867A.645.645,0,0,1,3730.135,644.88Z" transform="translate(-3607.047 -588.149)"/>
      <path id="Trazado_34042" data-name="Trazado 34042" class="cls-26" d="M3719.832,659.551a.921.921,0,0,1,.731.962.719.719,0,0,1-.865.665.921.921,0,0,1-.731-.963A.719.719,0,0,1,3719.832,659.551Z" transform="translate(-3606.655 -588.703)"/>
      <path id="Trazado_34043" data-name="Trazado 34043" class="cls-26" d="M3724.434,661.909a.46.46,0,0,1,.365.48.358.358,0,0,1-.431.331.459.459,0,0,1-.365-.48A.358.358,0,0,1,3724.434,661.909Z" transform="translate(-3606.845 -588.793)"/>
      <path id="Trazado_34044" data-name="Trazado 34044" class="cls-59" d="M3727.117,652.907a6.761,6.761,0,0,0-7.236,2.328c-2.6,3.505-1.468,9.3,2.529,12.935,2.875,2.617,6.451,3.406,9.2,2.337a7.134,7.134,0,0,0,6.473-4.93c1.727-4.52-.054-10.12-3.98-12.509A6.642,6.642,0,0,0,3727.117,652.907Z" transform="translate(-3606.637 -588.418)"/>
      <path id="Trazado_34045" data-name="Trazado 34045" class="cls-58" d="M3732.706,656.649c-1.856-2.3-5.031-3.635-7.09-2.987s-2.225,3.036-.369,5.334,5.03,3.635,7.091,2.987S3734.562,658.947,3732.706,656.649Z" transform="translate(-3606.843 -588.475)"/>
      <path id="Trazado_34046" data-name="Trazado 34046" class="cls-40" d="M3727.2,655.38a3.028,3.028,0,0,0-2.851-1.2c-.829.261-.9,1.221-.148,2.145a3.029,3.029,0,0,0,2.851,1.2C3727.875,657.265,3727.942,656.3,3727.2,655.38Z" transform="translate(-3606.833 -588.499)"/>
      <path id="Trazado_34047" data-name="Trazado 34047" class="cls-40" d="M3730.618,658.863a1.513,1.513,0,0,0-1.426-.6c-.414.13-.448.61-.074,1.072a1.514,1.514,0,0,0,1.426.6C3730.958,659.805,3730.991,659.325,3730.618,658.863Z" transform="translate(-3607.029 -588.654)"/>
      <path id="Trazado_34048" data-name="Trazado 34048" class="cls-56" d="M3723.3,650.6a1.113,1.113,0,0,1,.882,1.162.867.867,0,0,1-1.044.8,1.112,1.112,0,0,1-.882-1.161A.867.867,0,0,1,3723.3,650.6Z" transform="translate(-3606.779 -588.365)"/>
      <path id="Trazado_34049" data-name="Trazado 34049" class="cls-56" d="M3734.8,642.658a.53.53,0,0,1,.421.555.414.414,0,0,1-.5.384.532.532,0,0,1-.423-.556A.415.415,0,0,1,3734.8,642.658Z" transform="translate(-3607.234 -588.066)"/>
      <path id="Trazado_34050" data-name="Trazado 34050" class="cls-60" d="M3724.425,666.4l6.017-1.455L3728,667.416l5.726.519-7.81.619,1.538-2.162Z" transform="translate(-3606.861 -588.908)"/>
      <path id="Trazado_34051" data-name="Trazado 34051" class="cls-58" d="M3733.141,637.993a1.085,1.085,0,0,1,.861,1.133.847.847,0,0,1-1.018.781,1.086,1.086,0,0,1-.861-1.133A.846.846,0,0,1,3733.141,637.993Z" transform="translate(-3607.152 -587.889)"/>
      <path id="Trazado_34052" data-name="Trazado 34052" class="cls-21" d="M3664.935,609.463l-9.7-12.406,2.124,6.041-18.137-17.041,21.851,24.934-1.772-7Z" transform="translate(-3603.643 -585.928)"/>
      <g id="Grupo_10589" data-name="Grupo 10589" transform="translate(27.969 63.79)">
        <path id="Trazado_34053" data-name="Trazado 34053" class="cls-54" d="M3632.2,655.3a.543.543,0,0,1,.462-.57.464.464,0,0,1,.539.426c0,.006.138,2.142,1.785,2.739a.477.477,0,0,1,.264.643.532.532,0,0,1-.658.307C3632.376,658.042,3632.2,655.308,3632.2,655.3Z" transform="translate(-3631.346 -652.312)"/>
        <path id="Trazado_34054" data-name="Trazado 34054" class="cls-55" d="M3632.469,654.886a.34.34,0,0,1,.484.014.35.35,0,0,1-.046.488.34.34,0,0,1-.484-.014A.351.351,0,0,1,3632.469,654.886Z" transform="translate(-3631.352 -652.314)"/>
        <path id="Trazado_34055" data-name="Trazado 34055" class="cls-36" d="M3634.829,658.342c-1.708-1.893-.349-4.6,1.282-6.125C3636.112,652.217,3638.543,656.3,3634.829,658.342Z" transform="translate(-3631.416 -652.217)"/>
        <path id="Trazado_34056" data-name="Trazado 34056" class="cls-35" d="M3636.167,652.217s2.15,3.616-.687,5.743A23.7,23.7,0,0,0,3636.167,652.217Z" transform="translate(-3631.47 -652.217)"/>
        <path id="Trazado_34057" data-name="Trazado 34057" class="cls-26" d="M3632.781,665.934a.557.557,0,0,1,.766.251.6.6,0,0,1-.259.792.559.559,0,0,1-.767-.252A.6.6,0,0,1,3632.781,665.934Z" transform="translate(-3631.357 -652.733)"/>
        <path id="Trazado_34058" data-name="Trazado 34058" class="cls-26" d="M3636.274,665.292a.279.279,0,0,1,.383.125.3.3,0,0,1-.13.395.278.278,0,0,1-.383-.125A.3.3,0,0,1,3636.274,665.292Z" transform="translate(-3631.495 -652.71)"/>
        <path id="Trazado_34059" data-name="Trazado 34059" class="cls-59" d="M3634.659,658.4a5.6,5.6,0,0,0-3.331,4.668c-.237,3.291,2.5,6.278,6.1,6.673a6.367,6.367,0,0,0,6.136-2.736,6.1,6.1,0,0,0,1.955-5.9c-.629-3.508-3.666-6.088-6.785-5.761A5.026,5.026,0,0,0,3634.659,658.4Z" transform="translate(-3631.313 -652.334)"/>
        <path id="Trazado_34060" data-name="Trazado 34060" class="cls-58" d="M3634.658,658.429a5.6,5.6,0,0,0-3.329,4.668c-.238,3.291,2.5,6.278,6.1,6.673a7.2,7.2,0,0,0,.782.043,5.874,5.874,0,0,0,2.4-2.114,6.1,6.1,0,0,0,1.955-5.9,6.86,6.86,0,0,0-5.82-5.771A5.258,5.258,0,0,0,3634.658,658.429Z" transform="translate(-3631.313 -652.361)"/>
        <path id="Trazado_34061" data-name="Trazado 34061" class="cls-61" d="M3639.167,658.306a5,5,0,0,0-5.156,1.392c-.952,1.321-.19,2.838,1.7,3.389a5.006,5.006,0,0,0,5.156-1.394C3641.824,660.373,3641.061,658.857,3639.167,658.306Z" transform="translate(-3631.4 -652.439)"/>
        <path id="Trazado_34062" data-name="Trazado 34062" class="cls-40" d="M3638.306,657.107a2.01,2.01,0,0,0-2.073.56c-.383.531-.077,1.141.685,1.362a2.011,2.011,0,0,0,2.073-.56C3639.375,657.938,3639.068,657.328,3638.306,657.107Z" transform="translate(-3631.493 -652.399)"/>
        <path id="Trazado_34063" data-name="Trazado 34063" class="cls-40" d="M3639.1,660.155a1.006,1.006,0,0,0-1.036.28c-.193.266-.039.571.343.681a1,1,0,0,0,1.036-.281C3639.636,660.571,3639.483,660.266,3639.1,660.155Z" transform="translate(-3631.565 -652.515)"/>
      </g>
      <path id="Trazado_34064" data-name="Trazado 34064" class="cls-62" d="M3726.472,592.272a9.21,9.21,0,0,1,4,13.163,11.164,11.164,0,0,1-14.242,4.383,9.211,9.211,0,0,1-4.006-13.163A11.165,11.165,0,0,1,3726.472,592.272Z" transform="translate(-3606.35 -586.123)"/>
      <path id="Trazado_34065" data-name="Trazado 34065" class="cls-63" d="M3726.472,592.272a9.8,9.8,0,0,1,2.264,1.5,9.29,9.29,0,0,1-.435,8.8,11.167,11.167,0,0,1-14.243,4.383,9.8,9.8,0,0,1-2.264-1.5,9.29,9.29,0,0,1,.435-8.8A11.165,11.165,0,0,1,3726.472,592.272Z" transform="translate(-3606.35 -586.123)"/>
      <path id="Trazado_34066" data-name="Trazado 34066" class="cls-40" d="M3650.428,618.434a2.534,2.534,0,0,1,1.88.488l0,0a2.539,2.539,0,1,1-3.056,4.056l0,0a2.54,2.54,0,0,1,1.176-4.544Zm.858,1.844a.841.841,0,0,0-1.012,1.343l0,0a.841.841,0,0,0,1.012-1.343Z" transform="translate(-3603.983 -587.15)"/>
      <g id="Grupo_10590" data-name="Grupo 10590" transform="translate(95.706 59.925)">
        <path id="Trazado_34067" data-name="Trazado 34067" class="cls-64" d="M3714.051,651.1c2.188,2.258,1.607,5.983-1.3,8.32s-7.034,2.4-9.222.142-1.607-5.983,1.3-8.319S3711.863,648.84,3714.051,651.1Z" transform="translate(-3701.728 -648.248)"/>
        <path id="Trazado_34068" data-name="Trazado 34068" class="cls-65" d="M3713.555,649.853c2.188,2.258,1.607,5.983-1.3,8.319s-7.034,2.4-9.222.143-1.607-5.983,1.3-8.319S3711.367,647.595,3713.555,649.853Z" transform="translate(-3701.709 -648.201)"/>
        <path id="Trazado_34069" data-name="Trazado 34069" class="cls-66" d="M3713.555,649.853a4.628,4.628,0,0,1,1.2,2.214,10.573,10.573,0,0,1-1.468,1.431,11.132,11.132,0,0,1-11.582,1.515,6.578,6.578,0,0,1,2.624-5.016C3707.238,647.659,3711.367,647.595,3713.555,649.853Z" transform="translate(-3701.709 -648.201)"/>
        <path id="Trazado_34070" data-name="Trazado 34070" class="cls-67" d="M3711.889,651.34c1.46,1.506,1.072,3.989-.866,5.548s-4.691,1.6-6.151.1-1.071-3.989.866-5.548S3710.43,649.834,3711.889,651.34Z" transform="translate(-3701.795 -648.278)"/>
        <path id="Trazado_34071" data-name="Trazado 34071" class="cls-64" d="M3711.895,651.326a3.27,3.27,0,0,1,.672,3.428,3.173,3.173,0,0,0-.844-2.735c-1.459-1.506-4.212-1.463-6.15.1a4.749,4.749,0,0,0-1.538,2.12,4.546,4.546,0,0,1,1.71-2.814C3707.682,649.862,3710.435,649.819,3711.895,651.326Z" transform="translate(-3701.797 -648.277)"/>
        <path id="Trazado_34072" data-name="Trazado 34072" class="cls-66" d="M3708.85,656.06c-1.88,1.512-3.713-.97-3.289-1.581,1.081-1.561,2.328,1.763,2.668.572.118-.418-2.019-1.2-.2-2.665,1.867-1.5,3.563.818,3.161,1.428-1,1.518-2.2-1.557-2.53-.432C3708.54,653.792,3710.7,654.576,3708.85,656.06Z" transform="translate(-3701.852 -648.34)"/>
      </g>
      <g id="Grupo_10591" data-name="Grupo 10591" transform="translate(102.782 64.498)">
        <path id="Trazado_34073" data-name="Trazado 34073" class="cls-64" d="M3711.866,654.4c-2.857,1.313-3.663,5-1.8,8.225s5.689,4.784,8.546,3.471,3.663-5,1.8-8.225S3714.723,653.086,3711.866,654.4Z" transform="translate(-3709.063 -652.989)"/>
        <path id="Trazado_34074" data-name="Trazado 34074" class="cls-65" d="M3712.778,653.419c-2.857,1.313-3.662,5-1.8,8.226s5.688,4.784,8.544,3.471,3.663-5,1.8-8.226S3715.636,652.106,3712.778,653.419Z" transform="translate(-3709.097 -652.953)"/>
        <path id="Trazado_34075" data-name="Trazado 34075" class="cls-66" d="M3712.813,653.419a4.641,4.641,0,0,0-1.924,1.629,10.771,10.771,0,0,0,.852,1.866,11.134,11.134,0,0,0,10.248,5.6,6.576,6.576,0,0,0-.63-5.626C3719.5,653.659,3715.67,652.106,3712.813,653.419Z" transform="translate(-3709.132 -652.953)"/>
        <path id="Trazado_34076" data-name="Trazado 34076" class="cls-67" d="M3713.983,655.45c-1.905.876-2.443,3.332-1.2,5.486s3.794,3.191,5.7,2.315,2.443-3.332,1.2-5.487S3715.888,654.574,3713.983,655.45Z" transform="translate(-3709.178 -653.035)"/>
        <path id="Trazado_34077" data-name="Trazado 34077" class="cls-64" d="M3713.984,655.435a3.272,3.272,0,0,0-1.867,2.954,3.173,3.173,0,0,1,1.776-2.244c1.906-.877,4.458.16,5.7,2.314a4.748,4.748,0,0,1,.667,2.533,4.546,4.546,0,0,0-.576-3.242C3718.442,655.6,3715.89,654.559,3713.984,655.435Z" transform="translate(-3709.178 -653.034)"/>
        <path id="Trazado_34078" data-name="Trazado 34078" class="cls-66" d="M3715.249,660.976c1.206,2.089,3.812.439,3.638-.285-.443-1.846-2.809.8-2.694-.432.041-.432,2.317-.392,1.152-2.412-1.2-2.075-3.617-.526-3.463.187.384,1.778,2.616-.654,2.514.514C3716.359,658.974,3714.066,658.924,3715.249,660.976Z" transform="translate(-3709.244 -653.098)"/>
      </g>
      <g id="Grupo_10592" data-name="Grupo 10592" transform="translate(120.96 69.819)">
        <path id="Trazado_34079" data-name="Trazado 34079" class="cls-64" d="M3730.31,659.7c-2.4,1.1-3.078,4.2-1.513,6.913s4.781,4.019,7.181,2.916,3.078-4.2,1.512-6.912S3732.71,658.595,3730.31,659.7Z" transform="translate(-3727.954 -658.514)"/>
        <path id="Trazado_34080" data-name="Trazado 34080" class="cls-65" d="M3731.076,658.875c-2.4,1.1-3.078,4.2-1.512,6.913s4.78,4.02,7.181,2.917,3.078-4.2,1.513-6.913S3733.477,657.771,3731.076,658.875Z" transform="translate(-3727.983 -658.482)"/>
        <path id="Trazado_34081" data-name="Trazado 34081" class="cls-66" d="M3731.105,658.875a3.894,3.894,0,0,0-1.616,1.368,9.023,9.023,0,0,0,.716,1.567,9.352,9.352,0,0,0,8.612,4.708,5.528,5.528,0,0,0-.53-4.727C3736.722,659.077,3733.506,657.771,3731.105,658.875Z" transform="translate(-3728.012 -658.482)"/>
        <path id="Trazado_34082" data-name="Trazado 34082" class="cls-67" d="M3732.088,660.581c-1.6.736-2.053,2.8-1.008,4.61a3.938,3.938,0,0,0,4.789,1.946c1.6-.736,2.052-2.8,1.009-4.611S3733.689,659.845,3732.088,660.581Z" transform="translate(-3728.051 -658.552)"/>
        <path id="Trazado_34083" data-name="Trazado 34083" class="cls-64" d="M3732.091,660.569a2.748,2.748,0,0,0-1.569,2.482,2.664,2.664,0,0,1,1.493-1.885c1.6-.736,3.745.134,4.789,1.945a4,4,0,0,1,.56,2.128,3.822,3.822,0,0,0-.484-2.724C3735.835,660.7,3733.692,659.833,3732.091,660.569Z" transform="translate(-3728.051 -658.551)"/>
        <path id="Trazado_34084" data-name="Trazado 34084" class="cls-66" d="M3733.154,665.224c1.012,1.756,3.2.369,3.056-.239-.371-1.551-2.359.673-2.263-.363.034-.364,1.947-.33.968-2.028-1.006-1.743-3.041-.442-2.911.158.323,1.494,2.2-.549,2.113.431C3734.086,663.542,3732.159,663.5,3733.154,665.224Z" transform="translate(-3728.107 -658.605)"/>
      </g>
      <rect id="Rectángulo_8814" data-name="Rectángulo 8814" class="cls-68" width="24.855" height="13.412" rx="2.748" transform="translate(122.647 82.218) rotate(-63.567)"/>
      <rect id="Rectángulo_8815" data-name="Rectángulo 8815" class="cls-69" width="24.855" height="13.374" rx="2.74" transform="translate(123.554 82.669) rotate(-63.568)"/>
      <path id="Trazado_34085" data-name="Trazado 34085" class="cls-70" d="M3751.323,659.851l-7.488,15.063a2.644,2.644,0,0,1-3.535,1.187l-7.253-3.605a2.645,2.645,0,0,1-1.187-3.535l5.357-10.778c0,.026-1.037,5.675,1.9,5.585C3740.984,663.709,3747.112,661.471,3751.323,659.851Z" transform="translate(-3607.132 -588.652)"/>
      <path id="Trazado_34086" data-name="Trazado 34086" class="cls-70" d="M3747.815,654.025a1.729,1.729,0,1,1-2.216.827A1.674,1.674,0,0,1,3747.815,654.025Z" transform="translate(-3607.654 -588.489)"/>
      <path id="Trazado_34087" data-name="Trazado 34087" class="cls-71" d="M3747.479,654.8a.9.9,0,1,1-1.157.431A.875.875,0,0,1,3747.479,654.8Z" transform="translate(-3607.684 -588.521)"/>
      <path id="Trazado_34088" data-name="Trazado 34088" class="cls-72" d="M3747.663,657.844a1.588,1.588,0,0,1-2.754-1.368,1.967,1.967,0,0,0,2.754,1.368Z" transform="translate(-3607.634 -588.588)"/>
      <g id="Grupo_10593" data-name="Grupo 10593" transform="translate(126.213 78.17)">
        <path id="Trazado_34089" data-name="Trazado 34089" class="cls-70" d="M3735.082,667.211h0a.479.479,0,0,1,.216.641l-.167.336a.48.48,0,0,1-.642.216h0a.48.48,0,0,1-.215-.641l.167-.336A.478.478,0,0,1,3735.082,667.211Z" transform="translate(-3733.444 -667.161)"/>
        <path id="Trazado_34090" data-name="Trazado 34090" class="cls-70" d="M3736.321,667.827h0a.479.479,0,0,1,.216.641l-.167.336a.479.479,0,0,1-.641.216h0a.479.479,0,0,1-.216-.641l.167-.336A.479.479,0,0,1,3736.321,667.827Z" transform="translate(-3733.491 -667.184)"/>
        <path id="Trazado_34091" data-name="Trazado 34091" class="cls-70" d="M3734.271,668.842h0a.48.48,0,0,1,.216.641l-.167.337a.479.479,0,0,1-.641.215h0a.479.479,0,0,1-.215-.641l.167-.336A.479.479,0,0,1,3734.271,668.842Z" transform="translate(-3733.413 -667.223)"/>
        <path id="Trazado_34092" data-name="Trazado 34092" class="cls-70" d="M3735.51,669.458h0a.479.479,0,0,1,.216.641l-.167.337a.479.479,0,0,1-.641.215h0a.48.48,0,0,1-.216-.641l.167-.336A.48.48,0,0,1,3735.51,669.458Z" transform="translate(-3733.46 -667.246)"/>
      </g>
      <g id="Grupo_10595" data-name="Grupo 10595" transform="translate(122.861 68.1)">
        <rect id="Rectángulo_8816" data-name="Rectángulo 8816" class="cls-73" width="26.832" height="8.806" rx="2.759" transform="translate(0 11.436) rotate(-18.873)"/>
        <path id="Trazado_34093" data-name="Trazado 34093" class="cls-74" d="M3753.621,660.317l10.175-3.478a2.666,2.666,0,0,1,2.923.844l-1.107.378a1.607,1.607,0,0,0-1,2.035l.683,2a1.606,1.606,0,0,0,2.034,1l1.107-.378a2.664,2.664,0,0,1-1.794,2.457l-10.175,3.478A2.662,2.662,0,0,1,3753.1,667l-1.131-3.308A2.662,2.662,0,0,1,3753.621,660.317Z" transform="translate(-3730.757 -656.696)"/>
        <path id="Trazado_34094" data-name="Trazado 34094" class="cls-75" d="M3768.524,662.756l-11.338,3.876a1.607,1.607,0,0,1-2.034-1l-.683-2a1.607,1.607,0,0,1,1-2.035l11.337-3.876a1.607,1.607,0,0,0-1,2.035l.683,2A1.607,1.607,0,0,0,3768.524,662.756Z" transform="translate(-3730.854 -656.735)"/>
        <g id="Grupo_10594" data-name="Grupo 10594" transform="translate(25.17 3.175)">
          <path id="Trazado_34095" data-name="Trazado 34095" class="cls-76" d="M3756.419,662.679l7.771-2.656a.49.49,0,0,1,.621.3h0a.49.49,0,0,1-.305.621l-7.77,2.657a.49.49,0,0,1-.621-.3h0A.49.49,0,0,1,3756.419,662.679Z" transform="translate(-3756.088 -659.996)"/>
          <path id="Trazado_34096" data-name="Trazado 34096" class="cls-76" d="M3757.053,664.534l7.771-2.657a.491.491,0,0,1,.621.305h0a.49.49,0,0,1-.305.621l-7.77,2.657a.49.49,0,0,1-.621-.305h0A.489.489,0,0,1,3757.053,664.534Z" transform="translate(-3756.112 -660.067)"/>
        </g>
        <path id="Trazado_34097" data-name="Trazado 34097" class="cls-77" d="M3747.867,665.267h0a.716.716,0,0,1,.906.445l.681,1.995a.715.715,0,0,1-.444.9h0a.715.715,0,0,1-.906-.444l-.681-1.995a.714.714,0,0,1,.443-.905Zm-12.159,4.157h0a.87.87,0,0,1,1.1.541l.581,1.7a.869.869,0,0,1-.541,1.1h0a.87.87,0,0,1-1.1-.54l-.581-1.7a.871.871,0,0,1,.541-1.1Zm3.779-1.292,4.818-1.646a1.772,1.772,0,0,1,2.244,1.1h0a1.772,1.772,0,0,1-1.1,2.243l-4.818,1.647a1.772,1.772,0,0,1-2.243-1.1h0A1.773,1.773,0,0,1,3739.488,668.131Z" transform="translate(-3730.126 -657.019)"/>
      </g>
      <path id="Trazado_34098" data-name="Trazado 34098" class="cls-78" d="M3717.819,663.526l27.386,5.947a10.827,10.827,0,0,1,8.26,12.84h0a10.828,10.828,0,0,1-12.841,8.259l-27.386-5.947a10.827,10.827,0,0,1-8.26-12.84h0A10.827,10.827,0,0,1,3717.819,663.526Z" transform="translate(-3606.117 -588.845)"/>
      <path id="Trazado_34099" data-name="Trazado 34099" class="cls-79" d="M3717.894,663.526l27.386,5.947a10.833,10.833,0,0,1,8.339,8.687,10.834,10.834,0,0,1-11.19,4.446l-27.387-5.946a10.835,10.835,0,0,1-8.338-8.687A10.832,10.832,0,0,1,3717.894,663.526Z" transform="translate(-3606.192 -588.845)"/>
      <path id="Trazado_34100" data-name="Trazado 34100" class="cls-80" d="M3717.819,663.526l3,.65a13.237,13.237,0,0,1,7.035,14.611h0a13.13,13.13,0,0,1-5.184,7.885l-9.43-2.048a10.827,10.827,0,0,1-8.26-12.84h0A10.827,10.827,0,0,1,3717.819,663.526Z" transform="translate(-3606.117 -588.845)"/>
      <path id="Trazado_34101" data-name="Trazado 34101" class="cls-79" d="M3704.257,655.493l11.874,2.578-5.594,25.767-4.734-1.028c-7.086-1.539-13.232-8.944-13.656-16.456h0C3691.721,658.841,3697.171,653.954,3704.257,655.493Z" transform="translate(-3605.641 -588.54)"/>
      <path id="Trazado_34102" data-name="Trazado 34102" class="cls-78" d="M3715.611,657.99l3.839.833a13.222,13.222,0,0,1,10.086,15.68h0a13.223,13.223,0,0,1-15.681,10.086l-3.838-.833a13.223,13.223,0,0,1-10.086-15.681h0A13.222,13.222,0,0,1,3715.611,657.99Z" transform="translate(-3605.925 -588.634)"/>
      <path id="Trazado_34103" data-name="Trazado 34103" class="cls-4" d="M3719.281,658.564l-3.042-.66h0l-11.9-2.584c-5.055-1.1-9.275,1.069-11.137,5.123,2.1-3.218,5.939-4.823,10.433-3.847l11.9,2.584h0l3.042.661a13.251,13.251,0,0,1,10.108,15.714h0a13.068,13.068,0,0,1-1.011,2.925,13.082,13.082,0,0,0,1.715-4.2h0A13.25,13.25,0,0,0,3719.281,658.564Z" transform="translate(-3605.682 -588.533)"/>
      <g id="Grupo_10596" data-name="Grupo 10596" transform="translate(39.277 54.956)">
        <path id="Trazado_34104" data-name="Trazado 34104" class="cls-54" d="M3657.59,643.258a.845.845,0,0,1,1.14,0,.724.724,0,0,1,.012,1.07c-.007.006-2.452,2.263-1.562,4.837a.74.74,0,0,1-.517.948.828.828,0,0,1-1.016-.495C3654.45,646.154,3657.583,643.267,3657.59,643.258Z" transform="translate(-3643.53 -643.037)"/>
        <path id="Trazado_34105" data-name="Trazado 34105" class="cls-55" d="M3658.443,643.173a.529.529,0,0,1,.456.6.543.543,0,0,1-.634.422.528.528,0,0,1-.456-.6A.544.544,0,0,1,3658.443,643.173Z" transform="translate(-3643.621 -643.042)"/>
        <path id="Trazado_34106" data-name="Trazado 34106" class="cls-36" d="M3656.344,649.49c.615-3.916,5.219-4.929,8.654-4.446C3665,645.044,3662.442,651.981,3656.344,649.49Z" transform="translate(-3643.566 -643.108)"/>
        <path id="Trazado_34107" data-name="Trazado 34107" class="cls-35" d="M3665.039,645.048s-2.262,6.139-7.608,4.792A36.776,36.776,0,0,0,3665.039,645.048Z" transform="translate(-3643.608 -643.113)"/>
        <path id="Trazado_34108" data-name="Trazado 34108" class="cls-26" d="M3645.387,654.37a.869.869,0,0,1,.448,1.173.937.937,0,0,1-1.21.462.869.869,0,0,1-.447-1.173A.935.935,0,0,1,3645.387,654.37Z" transform="translate(-3643.104 -643.462)"/>
        <path id="Trazado_34109" data-name="Trazado 34109" class="cls-26" d="M3649.6,657.953a.434.434,0,0,1,.223.585.467.467,0,0,1-.6.23.433.433,0,0,1-.222-.585A.465.465,0,0,1,3649.6,657.953Z" transform="translate(-3643.287 -643.599)"/>
        <path id="Trazado_34110" data-name="Trazado 34110" class="cls-59" d="M3655.845,649.488a8.707,8.707,0,0,0-8.9.547c-4.206,2.935-5.139,9.159-2.085,13.9a9.9,9.9,0,0,0,9.313,4.732,9.481,9.481,0,0,0,9.036-3.411c3.622-4.2,3.763-10.388.316-13.835A7.82,7.82,0,0,0,3655.845,649.488Z" transform="translate(-3643.065 -643.244)"/>
        <path id="Trazado_34111" data-name="Trazado 34111" class="cls-58" d="M3660.722,654.682c-1.189-2.827-4.2-5-6.731-4.863s-3.612,2.548-2.424,5.375,4.2,5,6.731,4.862S3661.91,657.509,3660.722,654.682Z" transform="translate(-3643.368 -643.293)"/>
        <path id="Trazado_34112" data-name="Trazado 34112" class="cls-40" d="M3661.431,652.419a3.13,3.13,0,0,0-2.707-1.955c-1.016.058-1.453,1.025-.975,2.162a3.129,3.129,0,0,0,2.707,1.955C3661.472,654.525,3661.909,653.556,3661.431,652.419Z" transform="translate(-3643.612 -643.317)"/>
        <path id="Trazado_34113" data-name="Trazado 34113" class="cls-40" d="M3658.563,656.349a1.567,1.567,0,0,0-1.354-.978c-.508.029-.726.513-.487,1.081a1.565,1.565,0,0,0,1.353.979C3658.583,657.4,3658.8,656.917,3658.563,656.349Z" transform="translate(-3643.577 -643.502)"/>
      </g>
      <path id="Trazado_34114" data-name="Trazado 34114" class="cls-79" d="M3658.92,662.291l-27.491,5.443a10.826,10.826,0,0,0-8.493,12.686h0a10.828,10.828,0,0,0,12.687,8.494l27.491-5.443a10.827,10.827,0,0,0,8.493-12.687h0A10.827,10.827,0,0,0,3658.92,662.291Z" transform="translate(-3603.02 -588.8)"/>
      <path id="Trazado_34115" data-name="Trazado 34115" class="cls-78" d="M3624.324,684.142a10.838,10.838,0,0,0,11.36,5.053l27.491-5.443a10.839,10.839,0,0,0,8.577-9,10.839,10.839,0,0,0-11.36-5.053l-27.491,5.443A10.836,10.836,0,0,0,3624.324,684.142Z" transform="translate(-3603.08 -589.079)"/>
      <path id="Trazado_34116" data-name="Trazado 34116" class="cls-80" d="M3654.51,685.389l9.649-1.91a10.827,10.827,0,0,0,8.493-12.687h0a10.835,10.835,0,0,0-8.623-8.514l-3.039.6a13.224,13.224,0,0,0-10.373,15.494h0A13.094,13.094,0,0,0,3654.51,685.389Z" transform="translate(-3604.064 -588.807)"/>
      <path id="Trazado_34117" data-name="Trazado 34117" class="cls-79" d="M3673.618,654.508l-11.919,2.36,5.121,25.866,4.752-.941c7.113-1.409,13.393-8.7,13.955-16.2h0C3686.091,658.086,3680.731,653.1,3673.618,654.508Z" transform="translate(-3604.492 -588.504)"/>
      <path id="Trazado_34118" data-name="Trazado 34118" class="cls-78" d="M3661.969,656.794l-3.854.763a13.222,13.222,0,0,0-10.372,15.493h0a13.222,13.222,0,0,0,15.493,10.373l3.853-.763a13.223,13.223,0,0,0,10.373-15.494h0A13.221,13.221,0,0,0,3661.969,656.794Z" transform="translate(-3603.955 -588.59)"/>
      <path id="Trazado_34119" data-name="Trazado 34119" class="cls-4" d="M3673.738,653.626,3661.746,656h0l-3.066.607a13.242,13.242,0,0,0-8.906,6.407,13.2,13.2,0,0,1,7.934-4.95l3.066-.607h0l11.993-2.375c7.157-1.417,12.55,3.6,11.983,11.15h0a17.608,17.608,0,0,1-2.581,7.736,18.092,18.092,0,0,0,3.552-9.194h0C3686.288,657.226,3680.9,652.208,3673.738,653.626Z" transform="translate(-3604.041 -588.471)"/>
      <path id="Trazado_34120" data-name="Trazado 34120" class="cls-61" d="M3647.221,653.958c1.479-.109,2.8,1.445,2.947,3.471s-.929,3.756-2.409,3.864-2.8-1.445-2.948-3.471S3645.741,654.066,3647.221,653.958Z" transform="translate(-3603.853 -588.492)"/>
      <path id="Trazado_34121" data-name="Trazado 34121" class="cls-81" d="M3659.329,659.2c3.989-.79,7.592.439,8.048,2.744s-2.407,4.813-6.4,5.6-7.592-.439-8.049-2.743S3655.341,659.993,3659.329,659.2Z" transform="translate(-3604.159 -588.682)"/>
      <path id="Trazado_34122" data-name="Trazado 34122" class="cls-81" d="M3710.079,657.862c3.586.778,6.088,3.271,5.59,5.567s-3.81,3.527-7.4,2.748-6.089-3.272-5.591-5.567S3706.494,657.083,3710.079,657.862Z" transform="translate(-3606.037 -588.631)"/>
      <g id="Grupo_10597" data-name="Grupo 10597" transform="translate(5.851 94.447)">
        <path id="Trazado_34123" data-name="Trazado 34123" class="cls-54" d="M3609.572,686.992a.543.543,0,0,1,.485-.55.465.465,0,0,1,.521.449c0,.006.048,2.146,1.67,2.812a.475.475,0,0,1,.236.652.531.531,0,0,1-.671.279C3609.633,689.738,3609.572,687,3609.572,686.992Z" transform="translate(-3608.374 -684.166)"/>
        <path id="Trazado_34124" data-name="Trazado 34124" class="cls-55" d="M3609.858,686.59a.339.339,0,0,1,.483.035.349.349,0,0,1-.066.485.34.34,0,0,1-.483-.035A.349.349,0,0,1,3609.858,686.59Z" transform="translate(-3608.379 -684.169)"/>
        <path id="Trazado_34125" data-name="Trazado 34125" class="cls-36" d="M3612.064,690.143c-1.627-1.963-.156-4.615,1.539-6.066C3613.6,684.077,3615.861,688.262,3612.064,690.143Z" transform="translate(-3608.441 -684.077)"/>
        <path id="Trazado_34126" data-name="Trazado 34126" class="cls-35" d="M3613.655,684.077s2,3.7-.927,5.708A23.659,23.659,0,0,0,3613.655,684.077Z" transform="translate(-3608.493 -684.077)"/>
        <path id="Trazado_34127" data-name="Trazado 34127" class="cls-26" d="M3609.707,697.64a.559.559,0,0,1,.757.285.6.6,0,0,1-.293.779.56.56,0,0,1-.756-.284A.6.6,0,0,1,3609.707,697.64Z" transform="translate(-3608.366 -684.587)"/>
        <path id="Trazado_34128" data-name="Trazado 34128" class="cls-26" d="M3613.224,697.144a.279.279,0,0,1,.377.141.3.3,0,0,1-.146.389.279.279,0,0,1-.377-.141A.3.3,0,0,1,3613.224,697.144Z" transform="translate(-3608.505 -684.57)"/>
        <path id="Trazado_34129" data-name="Trazado 34129" class="cls-59" d="M3611.884,690.206a5.6,5.6,0,0,0-3.522,4.524c-.375,3.278,2.23,6.377,5.818,6.922a6.368,6.368,0,0,0,6.245-2.477,6.1,6.1,0,0,0,2.2-5.81c-.481-3.532-3.408-6.236-6.538-6.04A5.028,5.028,0,0,0,3611.884,690.206Z" transform="translate(-3608.327 -684.199)"/>
        <path id="Trazado_34130" data-name="Trazado 34130" class="cls-58" d="M3611.884,690.228a5.6,5.6,0,0,0-3.522,4.524c-.375,3.278,2.23,6.377,5.818,6.922a7.241,7.241,0,0,0,.781.076,5.879,5.879,0,0,0,2.487-2.012,6.1,6.1,0,0,0,2.2-5.81,6.861,6.861,0,0,0-5.574-6.009A5.264,5.264,0,0,0,3611.884,690.228Z" transform="translate(-3608.327 -684.222)"/>
        <path id="Trazado_34131" data-name="Trazado 34131" class="cls-61" d="M3616.4,690.292a5,5,0,0,0-5.21,1.177c-1.007,1.279-.309,2.826,1.561,3.455a5,5,0,0,0,5.209-1.177C3618.971,692.468,3618.272,690.921,3616.4,690.292Z" transform="translate(-3608.417 -684.302)"/>
        <path id="Trazado_34132" data-name="Trazado 34132" class="cls-40" d="M3615.6,689.054a2.01,2.01,0,0,0-2.095.473c-.405.514-.124,1.136.627,1.389a2.011,2.011,0,0,0,2.095-.473C3616.628,689.929,3616.348,689.307,3615.6,689.054Z" transform="translate(-3608.515 -684.261)"/>
        <path id="Trazado_34133" data-name="Trazado 34133" class="cls-40" d="M3616.264,692.131a1.009,1.009,0,0,0-1.048.237c-.2.257-.062.569.314.695a1.007,1.007,0,0,0,1.048-.236C3616.781,692.569,3616.639,692.258,3616.264,692.131Z" transform="translate(-3608.583 -684.379)"/>
      </g>
      <path id="Trazado_34134" data-name="Trazado 34134" class="cls-28" d="M3612.9,628.962a5.2,5.2,0,1,1-4.816,5.553A5.2,5.2,0,0,1,3612.9,628.962Z" transform="translate(-3602.466 -587.548)"/>
      <path id="Trazado_34135" data-name="Trazado 34135" class="cls-40" d="M3615.663,634.64l-2.824,1.91a.62.62,0,0,1-.965-.47l-.242-3.4a.62.62,0,0,1,.889-.6l3.065,1.491a.62.62,0,0,1,.076,1.07Z" transform="translate(-3602.601 -587.664)"/>
      <path id="Trazado_34136" data-name="Trazado 34136" class="cls-28" d="M3608.4,630.353a2.566,2.566,0,0,1,2.6,1.435c.333.9-.293,1.725-1.4,1.836a2.566,2.566,0,0,1-2.6-1.435C3606.673,631.285,3607.3,630.463,3608.4,630.353Z" transform="translate(-3602.423 -587.601)"/>
      <path id="Trazado_34137" data-name="Trazado 34137" class="cls-28" d="M3604.24,630.007a1.284,1.284,0,0,1,1.3.718c.167.452-.146.863-.7.918a1.283,1.283,0,0,1-1.3-.718C3603.375,630.473,3603.688,630.063,3604.24,630.007Z" transform="translate(-3602.293 -587.588)"/>
      <path id="Trazado_34138" data-name="Trazado 34138" class="cls-82" d="M3733.991,594.622c1.025.546,1.16,1.873.3,2.965a2.885,2.885,0,0,1-3.406.986c-1.025-.546-1.16-1.872-.3-2.964A2.886,2.886,0,0,1,3733.991,594.622Z" transform="translate(-3607.072 -586.243)"/>
      <path id="Trazado_34139" data-name="Trazado 34139" class="cls-82" d="M3738.812,593.244a1.04,1.04,0,0,1,.167,1.631,1.586,1.586,0,0,1-1.874.543,1.039,1.039,0,0,1-.167-1.63A1.587,1.587,0,0,1,3738.812,593.244Z" transform="translate(-3607.322 -586.194)"/>
      <path id="Trazado_34140" data-name="Trazado 34140" class="cls-5" d="M3741.209,612.016c1.059.564,1.2,1.937.314,3.066A2.984,2.984,0,0,1,3738,616.1c-1.06-.565-1.2-1.938-.314-3.066A2.984,2.984,0,0,1,3741.209,612.016Z" transform="translate(-3607.34 -586.899)"/>
      <path id="Trazado_34141" data-name="Trazado 34141" class="cls-5" d="M3745.355,610.326a1.075,1.075,0,0,1,.173,1.687,1.641,1.641,0,0,1-1.938.561,1.074,1.074,0,0,1-.174-1.686A1.641,1.641,0,0,1,3745.355,610.326Z" transform="translate(-3607.566 -586.84)"/>
      <path id="Trazado_34142" data-name="Trazado 34142" class="cls-83" d="M3632.072,600.838a1.076,1.076,0,0,1,1.585-.6,1.641,1.641,0,0,1,1.044,1.727,1.075,1.075,0,0,1-1.584.6A1.642,1.642,0,0,1,3632.072,600.838Z" transform="translate(-3603.372 -586.459)"/>
      <path id="Trazado_34143" data-name="Trazado 34143" class="cls-83" d="M3628.683,598.229a.772.772,0,0,1,1.136-.433,1.179,1.179,0,0,1,.749,1.239.771.771,0,0,1-1.135.432A1.178,1.178,0,0,1,3628.683,598.229Z" transform="translate(-3603.244 -586.368)"/>
      <path id="Trazado_34144" data-name="Trazado 34144" class="cls-8" d="M3631.9,650.694l-13.945,3.521,5.83.458-20.931,8.852,28.9-9.039-6.5-1.107Z" transform="translate(-3602.269 -588.369)"/>
      <path id="Trazado_34145" data-name="Trazado 34145" class="cls-5" d="M3739.593,622.9l13.946-3.521-5.83-.458,20.932-8.852-28.9,9.039,6.5,1.108Z" transform="translate(-3607.434 -586.835)"/>
      <path id="Trazado_34146" data-name="Trazado 34146" class="cls-9" d="M3756.827,606.751c1.059.564,1.2,1.937.313,3.066a2.982,2.982,0,0,1-3.522,1.021c-1.06-.565-1.2-1.938-.315-3.067A2.985,2.985,0,0,1,3756.827,606.751Z" transform="translate(-3607.93 -586.7)"/>
      <path id="Trazado_34147" data-name="Trazado 34147" class="cls-9" d="M3761.813,605.326a1.076,1.076,0,0,1,.172,1.687,1.643,1.643,0,0,1-1.938.562,1.076,1.076,0,0,1-.173-1.687A1.642,1.642,0,0,1,3761.813,605.326Z" transform="translate(-3608.188 -586.651)"/>
      <path id="Trazado_34148" data-name="Trazado 34148" class="cls-28" d="M3611.3,608.53c-1.059.564-1.2,1.937-.315,3.066a2.985,2.985,0,0,0,3.524,1.021c1.059-.565,1.2-1.938.314-3.067A2.985,2.985,0,0,0,3611.3,608.53Z" transform="translate(-3602.554 -586.768)"/>
      <path id="Trazado_34149" data-name="Trazado 34149" class="cls-28" d="M3606.4,607.1a1.075,1.075,0,0,0-.172,1.687,1.641,1.641,0,0,0,1.938.562,1.076,1.076,0,0,0,.173-1.687A1.641,1.641,0,0,0,3606.4,607.1Z" transform="translate(-3602.385 -586.718)"/>
      <path id="Trazado_34150" data-name="Trazado 34150" class="cls-8" d="M3616.6,665.11c0,.682.644,1.124,1.447.986a1.694,1.694,0,0,0,1.462-1.484c0-.681-.643-1.123-1.445-.985A1.7,1.7,0,0,0,3616.6,665.11Z" transform="translate(-3602.788 -588.857)"/>
      <path id="Trazado_34151" data-name="Trazado 34151" class="cls-8" d="M3614.554,667.2c0,.375.353.619.8.543a.932.932,0,0,0,.8-.816c0-.375-.354-.618-.8-.543A.933.933,0,0,0,3614.554,667.2Z" transform="translate(-3602.711 -588.962)"/>
      <path id="Trazado_34152" data-name="Trazado 34152" class="cls-8" d="M3610.513,654.95a1.11,1.11,0,0,0,.531,1.668,1.694,1.694,0,0,0,2.066-.266,1.11,1.11,0,0,0-.53-1.669A1.7,1.7,0,0,0,3610.513,654.95Z" transform="translate(-3602.551 -588.511)"/>
      <path id="Trazado_34153" data-name="Trazado 34153" class="cls-8" d="M3607.633,655.326a.612.612,0,0,0,.292.918.933.933,0,0,0,1.136-.146.61.61,0,0,0-.292-.918A.935.935,0,0,0,3607.633,655.326Z" transform="translate(-3602.445 -588.534)"/>
      <path id="Trazado_34154" data-name="Trazado 34154" class="cls-84" d="M3721.685,593.728c1.817,1.067,1.631,3.661-.416,5.794s-5.177,3-6.994,1.929-1.63-3.661.416-5.794S3719.868,592.661,3721.685,593.728Z" transform="translate(-3606.43 -586.2)"/>
      <path id="Trazado_34155" data-name="Trazado 34155" class="cls-40" d="M3718.2,599.833l-1.876-1a2.576,2.576,0,0,0,.445,3.946l-.941,1.2a.563.563,0,0,0,.091.881h0a.856.856,0,0,0,1.011-.293l.938-1.2a3.925,3.925,0,0,0,4.514-1.167c1.427-1.82.522-2.836-.675-3.732l1.188-1.517a.729.729,0,0,1-.064.909l1.844.981a2.507,2.507,0,0,0-.292-3.788l.87-1.111a.563.563,0,0,0-.092-.881h0a.858.858,0,0,0-1.011.294l-.858,1.1a3.826,3.826,0,0,0-4.409,1.309c-1.25,1.631-.821,2.761.473,3.715l-1.079,1.376a.76.76,0,0,1-.077-1.022Zm2.543-2.125a.652.652,0,0,1,0-.986,1.207,1.207,0,0,1,1.05-.357l-1.052,1.343Zm-.388,2.491c.315.3.434.626.148.991a1.1,1.1,0,0,1-1.15.288Z" transform="translate(-3606.528 -586.19)"/>
      <g id="Grupo_10598" data-name="Grupo 10598" transform="translate(124.114 95.082)">
        <path id="Trazado_34156" data-name="Trazado 34156" class="cls-64" d="M3733.616,685.968c-2.429,1.116-3.115,4.248-1.531,7s4.838,4.068,7.268,2.951,3.115-4.248,1.531-7S3736.046,684.851,3733.616,685.968Z" transform="translate(-3731.233 -684.769)"/>
        <path id="Trazado_34157" data-name="Trazado 34157" class="cls-65" d="M3734.393,685.134c-2.43,1.117-3.115,4.249-1.531,7s4.838,4.068,7.268,2.951,3.115-4.248,1.531-7S3736.822,684.017,3734.393,685.134Z" transform="translate(-3731.262 -684.737)"/>
        <path id="Trazado_34158" data-name="Trazado 34158" class="cls-66" d="M3734.422,685.134a3.947,3.947,0,0,0-1.636,1.385,9.1,9.1,0,0,0,.725,1.587,9.463,9.463,0,0,0,8.715,4.764,5.6,5.6,0,0,0-.536-4.784C3740.106,685.338,3736.851,684.017,3734.422,685.134Z" transform="translate(-3731.291 -684.737)"/>
        <path id="Trazado_34159" data-name="Trazado 34159" class="cls-67" d="M3735.417,686.861c-1.621.746-2.077,2.834-1.021,4.666s3.226,2.714,4.847,1.969,2.077-2.834,1.021-4.666S3737.037,686.116,3735.417,686.861Z" transform="translate(-3731.331 -684.808)"/>
        <path id="Trazado_34160" data-name="Trazado 34160" class="cls-64" d="M3735.418,686.849a2.782,2.782,0,0,0-1.588,2.512,2.7,2.7,0,0,1,1.511-1.909c1.621-.745,3.791.137,4.848,1.969a4.033,4.033,0,0,1,.565,2.154,3.866,3.866,0,0,0-.488-2.757C3739.209,686.985,3737.039,686.1,3735.418,686.849Z" transform="translate(-3731.331 -684.807)"/>
        <path id="Trazado_34161" data-name="Trazado 34161" class="cls-66" d="M3736.494,691.561c1.025,1.777,3.242.374,3.094-.242-.376-1.569-2.388.68-2.291-.368.035-.368,1.971-.334.98-2.052-1.017-1.765-3.076-.448-2.946.159.327,1.513,2.226-.556,2.138.437C3737.438,689.859,3735.488,689.815,3736.494,691.561Z" transform="translate(-3731.387 -684.861)"/>
      </g>
      <path id="Trazado_34162" data-name="Trazado 34162" class="cls-40" d="M3623.8,638.816a2.745,2.745,0,0,1,3.249.869,1.521,1.521,0,0,1,.6-.4.873.873,0,0,1,1.144.454l-1.421.5-.769.268-3.862,1.344-2.2.768-1.311.456-1.057.368-3.513,1.224a3.656,3.656,0,0,1,2.183-2.54,1.9,1.9,0,0,1,1.8.211,3.4,3.4,0,0,1,1.709-1.434,2.15,2.15,0,0,1,1.008-.115A5.032,5.032,0,0,1,3623.8,638.816Z" transform="translate(-3602.715 -587.913)"/>
      <path id="Trazado_34163" data-name="Trazado 34163" class="cls-8" d="M3625.153,593.079a5.718,5.718,0,0,1,1.461.188,5.743,5.743,0,0,0,0,11.109,5.743,5.743,0,1,1-1.461-11.3Z" transform="translate(-3602.894 -586.193)"/>
      <path id="Trazado_34164" data-name="Trazado 34164" class="cls-10" d="M3753.17,694.708h8.029a.208.208,0,0,1,.208.208v2.58a.208.208,0,0,1-.208.208h-8.029a1.5,1.5,0,0,1-1.5-1.5h0A1.5,1.5,0,0,1,3753.17,694.708Z" transform="translate(-3607.89 -590.032)"/>
      <path id="Trazado_34165" data-name="Trazado 34165" class="cls-11" d="M3762.107,694.368l.639.368v3l-.639.368v1.129h-1.955l-1.3-.749-1.3-.748v-3l1.3-.749,1.3-.749h1.955Z" transform="translate(-3608.113 -589.976)"/>
      <path id="Trazado_34166" data-name="Trazado 34166" class="cls-10" d="M3762.184,693.239l1.3.749,1.3.749v2.995l-1.3.749-1.3.749-1.3-.749-1.3-.749v-2.995l1.3-.749Z" transform="translate(-3608.189 -589.976)"/>
      <path id="Trazado_34167" data-name="Trazado 34167" class="cls-11" d="M3769.291,615.36h1.576a.638.638,0,0,1,.581.318l.752,1.3a.639.639,0,0,1-.233.87l-.641.37a4.228,4.228,0,0,1,0,1.525l.641.37a.639.639,0,0,1,.233.87l-.752,1.3a.64.64,0,0,1-.631.314h-1.52a4.107,4.107,0,0,1-.68.312v.74a.638.638,0,0,1-.636.637h-1.506a.638.638,0,0,1-.636-.637v-.74a4.165,4.165,0,0,1-1.319-.762l-.642.37a.635.635,0,0,1-.375.082h-1.464v-2.128h.161a.634.634,0,0,1,.288-.361l.641-.37a4.228,4.228,0,0,1,0-1.525l-.641-.37a.635.635,0,0,1-.288-.358h-.3v-2.128h1.578a.641.641,0,0,1,.4.08l.642.37a4.15,4.15,0,0,1,1.319-.763v-.74a.638.638,0,0,1,.636-.636h1.506a.638.638,0,0,1,.636.636v.74a4.189,4.189,0,0,1,.673.309Zm-2.062,1.511a2.112,2.112,0,1,0,2.111,2.112A2.113,2.113,0,0,0,3767.229,616.871Z" transform="translate(-3608.277 -586.971)"/>
      <path id="Trazado_34168" data-name="Trazado 34168" class="cls-10" d="M3767.023,615.051a4.147,4.147,0,0,1,1.319.763l.642-.37a.638.638,0,0,1,.869.233l.753,1.3a.639.639,0,0,1-.233.87l-.641.37a4.222,4.222,0,0,1,0,1.524l.641.37a.639.639,0,0,1,.233.87l-.753,1.3a.637.637,0,0,1-.869.234l-.642-.371a4.147,4.147,0,0,1-1.319.763v.74a.638.638,0,0,1-.636.637h-1.506a.638.638,0,0,1-.636-.637v-.74a4.137,4.137,0,0,1-1.319-.763l-.642.371a.638.638,0,0,1-.87-.234l-.752-1.3a.639.639,0,0,1,.233-.87l.641-.37a4.237,4.237,0,0,1,0-1.524l-.641-.37a.639.639,0,0,1-.233-.87l.752-1.3a.639.639,0,0,1,.87-.233l.642.37a4.137,4.137,0,0,1,1.319-.763v-.74a.638.638,0,0,1,.636-.636h1.506a.638.638,0,0,1,.636.636v.74Zm-1.389,1.82a2.112,2.112,0,1,0,2.112,2.112A2.111,2.111,0,0,0,3765.634,616.871Z" transform="translate(-3608.227 -586.971)"/>
      <path id="Trazado_34169" data-name="Trazado 34169" class="cls-8" d="M3617.7,646.1a1.109,1.109,0,0,0,.53,1.668,1.7,1.7,0,0,0,2.066-.266,1.11,1.11,0,0,0-.53-1.669A1.7,1.7,0,0,0,3617.7,646.1Z" transform="translate(-3602.822 -588.177)"/>
      <path id="Trazado_34170" data-name="Trazado 34170" class="cls-8" d="M3614.822,646.481a.611.611,0,0,0,.292.918.935.935,0,0,0,1.138-.146.611.611,0,0,0-.292-.918A.933.933,0,0,0,3614.822,646.481Z" transform="translate(-3602.717 -588.2)"/>
      <rect id="Rectángulo_8817" data-name="Rectángulo 8817" class="cls-85" width="21.212" height="30.179" rx="10.606" transform="translate(74.039 33.841)"/>
      <g id="Grupo_10601" data-name="Grupo 10601" transform="translate(64.323 1.532)">
        <path id="Trazado_34171" data-name="Trazado 34171" class="cls-86" d="M3678.807,608.533h0a2.221,2.221,0,0,1-2.216,2.215h-4.839a2.221,2.221,0,0,1-2.215-2.215h0a2.222,2.222,0,0,1,2.215-2.216h4.839A2.222,2.222,0,0,1,3678.807,608.533Z" transform="translate(-3669.111 -588.226)"/>
        <path id="Trazado_34172" data-name="Trazado 34172" class="cls-86" d="M3678.337,609.867h0a2.222,2.222,0,0,1-3.134,0l-3.421-3.421a2.222,2.222,0,0,1,0-3.134h0a2.221,2.221,0,0,1,3.133,0l3.422,3.422A2.221,2.221,0,0,1,3678.337,609.867Z" transform="translate(-3669.171 -588.088)"/>
        <path id="Trazado_34173" data-name="Trazado 34173" class="cls-87" d="M3704.5,611.112h0a2.548,2.548,0,0,1,2.54,2.541v7.655a2.548,2.548,0,0,1-2.54,2.54h0a2.549,2.549,0,0,1-2.542-2.54v-7.655A2.549,2.549,0,0,1,3704.5,611.112Z" transform="translate(-3670.335 -588.407)"/>
        <path id="Trazado_34174" data-name="Trazado 34174" class="cls-86" d="M3675.262,611.112h0a2.548,2.548,0,0,1,2.541,2.541v7.655a2.548,2.548,0,0,1-2.541,2.54h0a2.548,2.548,0,0,1-2.54-2.54v-7.655A2.548,2.548,0,0,1,3675.262,611.112Z" transform="translate(-3669.231 -588.407)"/>
        <path id="Trazado_34175" data-name="Trazado 34175" class="cls-86" d="M3691.281,602.183h0a7.207,7.207,0,0,0,0,10.162l4.3,4.3a7.207,7.207,0,0,0,10.162,0h0a7.207,7.207,0,0,0,0-10.162l-4.3-4.3A7.205,7.205,0,0,0,3691.281,602.183Z" transform="translate(-3669.853 -587.99)"/>
        <path id="Trazado_34176" data-name="Trazado 34176" class="cls-86" d="M3688.779,602.183h0a7.207,7.207,0,0,1,0,10.162l-4.3,4.3a7.207,7.207,0,0,1-10.162,0h0a7.207,7.207,0,0,1,0-10.162l4.3-4.3A7.205,7.205,0,0,1,3688.779,602.183Z" transform="translate(-3669.212 -587.99)"/>
        <path id="Rectángulo_8818" data-name="Rectángulo 8818" class="cls-88" d="M14.591,0h0A14.591,14.591,0,0,1,29.182,14.591V26.925A14.591,14.591,0,0,1,14.591,41.516h0A14.591,14.591,0,0,1,0,26.925V14.591A14.591,14.591,0,0,1,14.591,0Z" transform="translate(5.509 16.359)"/>
        <path id="Trazado_34177" data-name="Trazado 34177" class="cls-4" d="M3690.284,604.517h0c-.236,0-.47.007-.7.017a14.637,14.637,0,0,1,13.888,14.573v12.335a14.636,14.636,0,0,1-13.888,14.573c.233.012.467.018.7.018h0a14.635,14.635,0,0,0,14.591-14.591V619.107A14.634,14.634,0,0,0,3690.284,604.517Z" transform="translate(-3669.868 -588.158)"/>
        <path id="Trazado_34178" data-name="Trazado 34178" class="cls-79" d="M3680.332,642.88a14.579,14.579,0,0,1-5.513-11.4V619.145a8.664,8.664,0,1,1,14.9-2.223v12.335A14.644,14.644,0,0,1,3680.332,642.88Z" transform="translate(-3669.31 -588.196)"/>
        <path id="Trazado_34179" data-name="Trazado 34179" class="cls-89" d="M3682.438,617.445h0a2.69,2.69,0,0,0-2,2.527v1.271a2.553,2.553,0,0,1,2-1.974h0a1.588,1.588,0,0,1,2,1.178V619.1A1.6,1.6,0,0,0,3682.438,617.445Z" transform="translate(-3669.522 -588.644)"/>
        <path id="Trazado_34180" data-name="Trazado 34180" class="cls-89" d="M3696.936,617.445h0a2.691,2.691,0,0,1,2,2.527v1.271a2.555,2.555,0,0,0-2-1.974h0a1.588,1.588,0,0,0-2,1.178V619.1A1.6,1.6,0,0,1,3696.936,617.445Z" transform="translate(-3670.07 -588.644)"/>
        <path id="Trazado_34181" data-name="Trazado 34181" class="cls-90" d="M3701.107,592.314h0a8.785,8.785,0,0,1,0,12.387l-5.236,5.237a8.785,8.785,0,0,1-12.387,0h0a8.785,8.785,0,0,1,0-12.387l5.236-5.236A8.785,8.785,0,0,1,3701.107,592.314Z" transform="translate(-3669.541 -587.6)"/>
        <path id="Trazado_34182" data-name="Trazado 34182" class="cls-78" d="M3702.492,622.987a5.075,5.075,0,0,1,4.943-3.746,3.179,3.179,0,0,1,3.006,4.127,5.078,5.078,0,0,1-4.944,3.747A3.18,3.18,0,0,1,3702.492,622.987Z" transform="translate(-3670.351 -588.714)"/>
        <path id="Trazado_34183" data-name="Trazado 34183" class="cls-89" d="M3705.123,622.485a2.166,2.166,0,0,1,1.867-1.012,1.46,1.46,0,0,1,1.375,1.879,2.174,2.174,0,0,1-1.119,1.379.274.274,0,0,1-.357-.392,1.491,1.491,0,0,0,.187-.43.914.914,0,0,0-.869-1.2,1.462,1.462,0,0,0-.727.168.274.274,0,0,1-.357-.392Z" transform="translate(-3670.453 -588.798)"/>
        <path id="Trazado_34184" data-name="Trazado 34184" class="cls-79" d="M3677.159,622.987a5.075,5.075,0,0,0-4.943-3.746,3.178,3.178,0,0,0-3.005,4.127,5.077,5.077,0,0,0,4.943,3.747A3.179,3.179,0,0,0,3677.159,622.987Z" transform="translate(-3669.094 -588.714)"/>
        <path id="Trazado_34185" data-name="Trazado 34185" class="cls-89" d="M3674.719,622.485a2.164,2.164,0,0,0-1.868-1.012,1.46,1.46,0,0,0-1.374,1.879,2.171,2.171,0,0,0,1.119,1.379.274.274,0,0,0,.357-.392,1.433,1.433,0,0,1-.187-.43.913.913,0,0,1,.868-1.2,1.458,1.458,0,0,1,.728.168.274.274,0,0,0,.357-.392Z" transform="translate(-3669.182 -588.798)"/>
        <path id="Trazado_34186" data-name="Trazado 34186" class="cls-91" d="M3699.381,589.122h0a5.524,5.524,0,0,1,0,7.789l-3.292,3.292a5.523,5.523,0,0,1-7.788,0h0a5.524,5.524,0,0,1,0-7.789l3.292-3.292A5.523,5.523,0,0,1,3699.381,589.122Z" transform="translate(-3669.759 -587.516)"/>
        <path id="Trazado_34187" data-name="Trazado 34187" class="cls-91" d="M3687.343,601.674h0a2.066,2.066,0,0,1,0,2.914l-1.232,1.233a2.067,2.067,0,0,1-2.915,0h0a2.067,2.067,0,0,1,0-2.915l1.232-1.232A2.067,2.067,0,0,1,3687.343,601.674Z" transform="translate(-3669.604 -588.028)"/>
        <g id="Grupo_10600" data-name="Grupo 10600" transform="translate(11.823 39.203)">
          <g id="Grupo_10599" data-name="Grupo 10599">
            <path id="Trazado_34188" data-name="Trazado 34188" class="cls-92" d="M3697.934,630.149v.621a15.579,15.579,0,0,1-2.034,7.956,6.9,6.9,0,0,1-12.486,0,15.589,15.589,0,0,1-2.033-7.956v-.62a1.879,1.879,0,0,1,1.37-1.748,2.421,2.421,0,0,1,2.4.433,6.632,6.632,0,0,0,9.008,0,2.423,2.423,0,0,1,2.4-.432A1.88,1.88,0,0,1,3697.934,630.149Z" transform="translate(-3681.381 -628.258)"/>
            <path id="Trazado_34189" data-name="Trazado 34189" class="cls-93" d="M3696.466,637.983q-.233.473-.506.925a6.9,6.9,0,0,1-12.486,0c-.182-.3-.351-.609-.506-.925.155-.317.324-.625.506-.927a6.9,6.9,0,0,1,12.486,0Q3696.234,637.508,3696.466,637.983Z" transform="translate(-3681.441 -628.44)"/>
            <path id="Trazado_34190" data-name="Trazado 34190" class="cls-42" d="M3694.206,639.44a5.553,5.553,0,0,1-8.793,0,5.549,5.549,0,0,1,8.793,0Z" transform="translate(-3681.533 -628.599)"/>
            <path id="Trazado_34191" data-name="Trazado 34191" class="cls-94" d="M3687.078,638.964a3.05,3.05,0,0,1,2.157-.923,2.887,2.887,0,0,1,1.1.216.374.374,0,0,1,.119.612,3.052,3.052,0,0,1-2.157.923,2.91,2.91,0,0,1-1.1-.217.373.373,0,0,1-.118-.612Z" transform="translate(-3681.592 -628.627)"/>
            <path id="Trazado_34192" data-name="Trazado 34192" class="cls-40" d="M3682.85,629.286a2.418,2.418,0,0,1,2.358.446,6.63,6.63,0,0,0,9.008,0,2.418,2.418,0,0,1,2.359-.446,12.255,12.255,0,0,1-.621,1.162,6.9,6.9,0,0,1-12.486,0A12.472,12.472,0,0,1,3682.85,629.286Z" transform="translate(-3681.437 -628.292)"/>
          </g>
          <path id="Trazado_34193" data-name="Trazado 34193" class="cls-81" d="M3686.815,643.993a6.646,6.646,0,0,0,6.073,0,.207.207,0,0,1,.266.3,3.84,3.84,0,0,1-6.6,0,.207.207,0,0,1,.267-.3Z" transform="translate(-3681.575 -628.851)"/>
        </g>
        <path id="Trazado_34194" data-name="Trazado 34194" class="cls-89" d="M3685.618,609.5h0a1.825,1.825,0,0,1-.666,2.486l-3.248,1.875a1.826,1.826,0,0,1-2.487-.667h0a1.827,1.827,0,0,1,.666-2.486l3.249-1.874A1.824,1.824,0,0,1,3685.618,609.5Z" transform="translate(-3669.467 -588.311)"/>
        <path id="Trazado_34195" data-name="Trazado 34195" class="cls-89" d="M3694.269,611.138h0a1.825,1.825,0,0,0,.667,2.485l3.248,1.875a1.825,1.825,0,0,0,2.486-.666h0a1.825,1.825,0,0,0-.666-2.486l-3.248-1.875A1.825,1.825,0,0,0,3694.269,611.138Z" transform="translate(-3670.035 -588.373)"/>
      </g>
    </g>
  </g>
</svg>
