<svg xmlns="http://www.w3.org/2000/svg" xmlns:xlink="http://www.w3.org/1999/xlink" width="244" height="159.49" viewBox="0 0 244 159.49">
  <defs>
    <style>
      .cls-1 {
        fill: #fff;
      }

      .cls-2 {
        fill: url(#linear-gradient);
      }

      .cls-3, .cls-5 {
        fill: #c3ecee;
      }

      .cls-11, .cls-12, .cls-13, .cls-14, .cls-15, .cls-16, .cls-17, .cls-18, .cls-19, .cls-20, .cls-21, .cls-22, .cls-23, .cls-24, .cls-26, .cls-27, .cls-28, .cls-29, .cls-3, .cls-30, .cls-31, .cls-32, .cls-33, .cls-38, .cls-39, .cls-4, .cls-41, .cls-42, .cls-45, .cls-46, .cls-47, .cls-49, .cls-5, .cls-50, .cls-51, .cls-52, .cls-53, .cls-54, .cls-6, .cls-9 {
        fill-rule: evenodd;
      }

      .cls-4 {
        fill: #7ec2d4;
      }

      .cls-5 {
        mix-blend-mode: multiply;
        isolation: isolate;
      }

      .cls-10, .cls-6 {
        fill: ivory;
      }

      .cls-7 {
        fill: #4d7066;
      }

      .cls-8 {
        fill: #4d5066;
      }

      .cls-9 {
        fill: #73c25f;
      }

      .cls-11 {
        fill: #773d19;
      }

      .cls-12 {
        fill: #d67238;
      }

      .cls-13 {
        fill: #c8662f;
      }

      .cls-14 {
        fill: #394552;
      }

      .cls-15 {
        fill: #f38153;
      }

      .cls-16 {
        fill: #d96439;
      }

      .cls-17 {
        fill: #4a6579;
      }

      .cls-18 {
        fill: #c45c3d;
      }

      .cls-19 {
        fill: #3a3135;
      }

      .cls-20 {
        fill: #fce7d4;
      }

      .cls-21 {
        fill: #fce7e2;
      }

      .cls-22 {
        fill: #ffb946;
      }

      .cls-23 {
        fill: #da6834;
      }

      .cls-24 {
        fill: #2f2a30;
      }

      .cls-25, .cls-26 {
        fill: #41383d;
      }

      .cls-27 {
        fill: #a0343a;
      }

      .cls-28 {
        fill: #f84e3a;
      }

      .cls-29 {
        fill: #f2683d;
      }

      .cls-30 {
        fill: #792f35;
      }

      .cls-31 {
        fill: #3b3134;
      }

      .cls-32 {
        fill: #2f2528;
      }

      .cls-33, .cls-43 {
        fill: #8e4b25;
      }

      .cls-34 {
        fill: #f7ddb0;
      }

      .cls-35, .cls-38 {
        fill: #98cf5e;
      }

      .cls-36 {
        fill: #a4dc6b;
      }

      .cls-37, .cls-39 {
        fill: #c0f389;
      }

      .cls-40 {
        fill: #80b04a;
      }

      .cls-41 {
        fill: #9c5123;
      }

      .cls-42 {
        fill: #b25a26;
      }

      .cls-44, .cls-45 {
        fill: #ffe195;
      }

      .cls-46 {
        fill: #524a4d;
      }

      .cls-47 {
        fill: #3e7e91;
      }

      .cls-48 {
        fill: #cbcbc7;
      }

      .cls-49 {
        fill: #b2b2ae;
      }

      .cls-50 {
        fill: #584b53;
      }

      .cls-51 {
        fill: #f5ac0a;
      }

      .cls-52 {
        fill: #ffc822;
      }

      .cls-53 {
        fill: #ffd84b;
      }

      .cls-54 {
        fill: #fb0;
      }
    </style>
    <linearGradient id="linear-gradient" x1="-11.468" y1="16.748" x2="-11.468" y2="18.287" gradientUnits="objectBoundingBox">
      <stop offset="0.016" stop-color="#00d6d4"/>
      <stop offset="0.997" stop-color="#07aacf"/>
    </linearGradient>
  </defs>
  <g id="tarjeta-memorama-06" transform="translate(8191.245 -14949.761)">
    <g id="Grupo_7679" data-name="Grupo 7679" transform="translate(-8191.245 14949.761)">
      <g id="Grupo_7678" data-name="Grupo 7678" transform="translate(0 0)">
        <path id="Trazado_32415" data-name="Trazado 32415" class="cls-1" d="M3564.213,770.264c-.878.529-1.637.987-1.637,1.866s.759,1.336,1.638,1.866c.946.569,2.016,1.214,2.017,2.536s-1.072,1.967-2.016,2.537c-.879.529-1.638.987-1.638,1.866s.759,1.336,1.638,1.866c.946.568,2.016,1.215,2.016,2.536s-1.071,1.967-2.015,2.536c-.879.53-1.638.987-1.638,1.866s.759,1.337,1.638,1.866c.946.569,2.016,1.214,2.016,2.535s-1.071,1.968-2.015,2.537c-.879.529-1.638.986-1.638,1.866s.759,1.336,1.638,1.865c.946.569,2.016,1.215,2.016,2.536s-1.071,1.968-2.015,2.537c-.879.529-1.638.987-1.638,1.866s.759,1.337,1.638,1.866c.945.569,2.016,1.215,2.016,2.536s-1.071,1.968-2.016,2.537c-.878.529-1.637.986-1.637,1.866s.759,1.337,1.638,1.866c.945.569,2.016,1.215,2.016,2.536s-1.071,1.968-2.016,2.537c-.878.53-1.637.987-1.637,1.867s.759,1.336,1.638,1.865c.945.569,2.017,1.215,2.017,2.536s-1.071,1.968-2.017,2.538c-.878.529-1.637.987-1.637,1.866s.759,1.338,1.638,1.867c.945.569,2.017,1.215,2.017,2.537s-1.071,1.968-2.017,2.537c-.878.53-1.637.987-1.637,1.867s.759,1.338,1.638,1.867c.945.569,2.016,1.216,2.016,2.538h-.016c-.006,1.314-1.073,1.957-2.015,2.526-.878.529-1.637.986-1.637,1.865s.759,1.337,1.637,1.866c.946.569,2.017,1.215,2.017,2.537s-1.071,1.967-2.016,2.536c-.879.53-1.637.987-1.637,1.867s.759,1.336,1.637,1.865c.946.569,2.017,1.215,2.017,2.536s-1.071,1.968-2.016,2.537c-.879.529-1.637.986-1.637,1.866s.759,1.336,1.637,1.865c.946.569,2.017,1.215,2.017,2.536s-1.072,1.967-2.016,2.536c-.879.53-1.637.987-1.637,1.866s.759,1.337,1.637,1.866c.946.569,2.017,1.215,2.017,2.536s-1.072,1.967-2.016,2.537c-.879.529-1.637.986-1.637,1.866s.759,1.336,1.637,1.866c.946.568,2.017,1.215,2.017,2.536s-1.072,1.967-2.016,2.536c-.879.53-1.638.987-1.637,1.866s.759,1.337,1.637,1.867c.946.569,2.017,1.214,2.017,2.536s-1.072,1.968-2.016,2.537c-.879.529-1.638.987-1.637,1.866s.759,1.337,1.637,1.866c.946.569,2.017,1.215,2.017,2.536s-1.072,1.968-2.016,2.537c-.879.53-1.638.987-1.637,1.867s.758,1.337,1.637,1.867c.946.569,2.017,1.215,2.017,2.536s-1.072,1.968-2.016,2.538c-.879.53-1.638.987-1.637,1.867s.759,1.337,1.637,1.867a4.346,4.346,0,0,1,1.8,1.6l235.469-.924a4.34,4.34,0,0,1,1.8-1.61c.878-.53,1.637-.987,1.637-1.867s-.758-1.337-1.637-1.867c-.945-.57-2.016-1.216-2.016-2.538s1.072-1.967,2.017-2.537c.878-.529,1.637-.986,1.637-1.866s-.758-1.337-1.637-1.867c-.945-.569-2.016-1.215-2.016-2.537s1.072-1.967,2.017-2.536c.878-.529,1.637-.986,1.637-1.866s-.758-1.337-1.637-1.866c-.946-.57-2.016-1.216-2.016-2.537s1.072-1.967,2.017-2.537c.878-.529,1.637-.986,1.637-1.866s-.758-1.336-1.637-1.866c-.945-.569-2.016-1.215-2.016-2.536s1.072-1.968,2.016-2.536c.879-.53,1.638-.987,1.638-1.866s-.759-1.337-1.637-1.866c-.946-.57-2.016-1.216-2.016-2.537s1.072-1.967,2.016-2.536c.879-.529,1.638-.987,1.638-1.866s-.759-1.336-1.637-1.866c-.946-.569-2.016-1.215-2.016-2.536s1.072-1.967,2.016-2.536c.879-.529,1.638-.986,1.638-1.865s-.759-1.337-1.637-1.866c-.946-.569-2.016-1.215-2.016-2.537s1.072-1.967,2.016-2.536c.879-.529,1.638-.986,1.638-1.865s-.759-1.337-1.637-1.867c-.946-.569-2.017-1.215-2.017-2.537s1.072-1.967,2.018-2.536c.878-.529,1.637-.986,1.637-1.866s-.759-1.336-1.637-1.865c-.943-.568-2.01-1.212-2.015-2.527h0v-.01h0c.007-1.315,1.074-1.958,2.016-2.527.879-.529,1.638-.987,1.638-1.867s-.759-1.337-1.637-1.867c-.946-.569-2.017-1.216-2.017-2.537s1.072-1.968,2.017-2.537c.879-.529,1.638-.987,1.638-1.867s-.759-1.337-1.637-1.866c-.946-.57-2.016-1.216-2.016-2.538s1.071-1.967,2.016-2.536c.879-.529,1.638-.986,1.638-1.865s-.759-1.337-1.637-1.867c-.946-.569-2.017-1.215-2.016-2.537s1.072-1.967,2.016-2.536c.879-.529,1.638-.987,1.638-1.866s-.759-1.337-1.637-1.866c-.946-.57-2.017-1.216-2.016-2.537s1.072-1.967,2.016-2.536c.879-.529,1.638-.986,1.638-1.866s-.759-1.337-1.637-1.866c-.946-.569-2.017-1.215-2.016-2.537s1.071-1.967,2.016-2.536c.879-.529,1.638-.986,1.638-1.866s-.759-1.336-1.638-1.865c-.945-.569-2.016-1.215-2.016-2.537s1.072-1.966,2.017-2.535c.879-.529,1.638-.987,1.638-1.866s-.759-1.336-1.638-1.866c-.945-.569-2.016-1.215-2.016-2.536s1.072-1.968,2.017-2.536c.879-.53,1.638-.987,1.638-1.866s-.759-1.337-1.638-1.866c-.945-.57-2.016-1.216-2.016-2.537s1.072-1.967,2.017-2.536c.879-.53,1.637-.987,1.638-1.866s-.759-1.337-1.637-1.866a4.358,4.358,0,0,1-1.8-1.6l-235.49.925A4.344,4.344,0,0,1,3564.213,770.264Z" transform="translate(-3561.755 -766.761)"/>
        <path id="Trazado_32416" data-name="Trazado 32416" d="M3566.2,767.691h-.783c0,.88-.759,1.337-1.639,1.867-.945.57-2.017,1.215-2.017,2.537s1.072,1.968,2.018,2.537c.88.529,1.639.987,1.639,1.867s-.759,1.337-1.639,1.867c-.945.571-2.017,1.216-2.017,2.538s1.072,1.968,2.018,2.537c.879.529,1.638.986,1.639,1.867s-.759,1.337-1.639,1.867c-.945.57-2.017,1.215-2.017,2.537s1.072,1.968,2.018,2.537c.878.529,1.638.986,1.638,1.867s-.758,1.337-1.638,1.866c-.945.57-2.017,1.215-2.017,2.538s1.072,1.968,2.018,2.537c.878.529,1.638.986,1.638,1.866s-.758,1.338-1.638,1.868c-.945.57-2.017,1.215-2.017,2.537s1.072,1.969,2.018,2.538c.878.529,1.638.986,1.638,1.866s-.758,1.337-1.638,1.867c-.945.571-2.017,1.216-2.017,2.538s1.072,1.968,2.018,2.537c.878.53,1.637.987,1.637,1.867s-.758,1.338-1.637,1.868c-.945.57-2.017,1.215-2.017,2.538s1.072,1.968,2.018,2.537c.878.529,1.637.986,1.637,1.866s-.758,1.339-1.637,1.868c-.945.57-2.017,1.216-2.017,2.538s1.072,1.969,2.018,2.538c.879.53,1.638.987,1.638,1.868s-.758,1.338-1.638,1.868c-.945.571-2.017,1.216-2.017,2.538s1.072,1.969,2.018,2.538c.875.528,1.63.984,1.637,1.857h-.015c0,.88-.759,1.338-1.637,1.867-.946.57-2.017,1.215-2.017,2.538s1.072,1.968,2.017,2.537c.879.529,1.638.986,1.638,1.867s-.759,1.337-1.637,1.867c-.946.57-2.017,1.215-2.017,2.538s1.072,1.968,2.017,2.537c.879.529,1.638.986,1.638,1.866s-.759,1.337-1.638,1.868c-.946.57-2.017,1.215-2.017,2.537s1.072,1.968,2.017,2.537c.88.529,1.639.986,1.639,1.866s-.759,1.337-1.638,1.867c-.946.57-2.017,1.215-2.017,2.537s1.072,1.968,2.017,2.537c.88.53,1.639.987,1.639,1.867s-.759,1.337-1.638,1.867c-.946.571-2.017,1.216-2.017,2.538s1.072,1.968,2.017,2.537c.88.529,1.639.986,1.639,1.867s-.759,1.338-1.638,1.867c-.946.57-2.018,1.215-2.017,2.538s1.071,1.968,2.017,2.537c.88.529,1.639.987,1.639,1.867s-.759,1.338-1.639,1.867c-.945.571-2.017,1.216-2.016,2.538s1.071,1.969,2.017,2.538c.879.528,1.639.986,1.639,1.866s-.759,1.338-1.639,1.868c-.945.57-2.017,1.215-2.016,2.538s1.071,1.969,2.017,2.538c.879.529,1.639.987,1.639,1.867s-.759,1.338-1.639,1.869c-.945.57-2.017,1.215-2.017,2.538s1.072,1.969,2.018,2.538c.879.53,1.639.987,1.639,1.868h.783v0l235.481-.925v0h.4c0-.88.759-1.337,1.639-1.868.945-.57,2.017-1.215,2.017-2.538s-1.071-1.969-2.017-2.539c-.878-.529-1.638-.987-1.638-1.868s.759-1.337,1.639-1.867c.945-.57,2.017-1.215,2.017-2.538s-1.071-1.969-2.017-2.538c-.878-.53-1.638-.987-1.638-1.868s.759-1.338,1.638-1.866c.945-.57,2.017-1.215,2.017-2.538s-1.071-1.968-2.017-2.538c-.878-.529-1.637-.986-1.637-1.867s.759-1.337,1.639-1.867c.945-.57,2.017-1.215,2.017-2.537s-1.071-1.969-2.017-2.538c-.878-.529-1.638-.987-1.638-1.867s.759-1.337,1.639-1.867c.945-.57,2.017-1.215,2.017-2.537s-1.071-1.968-2.017-2.538c-.879-.529-1.638-.987-1.638-1.867s.759-1.337,1.639-1.867c.945-.57,2.017-1.215,2.017-2.537s-1.071-1.968-2.017-2.537c-.879-.529-1.638-.987-1.638-1.867s.759-1.336,1.639-1.866c.945-.57,2.017-1.215,2.017-2.537s-1.071-1.969-2.017-2.538c-.879-.529-1.638-.986-1.638-1.867s.759-1.336,1.639-1.866c.945-.57,2.017-1.215,2.017-2.537s-1.071-1.969-2.017-2.538c-.879-.529-1.638-.987-1.638-1.867s.759-1.338,1.638-1.867c.946-.571,2.018-1.215,2.018-2.537s-1.071-1.969-2.017-2.538c-.879-.529-1.638-.986-1.638-1.866s.762-1.33,1.637-1.858c.946-.57,2.018-1.215,2.018-2.538s-1.071-1.969-2.017-2.538c-.88-.53-1.638-.987-1.638-1.868s.759-1.338,1.638-1.868c.946-.57,2.018-1.215,2.018-2.538s-1.072-1.969-2.017-2.538c-.879-.529-1.637-.987-1.637-1.868s.759-1.337,1.637-1.866c.946-.57,2.018-1.215,2.018-2.537s-1.072-1.969-2.017-2.538c-.879-.53-1.638-.987-1.637-1.868s.759-1.337,1.637-1.867c.946-.57,2.018-1.215,2.018-2.537s-1.072-1.968-2.017-2.538c-.879-.529-1.638-.987-1.638-1.867s.759-1.336,1.638-1.867c.946-.569,2.018-1.214,2.018-2.537s-1.072-1.968-2.017-2.537c-.879-.53-1.639-.987-1.638-1.868s.758-1.337,1.638-1.866c.946-.57,2.018-1.215,2.018-2.537s-1.072-1.969-2.017-2.538c-.879-.529-1.639-.986-1.638-1.867s.759-1.337,1.638-1.866c.946-.57,2.018-1.215,2.018-2.537s-1.072-1.968-2.017-2.537c-.88-.53-1.639-.987-1.639-1.867s.759-1.338,1.639-1.867c.946-.57,2.017-1.215,2.018-2.537s-1.072-1.969-2.017-2.538c-.879-.529-1.639-.987-1.639-1.867s.759-1.337,1.639-1.867c.946-.57,2.017-1.215,2.018-2.537s-1.072-1.968-2.017-2.537c-.879-.53-1.639-.987-1.639-1.867h-.783v.008Zm237.133,1.607c.879.529,1.638.987,1.638,1.867s-.759,1.337-1.639,1.867c-.946.57-2.017,1.214-2.018,2.537s1.072,1.968,2.017,2.538c.879.529,1.639.986,1.639,1.867s-.759,1.337-1.639,1.867c-.946.569-2.017,1.214-2.018,2.537s1.072,1.968,2.017,2.537c.879.53,1.639.987,1.639,1.867s-.759,1.337-1.639,1.867c-.946.57-2.017,1.214-2.018,2.536s1.072,1.969,2.017,2.538c.879.529,1.639.986,1.639,1.866s-.759,1.338-1.639,1.867c-.946.57-2.017,1.215-2.017,2.537s1.071,1.969,2.017,2.538c.879.529,1.638.987,1.638,1.867s-.759,1.337-1.639,1.867c-.945.57-2.017,1.215-2.017,2.537s1.071,1.968,2.017,2.538c.879.529,1.638.986,1.638,1.867s-.759,1.338-1.639,1.867c-.945.57-2.017,1.215-2.017,2.537s1.071,1.969,2.017,2.538c.879.53,1.638.987,1.638,1.868s-.759,1.337-1.639,1.866c-.945.57-2.017,1.215-2.017,2.537s1.071,1.969,2.017,2.539c.878.529,1.638.987,1.638,1.867s-.759,1.338-1.639,1.868c-.945.57-2.017,1.215-2.017,2.538s1.071,1.969,2.017,2.538c.878.53,1.638.987,1.638,1.868s-.759,1.338-1.638,1.868c-.942.569-2.009,1.212-2.016,2.528h0v.01h0c.006,1.315,1.073,1.959,2.016,2.528.878.529,1.638.986,1.638,1.866s-.759,1.338-1.638,1.867c-.946.57-2.018,1.215-2.018,2.537s1.071,1.969,2.017,2.538c.878.53,1.637.987,1.637,1.868s-.759,1.336-1.639,1.866c-.945.57-2.017,1.215-2.017,2.537s1.071,1.969,2.017,2.538c.879.529,1.638.986,1.638,1.867s-.759,1.336-1.639,1.866c-.945.57-2.017,1.215-2.017,2.537s1.071,1.968,2.017,2.537c.879.53,1.638.987,1.638,1.867s-.759,1.337-1.639,1.867c-.945.57-2.017,1.215-2.017,2.537s1.071,1.968,2.017,2.538c.879.529,1.638.986,1.638,1.867s-.759,1.337-1.639,1.867c-.945.569-2.017,1.214-2.017,2.537s1.072,1.968,2.017,2.537c.88.53,1.638.987,1.638,1.867s-.759,1.338-1.638,1.867c-.946.571-2.018,1.215-2.018,2.538s1.071,1.968,2.017,2.538c.88.529,1.638.987,1.638,1.867s-.759,1.338-1.638,1.867c-.946.57-2.018,1.215-2.018,2.537s1.072,1.969,2.017,2.538c.879.53,1.637.987,1.637,1.868s-.759,1.337-1.637,1.867c-.946.571-2.018,1.216-2.018,2.538s1.072,1.969,2.017,2.539c.879.53,1.637.987,1.637,1.868s-.759,1.338-1.637,1.868a4.34,4.34,0,0,0-1.805,1.611l-235.529.925a4.345,4.345,0,0,0-1.8-1.6c-.878-.53-1.638-.987-1.638-1.868s.758-1.337,1.638-1.868c.945-.571,2.017-1.216,2.017-2.539s-1.072-1.968-2.018-2.537c-.88-.53-1.638-.987-1.638-1.868s.758-1.338,1.638-1.868c.945-.57,2.017-1.215,2.017-2.538s-1.072-1.968-2.018-2.537c-.879-.529-1.638-.986-1.638-1.867s.758-1.337,1.638-1.867c.945-.57,2.017-1.216,2.017-2.538s-1.072-1.968-2.018-2.537c-.878-.53-1.638-.987-1.638-1.868s.758-1.337,1.638-1.867c.945-.57,2.017-1.215,2.017-2.537s-1.072-1.969-2.018-2.537c-.878-.53-1.638-.987-1.638-1.867s.758-1.338,1.638-1.867c.945-.571,2.017-1.216,2.017-2.538s-1.072-1.968-2.018-2.537c-.878-.529-1.637-.986-1.637-1.867s.758-1.336,1.637-1.867c.945-.57,2.017-1.215,2.017-2.537s-1.072-1.968-2.018-2.537c-.878-.529-1.637-.986-1.637-1.866s.758-1.337,1.637-1.867c.946-.57,2.017-1.216,2.017-2.538s-1.072-1.968-2.018-2.537c-.879-.529-1.638-.986-1.638-1.866s.758-1.338,1.638-1.868c.946-.57,2.017-1.215,2.017-2.537s-1.072-1.969-2.018-2.538c-.879-.529-1.638-.986-1.638-1.867s.759-1.337,1.638-1.866c.943-.569,2.01-1.212,2.016-2.527h.016c0-1.323-1.072-1.97-2.017-2.539-.879-.529-1.639-.987-1.639-1.868s.759-1.338,1.637-1.868c.946-.57,2.017-1.216,2.017-2.538s-1.072-1.969-2.017-2.538c-.879-.529-1.638-.987-1.638-1.868s.759-1.338,1.638-1.867c.946-.571,2.017-1.216,2.017-2.539s-1.072-1.968-2.017-2.537c-.879-.529-1.639-.986-1.639-1.866s.759-1.337,1.638-1.868c.946-.57,2.017-1.215,2.017-2.538s-1.072-1.968-2.017-2.537c-.879-.529-1.639-.987-1.639-1.867s.759-1.338,1.638-1.867c.946-.57,2.017-1.216,2.017-2.538s-1.072-1.968-2.017-2.537c-.88-.529-1.639-.986-1.639-1.867s.759-1.338,1.639-1.867c.945-.57,2.017-1.215,2.016-2.538s-1.071-1.968-2.017-2.537c-.88-.529-1.639-.986-1.639-1.866s.759-1.338,1.639-1.867c.945-.57,2.017-1.215,2.016-2.538s-1.071-1.967-2.017-2.536c-.879-.529-1.639-.987-1.639-1.867s.759-1.337,1.639-1.867c.945-.57,2.017-1.215,2.016-2.537s-1.071-1.969-2.017-2.537c-.879-.53-1.639-.987-1.639-1.867s.759-1.338,1.639-1.867c.945-.571,2.017-1.216,2.017-2.538s-1.072-1.968-2.018-2.537c-.879-.53-1.638-.987-1.639-1.867s.759-1.338,1.638-1.867a4.343,4.343,0,0,0,1.8-1.606l235.55-.926A4.36,4.36,0,0,0,3803.334,769.3Z" transform="translate(-3561.755 -766.761)"/>
      </g>
      <rect id="Rectángulo_7599" data-name="Rectángulo 7599" class="cls-2" width="219.551" height="139.724" transform="translate(12.224 9.883)"/>
      <path id="Trazado_32417" data-name="Trazado 32417" d="M3794.014,776.16V916.851H3573.5V776.16Zm-.927,139.766V777.086H3574.423V915.926Z" transform="translate(-3561.755 -766.761)"/>
    </g>
    <g id="Grupo_10582" data-name="Grupo 10582" transform="translate(-8155.611 14970.6)">
      <path id="Trazado_33814" data-name="Trazado 33814" class="cls-3" d="M3635.486,890.616c8.111,4.208,17,3.249,19.795-2.133s.437-15.729-7.674-19.937-16.528-.673-19.32,4.71S3627.375,886.409,3635.486,890.616Z" transform="translate(-3599.264 -792.469)"/>
      <path id="Trazado_33815" data-name="Trazado 33815" class="cls-4" d="M3633.953,882.373l-6.822-5.175a12.457,12.457,0,0,0,2.857,9.03Z" transform="translate(-3599.022 -792.305)"/>
      <path id="Trazado_33816" data-name="Trazado 33816" class="cls-5" d="M3599.665,821.208c-6.734,15.508,2.133,33.263,17.962,35.469,10.708,1.492,21.912-4.109,32.471-.23,6.336,2.328,9.454,7.456,13.472,15.84,8.636,18.022,50.434,39.487,78.875,13.085,19.828-18.4,17.76-47.247,10.133-63.591-10.018-21.465-34.889-32.14-68.651-15.117-18.61,9.383-38.6,14.783-47.53,6.278S3606.342,805.827,3599.665,821.208Z" transform="translate(-3597.389 -787.6)"/>
      <path id="Trazado_33817" data-name="Trazado 33817" class="cls-4" d="M3652.609,883.625c-1.81.663-2.409,2.769-1.339,4.7a4.978,4.978,0,0,0,2.464,2.178,7.472,7.472,0,0,0,1.547-2.024,10.706,10.706,0,0,0,1.089-4.174A4.145,4.145,0,0,0,3652.609,883.625Z" transform="translate(-3600.303 -792.552)"/>
      <path id="Trazado_33818" data-name="Trazado 33818" class="cls-4" d="M3695.94,880.229l-3.294-8.577-.654-1.7a3.063,3.063,0,0,0-3.535-1.478l-5.336,1.211a3.8,3.8,0,0,1-2.882-2.123l-1.037-2.734-1.262-3.323-.9-2.369c-.608-1.6-2.933-2.495-5.168-1.982l-16.665,3.822c5.434,2.774,8.488,7.981,12.307,15.976a38.023,38.023,0,0,0,9.936,12.029l5.71-1.3h0l11.5-2.608c1.588-.361,2.505-1.655,2.036-2.876Z" transform="translate(-3601.363 -792.114)"/>
      <g id="Grupo_10565" data-name="Grupo 10565" transform="translate(15.012 55.327)">
        <path id="Trazado_33819" data-name="Trazado 33819" class="cls-4" d="M3619.683,846.694l-1.976,6.471c-.144.472.235.925.843,1.007h0a1.251,1.251,0,0,0,1.368-.71l1.976-6.471c.145-.472-.235-.925-.843-1.007h0A1.248,1.248,0,0,0,3619.683,846.694Z" transform="translate(-3612.401 -845.971)"/>
        <path id="Trazado_33820" data-name="Trazado 33820" class="cls-4" d="M3623.115,848.85a3.223,3.223,0,0,1,1.893-.323,2.434,2.434,0,0,1,1.554.786,1.5,1.5,0,0,1,.3,1.432l0,0a2.16,2.16,0,0,1-1.119,1.24,3.232,3.232,0,0,1-1.893.324,2.432,2.432,0,0,1-1.554-.786,1.5,1.5,0,0,1-.3-1.432v0a2.165,2.165,0,0,1,1.119-1.241Zm.508,1.463a.494.494,0,0,0,.1.472.8.8,0,0,0,.513.259,1.061,1.061,0,0,0,.624-.107.72.72,0,0,0,.372-.407v0a.5.5,0,0,0-.1-.472.808.808,0,0,0-.513-.26,1.068,1.068,0,0,0-.624.107.709.709,0,0,0-.372.408Z" transform="translate(-3612.401 -845.971)"/>
        <path id="Trazado_33821" data-name="Trazado 33821" class="cls-4" d="M3613.589,848.94a3.237,3.237,0,0,1,1.893-.323,2.43,2.43,0,0,1,1.553.786,1.5,1.5,0,0,1,.3,1.432v0a2.166,2.166,0,0,1-1.12,1.241,3.228,3.228,0,0,1-1.892.323,2.434,2.434,0,0,1-1.554-.786,1.5,1.5,0,0,1-.3-1.432v0a2.163,2.163,0,0,1,1.119-1.242Zm.508,1.464a.494.494,0,0,0,.1.471.8.8,0,0,0,.512.26,1.067,1.067,0,0,0,.624-.107.718.718,0,0,0,.372-.408l0,0a.5.5,0,0,0-.1-.472.8.8,0,0,0-.513-.259,1.059,1.059,0,0,0-.624.106.718.718,0,0,0-.372.408Z" transform="translate(-3612.401 -845.971)"/>
      </g>
      <g id="Grupo_10566" data-name="Grupo 10566" transform="translate(72.812 13.423)">
        <path id="Trazado_33822" data-name="Trazado 33822" class="cls-4" d="M3730.813,892.34c-.095-.033-.19-.058-.286-.083-.017-.016-.036-.03-.053-.045-.046-.04-.092-.08-.14-.118l-.084-.062c-.044-.032-.089-.064-.136-.095l-.095-.06c-.046-.028-.094-.056-.142-.082s-.068-.037-.1-.054c-.051-.026-.1-.05-.155-.073-.035-.016-.07-.032-.106-.046-.058-.024-.119-.046-.179-.067l-.1-.035c-.09-.029-.183-.056-.278-.08l-.015,0-.021,0c-.089-.021-.177-.038-.265-.05-.033,0-.066,0-.1-.007-.053-.005-.105-.011-.157-.012h-.025c-.038,0-.075,0-.113,0-.054,0-.109,0-.163.009l-.036,0a10.719,10.719,0,0,0-2.282.224c-3,.893-4.734,7.536-4.76,12.274a49.117,49.117,0,0,0,8.8-1.346,19.824,19.824,0,0,0,.932-2.021c.841.256,1.86.553,3,.86a47.1,47.1,0,0,0,11.441-5.779A109.8,109.8,0,0,1,3730.813,892.34Z" transform="translate(-3679.779 -807.284)"/>
        <path id="Trazado_33823" data-name="Trazado 33823" class="cls-4" d="M3740.344,866.3a3.8,3.8,0,0,0-.377-.284,7.12,7.12,0,0,0,.166-3.26L3740,862c-.025-.136-.054-.27-.086-.4a8.1,8.1,0,0,0,3.926-8.338l-2.021-11.1a7.993,7.993,0,0,0-2.027-4.008c13.306-13.16,3.727-29.468,3.7-29.521a3.175,3.175,0,0,0-.969-1.042,3.114,3.114,0,0,0-1.107-.825c-.016-.022-.03-.044-.047-.066l-2.858-3.632c-.009-.011-.019-.021-.027-.031a5.137,5.137,0,0,0-5.617-1.788,4.589,4.589,0,0,0-3.181,5.852,5.032,5.032,0,0,0,6.244,2.98,5.128,5.128,0,0,0,.96-.4l.06.075.006.007a2.787,2.787,0,0,0,.132.563,2.829,2.829,0,0,0,.219.477,3.045,3.045,0,0,0,.308.78c.025.042,7.889,13.433-4.244,23.665a9.19,9.19,0,0,0-4.265-1.635l-.69-3.794a4.648,4.648,0,0,0,2.1-4.7l-.759-4.166a.883.883,0,0,0,.892-1.072,1.86,1.86,0,0,0-1.584-1.365l-.034,0a2.089,2.089,0,0,0,.384-1.488,1.172,1.172,0,0,0-1.712-.929,2.132,2.132,0,0,0-1.067,1.11,5.336,5.336,0,0,0-1.887-.353,2.91,2.91,0,0,0-.635.027l-3.179.508a4.21,4.21,0,0,0,.365-1.242c.194-1.521-.578-2.592-1.723-2.392a2.127,2.127,0,0,0-.833.355c-.68-1.9-2.19-3.023-4.01-2.706-2.592.451-4.828,3.64-5,7.124a7.688,7.688,0,0,0,.172,2.08,4.149,4.149,0,0,0-.936,3.436,4.4,4.4,0,0,0,2.562,3.193,7.148,7.148,0,0,0,.083,1.98l.21,1.159a8.2,8.2,0,0,0,9.279,6.331,8.147,8.147,0,0,0-1.618,3.058,6.636,6.636,0,0,0-3.1,2.672c-.4-.457-.821-.912-1.279-1.345-2.859-2.7-7.687-5.656-13.627-2.995a17.015,17.015,0,0,1,4.239,4.849c3.252.093,5.645,1.691,7.823,3.33-11.358,5.911-22.083-1.677-22.12-1.7a3.365,3.365,0,0,0-.779-.4,3.172,3.172,0,0,0-.472-.272,3.225,3.225,0,0,0-.576-.2l-.007-.008-.071-.066a4.659,4.659,0,0,0,.562-.833,4.464,4.464,0,0,0-1.486-5.776l3.535-8.88a1.723,1.723,0,0,0-1.1-2.25l-4.082-1.427h0l-.653-.229a1.911,1.911,0,0,0-2.4,1.028l-3.989,10.018a1.724,1.724,0,0,0,1.1,2.25l.655.23h0l.14.049a4.58,4.58,0,0,0-.607.885,4.439,4.439,0,0,0,1.085,5.466l.029.029,3.427,3.17c.02.019.042.034.062.052a2.893,2.893,0,0,0,.713,1.145,3.175,3.175,0,0,0,.962,1.049c.048.033,14.217,10.056,29.115,2.323l1.227,6.738c-8.348-2.3-19-4.2-22.606-.311-6.731,7.263,12.287,25.529,12.341,25.583a3.922,3.922,0,0,0,.508.408c.053.247.113.5.181.749l.008.028c.03.111.062.224.1.336l.014.046c.032.108.066.216.1.325l.015.045c.037.114.076.23.116.344l.005.015h0a15.627,15.627,0,0,0,5.326,7.526,1.718,1.718,0,0,0,.708.3v0l.041,0,.059,0,1.143.1h0c3.291.281,2.869-14.55-1.762-16.191a11.148,11.148,0,0,0-2.231-.361c-3.081-3.146-10.705-11.268-9.075-13.027,2.532-2.731,22.975,4.366,23.039,4.39h0a8.5,8.5,0,0,0,7.615,2.612h0a8.547,8.547,0,0,0,1.265-.3,3.774,3.774,0,0,0,.358.361c.042.036,11.44,9.563,14.567,14.771q.734-.595,1.456-1.225a48.788,48.788,0,0,0,3.594-3.472C3749.307,874.052,3740.384,866.33,3740.344,866.3Z" transform="translate(-3679.779 -801.023)"/>
      </g>
      <path id="Trazado_33824" data-name="Trazado 33824" class="cls-4" d="M3608.7,820.408l13.391-4.481.031-.011s-1.581,1.908-.533,3.24l1.236,1.571,1.867,2.373,3.138,3.988h0l1.236,1.571a2.037,2.037,0,0,1-1.022,3.4l-13.483,4.512s-.155.041-.032-.02a2,2,0,0,0,.626-3.239l-6.241-7.933h0l-1.236-1.571A2.037,2.037,0,0,1,3608.7,820.408Z" transform="translate(-3597.389 -789.248)"/>
      <path id="Trazado_33825" data-name="Trazado 33825" class="cls-4" d="M3727.963,915.836c-27.756,0-50.394-1.476-50.394-3.286s22.638-3.286,50.394-3.286,50.394,1.476,50.394,3.286S3755.719,915.836,3727.963,915.836Z" transform="translate(-3606.967 -793.861)"/>
      <path id="Trazado_33826" data-name="Trazado 33826" class="cls-6" d="M3705.7,889.689c-7.283.349-5.82,4.136,3.612,8.727s23.41,8.318,31.97,8.59a108.208,108.208,0,0,1-27.137-8.613C3706.133,894.5,3703.122,891.135,3705.7,889.689Z" transform="translate(-3604.444 -793.861)"/>
      <path id="Trazado_33827" data-name="Trazado 33827" class="cls-6" d="M3707.114,905.5c-4.973,1.293-3.416,3.694,3.754,5.5s17.35,2.352,23.293,1.3a76.254,76.254,0,0,1-19.963-2.017C3708.111,908.754,3705.548,906.871,3707.114,905.5Z" transform="translate(-3604.164 -793.861)"/>
      <g id="Grupo_10567" data-name="Grupo 10567" transform="translate(83.415 24.454)">
        <path id="Rectángulo_8776" data-name="Rectángulo 8776" class="cls-7" d="M2.007,0H14.274a2.008,2.008,0,0,1,2.008,2.008V6.691A2.007,2.007,0,0,1,14.275,8.7H2.007A2.007,2.007,0,0,1,0,6.691V2.007A2.007,2.007,0,0,1,2.007,0Z" transform="translate(0.705 15.518) rotate(-69.543)"/>
        <rect id="Rectángulo_8777" data-name="Rectángulo 8777" class="cls-8" width="16.281" height="8.698" rx="2.007" transform="translate(0 15.255) rotate(-69.544)"/>
        <path id="Trazado_33828" data-name="Trazado 33828" class="cls-9" d="M3693.377,814.733l4.167,1.508a1.6,1.6,0,0,1,.937,2.052l-4.209,11.32a1.6,1.6,0,0,1-2.053.937l-4.166-1.508a1.6,1.6,0,0,1-.937-2.052l4.209-11.32A1.6,1.6,0,0,1,3693.377,814.733Z" transform="translate(-3685.898 -813.534)"/>
        <path id="Trazado_33829" data-name="Trazado 33829" class="cls-6" d="M3693.946,817.659l2.532.736a.26.26,0,0,1,.155.373l-1.245,2.282a.259.259,0,0,1-.464-.018l-.234-.522a.259.259,0,0,0-.338-.132l-2.451,1.05a.258.258,0,0,1-.34-.135l-.456-1.059a.259.259,0,0,1,.138-.342l2.479-1.029a.26.26,0,0,0,.138-.344l-.223-.507A.259.259,0,0,1,3693.946,817.659Z" transform="translate(-3685.898 -813.534)"/>
        <path id="Trazado_33830" data-name="Trazado 33830" class="cls-10" d="M3694.084,824.193a1.463,1.463,0,0,1-1.584-.387,3.3,3.3,0,0,0-3.679-.819l-.256.106-.865,2.326,1.815-.749a1.47,1.47,0,0,1,1.642.365,3.28,3.28,0,0,0,3.55.869l1.092-.4.833-2.24Z" transform="translate(-3685.898 -813.534)"/>
      </g>
      <path id="Trazado_33831" data-name="Trazado 33831" class="cls-11" d="M3723.365,875.894c4.979,1.883,5.433,18.9,1.894,18.576h0l-1.337-.122-.065-.688c-4.944-4.239-7.855-15.07-3.142-17.486l-.138-.742A14.957,14.957,0,0,1,3723.365,875.894Z" transform="translate(-3604.134 -792.636)"/>
      <path id="Trazado_33832" data-name="Trazado 33832" class="cls-12" d="M3719.99,875.468c6.553-1.121,8.03,22.036,3.171,18.533C3717.359,889.817,3713.437,876.589,3719.99,875.468Z" transform="translate(-3604.045 -792.631)"/>
      <path id="Trazado_33833" data-name="Trazado 33833" class="cls-13" d="M3719.99,875.468c3.429-.587,5.466,5.472,5.936,10.881a7.311,7.311,0,0,1-5.312.752,7.126,7.126,0,0,1-3.18-1.736C3715.919,880.744,3716.229,876.111,3719.99,875.468Z" transform="translate(-3604.041 -792.325)"/>
      <path id="Trazado_33834" data-name="Trazado 33834" class="cls-11" d="M3735.93,884.981c-5.1,1.518-6.787,18.456-3.234,18.39h0l1.342-.025.115-.681c5.238-3.87,8.926-14.461,4.4-17.213l.191-.73A15.049,15.049,0,0,0,3735.93,884.981Z" transform="translate(-3604.854 -793.861)"/>
      <path id="Trazado_33835" data-name="Trazado 33835" class="cls-12" d="M3739.327,884.8c-6.455-1.593-9.6,21.4-4.5,18.254C3740.913,899.3,3745.782,886.394,3739.327,884.8Z" transform="translate(-3604.95 -793.861)"/>
      <path id="Trazado_33836" data-name="Trazado 33836" class="cls-13" d="M3739.327,884.8c-3.377-.834-5.848,5.061-6.708,10.423a7.313,7.313,0,0,0,5.243,1.134,7.132,7.132,0,0,0,3.3-1.5C3743,890.358,3743.032,885.715,3739.327,884.8Z" transform="translate(-3604.954 -792.819)"/>
      <path id="Trazado_33837" data-name="Trazado 33837" class="cls-14" d="M3694.73,843.34a3.583,3.583,0,0,1,4.252-5.769c.047.035,16.286,12.3,30.634-3.635a3.59,3.59,0,1,1,5.344,4.8C3716.208,859.555,3694.792,843.386,3694.73,843.34Z" transform="translate(-3604.026 -790.132)"/>
      <path id="Trazado_33838" data-name="Trazado 33838" class="cls-6" d="M3693.123,838.338a3.371,3.371,0,1,1,1.534,4.514A3.37,3.37,0,0,1,3693.123,838.338Z" transform="translate(-3602.633 -790.117)"/>
      <path id="Trazado_33839" data-name="Trazado 33839" class="cls-15" d="M3689.151,832.953h0a2.96,2.96,0,0,1,4.175-.027l3.684,3.637a2.96,2.96,0,0,1,.027,4.175h0a2.961,2.961,0,0,1-4.174.027l-3.685-3.638A2.959,2.959,0,0,1,3689.151,832.953Z" transform="translate(-3602.47 -789.946)"/>
      <path id="Trazado_33840" data-name="Trazado 33840" class="cls-16" d="M3689.94,832.383a2.964,2.964,0,0,1,3.386.543l3.684,3.637a2.933,2.933,0,0,1,.741,1.22,5.329,5.329,0,0,1-7.811-5.4Z" transform="translate(-3602.507 -789.884)"/>
      <path id="Trazado_33841" data-name="Trazado 33841" class="cls-14" d="M3754.963,796.332a3.584,3.584,0,0,0-6.318,3.384c.028.051,9.842,17.877-7.979,29.8a3.59,3.59,0,0,0,3.981,5.976C3767.939,819.909,3755,796.4,3754.963,796.332Z" transform="translate(-3606.967 -787.6)"/>
      <path id="Trazado_33842" data-name="Trazado 33842" class="cls-14" d="M3741.663,857.559a9.419,9.419,0,0,0,5.922.922h0a9.512,9.512,0,0,0,7.754-10.943l-2.173-12.737a21.031,21.031,0,0,0-16.421-9.75h0a9.517,9.517,0,0,0-7.589,7,7.282,7.282,0,0,0-4.17,7.831l2.774,16.265a7.274,7.274,0,0,0,8.369,5.93h0A7.267,7.267,0,0,0,3741.663,857.559Z" transform="translate(-3606.967 -790.168)"/>
      <path id="Trazado_33843" data-name="Trazado 33843" class="cls-17" d="M3747,858.558a7.3,7.3,0,0,1-5.97-3.419l-.12.022h0a9.45,9.45,0,0,1-6.781-1.423l4.914-.838-4.835-28.347c.084-.028.168-.055.254-.081a9.539,9.539,0,0,1,8.055,4.224,7.28,7.28,0,0,1,6.53,6.006l2.694,15.795A7.281,7.281,0,0,1,3747,858.558Z" transform="translate(-3606.967 -790.052)"/>
      <path id="Trazado_33844" data-name="Trazado 33844" class="cls-17" d="M3737.488,861.709a7.3,7.3,0,0,0,4.5-5.2l.119-.019h0a9.441,9.441,0,0,0,5.925-3.59l-4.913.838-4.915-28.815c-.088,0-.177,0-.266.007a9.537,9.537,0,0,0-6.2,6.655,7.28,7.28,0,0,0-4.17,7.831l2.774,16.265A7.281,7.281,0,0,0,3737.488,861.709Z" transform="translate(-3605.156 -790.155)"/>
      <path id="Trazado_33845" data-name="Trazado 33845" class="cls-14" d="M3741.066,850.377h0a8.818,8.818,0,0,0-7.189,10.145l.146.858a8.818,8.818,0,0,0,10.145,7.189h0a8.819,8.819,0,0,0,7.189-10.146l-.147-.857A8.817,8.817,0,0,0,3741.066,850.377Z" transform="translate(-3606.967 -791.172)"/>
      <path id="Trazado_33846" data-name="Trazado 33846" class="cls-14" d="M3735.978,865.57a4.179,4.179,0,1,0,3.152-7.742c-.084-.034-29.387-12.16-36.083-4.448-7.236,8.333,13.209,29.291,13.268,29.351a4.175,4.175,0,1,0,5.99-5.816c-.043-.044-13.277-13.869-11.094-16.382C3713.932,857.4,3735.91,865.543,3735.978,865.57Z" transform="translate(-3604.475 -791.763)"/>
      <path id="Trazado_33847" data-name="Trazado 33847" class="cls-18" d="M3740.4,847.164a7.934,7.934,0,1,0,9.155,6.487A7.934,7.934,0,0,0,3740.4,847.164Z" transform="translate(-3605.303 -790.912)"/>
      <path id="Trazado_33848" data-name="Trazado 33848" class="cls-19" d="M3733.251,835.093a2.547,2.547,0,0,1,.468.231c-.551,1.075-2.043,4.392-1.076,7.218a2.781,2.781,0,0,1-2.211.163c-1.646-.609-2.35-2.807-1.572-4.91S3731.6,834.483,3733.251,835.093Z" transform="translate(-3604.535 -790.063)"/>
      <path id="Trazado_33849" data-name="Trazado 33849" class="cls-20" d="M3737.72,830.758h0a7.749,7.749,0,0,0-6.316,8.914l2.545,14.921a7.747,7.747,0,0,0,8.914,6.316h0a7.748,7.748,0,0,0,6.317-8.914l-2.545-14.92A7.749,7.749,0,0,0,3737.72,830.758Z" transform="translate(-3605.259 -790.354)"/>
      <path id="Trazado_33850" data-name="Trazado 33850" class="cls-6" d="M3737.72,830.758h0a3.519,3.519,0,0,0-4.8,4.533l4.527,14.443a7.747,7.747,0,0,0,9.682,5.061h0a1.889,1.889,0,0,0,2.054-2.8l-2.545-14.921A7.749,7.749,0,0,0,3737.72,830.758Z" transform="translate(-3605.273 -790.198)"/>
      <path id="Trazado_33851" data-name="Trazado 33851" class="cls-21" d="M3733.207,832.7a7.691,7.691,0,0,1,1.2-.868l.832,4.882-.985.168a.836.836,0,0,1-1-.843Z" transform="translate(-3604.659 -789.848)"/>
      <path id="Trazado_33852" data-name="Trazado 33852" class="cls-20" d="M3741.9,831.215a7.64,7.64,0,0,0-1.417-.423l.833,4.882.985-.168a.835.835,0,0,0,.663-1.126Z" transform="translate(-3605.07 -789.792)"/>
      <path id="Trazado_33853" data-name="Trazado 33853" class="cls-22" d="M3737.533,831.829a3.72,3.72,0,1,0,4.606,2.973A3.884,3.884,0,0,0,3737.533,831.829Z" transform="translate(-3604.963 -789.889)"/>
      <path id="Trazado_33854" data-name="Trazado 33854" class="cls-23" d="M3737.724,839.186a4.436,4.436,0,0,0,1.056-.051,4.359,4.359,0,0,0,1.311-.446.991.991,0,0,0,0-.352l-.2-1.171a.835.835,0,0,0-.961-.681l-.8.137a.835.835,0,0,0-.681.961Z" transform="translate(-3604.912 -790.038)"/>
      <path id="Trazado_33855" data-name="Trazado 33855" class="cls-6" d="M3737.361,830.819a3.287,3.287,0,1,0,4.07,2.628A3.432,3.432,0,0,0,3737.361,830.819Z" transform="translate(-3604.935 -789.821)"/>
      <path id="Trazado_33856" data-name="Trazado 33856" class="cls-24" d="M3721.943,808.242a5,5,0,1,0,5.774,4.092A5,5,0,0,0,3721.943,808.242Z" transform="translate(-3604.134 -788.689)"/>
      <rect id="Rectángulo_8778" data-name="Rectángulo 8778" class="cls-25" width="16.075" height="15.933" rx="5.459" transform="translate(118.584 20.028) rotate(-9.678)"/>
      <path id="Trazado_33857" data-name="Trazado 33857" class="cls-26" d="M3739.45,807.674a1.022,1.022,0,0,0-1.226,1.223,2.041,2.041,0,0,0,1.7,1.566,1.023,1.023,0,0,0,1.227-1.223A2.043,2.043,0,0,0,3739.45,807.674Z" transform="translate(-3604.966 -787.6)"/>
      <path id="Trazado_33858" data-name="Trazado 33858" class="cls-26" d="M3739.826,805.964a1.255,1.255,0,0,0-1.84-1.065,2.508,2.508,0,0,0-1.315,2.515,1.256,1.256,0,0,0,1.84,1.066A2.51,2.51,0,0,0,3739.826,805.964Z" transform="translate(-3604.892 -787.6)"/>
      <path id="Trazado_33859" data-name="Trazado 33859" class="cls-26" d="M3724.043,799.514c-2.786.517-5.191,4.177-5.371,8.173s1.932,6.818,4.718,6.3,5.191-4.177,5.371-8.174S3726.828,799,3724.043,799.514Z" transform="translate(-3604.187 -787.6)"/>
      <path id="Trazado_33860" data-name="Trazado 33860" class="cls-15" d="M3731.125,828.511l.91-.155a2.052,2.052,0,0,1,2.066,1.7l.423,2.476.12.707,6.083-1.037-.883-5.178-3.2-18.764-8.718,1.487a8.869,8.869,0,0,0-7.231,10.205l.226,1.328A8.87,8.87,0,0,0,3731.125,828.511Z" transform="translate(-3604.726 -788.852)"/>
      <path id="Trazado_33861" data-name="Trazado 33861" class="cls-27" d="M3730.54,821.759l-.816-2.259a.705.705,0,0,0-.753-.433l-5.064.864a.458.458,0,0,0-.371.624l.816,2.259a3.717,3.717,0,0,0,3.975,2.281l.253-.043A2.415,2.415,0,0,0,3730.54,821.759Z" transform="translate(-3604.341 -789.212)"/>
      <path id="Trazado_33862" data-name="Trazado 33862" class="cls-6" d="M3728.394,819.166l-4.5.768a.468.468,0,0,0-.293.168,3.515,3.515,0,0,0,2.492.577l.438-.075A2.383,2.383,0,0,0,3728.394,819.166Z" transform="translate(-3604.251 -789.16)"/>
      <path id="Trazado_33863" data-name="Trazado 33863" class="cls-28" d="M3730.015,821.683l-.316-.875c-.06.006-.119.014-.179.024l-.4.068a2.146,2.146,0,0,0-1.687,2.958l.316.875c.06-.006.119-.014.179-.024l.4-.068A2.146,2.146,0,0,0,3730.015,821.683Z" transform="translate(-3604.375 -789.272)"/>
      <path id="Trazado_33864" data-name="Trazado 33864" class="cls-26" d="M3734.089,807.193l-5.514.941a3.2,3.2,0,0,0-2.442,2.006l2.674-.456a3.2,3.2,0,0,1,3.684,2.61l.247,1.446.246,1.445.274,1.6,2.4-.409a3.2,3.2,0,0,0,2.611-3.684l-.493-2.891A3.2,3.2,0,0,0,3734.089,807.193Z" transform="translate(-3604.695 -788.632)"/>
      <path id="Trazado_33865" data-name="Trazado 33865" class="cls-15" d="M3737.033,814.41a2.463,2.463,0,0,0-1.52,2.6,1.551,1.551,0,0,0,2.171,1.214,2.464,2.464,0,0,0,1.52-2.6A1.551,1.551,0,0,0,3737.033,814.41Z" transform="translate(-3604.853 -788.945)"/>
      <path id="Trazado_33866" data-name="Trazado 33866" class="cls-16" d="M3737.218,815.495a1.061,1.061,0,0,0-.656,1.123.669.669,0,0,0,.937.524,1.064,1.064,0,0,0,.657-1.124A.67.67,0,0,0,3737.218,815.495Z" transform="translate(-3604.821 -788.978)"/>
      <path id="Trazado_33867" data-name="Trazado 33867" class="cls-29" d="M3735.5,822.02a5.506,5.506,0,0,1-3.166,5.117S3737.372,826.47,3735.5,822.02Z" transform="translate(-3604.675 -789.35)"/>
      <path id="Trazado_33868" data-name="Trazado 33868" class="cls-26" d="M3734.229,814.051h0a1.42,1.42,0,0,0-1.159,1.635l.3,1.78a1.421,1.421,0,0,0,1.635,1.159h0a1.422,1.422,0,0,0,1.158-1.636l-.3-1.78A1.422,1.422,0,0,0,3734.229,814.051Z" transform="translate(-3604.696 -788.938)"/>
      <path id="Trazado_33869" data-name="Trazado 33869" class="cls-15" d="M3740.285,829.613l-6.083,1.038.486,2.846a2.9,2.9,0,0,0,3.331,2.36l.392-.067a2.9,2.9,0,0,0,2.36-3.331Z" transform="translate(-3604.905 -789.757)"/>
      <path id="Trazado_33870" data-name="Trazado 33870" class="cls-29" d="M3736.145,830.32l-1.942.331.488,2.864a2.9,2.9,0,0,0,2.4,2.348Z" transform="translate(-3604.748 -789.78)"/>
      <path id="Trazado_33871" data-name="Trazado 33871" class="cls-29" d="M3731.125,828.511l.91-.155a2.052,2.052,0,0,1,2.066,1.7l.423,2.476.12.707,1.942-.331-.121-.707-.422-2.476a2.05,2.05,0,0,0-2.066-1.7l-.91.155a8.87,8.87,0,0,1-10.2-7.231l-.226-1.329a8.869,8.869,0,0,1,7.231-10.2l-1.942.331a8.869,8.869,0,0,0-7.231,10.205l.226,1.328A8.87,8.87,0,0,0,3731.125,828.511Z" transform="translate(-3604.542 -788.908)"/>
      <path id="Trazado_33872" data-name="Trazado 33872" class="cls-30" d="M3728.652,814.329h0a.941.941,0,0,0-.769,1.084l.145.848a.963.963,0,0,1,.8-.914h0a.964.964,0,0,1,1.056.6l-.145-.848A.94.94,0,0,0,3728.652,814.329Z" transform="translate(-3604.373 -788.924)"/>
      <path id="Trazado_33873" data-name="Trazado 33873" class="cls-30" d="M3722.5,815.583h0a.835.835,0,0,0-.681.961l.128.751a.853.853,0,0,1,.707-.81h0a.853.853,0,0,1,.935.53l-.128-.752A.835.835,0,0,0,3722.5,815.583Z" transform="translate(-3604.04 -788.984)"/>
      <path id="Trazado_33874" data-name="Trazado 33874" class="cls-26" d="M3731.667,809.654a2.211,2.211,0,1,0,2.552,1.808A2.211,2.211,0,0,0,3731.667,809.654Z" transform="translate(-3604.574 -788.713)"/>
      <path id="Trazado_33875" data-name="Trazado 33875" class="cls-26" d="M3734.128,805.8l-12.345,2.1a2.911,2.911,0,0,0-2.372,3.349h0a2.911,2.911,0,0,0,3.348,2.373l12.345-2.106a2.91,2.91,0,0,0,2.373-3.349h0A2.91,2.91,0,0,0,3734.128,805.8Z" transform="translate(-3604.565 -787.6)"/>
      <path id="Trazado_33876" data-name="Trazado 33876" class="cls-26" d="M3729.25,802.211c-1.231.228-2.4,1.828-2.606,3.572s.622,2.974,1.853,2.745,2.4-1.828,2.606-3.572S3730.481,801.982,3729.25,802.211Z" transform="translate(-3604.404 -787.6)"/>
      <path id="Trazado_33877" data-name="Trazado 33877" class="cls-6" d="M3740.186,828.768l-.043.008,1.026,6.02.985-.168a.835.835,0,0,0,.663-1.126l-1.325-3.944A1.217,1.217,0,0,0,3740.186,828.768Z" transform="translate(-3605.06 -789.708)"/>
      <path id="Trazado_33878" data-name="Trazado 33878" class="cls-22" d="M3738.523,836.555l-.8.136a.837.837,0,0,0-.681.962l.3,1.779a.4.4,0,0,0,.457.324l1.054-.18a1.015,1.015,0,0,0,.828-1.169l-.2-1.171A.835.835,0,0,0,3738.523,836.555Z" transform="translate(-3604.89 -790.051)"/>
      <path id="Trazado_33879" data-name="Trazado 33879" class="cls-6" d="M3733.039,833.779a2.611,2.611,0,0,1,.468.231c-.552,1.075-2.044,4.392-1.076,7.218a2.787,2.787,0,0,1-2.212.164c-1.646-.61-2.35-2.808-1.571-4.911S3731.392,833.169,3733.039,833.779Z" transform="translate(-3604.523 -789.995)"/>
      <path id="Trazado_33880" data-name="Trazado 33880" class="cls-6" d="M3750.242,794.026a3.372,3.372,0,1,0,4.248,2.164A3.371,3.371,0,0,0,3750.242,794.026Z" transform="translate(-3606.967 -787.6)"/>
      <path id="Trazado_33881" data-name="Trazado 33881" class="cls-15" d="M3745.48,789.325h0a2.961,2.961,0,0,0-.624,4.128l3.073,4.167a2.961,2.961,0,0,0,4.128.624h0a2.96,2.96,0,0,0,.624-4.128l-3.073-4.167A2.96,2.96,0,0,0,3745.48,789.325Z" transform="translate(-3606.967 -787.6)"/>
      <path id="Trazado_33882" data-name="Trazado 33882" class="cls-16" d="M3744.8,790.025a2.965,2.965,0,0,0,.053,3.428l3.073,4.167a2.94,2.94,0,0,0,1.1.908,5.328,5.328,0,0,0-4.227-8.5Z" transform="translate(-3606.967 -787.6)"/>
      <path id="Trazado_33883" data-name="Trazado 33883" class="cls-15" d="M3743.54,787.862a5.327,5.327,0,1,0,6.713,3.42A5.329,5.329,0,0,0,3743.54,787.862Z" transform="translate(-3605.401 -787.6)"/>
      <path id="Trazado_33884" data-name="Trazado 33884" class="cls-14" d="M3751.585,862.489a4.181,4.181,0,1,0-5.671,6.146c.054.05,18.1,16.149,16.394,19.947-1.359,3.023-20.911-2.788-20.97-2.809a4.189,4.189,0,1,0-2.756,7.912c.08.028,27.674,9.781,32.2-.3C3774.968,884.084,3751.652,862.551,3751.585,862.489Z" transform="translate(-3606.967 -793.861)"/>
      <path id="Trazado_33885" data-name="Trazado 33885" class="cls-31" d="M3699.529,843.43a.721.721,0,1,0,.832.589A.721.721,0,0,0,3699.529,843.43Z" transform="translate(-3602.806 -790.356)"/>
      <path id="Trazado_33886" data-name="Trazado 33886" class="cls-31" d="M3702.047,844.464a.721.721,0,1,0,.832.589A.721.721,0,0,0,3702.047,844.464Z" transform="translate(-3602.941 -790.407)"/>
      <path id="Trazado_33887" data-name="Trazado 33887" class="cls-31" d="M3704.428,844.984a.721.721,0,1,0,.832.59A.722.722,0,0,0,3704.428,844.984Z" transform="translate(-3603.068 -790.433)"/>
      <path id="Trazado_33888" data-name="Trazado 33888" class="cls-32" d="M3753.8,801.6a.721.721,0,1,1,.556.855A.72.72,0,0,1,3753.8,801.6Z" transform="translate(-3606.967 -787.6)"/>
      <path id="Trazado_33889" data-name="Trazado 33889" class="cls-32" d="M3754.738,804.157a.721.721,0,1,1,.556.854A.721.721,0,0,1,3754.738,804.157Z" transform="translate(-3606.967 -787.6)"/>
      <path id="Trazado_33890" data-name="Trazado 33890" class="cls-32" d="M3755.165,806.557a.721.721,0,1,1,.556.854A.72.72,0,0,1,3755.165,806.557Z" transform="translate(-3606.967 -787.6)"/>
      <path id="Trazado_33891" data-name="Trazado 33891" class="cls-22" d="M3738.982,838.528c-12.03,12.873-14.307-2.511-24.629-2.823a19.117,19.117,0,0,0-4.558-5.564c6.387-3.054,11.576.332,14.65,3.435,4.118,4.156,5.5,10.037,13.143,4.808Z" transform="translate(-3604.482 -789.88)"/>
      <path id="Trazado_33892" data-name="Trazado 33892" class="cls-21" d="M3743.016,860.168a1.163,1.163,0,0,1,1.267,1.038l.114,1.15a1.16,1.16,0,0,1-1.037,1.267l-1.972.2a1.16,1.16,0,0,1-1.267-1.038l-.115-1.151a1.159,1.159,0,0,1,1.038-1.267l1.972-.2Zm-2.174,1.089a.411.411,0,0,0-.091.3l.115,1.151a.41.41,0,0,0,.448.366l1.972-.2a.41.41,0,0,0,.366-.448l-.114-1.15a.412.412,0,0,0-.448-.367l-1.972.2A.42.42,0,0,0,3740.842,861.257Z" transform="translate(-3605.125 -791.247)"/>
      <path id="Trazado_33893" data-name="Trazado 33893" class="cls-20" d="M3740.8,851.742a.529.529,0,1,0,.611.433A.53.53,0,0,0,3740.8,851.742Z" transform="translate(-3605.001 -790.757)"/>
      <path id="Trazado_33894" data-name="Trazado 33894" class="cls-20" d="M3739.784,845.77a.529.529,0,1,0,.61.432A.529.529,0,0,0,3739.784,845.77Z" transform="translate(-3604.946 -790.463)"/>
      <path id="Trazado_33895" data-name="Trazado 33895" class="cls-20" d="M3738.927,840.745a.529.529,0,1,0,.61.433A.53.53,0,0,0,3738.927,840.745Z" transform="translate(-3604.901 -790.216)"/>
      <path id="Trazado_33896" data-name="Trazado 33896" class="cls-6" d="M3734.017,829.82l.043-.007,1.027,6.02-.985.168a.835.835,0,0,1-1-.842l-.057-4.16A1.216,1.216,0,0,1,3734.017,829.82Z" transform="translate(-3604.651 -789.765)"/>
      <path id="Trazado_33897" data-name="Trazado 33897" class="cls-15" d="M3687.981,830.823a5.327,5.327,0,1,1,2.424,7.133A5.328,5.328,0,0,1,3687.981,830.823Z" transform="translate(-3602.453 -789.743)"/>
      <g id="Grupo_10568" data-name="Grupo 10568" transform="translate(16.222 51.704)">
        <path id="Trazado_33898" data-name="Trazado 33898" class="cls-6" d="M3621.3,842.987l-2.692,8.153a1.142,1.142,0,0,0,.724,1.438h0a1.143,1.143,0,0,0,1.439-.725l2.692-8.153a1.144,1.144,0,0,0-.725-1.439h0A1.142,1.142,0,0,0,3621.3,842.987Z" transform="translate(-3613.611 -842.206)"/>
        <path id="Trazado_33899" data-name="Trazado 33899" class="cls-6" d="M3624.468,846.308a2.51,2.51,0,0,1,3.513,3.028l0,0a2.508,2.508,0,1,1-4.764-1.573v-.005a2.5,2.5,0,0,1,1.252-1.454Zm.34,1.985a.831.831,0,0,0,1.578.521l0,0a.83.83,0,0,0-1.163-1,.824.824,0,0,0-.415.477Z" transform="translate(-3613.611 -842.206)"/>
        <path id="Trazado_33900" data-name="Trazado 33900" class="cls-6" d="M3614.992,845.018a2.509,2.509,0,0,1,3.513,3.027v0a2.509,2.509,0,1,1-4.765-1.572v-.005a2.5,2.5,0,0,1,1.252-1.454Zm.34,1.985a.83.83,0,0,0,1.162,1,.834.834,0,0,0,.416-.478v0a.83.83,0,0,0-1.577-.521Z" transform="translate(-3613.611 -842.206)"/>
      </g>
      <path id="Trazado_33901" data-name="Trazado 33901" class="cls-11" d="M3679,886.1l16.838-4.97a3.02,3.02,0,0,1-3.741-2.036l-.756-2.56-3.293-11.159-.655-2.218a2.855,2.855,0,0,0-3.535-1.923l-11.379,3.359a2.852,2.852,0,0,0-1.925,3.534l.655,2.219L3674.5,881.5l.755,2.56A3.02,3.02,0,0,0,3679,886.1Z" transform="translate(-3601.886 -792.063)"/>
      <path id="Trazado_33902" data-name="Trazado 33902" class="cls-33" d="M3673.322,865.158l25.061-7.479a4.323,4.323,0,0,1-5.471-2.731l-1.038-3.557-1.261-4.323-.9-3.083a4.083,4.083,0,0,0-5.168-2.579l-16.938,5.054a4.144,4.144,0,0,0-2.956,5l.9,3.083,1.262,4.323,1.037,3.557A4.325,4.325,0,0,0,3673.322,865.158Z" transform="translate(-3601.759 -790.825)"/>
      <path id="Trazado_33903" data-name="Trazado 33903" class="cls-11" d="M3673.322,865.158l12.59-3.757a26.517,26.517,0,0,0-21.205-12.191,3.743,3.743,0,0,0-.054,2.253l.9,3.082,1.261,4.325,1.038,3.556A4.322,4.322,0,0,0,3673.322,865.158Z" transform="translate(-3601.418 -791.041)"/>
      <rect id="Rectángulo_8779" data-name="Rectángulo 8779" class="cls-34" width="21.542" height="17.118" transform="translate(73.338 67.302) rotate(-24.328)"/>
      <rect id="Rectángulo_8780" data-name="Rectángulo 8780" class="cls-10" width="21.542" height="17.119" transform="matrix(0.807, -0.59, 0.59, 0.807, 68.925, 71.541)"/>
      <g id="Grupo_10571" data-name="Grupo 10571" transform="translate(82.85 60.534)">
        <rect id="Rectángulo_8781" data-name="Rectángulo 8781" class="cls-35" width="3.735" height="0.406" transform="translate(4.786 12.008) rotate(-34.505)"/>
        <rect id="Rectángulo_8782" data-name="Rectángulo 8782" class="cls-35" width="1.448" height="0.407" transform="translate(6.102 11.904) rotate(-34.506)"/>
        <rect id="Rectángulo_8783" data-name="Rectángulo 8783" class="cls-36" width="13.008" height="6.961" transform="translate(0 11.211) rotate(-59.532)"/>
        <g id="Grupo_10569" data-name="Grupo 10569" transform="translate(0.416 0.709)">
          <rect id="Rectángulo_8784" data-name="Rectángulo 8784" class="cls-37" width="11.364" height="0.639" transform="matrix(0.507, -0.862, 0.862, 0.507, 0, 9.794)"/>
          <rect id="Rectángulo_8785" data-name="Rectángulo 8785" class="cls-37" width="11.364" height="0.639" transform="matrix(0.507, -0.862, 0.862, 0.507, 5.449, 13)"/>
        </g>
        <g id="Grupo_10570" data-name="Grupo 10570" transform="translate(4.144 4.273)">
          <path id="Trazado_33904" data-name="Trazado 33904" class="cls-38" d="M3689.727,857.175a2.5,2.5,0,1,0,3.425-.888A2.5,2.5,0,0,0,3689.727,857.175Z" transform="translate(-3689.381 -855.941)"/>
          <path id="Trazado_33905" data-name="Trazado 33905" class="cls-39" d="M3690.436,857.587l-.005.009a.836.836,0,0,0,.3,1.141l.044.026h0a.155.155,0,0,0,.055.211l.08.047a.154.154,0,0,0,.211-.055h0l.044.026a.837.837,0,0,0,.905-.039l.267.157-.108.183a.828.828,0,0,0,.293,1.13l.155.092a2.237,2.237,0,0,0,1.448-2.362l-.2-.116a.827.827,0,0,0-1.13.293l-.108.183-.266-.157a.836.836,0,0,0-.406-.81l-.044-.026h0a.155.155,0,0,0-.055-.211l-.08-.047a.155.155,0,0,0-.211.055h0l-.043-.026A.836.836,0,0,0,3690.436,857.587Z" transform="translate(-3689.381 -855.941)"/>
        </g>
        <path id="Trazado_33906" data-name="Trazado 33906" class="cls-39" d="M3693.142,854.8a.762.762,0,1,0,1.044-.271A.762.762,0,0,0,3693.142,854.8Z" transform="translate(-3685.236 -851.668)"/>
        <path id="Trazado_33907" data-name="Trazado 33907" class="cls-39" d="M3689.072,861.721a.762.762,0,1,0,1.043-.27A.761.761,0,0,0,3689.072,861.721Z" transform="translate(-3685.236 -851.668)"/>
        <rect id="Rectángulo_8786" data-name="Rectángulo 8786" class="cls-37" width="2.236" height="0.711" transform="translate(4.769 12.901) rotate(-59.529)"/>
        <rect id="Rectángulo_8787" data-name="Rectángulo 8787" class="cls-35" width="3.735" height="0.406" transform="translate(1.748 11.124) rotate(-59.531)"/>
        <rect id="Rectángulo_8788" data-name="Rectángulo 8788" class="cls-35" width="1.448" height="0.406" transform="translate(2.896 10.473) rotate(-59.532)"/>
        <rect id="Rectángulo_8789" data-name="Rectángulo 8789" class="cls-40" width="2.236" height="1.156" transform="translate(10.155 5.4) rotate(-59.535)"/>
        <rect id="Rectángulo_8790" data-name="Rectángulo 8790" class="cls-40" width="2.236" height="1.156" transform="matrix(0.507, -0.862, 0.862, 0.507, 5.151, 2.456)"/>
      </g>
      <g id="Grupo_10574" data-name="Grupo 10574" transform="translate(19.243 73.397)">
        <rect id="Rectángulo_8791" data-name="Rectángulo 8791" class="cls-35" width="0.514" height="4.722" transform="translate(3.213 5.96) rotate(-23.657)"/>
        <rect id="Rectángulo_8792" data-name="Rectángulo 8792" class="cls-35" width="0.514" height="1.831" transform="matrix(0.916, -0.401, 0.401, 0.916, 3.028, 7.619)"/>
        <rect id="Rectángulo_8793" data-name="Rectángulo 8793" class="cls-36" width="8.802" height="16.447" transform="translate(0 6.611) rotate(-48.685)"/>
        <g id="Grupo_10572" data-name="Grupo 10572" transform="translate(0.781 0.686)">
          <rect id="Rectángulo_8794" data-name="Rectángulo 8794" class="cls-37" width="0.808" height="14.369" transform="matrix(0.66, -0.751, 0.751, 0.66, 5.278, 0.607)"/>
          <rect id="Rectángulo_8795" data-name="Rectángulo 8795" class="cls-37" width="0.808" height="14.369" transform="translate(0 6.611) rotate(-48.68)"/>
        </g>
        <g id="Grupo_10573" data-name="Grupo 10573" transform="translate(6.573 6.146)">
          <path id="Trazado_33908" data-name="Trazado 33908" class="cls-38" d="M3628.458,872.327a3.164,3.164,0,1,0,.288,4.466A3.165,3.165,0,0,0,3628.458,872.327Z" transform="translate(-3623.205 -871.539)"/>
          <path id="Trazado_33909" data-name="Trazado 33909" class="cls-39" d="M3627.779,873.111l-.011-.009a1.056,1.056,0,0,0-1.487.1l-.043.048h0a.2.2,0,0,0-.275.018l-.078.088a.2.2,0,0,0,.018.275h0l-.042.048a1.054,1.054,0,0,0-.166,1.133l-.259.294-.2-.177a1.046,1.046,0,0,0-1.473.1l-.15.171a2.824,2.824,0,0,0,2.587,2.359l.192-.219a1.047,1.047,0,0,0-.094-1.473l-.2-.178.258-.293a1.059,1.059,0,0,0,1.1-.311l.042-.048h0a.2.2,0,0,0,.275-.018l.078-.088a.2.2,0,0,0-.018-.275h0l.042-.048A1.058,1.058,0,0,0,3627.779,873.111Z" transform="translate(-3623.205 -871.539)"/>
        </g>
        <path id="Trazado_33910" data-name="Trazado 33910" class="cls-39" d="M3630.593,877.134a.963.963,0,1,0,.088,1.36A.964.964,0,0,0,3630.593,877.134Z" transform="translate(-3616.632 -865.393)"/>
        <path id="Trazado_33911" data-name="Trazado 33911" class="cls-39" d="M3622.969,870.432a.964.964,0,1,0,.087,1.36A.964.964,0,0,0,3622.969,870.432Z" transform="translate(-3616.632 -865.393)"/>
        <rect id="Rectángulo_8796" data-name="Rectángulo 8796" class="cls-37" width="0.899" height="2.827" transform="translate(1.984 6.196) rotate(-48.682)"/>
        <rect id="Rectángulo_8797" data-name="Rectángulo 8797" class="cls-35" width="0.514" height="4.722" transform="matrix(0.66, -0.751, 0.751, 0.66, 5.165, 2.577)"/>
        <rect id="Rectángulo_8798" data-name="Rectángulo 8798" class="cls-35" width="0.514" height="1.831" transform="translate(5.699 4.158) rotate(-48.684)"/>
        <rect id="Rectángulo_8799" data-name="Rectángulo 8799" class="cls-40" width="1.461" height="2.827" transform="translate(9.647 15.091) rotate(-48.687)"/>
        <rect id="Rectángulo_8800" data-name="Rectángulo 8800" class="cls-40" width="1.461" height="2.827" transform="translate(14.494 9.578) rotate(-48.679)"/>
      </g>
      <path id="Trazado_33912" data-name="Trazado 33912" class="cls-33" d="M3679.683,884.726l2.748-.811-5.443-18.442a2.946,2.946,0,0,1-1.987,3.649h0a2.946,2.946,0,0,1-3.65-1.985l.542,1.834,3.293,11.159.756,2.559A3.021,3.021,0,0,0,3679.683,884.726Z" transform="translate(-3601.559 -792.078)"/>
      <path id="Trazado_33913" data-name="Trazado 33913" class="cls-41" d="M3707.332,877.736l-28.479,8.406a3.02,3.02,0,0,0,2.037-3.741l-.756-2.56-3.294-11.159-.654-2.219a2.854,2.854,0,0,1,1.924-3.533l23.02-6.795a2.854,2.854,0,0,1,3.534,1.922l.655,2.219,3.294,11.159.755,2.56A3.02,3.02,0,0,1,3707.332,877.736Z" transform="translate(-3602.497 -791.966)"/>
      <path id="Trazado_33914" data-name="Trazado 33914" class="cls-42" d="M3677.373,863.269a2.812,2.812,0,0,1,.737-.339l23.02-6.795a2.855,2.855,0,0,1,3.534,1.922l.655,2.219,3.294,11.159.215.728a49.529,49.529,0,0,1-6.442.416C3690.843,872.579,3681.023,868.693,3677.373,863.269Z" transform="translate(-3602.513 -791.435)"/>
      <rect id="Rectángulo_8801" data-name="Rectángulo 8801" class="cls-43" width="2.622" height="4.72" rx="0.712" transform="translate(95.96 77.219) rotate(-16.447)"/>
      <rect id="Rectángulo_8802" data-name="Rectángulo 8802" class="cls-43" width="2.622" height="4.72" rx="0.712" transform="translate(85.017 80.459) rotate(-16.435)"/>
      <path id="Rectángulo_8803" data-name="Rectángulo 8803" class="cls-44" d="M.4,0h.857a.4.4,0,0,1,.4.4v.667a.4.4,0,0,1-.4.4H.4a.4.4,0,0,1-.4-.4V.4A.4.4,0,0,1,.4,0Z" transform="translate(97.15 79.541) rotate(-16.464)"/>
      <path id="Rectángulo_8804" data-name="Rectángulo 8804" class="cls-44" d="M.4,0h.857a.4.4,0,0,1,.4.4v.667a.4.4,0,0,1-.4.4H.4a.4.4,0,0,1-.4-.4V.4A.4.4,0,0,1,.4,0Z" transform="translate(86.2 82.787) rotate(-16.446)"/>
      <path id="Trazado_33915" data-name="Trazado 33915" class="cls-45" d="M3693.335,859.994l-3.748,1.106a1.15,1.15,0,0,0-.775,1.424h0a1.15,1.15,0,0,0,1.424.775l3.748-1.106a1.149,1.149,0,0,0,.775-1.424h0A1.149,1.149,0,0,0,3693.335,859.994Z" transform="translate(-3602.392 -791.228)"/>
      <path id="Trazado_33916" data-name="Trazado 33916" class="cls-6" d="M3746.286,814.055c-.411-.2-.963.108-1.233.677a1.021,1.021,0,0,0,.256,1.383c.411.2.963-.108,1.233-.677A1.021,1.021,0,0,0,3746.286,814.055Z" transform="translate(-3606.967 -788.911)"/>
      <path id="Trazado_33917" data-name="Trazado 33917" class="cls-6" d="M3747.278,811.965c-.236-.113-.554.062-.709.389a.586.586,0,0,0,.147.795c.236.113.554-.062.709-.389A.587.587,0,0,0,3747.278,811.965Z" transform="translate(-3606.967 -787.6)"/>
      <path id="Trazado_33918" data-name="Trazado 33918" class="cls-6" d="M3737.833,881.748a1.021,1.021,0,0,0-1.376-.292c-.575.255-.893.8-.709,1.215a1.022,1.022,0,0,0,1.376.292C3737.7,882.708,3738.017,882.164,3737.833,881.748Z" transform="translate(-3604.799 -792.24)"/>
      <path id="Trazado_33919" data-name="Trazado 33919" class="cls-6" d="M3739.949,880.812a.588.588,0,0,0-.791-.168c-.332.147-.514.46-.408.7a.588.588,0,0,0,.791.168C3739.872,881.365,3740.055,881.052,3739.949,880.812Z" transform="translate(-3604.922 -792.175)"/>
      <path id="Trazado_33920" data-name="Trazado 33920" class="cls-6" d="M3727.194,874.856c-.453-.033-.858.449-.9,1.077s.285,1.164.739,1.2.858-.449.9-1.077S3727.648,874.889,3727.194,874.856Z" transform="translate(-3604.274 -791.937)"/>
      <path id="Trazado_33921" data-name="Trazado 33921" class="cls-6" d="M3727.362,872.548c-.261-.019-.494.259-.52.62s.164.669.425.688.494-.258.52-.619S3727.623,872.567,3727.362,872.548Z" transform="translate(-3604.277 -791.79)"/>
      <path id="Trazado_33922" data-name="Trazado 33922" class="cls-46" d="M3724.9,803.928c-1.6.273-2.762,2.208-2.589,4.32s1.613,3.6,3.216,3.329,2.761-2.207,2.588-4.319S3726.506,803.655,3724.9,803.928Z" transform="translate(-3604.22 -787.6)"/>
      <path id="Trazado_33923" data-name="Trazado 33923" class="cls-46" d="M3729.4,806.975a3.927,3.927,0,0,0-2.323,2.368c-.469,1.168-.189,2,.626,1.864a3.931,3.931,0,0,0,2.324-2.367C3730.493,807.671,3730.213,806.836,3729.4,806.975Z" transform="translate(-3604.372 -787.6)"/>
      <path id="Trazado_33924" data-name="Trazado 33924" class="cls-46" d="M3720.595,808.477a3.929,3.929,0,0,1,2.977,1.463c.83.947.842,1.828.027,1.967a3.93,3.93,0,0,1-2.977-1.464C3719.792,809.5,3719.78,808.616,3720.595,808.477Z" transform="translate(-3604.032 -787.6)"/>
      <path id="Trazado_33925" data-name="Trazado 33925" class="cls-46" d="M3733.908,810.526a2.805,2.805,0,0,1-1.045,2.126c-.676.592-1.3.6-1.4.02a2.806,2.806,0,0,1,1.045-2.126C3733.18,809.953,3733.809,809.945,3733.908,810.526Z" transform="translate(-3604.583 -787.6)"/>
      <path id="Trazado_33926" data-name="Trazado 33926" class="cls-46" d="M3734.621,808.964a.852.852,0,0,1-.318.648c-.206.181-.4.183-.428.006a.855.855,0,0,1,.319-.648C3734.4,808.79,3734.591,808.787,3734.621,808.964Z" transform="translate(-3604.643 -787.6)"/>
      <path id="Trazado_33927" data-name="Trazado 33927" class="cls-29" d="M3726.692,818.155s-1.471-.878-2.245-.233S3725.789,818.877,3726.692,818.155Z" transform="translate(-3604.196 -789.079)"/>
      <g id="Grupo_10576" data-name="Grupo 10576" transform="translate(17.268 18.604)">
        <path id="Trazado_33928" data-name="Trazado 33928" class="cls-6" d="M3617.134,811.2l15.536-4.983.035-.012s-2.339,2.437-1.739,4.3l.706,2.2,1.067,3.327,1.794,5.591h0l.706,2.2a3.579,3.579,0,0,1-2.308,4.487l-15.642,5.018s-.176.043-.026-.03a3.58,3.58,0,0,0,1.837-4.3l-3.568-11.121h0l-.706-2.2A3.579,3.579,0,0,1,3617.134,811.2Z" transform="translate(-3614.657 -806.204)"/>
        <g id="Grupo_10575" data-name="Grupo 10575" transform="translate(3.157 5.597)">
          <path id="Trazado_33929" data-name="Trazado 33929" class="cls-9" d="M3618.748,816.356l9.755-3.129a.428.428,0,0,1,.536.276h0a.428.428,0,0,1-.275.537l-9.755,3.129a.428.428,0,0,1-.537-.276h0a.428.428,0,0,1,.276-.537Zm-.637-1.986a.428.428,0,0,0-.276.537h0a.428.428,0,0,0,.536.276l3.342-1.072a.428.428,0,0,0,.276-.537h0a.428.428,0,0,0-.536-.276l-3.342,1.072Zm4.606-1.477a.427.427,0,0,0-.276.536h0a.429.429,0,0,0,.537.277l3.342-1.072a.43.43,0,0,0,.276-.537h0a.427.427,0,0,0-.536-.275l-3.342,1.072Zm-3.332,5.449a.43.43,0,0,0-.276.537h0a.428.428,0,0,0,.537.276l9.755-3.129a.428.428,0,0,0,.275-.537h0a.427.427,0,0,0-.536-.276l-9.755,3.129Zm.637,1.986a.428.428,0,0,0-.276.537h0a.429.429,0,0,0,.537.276l4.471-1.434a.428.428,0,0,0,.276-.537h0a.428.428,0,0,0-.537-.276l-4.471,1.434Zm5.961-1.912a.427.427,0,0,0-.275.536h0a.43.43,0,0,0,.537.276l.587-.188a.43.43,0,0,0,.276-.537h0a.427.427,0,0,0-.537-.276l-.587.188Zm2.054-.659.587-.188a.428.428,0,0,1,.537.276h0a.429.429,0,0,1-.276.537l-.587.188a.428.428,0,0,1-.537-.276h0a.429.429,0,0,1,.276-.537Zm-7.378,4.557a.429.429,0,0,0-.276.537h0a.428.428,0,0,0,.537.276l9.755-3.129a.427.427,0,0,0,.275-.537h0a.429.429,0,0,0-.537-.276l-9.755,3.129Zm.638,1.986,4.47-1.434a.428.428,0,0,1,.537.276h0a.428.428,0,0,1-.276.537l-4.471,1.434a.426.426,0,0,1-.536-.276h0A.427.427,0,0,1,3621.3,824.3Z" transform="translate(-3617.814 -811.801)"/>
        </g>
      </g>
      <g id="Grupo_10577" data-name="Grupo 10577" transform="translate(56.12 31.558)">
        <path id="Trazado_33930" data-name="Trazado 33930" class="cls-6" d="M3657.631,821.188h0a1.415,1.415,0,0,1,1.885.653l3.4,7a1.415,1.415,0,0,1-.653,1.885h0a1.414,1.414,0,0,1-1.885-.653l-3.4-7A1.415,1.415,0,0,1,3657.631,821.188Z" transform="translate(-3656.827 -821.047)"/>
        <path id="Trazado_33931" data-name="Trazado 33931" class="cls-9" d="M3661.139,828.418h0a1.04,1.04,0,0,1,1.383.479l.331.684,2.613,5.385.332.684a1.036,1.036,0,0,1-.479,1.382h0a1.039,1.039,0,0,1-1.383-.479l-.331-.685-2.613-5.384-.332-.684A1.036,1.036,0,0,1,3661.139,828.418Z" transform="translate(-3656.827 -821.047)"/>
        <path id="Trazado_33932" data-name="Trazado 33932" class="cls-47" d="M3664.991,836.358h0a.364.364,0,0,1,.485.168l.672,1.385a.363.363,0,0,1-.168.485h0a.364.364,0,0,1-.485-.169l-.672-1.385A.364.364,0,0,1,3664.991,836.358Z" transform="translate(-3656.827 -821.047)"/>
        <path id="Trazado_33933" data-name="Trazado 33933" class="cls-9" d="M3657.055,823.036h0a.406.406,0,0,1,.541.188l2,4.115a.405.405,0,0,1-.187.541h0a.406.406,0,0,1-.541-.187l-2-4.115A.406.406,0,0,1,3657.055,823.036Z" transform="translate(-3656.827 -821.047)"/>
      </g>
      <path id="Trazado_33934" data-name="Trazado 33934" class="cls-4" d="M3658.842,845.262l-.045-.531-.34-3.964a.985.985,0,0,0,.206-.685l-.466-5.433a.989.989,0,1,0-1.97.169v.006a.287.287,0,0,0-.2.3l.274,3.194a.283.283,0,0,0,.246.257l.144,1.68a.985.985,0,0,0,.319.64l.34,3.964.045.531a.729.729,0,0,0,.526.634l.074.854a.254.254,0,0,0,.275.232h0a.255.255,0,0,0,.232-.275l-.073-.854A.726.726,0,0,0,3658.842,845.262Z" transform="translate(-3600.542 -790.115)"/>
      <path id="Trazado_33935" data-name="Trazado 33935" class="cls-6" d="M3716.034,819.765l-4.258-5.1-.852,2.625-6.041-7.987.733,5.252-10.542-8.4,13.052,12.541-.678-3.913,5.078,5.5.06-3.25Z" transform="translate(-3603.236 -787.6)"/>
      <path id="Trazado_33936" data-name="Trazado 33936" class="cls-22" d="M3695.639,886.889l-12.917,2.739,3.818,3.938-19.647,3.187,9.909,3.6-24.55,10.715,34.165-11.269-7.5-2.448,14.382-3.808-5.653-3.127Z" transform="translate(-3601.208 -793.861)"/>
      <g id="Grupo_10578" data-name="Grupo 10578" transform="translate(36.376 60.79)">
        <path id="Rectángulo_8805" data-name="Rectángulo 8805" class="cls-48" d="M1.4,0h.517a1.4,1.4,0,0,1,1.4,1.4V9.145a1.4,1.4,0,0,1-1.4,1.4H1.4A1.4,1.4,0,0,1,0,9.145V1.4A1.4,1.4,0,0,1,1.4,0Z" transform="matrix(0.871, -0.492, 0.492, 0.871, 5.278, 9.246)"/>
        <path id="Trazado_33937" data-name="Trazado 33937" class="cls-49" d="M3645.517,862.121l3.114,5.525a1.405,1.405,0,0,1-.533,1.908l-.289.163-3.114-5.525a1.405,1.405,0,0,1,.533-1.909Z" transform="translate(-3635.97 -852.065)"/>
        <path id="Trazado_33938" data-name="Trazado 33938" class="cls-31" d="M3637.9,853.084l.945-.533a3.8,3.8,0,0,1,5.164,1.441l1.419,2.518a3.8,3.8,0,0,1-1.441,5.164l-.945.533a3.8,3.8,0,0,1-5.164-1.442l-1.419-2.517a3.8,3.8,0,0,1,1.441-5.164Zm.481,2.952a.79.79,0,0,0-.3,1.072h0a.789.789,0,0,0,1.072.3l2.742-1.545a.789.789,0,0,0,.3-1.071h0a.789.789,0,0,0-1.071-.3Z" transform="translate(-3635.97 -852.065)"/>
        <path id="Trazado_33939" data-name="Trazado 33939" class="cls-50" d="M3641.465,858.311a1.217,1.217,0,1,1-.463,1.657A1.216,1.216,0,0,1,3641.465,858.311Z" transform="translate(-3635.97 -852.065)"/>
      </g>
      <path id="Trazado_33940" data-name="Trazado 33940" class="cls-4" d="M3647,874.668l.39-.286c.58-.426.657-1.061.172-1.411l-4.824-3.471a2.123,2.123,0,0,0,.289-2.547,15.3,15.3,0,0,0-3.949-.221.828.828,0,0,1-.136.129l-2.371,1.743a1,1,0,0,1-1.089.078c-.273-.2-.229-.553.1-.792l1.044-.767a14.413,14.413,0,0,0-3.358,1.286,1.941,1.941,0,0,0,.854,1.455l1.821,1.31a4.593,4.593,0,0,0,4.3.163l4.824,3.471A1.778,1.778,0,0,0,3647,874.668Z" transform="translate(-3599.455 -791.73)"/>
      <g id="Grupo_10579" data-name="Grupo 10579" transform="translate(48.138 61.911)">
        <path id="Trazado_33941" data-name="Trazado 33941" class="cls-51" d="M3651.765,853.577a1.6,1.6,0,0,1-.33,2.371,2,2,0,0,1-2.622.083,1.6,1.6,0,0,1,.331-2.371A2,2,0,0,1,3651.765,853.577Z" transform="translate(-3648.28 -852.788)"/>
        <path id="Trazado_33942" data-name="Trazado 33942" class="cls-52" d="M3651.624,853.239a1.6,1.6,0,0,1-.331,2.371,2,2,0,0,1-2.621.083,1.6,1.6,0,0,1,.331-2.371A2,2,0,0,1,3651.624,853.239Z" transform="translate(-3648.28 -852.788)"/>
        <path id="Trazado_33943" data-name="Trazado 33943" class="cls-53" d="M3651.624,853.239a1.335,1.335,0,0,1,.353.624,3.086,3.086,0,0,1-.411.413,3.163,3.163,0,0,1-3.286.484,1.873,1.873,0,0,1,.723-1.438A2,2,0,0,1,3651.624,853.239Z" transform="translate(-3648.28 -852.788)"/>
        <path id="Trazado_33944" data-name="Trazado 33944" class="cls-54" d="M3651.132,853.648a1.067,1.067,0,0,1-.22,1.581,1.332,1.332,0,0,1-1.748.055,1.067,1.067,0,0,1,.22-1.581A1.332,1.332,0,0,1,3651.132,853.648Z" transform="translate(-3648.28 -852.788)"/>
        <path id="Trazado_33945" data-name="Trazado 33945" class="cls-51" d="M3651.133,853.644a.928.928,0,0,1,.207.972.9.9,0,0,0-.252-.774,1.334,1.334,0,0,0-1.749.055,1.361,1.361,0,0,0-.427.61,1.3,1.3,0,0,1,.473-.808A1.333,1.333,0,0,1,3651.133,853.644Z" transform="translate(-3648.28 -852.788)"/>
        <path id="Trazado_33946" data-name="Trazado 33946" class="cls-53" d="M3650.274,854.986c-.528.439-1.06-.258-.942-.434.3-.448.67.49.761.15.032-.119-.58-.333-.07-.757s1.017.217.906.392c-.278.436-.634-.433-.722-.111C3650.175,854.343,3650.792,854.556,3650.274,854.986Z" transform="translate(-3648.28 -852.788)"/>
      </g>
      <g id="Grupo_10580" data-name="Grupo 10580" transform="translate(72.128 42.384)">
        <path id="Trazado_33947" data-name="Trazado 33947" class="cls-51" d="M3676.554,832.666a3.394,3.394,0,0,1,2.724,3.338,2.389,2.389,0,0,1-2.86,2.385,3.393,3.393,0,0,1-2.723-3.338A2.388,2.388,0,0,1,3676.554,832.666Z" transform="translate(-3673.694 -832.275)"/>
        <path id="Trazado_33948" data-name="Trazado 33948" class="cls-52" d="M3676.953,832.315a3.394,3.394,0,0,1,2.724,3.338,2.389,2.389,0,0,1-2.86,2.385,3.393,3.393,0,0,1-2.723-3.338A2.388,2.388,0,0,1,3676.953,832.315Z" transform="translate(-3673.694 -832.275)"/>
        <path id="Trazado_33949" data-name="Trazado 33949" class="cls-53" d="M3676.953,832.315a3.108,3.108,0,0,1,1.215.5,4.2,4.2,0,0,1,.075.89,3.544,3.544,0,0,1-3.089,3.478,3.372,3.372,0,0,1-1.06-2.479A2.388,2.388,0,0,1,3676.953,832.315Z" transform="translate(-3673.694 -832.275)"/>
        <path id="Trazado_33950" data-name="Trazado 33950" class="cls-54" d="M3676.931,833.268a2.264,2.264,0,0,1,1.816,2.226,1.593,1.593,0,0,1-1.907,1.591,2.262,2.262,0,0,1-1.816-2.226A1.593,1.593,0,0,1,3676.931,833.268Z" transform="translate(-3673.694 -832.275)"/>
        <path id="Trazado_33951" data-name="Trazado 33951" class="cls-51" d="M3676.927,833.263a2.223,2.223,0,0,1,1.5,1.07,2.175,2.175,0,0,0-1.3-.776,1.594,1.594,0,0,0-1.908,1.591,2.178,2.178,0,0,0,.313,1.156,2.222,2.222,0,0,1-.519-1.451A1.592,1.592,0,0,1,3676.927,833.263Z" transform="translate(-3673.694 -832.275)"/>
        <path id="Trazado_33952" data-name="Trazado 33952" class="cls-53" d="M3677.707,835.737c-.024,1.022-1.538.588-1.634.26-.247-.838,1.4.048,1.058-.468-.12-.181-1.091.075-1.067-.914.024-1.015,1.433-.6,1.536-.283.256.8-1.282-.006-.962.484C3676.755,834.995,3677.731,834.733,3677.707,835.737Z" transform="translate(-3673.694 -832.275)"/>
      </g>
      <path id="Trazado_33953" data-name="Trazado 33953" class="cls-22" d="M3676.337,831.45l-11.507-6.477,4.821-2.615-17.795-8.917,10.531-.467-20.222-17.567,29.231,20.971-7.893.091,12.585,7.935-6.33,1.293Z" transform="translate(-3600.311 -787.6)"/>
      <g id="Grupo_10581" data-name="Grupo 10581" transform="translate(50.366 83.366)">
        <path id="Trazado_33954" data-name="Trazado 33954" class="cls-51" d="M3660.635,880.552c.251,2.285-1.755,4.174-4.48,4.22s-5.137-1.768-5.387-4.053,1.756-4.174,4.481-4.22S3660.385,878.267,3660.635,880.552Z" transform="translate(-3650.747 -875.593)"/>
        <path id="Trazado_33955" data-name="Trazado 33955" class="cls-52" d="M3660.9,879.647c.25,2.284-1.756,4.174-4.481,4.22s-5.136-1.768-5.386-4.053,1.755-4.174,4.48-4.22S3660.647,877.362,3660.9,879.647Z" transform="translate(-3650.747 -875.593)"/>
        <path id="Trazado_33956" data-name="Trazado 33956" class="cls-53" d="M3660.9,879.647a3.388,3.388,0,0,1-.3,1.818,7.739,7.739,0,0,1-1.49.167,8.135,8.135,0,0,1-7.363-4.319,4.8,4.8,0,0,1,3.764-1.719C3658.235,875.548,3660.647,877.362,3660.9,879.647Z" transform="translate(-3650.747 -875.593)"/>
        <path id="Trazado_33957" data-name="Trazado 33957" class="cls-54" d="M3659.254,879.675c.167,1.524-1.171,2.783-2.989,2.815a3.426,3.426,0,0,1-3.592-2.7c-.167-1.523,1.17-2.783,2.988-2.815A3.428,3.428,0,0,1,3659.254,879.675Z" transform="translate(-3650.747 -875.593)"/>
        <path id="Trazado_33958" data-name="Trazado 33958" class="cls-51" d="M3659.262,879.669a2.39,2.39,0,0,1-1.15,2.28,2.318,2.318,0,0,0,.739-1.957,3.425,3.425,0,0,0-3.593-2.7,3.469,3.469,0,0,0-1.838.534,3.325,3.325,0,0,1,2.249-.858A3.427,3.427,0,0,1,3659.262,879.669Z" transform="translate(-3650.747 -875.593)"/>
        <path id="Trazado_33959" data-name="Trazado 33959" class="cls-53" d="M3655.378,880.975c-1.763.03-1.708-2.224-1.189-2.387,1.323-.416.553,2.062,1.283,1.527.256-.188-.625-1.6,1.08-1.629,1.75-.03,1.689,2.07,1.184,2.242-1.26.427-.574-1.887-1.267-1.384C3656.216,879.528,3657.109,880.946,3655.378,880.975Z" transform="translate(-3650.747 -875.593)"/>
      </g>
      <path id="Trazado_33960" data-name="Trazado 33960" class="cls-51" d="M3645.169,830.224a5.523,5.523,0,0,1,5.131-4.779,3.888,3.888,0,0,1,4.178,4.391,5.524,5.524,0,0,1-5.131,4.78A3.889,3.889,0,0,1,3645.169,830.224Z" transform="translate(-3600.054 -789.59)"/>
      <path id="Trazado_33961" data-name="Trazado 33961" class="cls-4" d="M3643.548,838.85a3.848,3.848,0,0,1,4.448-2.018,2.709,2.709,0,0,1,1.785,3.826,3.847,3.847,0,0,1-4.447,2.017A2.708,2.708,0,0,1,3643.548,838.85Z" transform="translate(-3599.912 -790.117)"/>
      <path id="Trazado_33962" data-name="Trazado 33962" class="cls-52" d="M3644.556,829.613a5.526,5.526,0,0,1,5.132-4.779,3.889,3.889,0,0,1,4.178,4.391,5.524,5.524,0,0,1-5.131,4.78A3.89,3.89,0,0,1,3644.556,829.613Z" transform="translate(-3600.02 -789.558)"/>
      <path id="Trazado_33963" data-name="Trazado 33963" class="cls-53" d="M3644.556,829.613a5.048,5.048,0,0,1,.677-2.025,6.82,6.82,0,0,1,1.437-.216,5.765,5.765,0,0,1,5.977,4.646,5.5,5.5,0,0,1-3.912,1.987A3.89,3.89,0,0,1,3644.556,829.613Z" transform="translate(-3600.001 -789.647)"/>
      <path id="Trazado_33964" data-name="Trazado 33964" class="cls-54" d="M3646.107,829.549a3.683,3.683,0,0,1,3.422-3.187,2.593,2.593,0,0,1,2.787,2.928,3.684,3.684,0,0,1-3.423,3.187A2.593,2.593,0,0,1,3646.107,829.549Z" transform="translate(-3600.059 -789.587)"/>
      <path id="Trazado_33965" data-name="Trazado 33965" class="cls-51" d="M3646.1,829.556a3.614,3.614,0,0,1,1.578-2.556,3.539,3.539,0,0,0-1.121,2.188,2.593,2.593,0,0,0,2.786,2.929,3.532,3.532,0,0,0,1.844-.631,3.617,3.617,0,0,1-2.3,1A2.594,2.594,0,0,1,3646.1,829.556Z" transform="translate(-3600.041 -789.609)"/>
      <path id="Trazado_33966" data-name="Trazado 33966" class="cls-53" d="M3650.033,828.025c1.663-.069,1.12,2.435.6,2.627-1.335.489-.071-2.278-.873-1.669-.282.214.238,1.764-1.37,1.831-1.651.069-1.136-2.264-.624-2.465,1.277-.5.127,2.083.889,1.51C3648.93,829.65,3648.4,828.093,3650.033,828.025Z" transform="translate(-3600.087 -789.617)"/>
      <path id="Trazado_33967" data-name="Trazado 33967" class="cls-6" d="M3701.624,885.295c.277.643-.22,1.476-1.11,1.859a1.569,1.569,0,0,1-2.113-.469c-.278-.643.219-1.475,1.109-1.859A1.573,1.573,0,0,1,3701.624,885.295Z" transform="translate(-3602.833 -792.44)"/>
      <path id="Trazado_33968" data-name="Trazado 33968" class="cls-6" d="M3704.894,883.883c.16.371-.126.85-.637,1.07a.9.9,0,0,1-1.216-.27c-.16-.37.126-.849.637-1.07A.906.906,0,0,1,3704.894,883.883Z" transform="translate(-3603.039 -792.34)"/>
    </g>
  </g>
</svg>
